<svg id="Layer_1" data-name="Layer 1" xmlns="http://www.w3.org/2000/svg" viewBox="0 0 632.385 296.238">
  <defs>
    <style>
      .cls-1 {
        fill: none;
        stroke: #1a1818;
        stroke-miterlimit: 10;
        stroke-width: 4px;
      }

      .cls-2 {
        fill: #1a1818;
      }

      .cls-3 {
        fill: #e7713e;
      }
    </style>
  </defs>
  <title>logob</title>
  <path class="cls-1" d="M254.539,258.009" transform="translate(-104.731 -147.36)"/>
  <path class="cls-1" d="M254.539,258.009" transform="translate(-104.731 -147.36)"/>
  <path class="cls-1" d="M254.539,258.009" transform="translate(-104.731 -147.36)"/>
  <path class="cls-1" d="M254.539,258.009" transform="translate(-104.731 -147.36)"/>
  <path class="cls-2" d="M293.194,162.326l3.3-8.811h-8.817l-3.3,8.811h8.817m-6.6,17.629,3.3-8.811h-8.817l-3.3,8.811H286.6M280,197.583l3.3-8.811h-8.817l-3.3,8.811H280m-6.6,17.628,3.3-8.811H267.88l-3.3,8.811H273.4m-6.6,17.629,3.3-8.811h-8.817l-3.3,8.811H266.8m-6.6,17.628,3.3-8.811h-8.817l-3.3,8.811H260.2" transform="translate(-104.731 -147.36)"/>
  <path class="cls-2" d="M270.1,261.723a75.022,75.022,0,0,0-7.739-3.8h-9.476a75.02,75.02,0,0,1,7.739,3.8H270.1m16.573,12.42q-1.275-1.246-2.529-2.363c-1.6-1.432-3.2-2.746-4.779-3.952h-9.476c1.579,1.206,3.178,2.52,4.779,3.952q1.251,1.117,2.529,2.363h9.476M296.625,286a80.088,80.088,0,0,0-4.932-6.461h-9.476A80.08,80.08,0,0,1,287.149,286h9.476m8.76,16.431a87.073,87.073,0,0,0-4.123-8.821h-9.476a87.07,87.07,0,0,1,4.123,8.821h9.476m5.863,21.583a104.845,104.845,0,0,0-2.462-11.467H299.31a104.839,104.839,0,0,1,2.462,11.467h9.476m1.359,25.513q.113-2.969.114-6,0-3.385-.159-6.6h-9.476q.157,3.217.159,6.6,0,3.036-.114,6h9.476M310.14,370.99q1.014-5.1,1.632-10.469H302.3q-.617,5.367-1.632,10.469h9.476m-5.622,19.269q1.792-4.521,3.2-9.341h-9.476q-1.406,4.818-3.2,9.341h9.476m-8.693,16.829A89.739,89.739,0,0,0,300.548,399h-9.476a89.734,89.734,0,0,1-4.724,8.091h9.476M284.078,421.3q.933-.9,1.841-1.837,2.312-2.381,4.431-4.95h-9.476q-2.119,2.568-4.431,4.95-.908.935-1.841,1.837h9.476m-14.843,11.332a79.564,79.564,0,0,0,7.716-5.2h-9.476a79.565,79.565,0,0,1-7.716,5.2h9.476m-16.912,7.509a79.658,79.658,0,0,0,8.684-3.264H251.53a79.658,79.658,0,0,1-8.684,3.264h9.476" transform="translate(-104.731 -147.36)"/>
  <path class="cls-2" d="M324.593,162.306l3.3-8.811h-8.817l-3.3,8.811h8.817m-6.6,17.629,3.3-8.811h-8.817l-3.3,8.811h8.817m-6.6,17.628,3.3-8.811h-8.817l-3.3,8.811H311.4m-6.6,17.628,3.3-8.811h-8.817l-3.3,8.811H304.8m-6.6,17.629,3.3-8.811h-8.817l-3.3,8.811H298.2m-6.6,17.628,3.3-8.811h-8.817l-3.3,8.811H291.6" transform="translate(-104.731 -147.36)"/>
  <path class="cls-2" d="M303.022,260.03a75.022,75.022,0,0,0-7.739-3.8h-9.476a75.02,75.02,0,0,1,7.739,3.8h9.476m16.573,12.42q-1.275-1.246-2.529-2.363c-1.6-1.432-3.2-2.746-4.779-3.952h-9.476c1.579,1.206,3.178,2.52,4.779,3.952q1.251,1.117,2.529,2.363h9.476m9.954,11.852a80.088,80.088,0,0,0-4.932-6.461H315.14a80.08,80.08,0,0,1,4.932,6.461h9.476m8.76,16.431a87.073,87.073,0,0,0-4.123-8.821H324.71a87.07,87.07,0,0,1,4.123,8.821h9.476m5.863,21.583a104.845,104.845,0,0,0-2.462-11.467h-9.476a104.839,104.839,0,0,1,2.462,11.467h9.476m1.359,25.513q.113-2.969.114-6,0-3.385-.159-6.6h-9.476q.157,3.217.159,6.6,0,3.036-.114,6h9.476M343.064,369.3q1.014-5.1,1.632-10.469h-9.476q-.617,5.367-1.632,10.469h9.476m-5.622,19.269q1.792-4.521,3.2-9.341h-9.476q-1.406,4.818-3.2,9.341h9.476m-8.693,16.829a89.738,89.738,0,0,0,4.724-8.091H324a89.734,89.734,0,0,1-4.724,8.091h9.476M317,419.607q.933-.9,1.841-1.837,2.312-2.381,4.431-4.95H313.8q-2.119,2.568-4.431,4.95-.908.935-1.841,1.837H317m-14.843,11.332a79.564,79.564,0,0,0,7.716-5.2H300.4a79.565,79.565,0,0,1-7.716,5.2h9.476m-16.912,7.509a79.658,79.658,0,0,0,8.684-3.264h-9.476a79.658,79.658,0,0,1-8.684,3.264h9.476" transform="translate(-104.731 -147.36)"/>
  <g>
    <g>
      <path class="cls-2" d="M534.348,147.36l-9.135,28.049h-36.39l-20.951,64.33h28.047l-7.032,21.591H460.84l-30.521,93.713H401.827L469.465,147.36Z" transform="translate(-104.731 -147.36)"/>
      <path class="cls-2" d="M708.366,147.36q13.356,0,22.421,6.343t5.148,18.364L676.343,355.044H647.85l56.837-174.518q1.667-5.117-5.456-5.12h-6.9l-58.5,179.638H605.78l56.837-174.518q1.667-5.117-5.234-5.12H650.26l-58.5,179.638H563.263L630.9,147.36Z" transform="translate(-104.731 -147.36)"/>
      <polygon class="cls-2" points="484.774 0 483.533 3.811 478.709 18.623 417.135 207.684 445.182 207.684 506.756 18.623 512.821 0 484.774 0"/>
      <g>
        <polygon class="cls-2" points="375.293 207.684 403.786 207.684 459.39 36.952 430.897 36.952 375.293 207.684"/>
        <polygon class="cls-3" points="442.932 0 441.7 3.783 433.798 28.046 462.29 28.046 471.424 0 442.932 0"/>
      </g>
    </g>
    <polygon class="cls-2" points="268.5 295.486 280.116 295.486 291.369 260.933 302.803 260.933 305.439 252.837 294.006 252.837 301.862 228.716 319.013 228.716 322.437 218.2 293.671 218.2 268.5 295.486"/>
    <polygon class="cls-2" points="302.708 295.486 331.475 295.486 334.9 284.969 317.749 284.969 326.529 258.011 337.962 258.011 340.518 250.166 329.084 250.166 336.07 228.716 353.221 228.716 356.645 218.2 327.879 218.2 302.708 295.486"/>
    <path class="cls-2" d="M487.789,407.078q1.857-5.758-1.075-7.5a21.146,21.146,0,0,0-7.321-2.482q-3.936-.739-7.34-1.439t-2.489-3.538l2.234-6.927,2.153-6.676a4.618,4.618,0,0,1,2.785-3.01,11.2,11.2,0,0,1,4.174-.845,7.429,7.429,0,0,1,3.728.823q1.456.831.757,3l-4.01,12.435,11.868-.783,2.422-7.511,2.342-7.261q1.857-5.758-2.745-8.373a21.9,21.9,0,0,0-11.05-2.6,32.483,32.483,0,0,0-12.564,2.661q-6.3,2.643-8.154,8.4l-3.19,9.891-3.189,9.889q-1.777,5.51,1.251,7.377a20.243,20.243,0,0,0,6.963,2.607q4.117.741,7.471,1.314t2.357,3.663l-3,9.306-3.082,9.557a4.632,4.632,0,0,1-2.6,2.842,10.207,10.207,0,0,1-4.338.929,6.85,6.85,0,0,1-3.609-.907,2.175,2.175,0,0,1-.9-2.833l5.706-17.694-11.686.781-3.23,10.017-3.23,10.015q-1.83,5.674,2.691,8.539a19.629,19.629,0,0,0,10.787,2.848,31.28,31.28,0,0,0,12.813-2.87q6.365-2.852,8.221-8.611l4.078-12.645Z" transform="translate(-104.731 -147.36)"/>
    <polygon class="cls-2" points="397.151 228.716 410.127 228.716 388.381 295.486 399.815 295.486 421.561 228.716 434.537 228.716 437.962 218.2 400.575 218.2 397.151 228.716"/>
    <polygon class="cls-2" points="473.211 264.939 479.359 218.2 467.652 218.2 457.273 295.486 468.979 295.486 508.942 218.2 497.235 218.2 473.211 264.939"/>
    <path class="cls-2" d="M647.825,367.272a19.573,19.573,0,0,0-10.768-2.88,31.221,31.221,0,0,0-12.812,2.838q-6.369,2.837-8.244,8.6l-21.827,67.02h11.615l11.253-34.553h11.434l-11.253,34.553h11.434l21.827-67.02Q652.332,370.152,647.825,367.272ZM631.113,400.2H619.679l6.932-21.284a4.637,4.637,0,0,1,2.6-2.838,10.184,10.184,0,0,1,4.338-.918,6.83,6.83,0,0,1,3.6.918,2.178,2.178,0,0,1,.89,2.838Z" transform="translate(-104.731 -147.36)"/>
    <polygon class="cls-2" points="546.408 284.997 546.448 284.969 568.193 218.2 556.578 218.2 531.414 295.464 531.383 295.486 620.403 295.486 623.819 284.997 546.408 284.997"/>
    <polygon class="cls-2" points="447.016 218.2 446.925 218.2 446.461 219.626 444.434 225.848 443.484 228.767 442.391 232.122 439.381 241.364 421.632 295.862 421.723 295.862 433.157 295.862 433.248 295.862 450.997 241.364 454.006 232.122 455.099 228.767 456.05 225.848 458.541 218.2 458.45 218.2 447.016 218.2"/>
  </g>
  <path d="M419.619,175.406l10.5-28.046H340.891L302.306,250.448c.37.173.792.378,1.232.6l.475.238.409.209c.214.111.438.229.665.349.143.076.285.15.433.231.264.142.54.3.818.45.122.068.238.131.363.2q.61.345,1.261.728c.651.384,1.341.811,2.047,1.257l.47.3c.716.46,1.453.947,2.215,1.471.113.078.23.162.344.241.637.443,1.289.912,1.952,1.4.178.132.355.261.535.4.762.572,1.538,1.172,2.328,1.806.141.113.284.234.425.349q1.006.819,2.035,1.71c.2.169.39.336.587.509.8.708,1.617,1.445,2.434,2.219.389.368.779.751,1.17,1.135.2.2.4.39.607.593q.911.911,1.825,1.876,1.154,1.221,2.332,2.566c.5.569,1,1.162,1.5,1.765.135.163.27.328.406.494q.638.782,1.278,1.6c.087.112.174.219.261.332q.748.968,1.493,1.991c.122.167.244.339.366.509q.606.843,1.209,1.721c.131.191.261.378.392.571.2.292.393.591.589.889s.384.581.574.878.386.61.578.918.379.6.567.912.385.64.576.963.37.621.553.937.377.663.565,1,.366.648.547.978.368.684.551,1.028.358.67.535,1.012.361.712.541,1.07.349.692.52,1.044.352.737.526,1.107.338.713.5,1.076c.173.378.342.765.512,1.15.163.369.327.736.487,1.111s.328.784.49,1.179.317.765.472,1.154.316.812.472,1.221c.151.393.3.784.45,1.184.154.417.3.842.453,1.266.143.4.288.806.428,1.216.146.428.287.865.429,1.3.137.419.275.836.408,1.261s.268.884.4,1.327.261.866.387,1.307.252.915.377,1.374c.121.444.243.886.359,1.336.12.466.234.94.349,1.412s.226.915.333,1.38.213.962.318,1.446c.1.467.2.931.3,1.4.149.73.289,1.474.427,2.22.056.305.117.6.172.912q.28,1.589.525,3.222c.028.187.05.381.078.569.13.9.255,1.815.367,2.74.048.394.088.8.132,1.193.082.734.163,1.47.234,2.217.029.3.052.608.078.912.149,1.7.276,3.416.363,5.179l0,.05c.086,1.765.13,3.573.15,5.406.006.53.019,1.051.019,1.586,0,1.853-.038,3.684-.1,5.5-.021.59-.058,1.171-.085,1.757-.057,1.233-.121,2.461-.208,3.676-.043.608-.1,1.21-.148,1.814q-.146,1.733-.331,3.441c-.067.616-.136,1.231-.211,1.841q-.244,1.991-.542,3.947c-.046.3-.084.6-.132.9q-.387,2.414-.862,4.769c-.068.341-.143.678-.214,1.017q-.409,1.955-.876,3.868c-.077.316-.15.635-.23.95q-.559,2.209-1.2,4.36c-.091.306-.186.609-.279.913-.272.889-.567,1.761-.859,2.634q-.6,1.811-1.269,3.576c-.236.628-.468,1.258-.715,1.878-.493,1.24-1.016,2.456-1.552,3.662-.215.483-.416.976-.638,1.453q-1.163,2.5-2.448,4.9c-.668,1.242-1.366,2.457-2.085,3.655q-.244.406-.491.809c-.753,1.226-1.524,2.436-2.331,3.615-.025.036-.052.071-.077.108-.761,1.109-1.555,2.189-2.364,3.255q-.409.54-.828,1.07-.989,1.262-2.024,2.479c-.248.292-.49.589-.741.878-.962,1.1-1.946,2.186-2.964,3.234-1.1,1.129-2.228,2.211-3.378,3.267-.546.5-1.1.987-1.661,1.472-.4.345-.79.7-1.193,1.033-.641.535-1.3,1.048-1.952,1.561-.364.285-.722.581-1.09.859-.832.628-1.68,1.231-2.534,1.825-.2.142-.4.295-.608.435q-1.6,1.088-3.24,2.093c-.313.192-.635.367-.951.554-.789.468-1.579.934-2.382,1.374-.428.235-.866.451-1.3.678-.7.369-1.407.737-2.121,1.084-.478.232-.963.449-1.445.671-.683.315-1.367.629-2.059.925-.505.216-1.017.419-1.527.625-.682.275-1.365.546-2.055.8-.526.2-1.055.381-1.585.565q-1.03.357-2.07.69-.81.257-1.626.5-1.048.308-2.106.587c-.547.145-1.094.286-1.644.42-.716.173-1.437.333-2.16.487-.548.117-1.095.235-1.646.341-.741.142-1.487.266-2.234.388-.541.088-1.08.182-1.623.259-.782.112-1.571.2-2.359.291-.515.058-1.027.126-1.544.175-.875.082-1.756.138-2.637.194-.437.027-.871.068-1.309.089-1.322.062-2.649.1-3.983.1h29.135c1.334,0,2.662-.035,3.983-.1.438-.021.872-.061,1.309-.089.881-.055,1.762-.111,2.637-.194.517-.049,1.029-.117,1.544-.175.788-.09,1.576-.179,2.359-.291.544-.078,1.083-.171,1.623-.259.747-.122,1.493-.246,2.234-.388.551-.106,1.1-.224,1.646-.341.723-.154,1.443-.314,2.16-.487.551-.133,1.1-.275,1.645-.42q1.057-.28,2.1-.586.817-.24,1.628-.5,1.04-.329,2.067-.689c.531-.184,1.061-.37,1.587-.566.689-.256,1.372-.526,2.053-.8.511-.206,1.022-.409,1.528-.625.692-.3,1.376-.61,2.059-.925.482-.223.967-.439,1.445-.671.713-.347,1.416-.715,2.119-1.083.433-.227.872-.444,1.3-.679.8-.44,1.591-.9,2.379-1.372.316-.188.639-.364.953-.556q1.643-1.006,3.24-2.093c.206-.14.4-.293.608-.435.854-.594,1.7-1.2,2.534-1.825.369-.278.726-.574,1.09-.859.655-.513,1.311-1.026,1.952-1.561.4-.337.8-.688,1.193-1.033.445-.386.9-.76,1.336-1.157.111-.1.215-.213.325-.315,1.15-1.056,2.282-2.137,3.378-3.267q1.361-1.4,2.656-2.869c.105-.119.2-.245.308-.365.252-.288.494-.586.741-.878q1.033-1.219,2.023-2.479.418-.533.829-1.072c.2-.266.413-.522.611-.79q.9-1.212,1.751-2.463c.025-.037.052-.072.077-.108q.914-1.337,1.784-2.714c.187-.3.363-.6.546-.9q.248-.4.492-.811c.7-1.159,1.376-2.332,2.023-3.532.021-.04.04-.082.061-.122q1.289-2.4,2.448-4.9c.046-.1.1-.192.146-.292.175-.379.322-.779.493-1.162.536-1.205,1.059-2.421,1.552-3.661.094-.237.2-.462.3-.7.15-.385.273-.792.419-1.18q.661-1.764,1.267-3.571c.123-.369.268-.722.388-1.094.164-.511.315-1.032.473-1.547.092-.3.187-.6.277-.907.377-1.271.74-2.553,1.076-3.854.043-.168.08-.34.123-.509.08-.314.152-.633.229-.949q.468-1.914.877-3.871c.071-.339.145-.675.214-1.015.04-.2.085-.39.124-.588q.4-2.067.739-4.181c.047-.3.086-.6.132-.9.142-.925.286-1.849.41-2.786.051-.384.086-.778.133-1.165.075-.608.143-1.22.21-1.834q.187-1.712.332-3.452c.051-.6.1-1.2.147-1.8.021-.3.053-.593.073-.894.06-.923.092-1.863.136-2.8.027-.582.064-1.158.085-1.744.063-1.817.1-3.648.1-5.5q0-.516,0-1.028c0-.192-.013-.372-.016-.564-.02-1.83-.064-3.636-.15-5.4l0-.062c-.087-1.759-.213-3.475-.362-5.167-.015-.167-.021-.344-.036-.51-.013-.138-.03-.27-.043-.408-.07-.741-.15-1.47-.232-2.2-.045-.4-.086-.813-.135-1.213-.111-.912-.234-1.81-.362-2.7-.029-.2-.053-.407-.083-.607q-.243-1.631-.524-3.216c-.056-.316-.119-.624-.177-.938-.136-.737-.274-1.472-.422-2.194-.018-.09-.034-.184-.053-.274-.08-.385-.168-.759-.251-1.14-.1-.481-.207-.965-.317-1.439s-.223-.928-.336-1.39-.227-.938-.346-1.4-.242-.9-.364-1.355-.245-.909-.372-1.356-.259-.879-.39-1.316-.263-.886-.4-1.322-.273-.848-.411-1.27-.28-.863-.425-1.288-.289-.823-.434-1.233-.3-.837-.447-1.249-.3-.8-.457-1.2-.308-.808-.466-1.2-.316-.776-.475-1.162-.323-.787-.488-1.173-.326-.747-.491-1.119-.336-.764-.507-1.139-.337-.724-.507-1.083-.347-.74-.524-1.1-.349-.7-.524-1.052-.355-.711-.535-1.059-.359-.681-.539-1.019-.364-.687-.549-1.023-.367-.658-.551-.985-.372-.662-.559-.986-.371-.631-.558-.945-.381-.643-.574-.959-.378-.609-.567-.912-.385-.616-.578-.917-.385-.591-.579-.885-.387-.59-.582-.879c-.051-.076-.1-.155-.153-.231-.081-.119-.163-.23-.245-.348q-.6-.873-1.2-1.711c-.124-.172-.247-.346-.371-.516q-.744-1.019-1.491-1.988c-.088-.114-.175-.222-.263-.335q-.637-.816-1.273-1.594-.206-.252-.411-.5c-.5-.6-.992-1.187-1.486-1.752l-.008-.01h0q-1.175-1.346-2.331-2.566-.913-.967-1.825-1.876c-.2-.2-.4-.391-.6-.589-.354-.347-.709-.7-1.061-1.035-.038-.037-.076-.068-.114-.1-.817-.774-1.627-1.509-2.431-2.217-.2-.174-.393-.341-.589-.511q-1.028-.889-2.034-1.709c-.1-.081-.2-.173-.3-.252-.043-.034-.083-.063-.125-.1-.79-.635-1.565-1.234-2.327-1.806-.181-.136-.358-.265-.537-.4q-.992-.733-1.947-1.4c-.082-.057-.17-.124-.251-.18l-.1-.065c-.762-.524-1.5-1.01-2.213-1.47l-.472-.3c-.706-.446-1.395-.872-2.046-1.256l-.015-.009c-.429-.253-.844-.492-1.246-.719-.124-.07-.239-.132-.36-.2-.28-.156-.557-.31-.823-.453-.146-.079-.284-.151-.425-.226-.23-.122-.456-.242-.674-.354l-.4-.206c-.1-.05-.2-.106-.3-.153-.066-.033-.115-.055-.18-.087-.441-.219-.861-.423-1.232-.6l28.087-75.042Z" transform="translate(-104.731 -147.36)"/>
  <path d="M290.168,342.334c0-.208-.014-.4-.017-.61q-.027-2.321-.126-4.565c-.009-.19-.013-.384-.022-.572-.08-1.6-.194-3.164-.328-4.7-.014-.164-.02-.339-.035-.5-.025-.271-.058-.533-.085-.8q-.084-.858-.18-1.7-.087-.773-.183-1.536-.106-.838-.223-1.662-.105-.746-.217-1.482c-.084-.546-.173-1.086-.264-1.624-.081-.479-.164-.958-.25-1.43-.1-.531-.2-1.056-.3-1.579-.057-.285-.107-.578-.166-.861-.024-.114-.054-.22-.078-.334q-.463-2.2-1-4.294c-.064-.249-.13-.495-.2-.742-.373-1.411-.764-2.794-1.183-4.137-.046-.149-.1-.293-.143-.441q-.636-2.005-1.333-3.913c-.034-.094-.066-.191-.1-.284-.475-1.284-.975-2.527-1.488-3.744-.083-.2-.166-.4-.25-.594q-.754-1.753-1.556-3.412c-.1-.2-.2-.4-.294-.6-.543-1.105-1.1-2.185-1.668-3.23-.077-.142-.156-.278-.234-.418-.587-1.062-1.185-2.1-1.8-3.1l-.06-.1c-.62-1.012-1.252-1.985-1.891-2.935-.059-.087-.115-.183-.174-.269s-.1-.14-.148-.212q-.54-.791-1.088-1.551c-.088-.122-.174-.249-.262-.37q-.679-.934-1.366-1.824c-.132-.171-.264-.334-.4-.5-.331-.422-.662-.84-1-1.248-.169-.207-.338-.409-.507-.612q-.454-.545-.91-1.073c-.092-.106-.183-.219-.275-.325-.051-.058-.1-.109-.152-.166q-1.107-1.26-2.214-2.418c-.1-.106-.2-.211-.3-.316q-1.108-1.147-2.205-2.194c-.051-.049-.1-.1-.154-.153s-.13-.118-.2-.181c-.522-.493-1.043-.975-1.559-1.436-.918-.82-1.833-1.588-2.746-2.332-.107-.087-.214-.186-.321-.272-.122-.1-.242-.185-.363-.282-.53-.423-1.057-.83-1.583-1.229-.214-.162-.429-.33-.643-.489-.73-.541-1.455-1.064-2.173-1.56l-.031-.022c-.065-.045-.127-.083-.192-.127q-1.005-.69-1.988-1.32c-.229-.147-.455-.288-.682-.431q-.77-.484-1.521-.934c-.128-.077-.262-.164-.39-.239-.089-.053-.173-.1-.262-.148-.731-.428-1.453-.839-2.153-1.22l-.108-.057c-.675-.365-1.328-.7-1.969-1.028-.078-.04-.163-.087-.241-.126-.1-.05-.189-.089-.288-.138-.706-.35-1.4-.682-2.052-.983l-.066-.031c-.685-.313-1.329-.591-1.951-.854-.067-.028-.144-.064-.21-.092-.121-.05-.231-.094-.349-.142l-.482-.2c-.243-.1-.478-.19-.709-.28l-.424-.164c-.242-.092-.472-.177-.7-.261l-.325-.12c-.322-.116-.629-.224-.914-.322l40.724-108.8H251.963v0H191.811l-10.5,28.046h55.539l-30.228,80.763c.285.1.592.206.914.322l.325.12c.226.083.456.168.7.261.137.052.282.109.424.164.23.09.466.182.709.28l.482.2c.182.075.371.155.559.234.622.262,1.267.541,1.951.854l.066.031c.656.3,1.346.633,2.052.983.175.087.351.174.529.264.64.323,1.295.662,1.969,1.028l.108.057c.7.381,1.422.792,2.153,1.22.215.126.434.257.651.387q.751.449,1.521.934c.227.143.453.284.682.431q.983.632,1.988,1.32c.075.051.148.1.223.149.717.5,1.443,1.019,2.173,1.56.214.159.429.327.644.489.525.4,1.051.8,1.581,1.227.229.182.458.37.687.557.912.744,1.828,1.512,2.745,2.331.516.46,1.036.943,1.559,1.436.117.11.234.223.351.334q1.1,1.047,2.2,2.192c.1.105.2.213.306.319q1.106,1.157,2.213,2.416.214.244.428.491.456.527.91,1.073c.169.2.338.405.507.612.333.408.664.826,1,1.248.132.168.265.332.4.5q.687.891,1.366,1.824c.088.121.175.248.262.37q.547.762,1.088,1.551c.108.158.214.321.322.481.639.95,1.272,1.923,1.891,2.935l.06.1c.611,1,1.208,2.037,1.8,3.1.078.14.156.277.234.418.57,1.045,1.125,2.124,1.668,3.23.1.2.2.4.294.6q.8,1.661,1.556,3.412c.084.2.167.4.25.594.513,1.217,1.013,2.46,1.488,3.744.035.093.067.19.1.284q.7,1.906,1.333,3.913c.047.148.1.292.143.441.419,1.343.81,2.726,1.183,4.137.065.247.131.493.2.742q.537,2.1,1,4.294c.083.4.164.795.243,1.2.1.523.206,1.048.3,1.579.087.473.169.951.25,1.43.091.538.18,1.078.264,1.624q.113.735.217,1.482.116.825.223,1.662.1.762.183,1.536.1.846.18,1.7c.042.432.081.868.12,1.3.135,1.539.249,3.1.328,4.7.009.188.013.383.022.572q.1,2.24.126,4.565c.006.528.02,1.048.02,1.582,0,1.854-.038,3.685-.1,5.5-.021.588-.058,1.165-.085,1.749-.057,1.235-.121,2.465-.208,3.681-.043.608-.1,1.21-.148,1.814q-.146,1.733-.331,3.441c-.067.616-.136,1.231-.211,1.841q-.244,1.99-.542,3.946c-.046.3-.084.6-.132.9q-.387,2.414-.862,4.769c-.068.341-.143.677-.214,1.016q-.409,1.956-.877,3.871c-.077.316-.15.635-.229.949q-.559,2.208-1.2,4.359c-.091.307-.186.61-.28.916-.272.888-.566,1.759-.858,2.632q-.605,1.812-1.269,3.578c-.235.627-.468,1.257-.714,1.876-.494,1.241-1.017,2.458-1.554,3.665-.214.482-.416.974-.637,1.45q-1.163,2.5-2.448,4.9c-.668,1.241-1.366,2.456-2.084,3.653q-.245.407-.493.812c-.753,1.226-1.524,2.436-2.33,3.614-.025.036-.052.071-.077.108-.761,1.109-1.555,2.188-2.363,3.254q-.41.541-.829,1.072-.988,1.26-2.021,2.476c-.249.293-.492.592-.744.881-.962,1.1-1.945,2.185-2.963,3.233-1.1,1.129-2.228,2.211-3.378,3.267-.546.5-1.1.986-1.66,1.47-.4.346-.792.7-1.2,1.036-.637.532-1.289,1.042-1.941,1.552-.368.288-.729.587-1.1.868-.7.528-1.414,1.032-2.13,1.534-35.418,18.772-63.756-1.147-63.756-1.147-.085-.068-.173-.132-.258-.2q-1.2-.965-2.35-1.991c-.224-.2-.442-.4-.664-.607q-.8-.726-1.574-1.477c-.324-.315-.643-.637-.962-.959q-.664-.672-1.311-1.365-.469-.5-.928-1.017c-.369-.413-.729-.835-1.089-1.259q-.7-.829-1.38-1.684c-.315-.4-.628-.8-.935-1.2-.447-.592-.88-1.2-1.309-1.81-.3-.43-.607-.858-.9-1.3-.253-.381-.5-.77-.745-1.158-.353-.555-.7-1.115-1.038-1.685-.242-.407-.477-.82-.711-1.234q-.485-.86-.946-1.741c-.223-.424-.443-.851-.658-1.282-.3-.605-.59-1.221-.874-1.84-.2-.431-.4-.86-.587-1.3-.284-.655-.552-1.323-.817-1.993-.167-.42-.339-.835-.5-1.262-.284-.761-.547-1.538-.807-2.318-.117-.352-.245-.7-.357-1.052q-.542-1.717-1.008-3.492c-.032-.122-.057-.25-.088-.373q-.4-1.583-.745-3.212c-.284-1.369-.539-2.758-.752-4.177-.01-.068-.016-.139-.026-.207q-.3-2.028-.5-4.124c-.122-1.279-.221-2.572-.286-3.888,0-.074,0-.151-.006-.225-.063-1.353-.1-2.723-.1-4.115H104.731q0,.327,0,.653c.008,1.162.044,2.306.1,3.44,0,.082,0,.167.007.249q.09,1.844.256,3.639c.008.084.022.164.03.247q.2,2.1.5,4.124c.01.068.015.139.026.207.214,1.419.468,2.809.753,4.178.014.069.023.141.038.209.212,1.008.452,2,.7,2.978.033.131.06.267.094.4q.463,1.776,1.008,3.489c.113.359.242.705.36,1.06.259.778.521,1.553.8,2.312.16.428.333.844.5,1.265.265.669.532,1.335.815,1.988.191.439.391.87.59,1.3.284.618.572,1.231.871,1.835.215.433.436.859.659,1.285q.462.88.945,1.739c.234.416.471.829.713,1.237.337.568.684,1.127,1.036,1.681.247.389.492.778.746,1.16.106.159.2.325.311.483.189.279.4.539.589.814.429.611.862,1.217,1.309,1.81.307.407.619.806.934,1.2q.678.857,1.381,1.686c.179.211.346.436.528.645s.374.406.559.612q.46.515.93,1.019.646.693,1.311,1.364c.319.322.637.644.962.959.157.153.307.314.465.465.363.346.738.676,1.108,1.013.222.2.44.408.664.607.753.666,1.516,1.319,2.295,1.948l.055.043c.085.068.173.132.258.2q1.061.847,2.154,1.647c.25.184.5.363.755.543.284.2.563.413.85.611.161.111.333.206.495.316,1.139.773,2.294,1.519,3.475,2.222.067.04.131.087.2.127l.049.027c1.254.739,2.536,1.426,3.831,2.086.15.077.293.166.444.242.181.09.37.163.551.252,1.207.591,2.427,1.155,3.664,1.679.108.045.211.1.318.146l.13.052c.168.07.338.133.506.2q1.153.469,2.322.9c.3.111.605.218.908.325s.617.227.928.332c.361.122.726.231,1.089.347.323.1.646.21.97.31q1.2.367,2.406.694c.177.048.353.1.53.149l.114.032q1.445.378,2.9.7c.268.059.538.108.806.164.593.124,1.185.253,1.781.363.147.027.3.047.444.073.426.076.853.142,1.28.211.624.1,1.247.2,1.873.284.444.061.888.114,1.333.167.345.041.688.093,1.033.129.25.026.5.039.75.063.536.051,1.072.1,1.609.135.564.042,1.127.079,1.691.109q.807.043,1.613.067c.3.01.594.031.892.037q.789.016,1.578.016h29.135c1.334,0,2.662-.035,3.983-.1.438-.021.872-.061,1.309-.089.881-.055,1.762-.111,2.637-.194.517-.049,1.029-.117,1.544-.175.788-.09,1.576-.179,2.359-.291.544-.078,1.083-.171,1.624-.259.747-.122,1.493-.246,2.234-.388.551-.106,1.1-.224,1.647-.341.722-.154,1.443-.313,2.159-.487.551-.133,1.1-.275,1.645-.42q1.057-.28,2.1-.586.817-.24,1.628-.5,1.04-.329,2.067-.689c.531-.184,1.061-.37,1.587-.566.689-.256,1.371-.526,2.053-.8.511-.206,1.023-.41,1.529-.626.691-.3,1.374-.609,2.056-.923.483-.223.969-.44,1.448-.673.712-.346,1.414-.714,2.116-1.082.434-.227.873-.445,1.3-.68.8-.44,1.594-.906,2.383-1.374.315-.187.636-.362.949-.553q1.643-1.007,3.241-2.094c.205-.14.4-.292.607-.434.854-.594,1.7-1.2,2.534-1.825.371-.28.73-.577,1.1-.864.653-.511,1.306-1.022,1.945-1.556.4-.337.8-.69,1.2-1.035.444-.386.9-.759,1.334-1.156.111-.1.215-.213.326-.315,1.15-1.056,2.282-2.137,3.378-3.267q1.361-1.4,2.656-2.869c.1-.119.2-.244.307-.364.253-.29.5-.588.744-.881q1.032-1.217,2.02-2.475.419-.534.83-1.074c.2-.266.413-.522.611-.79q.9-1.212,1.751-2.463c.025-.037.052-.072.077-.108q.914-1.337,1.784-2.714c.187-.3.363-.6.546-.9q.248-.4.493-.812c.695-1.159,1.375-2.331,2.023-3.532.021-.04.039-.082.061-.122q1.289-2.4,2.448-4.9c.046-.1.1-.192.145-.291.174-.378.322-.778.491-1.159.537-1.206,1.06-2.424,1.554-3.665.094-.237.2-.461.3-.7.149-.384.272-.79.418-1.177q.663-1.767,1.269-3.578c.123-.368.267-.719.387-1.09.164-.509.314-1.028.471-1.542.093-.305.189-.609.28-.916.376-1.27.739-2.55,1.075-3.851.043-.168.08-.34.123-.508.08-.314.152-.633.229-.949q.468-1.914.877-3.871c.071-.339.146-.675.214-1.016.039-.2.085-.39.124-.588q.4-2.067.738-4.181c.048-.3.086-.6.132-.9.142-.924.286-1.847.409-2.784.05-.383.086-.776.133-1.162.075-.611.144-1.225.211-1.841q.186-1.708.331-3.441c.051-.6.1-1.206.148-1.814.021-.3.053-.591.072-.891.06-.919.092-1.855.135-2.785.027-.587.065-1.167.085-1.757.063-1.816.1-3.646.1-5.5Q290.171,342.819,290.168,342.334Z" transform="translate(-104.731 -147.36)"/>
  <g>
    <g>
      <path class="cls-2" d="M670.069,425.77h8.091l-.836,2.348-.837,2.35h-14.17l.83-2.331.843-2.368,14.893-15.849a2.568,2.568,0,0,0,.529-.857l2.55-7.16a.979.979,0,0,0-.294-1.268,2.515,2.515,0,0,0-1.456-.411,4.037,4.037,0,0,0-1.806.411,2.186,2.186,0,0,0-1.142,1.268l-1.4,3.934-1.415,3.972q-1.267,0-2.4-.111c-.757-.076-1.508-.149-2.251-.225L671.388,405l1.594-4.475a6.618,6.618,0,0,1,3.605-3.84,12.442,12.442,0,0,1,5.337-1.268,7.223,7.223,0,0,1,4.351,1.287q1.78,1.285.876,3.821l-2.816,7.906a9.192,9.192,0,0,1-1.915,3.282Z" transform="translate(-104.731 -147.36)"/>
      <path class="cls-2" d="M694.53,425.881a6.3,6.3,0,0,1-3.572,3.748,12.843,12.843,0,0,1-5.23,1.174,8.057,8.057,0,0,1-4.466-1.174q-1.819-1.173-.9-3.748l9.032-25.357a6.618,6.618,0,0,1,3.605-3.84,12.441,12.441,0,0,1,5.336-1.268,7.339,7.339,0,0,1,4.36,1.268q1.786,1.267.87,3.84Zm3.547-25.245a2.517,2.517,0,0,0-1.458-.411,4.035,4.035,0,0,0-1.8.411,2.186,2.186,0,0,0-1.142,1.268l-8.049,22.6q-.346.97.229,1.342a2.743,2.743,0,0,0,1.508.373,4.433,4.433,0,0,0,1.737-.373,2.168,2.168,0,0,0,1.224-1.342l8.049-22.6A.979.979,0,0,0,698.077,400.637Z" transform="translate(-104.731 -147.36)"/>
      <path class="cls-2" d="M715.532,412.048h.225a7.341,7.341,0,0,1,4.358,1.268q1.786,1.267.909,3.729l-3.148,8.837a6.3,6.3,0,0,1-3.572,3.748,12.848,12.848,0,0,1-5.228,1.174,7.994,7.994,0,0,1-4.523-1.174q-1.765-1.173-.847-3.748l9.032-25.357a6.635,6.635,0,0,1,3.55-3.84,12.307,12.307,0,0,1,5.393-1.268,7.223,7.223,0,0,1,4.351,1.287q1.78,1.285.876,3.821L725.315,405l-1.594,4.475-4.818.336,2.816-7.906a.979.979,0,0,0-.294-1.268,2.515,2.515,0,0,0-1.456-.411,4.284,4.284,0,0,0-1.844.411,2.171,2.171,0,0,0-1.178,1.268l-3.679,10.33A20.452,20.452,0,0,1,715.532,412.048Zm.015,5.091a2.409,2.409,0,0,0-1.45-.428,4.171,4.171,0,0,0-1.851.428,2.236,2.236,0,0,0-1.184,1.285l-.492,1.381-1.674,4.7q-.346.97.268,1.342a2.937,2.937,0,0,0,1.546.373,4.432,4.432,0,0,0,1.735-.373,2.168,2.168,0,0,0,1.224-1.342l2.165-6.079A1.011,1.011,0,0,0,715.547,417.138Z" transform="translate(-104.731 -147.36)"/>
    </g>
    <polygon class="cls-2" points="602.703 248.578 602.477 249.213 601.412 252.203 590.404 283.109 595.103 283.109 606.111 252.203 607.402 248.578 602.703 248.578"/>
  </g>
</svg>
