<?xml version="1.0" standalone="no"?>
<!DOCTYPE svg PUBLIC "-//W3C//DTD SVG 1.1//EN" "http://www.w3.org/Graphics/SVG/1.1/DTD/svg11.dtd" >
<svg>
<metadata>
Created by FontForge 20090622 at Fri May 12 04:17:35 2017
 By deploy user
Copyright (c) 2014-2015, Sol Matas (www.huertatipografica.com - sol@huertatipografica.com)
</metadata>
<defs>
<font id="Kadwa-Regular" horiz-adv-x="638" >
  <font-face 
    font-family="Kadwa"
    font-weight="400"
    font-stretch="normal"
    units-per-em="2048"
    panose-1="0 0 5 0 0 0 0 0 0 0"
    ascent="1638"
    descent="-410"
    x-height="1085"
    cap-height="1434"
    bbox="-1407 -1233 4962 2464"
    underline-thickness="102"
    underline-position="-102"
    unicode-range="U+000D-U+FB02"
  />
<missing-glyph horiz-adv-x="1228" 
 />
    <glyph glyph-name="fi" unicode="fi" horiz-adv-x="1413" 
d="M276 1178q0 211 115 315t357 104q96 0 187 -15t149.5 -31.5t72.5 -22.5v-248h-164l-30 147l-76 9.5t-129 7.5q-276 0 -277 -225v-144l707 10v-921l153 -51v-113h-512v113l154 51v758h-502v-758l168 -51v-113h-547v113l174 51v758h-184v133l184 20v103z" />
    <glyph glyph-name="fl" unicode="fl" horiz-adv-x="1386" 
d="M276 1198q0 190 115 294.5t316 104.5q121 0 278.5 -8t206.5 -12v-1413l184 -51v-113h-547v113l154 51v1259q-25 4 -105.5 12.5t-150.5 8.5q-109 0 -177.5 -56.5t-68.5 -148.5v-164h271l-7 -153h-264v-758l168 -51v-113h-547v113l174 51v758h-184v133l184 20v123z" />
    <glyph glyph-name=".notdef" horiz-adv-x="1228" 
 />
    <glyph glyph-name=".null" horiz-adv-x="0" 
 />
    <glyph glyph-name="nonmarkingreturn" unicode="&#xd;" horiz-adv-x="471" 
 />
    <glyph glyph-name="space" unicode=" " horiz-adv-x="471" 
 />
    <glyph glyph-name="exclam" unicode="!" horiz-adv-x="655" 
d="M215 1536h236l-31 -1024l-174 -10zM233.5 228q38.5 38 94.5 38q61 0 97 -38t36 -105q0 -66 -38 -104.5t-95 -38.5q-61 0 -97 37.5t-36 105.5q0 67 38.5 105z" />
    <glyph glyph-name="quotedbl" unicode="&#x22;" horiz-adv-x="794" 
d="M133 1577h195l-41 -512h-154v512zM485 1577h197l-43 -512h-154v512z" />
    <glyph glyph-name="numbersign" unicode="#" horiz-adv-x="1413" 
d="M471 1229h164l-43 -318h297l43 318h164l-43 -318h227v-133h-246l-39 -297h234v-133h-252l-45 -348h-164l45 348h-297l-45 -348h-164l45 348h-219v133h238l39 297h-226v133h244zM870 778h-297l-38 -297h296z" />
    <glyph glyph-name="dollar" unicode="$" horiz-adv-x="1116" 
d="M326 -3q-80 15 -130.5 31.5t-62.5 22.5v328h143l41 -189q6 -4 31 -13t68 -18t96 -9q119 0 204 48t85 140q0 59 -36 99t-89 65.5t-150 58.5q-125 43 -199.5 82t-129 111.5t-54.5 187.5q0 156 97.5 245t251.5 111v238h153v-231q74 -6 147.5 -22.5t121 -33l59.5 -20.5
l-10 -307h-123l-52 184q-8 4 -35.5 13t-70.5 18.5t-88 9.5q-117 0 -181.5 -50t-64.5 -124q0 -59 37 -100.5t92 -68t152 -61.5q119 -43 194.5 -81.5t128 -107.5t52.5 -175q0 -162 -99.5 -260.5t-259.5 -126.5v-279h-153v267q-86 2 -166 17z" />
    <glyph glyph-name="percent" unicode="%" horiz-adv-x="1669" 
d="M186.5 1355.5q94.5 98.5 243.5 98.5q143 0 230.5 -89t87.5 -259q0 -178 -93.5 -273.5t-244.5 -95.5q-145 0 -231.5 86t-86.5 262q0 172 94.5 270.5zM502 0h-185l830 1434h184zM420 870q174 0 174 226q0 104 -43 164.5t-131 60.5t-131 -60.5t-43 -164.5q0 -226 174 -226z
M995.5 598q94.5 98 243.5 98q143 0 230 -89t87 -259q0 -178 -93 -273t-244 -95q-145 0 -231.5 86t-86.5 262q0 172 94.5 270zM1229 113q174 0 174 225q0 104 -43 164.5t-131 60.5t-131 -60.5t-43 -164.5q0 -225 174 -225z" />
    <glyph glyph-name="ampersand" unicode="&#x26;" horiz-adv-x="1372" 
d="M992 98.5q-134 -118.5 -367 -118.5q-244 0 -363 112.5t-119 306.5q0 109 61.5 194t138.5 138t77 47t-67.5 28t-121 102.5t-53.5 176.5q0 184 126 276.5t351 92.5q80 0 167 -18.5t146.5 -38t75.5 -25.5l-10 -287h-131l-43 164q-6 2 -33.5 9.5t-78 14.5t-113.5 7
q-121 0 -183.5 -55.5t-62.5 -149.5q0 -104 78 -169.5t188 -65.5h635v-123l-164 -41v-246q0 -213 -134 -331.5zM502.5 641q-66.5 -35 -105.5 -95.5t-39 -135.5q0 -127 76 -191.5t211 -64.5q131 0 204 68.5t73 197.5v256h-277q-76 0 -142.5 -35z" />
    <glyph glyph-name="quotesingle" unicode="'" horiz-adv-x="419" 
d="M113 1577h194l-41 -512h-153v512z" />
    <glyph glyph-name="parenleft" unicode="(" horiz-adv-x="675" 
d="M442 1088.5q-86 -263.5 -86 -504.5q0 -268 84 -556t234 -499h-182q-178 248 -259 493.5t-81 550.5q0 289 80.5 517.5t259.5 486.5h184q-148 -225 -234 -488.5z" />
    <glyph glyph-name="parenright" unicode=")" horiz-adv-x="675" 
d="M441 1090.5q81 -228.5 81 -517.5q0 -305 -81 -550.5t-259 -493.5h-182q150 211 233.5 498.5t83.5 556.5q0 242 -86 505t-233 488h184q178 -258 259 -486.5z" />
    <glyph glyph-name="asterisk" unicode="*" horiz-adv-x="825" 
d="M348 1247l-26 254l149 4l-14 -260l-56 -45zM457 1245l235 101l51 -144l-256 -59l-59 39zM313 1147l-262 51l49 143l248 -94l27 -65zM399 1081l-133 -231l-123 86l170 211l72 4zM659 940l-118 -90l-142 231l19 70l69 -8z" />
    <glyph glyph-name="plus" unicode="+" horiz-adv-x="1269" 
d="M549 1085h174v-460h444v-164h-444v-461h-174v461h-447v164h447v460z" />
    <glyph glyph-name="comma" unicode="," horiz-adv-x="542" 
d="M180 227q37 39 96 39t96.5 -35.5t37.5 -115.5q0 -84 -63.5 -199t-172.5 -231l-92 77q8 10 33.5 49t50 87.5t24.5 81.5q0 20 -18 53q-29 53 -29 96q0 59 37 98z" />
    <glyph glyph-name="hyphen" unicode="-" horiz-adv-x="768" 
d="M655 471h-532v174h532v-174z" />
    <glyph glyph-name="period" unicode="." horiz-adv-x="532" 
d="M172 228q39 38 94 38q61 0 97 -38t36 -105q0 -66 -37.5 -104.5t-95.5 -38.5q-61 0 -97 37.5t-36 105.5q0 67 39 105z" />
    <glyph glyph-name="slash" unicode="/" horiz-adv-x="1036" 
d="M297 0h-215l678 1434h215z" />
    <glyph glyph-name="zero" unicode="0" horiz-adv-x="1320" 
d="M1082.5 1277q115.5 -177 115.5 -540q0 -369 -131 -563t-401 -194t-396.5 185t-126.5 542q0 748 543 747q281 0 396.5 -177zM439.5 1144q-70.5 -136 -70.5 -427q0 -281 74.5 -422t232.5 -141t227.5 141t69.5 432q0 287 -66.5 420t-230.5 133q-166 0 -236.5 -136z" />
    <glyph glyph-name="one" unicode="1" horiz-adv-x="1048" 
d="M160 174h315v1024l-348 -225l-86 147l477 314h172v-1260h307v-174h-837v174z" />
    <glyph glyph-name="two" unicode="2" horiz-adv-x="1167" 
d="M510 562q141 140 215 257t74 225q0 109 -74 172.5t-203 63.5q-49 0 -97 -9t-79 -18.5t-39 -13.5l-20 -195h-164l-10 328q18 6 82.5 25.5t157.5 38t179 18.5q242 0 367 -91t125 -298q0 -131 -67.5 -260t-205 -276.5t-372.5 -354.5h686v-174h-973v174q277 248 418 388z" />
    <glyph glyph-name="three" unicode="3" horiz-adv-x="1126" 
d="M675 891.5q83 62.5 83 183.5q0 92 -72 148.5t-194 56.5q-55 0 -105.5 -9t-81.5 -18.5t-39 -13.5l-20 -184h-164l-10 317q18 6 82.5 25.5t161 38t186.5 18.5q219 0 345 -87t126 -271q0 -133 -66.5 -221.5t-199.5 -120.5q137 -29 217 -120t80 -204q0 -160 -81 -260
t-204 -145t-258 -45q-119 0 -212 22.5t-150.5 49t-57.5 30.5l61 164q0 -2 59.5 -26.5t141.5 -45t168 -20.5q141 0 224 69.5t83 196.5q0 115 -91 180.5t-247 65.5h-153v163h164q141 0 224 62.5z" />
    <glyph glyph-name="four" unicode="4" horiz-adv-x="1249" 
d="M932 512h235v-174h-235v-338h-211v338h-660l-20 154l655 972l236 -30v-922zM721 1188l-455 -676h455v676z" />
    <glyph glyph-name="five" unicode="5" horiz-adv-x="1085" 
d="M324 870h65q184 0 318.5 -54t205 -151.5t70.5 -224.5q0 -145 -73.5 -249.5t-191.5 -157.5t-247 -53q-119 0 -214 22.5t-155.5 49t-60.5 30.5l61 164q0 -2 56.5 -26.5t136.5 -45t166 -20.5q123 0 210 72.5t87 203.5q0 135 -111.5 206t-308.5 71h-215l27 727h776l-6 -174
h-578z" />
    <glyph glyph-name="six" unicode="6" horiz-adv-x="1228" 
d="M961 1276q-43 4 -101 4q-213 0 -327.5 -111.5t-149.5 -228.5t-35 -162q0 2 51.5 30t129 50.5t167.5 22.5q121 0 221.5 -51.5t160 -148.5t59.5 -230q0 -139 -66.5 -247t-179.5 -166t-246 -58q-258 0 -390 171t-132 453q0 250 84 441.5t252 300t411 108.5q63 0 108.5 -9
t45.5 -11l-10 -164q-10 2 -53 6zM425 252q87 -98 220 -98q125 0 201 73.5t76 202.5q0 137 -74 207t-213 70q-74 0 -139.5 -20.5t-111.5 -45.5t-46 -27v-61q0 -203 87 -301z" />
    <glyph glyph-name="seven" unicode="7" horiz-adv-x="1028" 
d="M446 0h-235l543 1249h-549l-41 -194h-154v379h983v-154z" />
    <glyph glyph-name="eight" unicode="8" horiz-adv-x="1208" 
d="M1000 873.5q-85 -78.5 -179 -113.5q133 -55 209 -136t76 -214q0 -123 -62.5 -221.5t-181.5 -153.5t-278 -55q-231 0 -356.5 113.5t-125.5 295.5q0 145 94.5 233.5t188.5 129.5q-115 57 -178.5 130.5t-63.5 192.5q0 186 131.5 282.5t360.5 96.5q217 0 333.5 -101.5
t116.5 -267.5q0 -133 -85 -211.5zM397 958.5q39 -47.5 98.5 -76t155.5 -63.5q78 29 148.5 92.5t70.5 163.5q0 94 -67.5 149.5t-188.5 55.5t-188.5 -55.5t-67.5 -149.5q0 -69 39 -116.5zM839 521q-42 50 -104.5 82t-171.5 75q-88 -41 -161.5 -104.5t-73.5 -174.5
q0 -115 72.5 -179t203.5 -64t204 64.5t73 178.5q0 72 -42 122z" />
    <glyph glyph-name="nine" unicode="9" horiz-adv-x="1228" 
d="M274.5 158q47.5 -4 104.5 -4q219 0 330.5 113.5t141.5 229t30 169.5q0 -2 -51.5 -30t-129 -50.5t-168.5 -22.5q-121 0 -221 48t-159.5 143.5t-59.5 228.5q0 143 66.5 250.5t178.5 164t247 56.5q258 0 390 -171t132 -454q0 -252 -81 -443t-247 -298.5t-409 -107.5
q-63 0 -113.5 9t-50.5 11l10 164q12 -2 59.5 -6zM804 1183.5q-87 96.5 -220 96.5q-125 0 -201 -73.5t-76 -202.5q0 -266 287 -267q74 0 139.5 20.5t111.5 45t46 26.5v62q0 196 -87 292.5z" />
    <glyph glyph-name="colon" unicode=":" horiz-adv-x="573" 
d="M192.5 894q38.5 38 94.5 38q61 0 97 -38t36 -106q0 -66 -38 -104.5t-95 -38.5q-61 0 -97 38t-36 105q0 68 38.5 106zM192.5 228q38.5 38 94.5 38q61 0 97 -38t36 -105q0 -66 -38 -104.5t-95 -38.5q-61 0 -97 37.5t-36 105.5q0 67 38.5 105z" />
    <glyph glyph-name="semicolon" unicode=";" horiz-adv-x="573" 
d="M190.5 894q38.5 38 94.5 38q61 0 97 -38t36 -106q0 -66 -38 -104.5t-95 -38.5q-61 0 -97 38t-36 105q0 68 38.5 106zM356.5 -84q63.5 115 63.5 199q0 80 -37 115.5t-96 35.5t-96 -39t-37 -98q0 -43 28 -96q18 -33 19 -53q0 -33 -24.5 -81.5t-50.5 -87t-34 -49.5l92 -77
q109 116 172.5 231z" />
    <glyph glyph-name="less" unicode="&#x3c;" horiz-adv-x="1249" 
d="M102 471v143l1045 471v-174l-819 -368l819 -379v-174z" />
    <glyph glyph-name="equal" unicode="=" horiz-adv-x="1228" 
d="M1116 676h-1003v164h1003v-164zM1116 276h-1003v164h1003v-164z" />
    <glyph glyph-name="greater" unicode="&#x3e;" horiz-adv-x="1249" 
d="M102 1085l1045 -471v-143l-1045 -481v174l820 379l-820 368v174z" />
    <glyph glyph-name="question" unicode="?" horiz-adv-x="985" 
d="M282.5 559q-8.5 70 -8.5 109q0 55 40 104t124 123q98 86 148.5 149.5t50.5 143.5q0 84 -53.5 124t-161.5 40q-63 0 -130 -11.5t-85 -15.5l-33 154q10 4 49 15t96.5 21.5t112.5 10.5q184 0 302 -74t118 -244q0 -80 -32 -147.5t-76 -116.5t-117 -119q-78 -72 -116 -119
t-38 -100q0 -49 2 -83t2 -44l-184 -12q-2 22 -10.5 92zM307 228q39 38 94 38q61 0 97.5 -38t36.5 -105q0 -66 -38 -104.5t-96 -38.5q-61 0 -97 37.5t-36 105.5q0 67 39 105z" />
    <glyph glyph-name="at" unicode="@" horiz-adv-x="1679" 
d="M632 1088.5q44 15.5 107.5 30t122.5 14.5q133 0 197.5 -57.5t64.5 -178.5v-367q0 -43 26 -66.5t71 -23.5q80 0 126 77t46 210q0 174 -66.5 304t-189.5 199.5t-287 69.5q-170 0 -295 -70.5t-191.5 -201.5t-66.5 -311q0 -276 135 -430t377 -154q59 0 113.5 11.5t89.5 23.5
t43 16l82 -123q0 -2 -46.5 -23.5t-122 -39.5t-169.5 -18q-322 0 -494 187t-172 540q0 223 90 392t255 262t382 93q213 0 369.5 -87t241.5 -249t85 -381q0 -195 -93 -307.5t-253 -112.5q-82 0 -132 30t-70.5 63.5t-20.5 42.5q0 -2 -39 -36t-92 -62.5t-111 -28.5
q-111 0 -169 58t-58 171q0 115 82 171t250 56h111v99q0 113 -140 112q-35 0 -84 -10t-81.5 -18.5t-43.5 -12.5l-37 117q13 4 57 19.5zM720 645q-42 -27 -42 -90q0 -43 28.5 -68.5t77.5 -25.5q43 0 82 20.5t63.5 43t31.5 28.5v119h-99q-100 0 -142 -27z" />
    <glyph glyph-name="A" unicode="A" horiz-adv-x="1484" 
d="M645 1423l205 11l455 -1272l170 -39v-123h-594v123l190 39l-78 227h-532l-80 -227l192 -39v-123h-563v123l168 39zM731 1169l-215 -616h422z" />
    <glyph glyph-name="B" unicode="B" horiz-adv-x="1290" 
d="M256 1270l-174 41v112l379 11h235q201 0 321 -90.5t120 -268.5q0 -264 -267 -332q158 -37 238 -122.5t80 -210.5q0 -211 -132 -310.5t-390 -99.5h-584v123l174 41v1106zM840 877.5q82 58.5 82 177.5q0 104 -65.5 159.5t-170.5 55.5h-225v-451h153q144 0 226 58.5z
M897 224.5q76 60.5 76 174.5q0 147 -90 207t-269 60h-153v-502h215q145 0 221 60.5z" />
    <glyph glyph-name="C" unicode="C" horiz-adv-x="1361" 
d="M1007.5 1252.5q-34.5 9.5 -93 18.5t-126.5 9q-207 0 -318.5 -150.5t-111.5 -433.5q0 -266 120 -399t321 -133q96 0 187 37t156.5 80t65.5 47l82 -133q0 -6 -73.5 -62.5t-187.5 -104.5t-251 -48q-311 0 -483 182t-172 524q0 233 84 406.5t238.5 267.5t363.5 94
q100 0 202.5 -22.5t180.5 -50t78 -29.5l-10 -348h-154l-55 235q-9 4 -43.5 13.5z" />
    <glyph glyph-name="D" unicode="D" horiz-adv-x="1495" 
d="M266 1270l-174 41v112l389 11h256q303 0 474 -181.5t171 -515.5q0 -223 -82.5 -390t-236.5 -257t-356 -90h-615v123l174 41v1106zM1032.5 304q114.5 140 114.5 423q0 276 -110.5 409.5t-309.5 133.5h-246v-1106h236q201 0 315.5 140z" />
    <glyph glyph-name="E" unicode="E" horiz-adv-x="1259" 
d="M963 829v-163h-471v-502h471l41 205h133v-369h-1035v123l174 41v1106l-174 41v112l390 11h624v-349h-133l-51 185h-440v-441h471z" />
    <glyph glyph-name="F" unicode="F" horiz-adv-x="1167" 
d="M942 809v-164h-471v-481l205 -41v-123h-594v123l174 41v1106l-174 41v112l389 11h625v-338h-133l-52 174h-440v-461h471z" />
    <glyph glyph-name="G" unicode="G" horiz-adv-x="1536" 
d="M1223.5 66.5q-76.5 -31.5 -193.5 -59t-252 -27.5q-311 0 -483 182t-172 524q0 233 84 406.5t238.5 267.5t363.5 94q100 0 202.5 -22.5t180.5 -50t78 -29.5l-10 -338h-134l-61 225q-10 4 -48 13.5t-99.5 18.5t-129.5 9q-207 0 -318.5 -150.5t-111.5 -433.5
q0 -268 122 -405t329 -137q63 0 126.5 11t106.5 23.5t54 16.5v336l-174 41v112l532 11v-123l-154 -41v-439q0 -4 -76.5 -35.5z" />
    <glyph glyph-name="H" unicode="H" horiz-adv-x="1628" 
d="M82 123l174 41v1106l-174 41v112l584 11v-123l-195 -41v-451h686v451l-194 41v112l583 11v-123l-174 -41v-1106l174 -41v-123h-583v123l194 41v491h-686v-491l195 -41v-123h-584v123z" />
    <glyph glyph-name="I" unicode="I" horiz-adv-x="747" 
d="M92 123l174 41v1106l-174 41v112l563 11v-123l-174 -41v-1106l174 -41v-123h-563v123z" />
    <glyph glyph-name="J" unicode="J" horiz-adv-x="735" 
d="M479 1270v-1178q0 -186 -103.5 -292.5t-285.5 -106.5q-33 0 -76 4t-55 6l18 154h103q96 0 140 49t44 145v1219l-174 41v112l563 11v-123z" />
    <glyph glyph-name="K" unicode="K" horiz-adv-x="1413" 
d="M92 123l174 41v1106l-174 41v112l584 11v-123l-195 -41v-451h189l354 604l338 11v-123l-203 -41l-311 -518l422 -588l174 -41v-123h-584v123l174 41l-352 491h-201v-491l195 -41v-123h-584v123z" />
    <glyph glyph-name="L" unicode="L" horiz-adv-x="1085" 
d="M922 399h143v-399h-993v123l174 41v1106l-174 41v112l563 11v-123l-174 -41v-1106h420z" />
    <glyph glyph-name="M" unicode="M" horiz-adv-x="1812" 
d="M1352 1188l-62 -154l-317 -645l-164 -10l-317 665l-52 144v-1024l195 -41v-123h-553v123l174 41v1106l-174 41v112l461 11l370 -820l387 809l431 11v-123l-175 -41v-1106l175 -41v-123h-574v123l195 41v1024z" />
    <glyph glyph-name="N" unicode="N" horiz-adv-x="1617" 
d="M635 123v-123h-553v123l174 41v1106l-174 41v112l430 11l676 -1145v981l-174 41v112l532 11v-123l-174 -41v-1270h-256l-676 1128v-964z" />
    <glyph glyph-name="O" unicode="O" horiz-adv-x="1546" 
d="M1128.5 1367q143.5 -87 219 -249t75.5 -381q0 -223 -85 -395t-238.5 -267t-351.5 -95q-301 0 -463 187t-162 540q0 223 81 393t231.5 262t352.5 92q197 0 340.5 -87zM465.5 1142q-107.5 -138 -107.5 -425q0 -279 100.5 -421t299.5 -142q205 0 317.5 144t112.5 429
q0 274 -104.5 413.5t-305.5 139.5q-205 0 -312.5 -138z" />
    <glyph glyph-name="P" unicode="P" horiz-adv-x="1208" 
d="M256 1270l-174 41v112l389 11h215q227 0 349 -113t122 -307q0 -236 -144.5 -359t-408.5 -123h-133v-368l174 -41v-123h-563v123l174 41v1106zM857 770q85 74 85 213q0 127 -69.5 207t-196.5 80h-205v-574h133q168 0 253 74z" />
    <glyph glyph-name="Q" unicode="Q" horiz-adv-x="1515" 
d="M1618 -295q-55 -29 -126 -56.5t-120 -27.5q-53 0 -113.5 28.5t-152.5 84.5l-408 250q-276 20 -425.5 205.5t-149.5 517.5q0 223 86 392t241.5 262t358.5 93q303 0 469 -191.5t166 -525.5q0 -276 -125 -468.5t-342 -258.5l221 -133q66 -39 117 -60.5t98 -21.5
q33 0 76 16.5t75.5 33t43.5 22.5l82 -123q-17 -10 -72 -39zM464 1138.5q-116 -141.5 -116 -421.5q0 -272 108.5 -417.5t321.5 -145.5q215 0 328 145t113 428q0 553 -420 553q-219 0 -335 -141.5z" />
    <glyph glyph-name="R" unicode="R" horiz-adv-x="1331" 
d="M256 1270l-174 41v112l389 11h225q217 0 339 -98.5t122 -270.5q0 -301 -266 -399q49 -43 123 -185l162 -325l145 -33v-123h-307l-174 379q-49 106 -86 156.5t-79 70t-112 19.5h-92v-461l174 -41v-123h-563v123l174 41v1106zM858 845.5q84 67.5 84 188.5q0 102 -71.5 169
t-184.5 67h-215v-492h154q149 0 233 67.5z" />
    <glyph glyph-name="S" unicode="S" horiz-adv-x="1222" 
d="M385 188.5q29 -12.5 79 -23.5t109 -11q123 0 218.5 58t95.5 161q0 66 -41 110.5t-101.5 72.5t-166.5 67q-139 49 -224.5 92t-146 124t-60.5 208q0 203 138.5 305t347.5 102q86 0 182 -18.5t164 -38t86 -25.5l-10 -348h-133l-70 219q-8 2 -39 11.5t-80 17.5t-98 8
q-131 0 -202 -58.5t-71 -140.5q0 -66 41 -110.5t102.5 -73.5t172.5 -68q133 -47 218 -89t144.5 -118.5t59.5 -193.5q0 -147 -72 -248.5t-193.5 -150.5t-269.5 -49q-96 0 -189 18t-154.5 37.5t-78.5 25.5v359h164l41 -215q8 -4 37 -16.5z" />
    <glyph glyph-name="T" unicode="T" horiz-adv-x="1157" 
d="M266 123l205 41v1106h-266l-51 -205h-134v369h1117v-369h-133l-52 205h-266v-1106l205 -41v-123h-625v123z" />
    <glyph glyph-name="U" unicode="U" horiz-adv-x="1617" 
d="M1235 131.5q-127 -151.5 -436 -151.5q-293 0 -418 140t-125 433v717l-174 41v112l584 11v-123l-195 -41v-717q0 -154 35 -240t108.5 -122.5t194.5 -36.5q129 0 201.5 41t104.5 134t32 255v686l-195 41v112l584 11v-123l-174 -41v-686q0 -301 -127 -452.5z" />
    <glyph glyph-name="V" unicode="V" horiz-adv-x="1433" 
d="M10 1423l574 11v-123l-187 -39l322 -996l342 994l-191 41v112l553 11v-123l-159 -41l-455 -1270h-205l-436 1270l-158 41v112z" />
    <glyph glyph-name="W" unicode="W" horiz-adv-x="2119" 
d="M10 1423l574 11v-123l-178 -41l219 -928l338 1081l194 11l332 -1115l254 951l-187 41v112l553 11v-123l-161 -41l-361 -1270h-225l-246 942l-59 221l-64 -231l-276 -932h-205l-342 1270l-160 41v112z" />
    <glyph glyph-name="X" unicode="X" horiz-adv-x="1433" 
d="M584 727l-379 543l-154 41v112l543 11v-123l-133 -41l266 -389l266 389l-143 41v112l543 11v-123l-185 -41l-368 -533l399 -573l174 -41v-123h-553v123l123 31l-287 419l-307 -409l174 -41v-123h-543v123l134 31z" />
    <glyph glyph-name="Y" unicode="Y" horiz-adv-x="1320" 
d="M553 530l-395 742l-138 39v112l512 11v-123l-139 -41l273 -574l301 574l-158 41v112l491 11v-123l-126 -37l-406 -739v-371l174 -41v-123h-563v123l174 41v366z" />
    <glyph glyph-name="Z" unicode="Z" horiz-adv-x="1259" 
d="M358 164h635l41 205h133v-369h-1085v143l819 1127h-573l-52 -205h-133v369h1035v-144z" />
    <glyph glyph-name="bracketleft" unicode="[" horiz-adv-x="706" 
d="M184 1577l441 -10v-133l-246 -23v-1716l246 -23v-133l-441 -10v2048z" />
    <glyph glyph-name="backslash" unicode="\" horiz-adv-x="1036" 
d="M61 1434h215l678 -1434h-215z" />
    <glyph glyph-name="bracketright" unicode="]" horiz-adv-x="706" 
d="M328 -305v1716l-246 23v133l440 10v-2048l-440 10v133z" />
    <glyph glyph-name="asciicircum" unicode="^" horiz-adv-x="1167" 
d="M512 1434h143l389 -779h-178l-288 574l-281 -574h-174z" />
    <glyph glyph-name="underscore" unicode="_" horiz-adv-x="1024" 
d="M1028 -307h-1032v143h1032v-143z" />
    <glyph glyph-name="grave" unicode="`" horiz-adv-x="501" 
d="M502 1321l-72 -102l-430 266l102 153z" />
    <glyph glyph-name="a" unicode="a" horiz-adv-x="1157" 
d="M234.5 1049.5q64.5 19.5 152.5 38t166 18.5q186 0 282.5 -74t96.5 -244v-624l164 -41v-113l-318 -10l-43 143q-66 -66 -152.5 -114.5t-183.5 -48.5q-145 0 -226 80.5t-81 226.5q0 170 122 243.5t349 73.5h164v164q0 90 -50 137t-145 47q-55 0 -101 -7t-72.5 -14t-32.5 -9
l-29 -154h-133l-10 256q16 6 80.5 25.5zM366.5 430q-65.5 -41 -65.5 -133q0 -70 40 -112t110 -42q68 0 129 37t104 80t43 47v164h-143q-152 0 -217.5 -41z" />
    <glyph glyph-name="b" unicode="b" horiz-adv-x="1208" 
d="M686 1106q215 0 322.5 -142.5t107.5 -390.5q0 -176 -64.5 -310t-191.5 -208.5t-307 -74.5q-100 0 -184 11t-133.5 23.5t-61.5 16.5v1382l-164 41v113l369 10v-590q151 119 307 119zM434 152.5q55 -9.5 150 -9.5q168 0 242.5 113t74.5 297q0 180 -62.5 284.5t-193.5 104.5
q-82 0 -141.5 -29.5t-92 -63.5t-32.5 -40v-645q0 -2 55 -11.5z" />
    <glyph glyph-name="c" unicode="c" horiz-adv-x="1044" 
d="M721 934q-53 8 -117 8q-147 0 -227 -95t-80 -284q0 -205 84 -312.5t233 -107.5q86 0 157 28t116 59.5t45 35.5l72 -123q0 -4 -63.5 -47t-155 -79.5t-191.5 -36.5q-250 0 -381 148t-131 415q0 164 65.5 292t185.5 199.5t281 71.5q82 0 160 -18.5t127 -38t62 -25.5
l-11 -276h-133l-31 174q-14 4 -67 12z" />
    <glyph glyph-name="d" unicode="d" horiz-adv-x="1259" 
d="M1208 10l-348 -10l-16 117q-137 -137 -322 -137q-215 0 -322.5 142t-107.5 390q0 272 137.5 433t405.5 161q100 0 194 -33v340l-174 41v113l379 10v-1413l174 -41v-113zM798.5 914.5q-24.5 9.5 -72.5 18.5t-112 9q-307 0 -307 -410q0 -180 62.5 -284.5t193.5 -104.5
q78 0 137.5 34t94 74t34.5 46v604q-6 4 -30.5 13.5z" />
    <glyph glyph-name="e" unicode="e" horiz-adv-x="1105" 
d="M379 243.5q82 -100.5 215 -100.5q90 0 167 25t127 54.5t50 33.5l72 -106q0 -4 -66.5 -49.5t-164 -83t-206.5 -37.5q-242 0 -366.5 146t-124.5 406q0 162 63.5 293t178 206t260.5 75q430 0 430 -481q0 -33 -4 -66t-6 -43l-707 -4q0 -168 82 -268.5zM743.5 868.5
q-53.5 77.5 -170.5 77.5q-119 0 -188.5 -80t-79.5 -200h492q0 125 -53.5 202.5z" />
    <glyph glyph-name="f" unicode="f" horiz-adv-x="849" 
d="M374.5 1490.5q98.5 106.5 280.5 106.5q86 0 155 -16t111 -34.5t42 -20.5v-256h-144l-31 164q-8 2 -42.5 6t-79.5 4q-102 0 -143.5 -52.5t-41.5 -152.5v-164h271l-7 -153h-264v-758l205 -51v-113h-584v113l174 51v758h-184v133l184 20v123q0 186 98.5 292.5z" />
    <glyph glyph-name="g" unicode="g" horiz-adv-x="1198" 
d="M965.5 903.5q13.5 -24.5 26 -71t12.5 -105.5q0 -201 -121 -300t-330 -99q-57 0 -100 7t-54 11l-10 -192h318q201 0 305 -76t104 -221q0 -174 -135 -271.5t-397 -97.5q-231 0 -361.5 68.5t-130.5 228.5q0 82 48 139.5t107.5 89t59.5 27.5q0 -2 -33.5 8t-61.5 36t-28 73
q0 31 23.5 82t49.5 94t34 55q0 -6 -44 31t-79 107.5t-35 179.5q0 195 122 297t329 102q59 0 104 -8t69.5 -17.5t30.5 -13.5l359 8v-112l-199 -29q4 -6 17.5 -30.5zM395.5 902.5q-57.5 -60.5 -57.5 -185.5q0 -113 57.5 -179.5t167.5 -66.5q123 0 179.5 58.5t56.5 187.5
q0 119 -56.5 182.5t-169.5 63.5q-120 0 -177.5 -60.5zM393 -21.5q-37 -25.5 -66.5 -66.5t-29.5 -96q0 -100 79 -137t238 -37q156 0 232 48t76 146q0 94 -67 129t-200 35h-225q0 4 -37 -21.5z" />
    <glyph glyph-name="h" unicode="h" horiz-adv-x="1331" 
d="M592 1060q96 46 196 46q164 0 246 -97.5t82 -271.5v-573l154 -51v-113h-492v113l133 49v555q0 111 -41 163t-137 52q-78 0 -145.5 -37t-112.5 -80t-45 -47v-604l133 -51v-113h-512v113l174 51v1249l-174 41v113l379 10v-619q66 56 162 102z" />
    <glyph glyph-name="i" unicode="i" horiz-adv-x="686" 
d="M254 1529q39 38 94 38q133 0 133 -144q0 -66 -41 -104.5t-92 -38.5q-61 0 -97 38t-36 105q0 68 39 106zM614 0h-532v113l174 51v758l-174 41v112l379 10v-921l153 -51v-113z" />
    <glyph glyph-name="j" unicode="j" horiz-adv-x="591" 
d="M211 1529q39 38 94 38q133 0 133 -144q0 -66 -41 -104.5t-92 -38.5q-61 0 -97 38t-36 105q0 68 39 106zM329.5 -385.5q-98.5 -106.5 -280.5 -106.5q-33 0 -76 4.5t-55 6.5l19 143h102q102 0 143 52.5t41 152.5v1055l-174 41v112l379 10v-1177q0 -187 -98.5 -293.5z" />
    <glyph glyph-name="k" unicode="k" horiz-adv-x="1187" 
d="M758 934l-92 29v112l450 10v-122l-145 -25h-2l-211 -313l264 -461h2l154 -51v-113h-277l-293 522h-178v-358l133 -51v-113h-512v113l174 51v1249l-174 41v113l379 10v-901h174z" />
    <glyph glyph-name="l" unicode="l" horiz-adv-x="628" 
d="M618 0h-567v113l174 51v1249l-174 41v113l383 10v-1413l184 -51v-113z" />
    <glyph glyph-name="m" unicode="m" horiz-adv-x="2007" 
d="M598 1050.5q102 55.5 211 55.5q207 0 285 -176q51 51 155.5 113.5t225.5 62.5q164 0 240.5 -96.5t76.5 -272.5v-573l154 -51v-113h-492v113l133 51v553q0 113 -39 164t-135 51q-78 0 -141.5 -37t-104.5 -80t-41 -47v-604l134 -51v-113h-472v113l134 51v553q0 113 -39 164
t-135 51q-78 0 -141.5 -37t-104.5 -80t-41 -47v-604l133 -51v-113h-512v113l174 51v758l-174 41v112l338 10l18 -145q58 55 160 110.5z" />
    <glyph glyph-name="n" unicode="n" horiz-adv-x="1361" 
d="M605.5 1050.5q103.5 55.5 213.5 55.5q164 0 246 -97.5t82 -271.5v-573l153 -51v-113h-491v113l133 51v553q0 111 -43 163t-141 52q-78 0 -143.5 -37t-109.5 -80t-44 -47v-604l133 -51v-113h-512v113l174 51v758l-174 41v112l338 10l18 -145q64 55 167.5 110.5z" />
    <glyph glyph-name="o" unicode="o" horiz-adv-x="1167" 
d="M958 959.5q127 -146.5 127 -396.5q0 -172 -63.5 -305t-180 -205.5t-268.5 -72.5q-233 0 -362 140t-129 412q0 172 66.5 302.5t184.5 201t271 70.5q227 0 354 -146.5zM369.5 842.5q-72.5 -99.5 -72.5 -299.5q0 -399 287 -400q150 0 218 102.5t68 307.5q0 389 -276 389
q-152 0 -224.5 -99.5z" />
    <glyph glyph-name="p" unicode="p" horiz-adv-x="1259" 
d="M727 1106q217 0 328.5 -143.5t111.5 -389.5q0 -272 -139 -432.5t-414 -160.5q-88 0 -184 28v-325l215 -41v-113h-584v113l164 41v1239l-174 41v112l348 10l17 -114q145 135 311 135zM457.5 171q23.5 -9 72 -18.5t115.5 -9.5q307 0 307 410q0 178 -66.5 283.5
t-199.5 105.5q-82 0 -139.5 -31.5t-87 -68.5t-29.5 -43v-615q4 -4 27.5 -13z" />
    <glyph glyph-name="q" unicode="q" horiz-adv-x="1187" 
d="M829 98q-152 -119 -307 -118q-430 0 -430 532q0 176 64.5 310t191.5 209t307 75q100 0 184.5 -9.5t133.5 -18.5t61 -13v-1382l164 -41v-113h-573v113l204 41v415zM772 933q-57 9 -147 9q-168 0 -243 -112.5t-75 -297.5q0 -180 62.5 -284.5t193.5 -104.5q82 0 141.5 30
t92 63.5t32.5 39.5v646q0 2 -57 11z" />
    <glyph glyph-name="r" unicode="r" horiz-adv-x="952" 
d="M575.5 1052.5q79.5 53.5 172.5 53.5q45 0 85.5 -7t66.5 -14.5t32 -9.5l-10 -297h-134l-30 154q-102 0 -176 -49t-121 -111v-608l205 -51v-113h-584v113l174 51v758l-174 41v112l338 10l18 -149q58 63 137.5 116.5z" />
    <glyph glyph-name="s" unicode="s" horiz-adv-x="960" 
d="M311 141.5q51 -8.5 121 -8.5q231 0 232 162q0 66 -56.5 99.5t-175.5 70.5q-109 35 -176.5 67.5t-115.5 94t-48 159.5q0 154 104.5 237t270.5 83q72 0 149.5 -13.5t132 -28.5t68.5 -20l-6 -276h-133l-33 160q-6 2 -26.5 8t-57.5 11t-82 5q-182 0 -182 -137
q0 -66 58.5 -101.5t176.5 -74.5q106 -37 174 -68.5t115 -91t47 -149.5q0 -170 -128 -260t-322 -90q-84 0 -156 10t-115 20t-53 15v303h144l22 -176q0 -2 51 -10.5z" />
    <glyph glyph-name="t" unicode="t" horiz-adv-x="808" 
d="M748 922h-297v-658q0 -125 102 -125q66 0 160 51l55 -108q-139 -102 -287 -102q-104 0 -169.5 68.5t-65.5 227.5v646h-205v133l205 20v258l205 41v-299h297v-153z" />
    <glyph glyph-name="u" unicode="u" horiz-adv-x="1331" 
d="M1280 10l-338 -10l-20 143q-61 -55 -166 -109t-213 -54q-164 0 -246 96t-82 270v576l-174 41v112l379 10v-718q0 -109 43 -161t141 -52q78 0 143.5 35.5t109.5 78.5t44 47v607l-174 41v112l379 10v-921l174 -41v-113z" />
    <glyph glyph-name="v" unicode="v" horiz-adv-x="1144" 
d="M571 184l246 748l-141 31v112l459 10v-122l-113 -21l-348 -942h-225l-336 932l-103 31v112l461 10v-122l-143 -21z" />
    <glyph glyph-name="w" unicode="w" horiz-adv-x="1699" 
d="M492 184l268 891l194 31l254 -922l164 748l-143 31v112l461 10v-122l-119 -21l-250 -942h-236l-194 635l-49 196l-43 -196l-195 -635h-235l-256 932l-103 31v112l461 10v-122l-154 -21z" />
    <glyph glyph-name="x" unicode="x" horiz-adv-x="1157" 
d="M584 686l245 389l297 10v-122l-174 -31l-256 -379l262 -393l189 -47v-113h-500v113l82 24l-168 271l-254 -408h-297v113l180 47l261 383l-263 391l-157 29v112l467 10v-122l-72 -13z" />
    <glyph glyph-name="y" unicode="y" horiz-adv-x="1181" 
d="M604 225l225 707l-143 31v112l485 10v-122l-133 -21l-290 -811l-19 -49q-68 -182 -127 -298t-159.5 -196t-247.5 -80q-33 0 -76 4.5t-56 6.5l19 143h102q100 0 175 84t151 250l-367 936l-123 31v112l482 10v-122l-144 -21z" />
    <glyph glyph-name="z" unicode="z" horiz-adv-x="993" 
d="M739 154l29 163h143v-317h-819v154l598 778h-385l-29 -154h-143v307h789v-153l-600 -778h417z" />
    <glyph glyph-name="braceleft" unicode="{" horiz-adv-x="757" 
d="M543.5 1434.5q-54.5 -19.5 -77 -65.5t-22.5 -130v-350q0 -104 -48 -177t-142 -108q94 -35 142 -107.5t48 -177.5v-432q0 -84 22.5 -130t77 -65.5t152.5 -19.5v-133h-92q-186 0 -267 79t-81 269v432q0 102 -43 157.5t-152 55.5v144q109 0 152 55t43 158v350q0 190 81 269
t267 79h92v-133q-98 0 -152.5 -19.5z" />
    <glyph glyph-name="bar" unicode="|" horiz-adv-x="573" 
d="M205 1546h164v-2017h-164v2017z" />
    <glyph glyph-name="braceright" unicode="}" horiz-adv-x="768" 
d="M441 1508.5q81 -78.5 81 -269.5v-350q0 -102 43 -157.5t152 -55.5v-144q-109 0 -152 -55t-43 -158v-432q0 -190 -81 -269t-267 -79h-92v133q98 0 152.5 19.5t77 65.5t22.5 130v432q0 104 48 177t142 108q-94 35 -142 107.5t-48 177.5v350q0 84 -22.5 130t-77 65.5
t-152.5 19.5v133h92q186 0 267 -78.5z" />
    <glyph glyph-name="asciitilde" unicode="~" horiz-adv-x="1282" 
d="M161 563q38 53 106.5 98.5t164.5 45.5q66 0 118 -19.5t120 -56.5q61 -33 106 -50.5t96 -17.5q49 0 92.5 27.5t72 59.5t28.5 36l94 -74q0 -6 -41 -62t-107.5 -103.5t-148.5 -47.5q-66 0 -121 19.5t-129 56.5q-68 35 -113.5 51.5t-97.5 16.5q-49 0 -90 -25.5t-67.5 -55.5
t-26.5 -34l-94 74q0 8 38 61z" />
    <glyph glyph-name="nbspace" unicode="&#xa0;" horiz-adv-x="471" 
 />
    <glyph glyph-name="exclamdown" unicode="&#xa1;" horiz-adv-x="645" 
d="M413 879q-38 -39 -96 -39q-61 0 -97 37.5t-36 105.5t39 105.5t94 37.5q61 0 97.5 -37.5t36.5 -105.5q0 -65 -38 -104zM440 -430h-235l31 1024l174 10z" />
    <glyph glyph-name="cent" unicode="&#xa2;" horiz-adv-x="1044" 
d="M787.5 1221.5q68.5 -19.5 111.5 -39t53 -25.5l-10 -266h-133l-31 174q0 2 -55 11t-119 9q-154 0 -225.5 -78.5t-71.5 -248.5q0 -369 307 -369q78 0 141.5 22.5t104.5 49t41 31.5l80 -113q0 -2 -53.5 -38t-127 -69.5t-155.5 -44.5v-227h-153v231q-197 29 -298.5 162
t-101.5 344q0 195 103.5 331t296.5 169v197h153v-189q74 -4 142.5 -23.5z" />
    <glyph glyph-name="sterling" unicode="&#xa3;" horiz-adv-x="1280" 
d="M123 123l113 31q68 18 90 74.5t22 191.5q0 74 -10 190q0 27 -4 76h-211v139l201 23q-6 98 -7 196q0 193 101.5 301.5t308.5 108.5q109 0 202 -13.5t148.5 -28.5l69.5 -19v-287h-133l-31 170q-20 2 -95 8t-151 6q-111 0 -163 -54t-52 -151q0 -131 8 -235h340v-164h-329
q12 -184 12 -246q0 -90 -20.5 -151.5t-46 -96t-25.5 -28.5h520l43 215h133v-379h-1034v123z" />
    <glyph glyph-name="currency" unicode="&#xa4;" horiz-adv-x="1183" 
d="M985 614q0 -125 -65 -227l161 -162l-100 -106l-166 164q-100 -68 -229 -68t-224 61l-159 -157l-101 106l160 160q-55 92 -55 219q0 125 63 223l-168 168l101 107l170 -168q102 70 233 70q123 0 215 -60l160 158l100 -107l-155 -155q59 -97 59 -226zM434 425
q53 -67 162 -67t162 67t53 185q0 119 -53 184.5t-162 65.5t-162 -65.5t-53 -184.5q0 -118 53 -185z" />
    <glyph glyph-name="yen" unicode="&#xa5;" horiz-adv-x="1320" 
d="M158 1272l-138 39v112l512 11v-123l-139 -41l273 -553l301 553l-158 41v112l491 11v-123l-126 -37l-306 -537h252v-143h-921v143h254zM1120 317h-352v-153l174 -41v-123h-563v123l174 41v153h-354v144h921v-144z" />
    <glyph glyph-name="brokenbar" unicode="&#xa6;" horiz-adv-x="614" 
d="M379 1567v-819h-164v819h164zM379 297v-840h-164v840h164z" />
    <glyph glyph-name="section" unicode="&#xa7;" horiz-adv-x="1116" 
d="M707.5 1429.5q-33.5 4.5 -66.5 4.5q-92 0 -146.5 -52.5t-54.5 -132.5q0 -57 32 -105t80 -85t132 -92q100 -68 161.5 -118t104.5 -122t43 -164q0 -113 -44 -186.5t-103 -114.5q57 -88 57 -190q0 -111 -49 -197t-138 -134t-202 -48q-78 0 -143.5 13t-104.5 28.5l-49 19.5
l10 328h131l43 -215q8 -2 40 -6t77 -4q86 0 138.5 53t52.5 131q0 57 -32 105.5t-80 85t-132 92.5q-100 66 -162.5 117t-105.5 122.5t-43 163.5q0 113 44 186.5t103 114.5q-55 84 -55 191q0 111 50 196.5t139 133.5t202 48q78 0 143.5 -13t104.5 -28.5l49 -19.5l-10 -328
h-123l-49 215q-11 2 -44.5 6.5zM767 636q-32 46 -78 82t-130 91q-106 70 -156 111q-55 -55 -55 -162q0 -82 58.5 -140.5t181.5 -136.5q117 -76 157 -110q53 57 54 161q0 58 -32 104z" />
    <glyph glyph-name="dieresis" unicode="&#xa8;" horiz-adv-x="1054" 
d="M237.5 1523.5q32.5 32.5 79.5 32.5q53 0 83 -32.5t30 -89.5t-32.5 -90t-80.5 -33q-53 0 -82.5 32.5t-29.5 90.5q0 57 32.5 89.5zM657.5 1523.5q32.5 32.5 79.5 32.5q53 0 83 -32.5t30 -89.5t-33 -90t-80 -33q-53 0 -82.5 32.5t-29.5 90.5q0 57 32.5 89.5z" />
    <glyph glyph-name="copyright" unicode="&#xa9;" horiz-adv-x="1679" 
d="M189.5 1090q97.5 170 267.5 267t383 97t384 -92t267 -258t96 -377t-101.5 -382t-277.5 -268t-389 -97t-378 92t-257 257t-92 378t97.5 383zM326.5 410.5q70.5 -134.5 200.5 -209t302 -74.5t307.5 74.5t211 209t75.5 306.5t-75.5 306t-211 209t-307.5 75t-302 -75
t-200.5 -209t-70.5 -306t70.5 -306.5zM840 1004q-98 0 -146.5 -75t-48.5 -216q0 -133 54.5 -197.5t150.5 -64.5q49 0 98 20.5t81 42t40 27.5l55 -95q0 -4 -43 -37.5t-105.5 -62.5t-135.5 -29q-172 0 -270.5 98.5t-98.5 286.5q0 195 102.5 310.5t280.5 115.5q57 0 114.5 -14
t96.5 -29.5l49 -19.5l-4 -217h-115l-28 139q-55 17 -127 17z" />
    <glyph glyph-name="ordfeminine" unicode="&#xaa;" horiz-adv-x="958" 
d="M196.5 1412q53.5 15 124 28.5t125.5 13.5q133 0 198 -57.5t65 -177.5v-426l116 -29v-92l-223 -10l-33 106q0 -2 -37.5 -35t-91 -59.5t-110.5 -26.5q-111 0 -169.5 58.5t-58.5 171.5q0 121 85 174t247 53h111v102q0 49 -34 79t-93 30q-47 0 -90 -8.5t-56 -12.5l-20 -106
h-113l-10 205zM306 967.5q-44 -25.5 -44 -90.5q0 -43 28.5 -69t78.5 -26q43 0 81.5 20.5t63.5 43t31 28.5v119h-99q-96 0 -140 -25.5zM825 338h-706v143h706v-143z" />
    <glyph glyph-name="guillemotleft" unicode="&#xab;" horiz-adv-x="1105" 
d="M410 154l-287 327v123l287 328l122 -82l-225 -307l225 -307zM860 154l-297 327v123l297 328l123 -82l-235 -307l235 -307z" />
    <glyph glyph-name="logicalnot" unicode="&#xac;" horiz-adv-x="1259" 
d="M1147 174h-174v389h-850v164h1024v-553z" />
    <glyph glyph-name="softhyphen" unicode="&#xad;" horiz-adv-x="778" 
d="M655 471h-532v174h532v-174z" />
    <glyph glyph-name="registered" unicode="&#xae;" horiz-adv-x="1474" 
d="M193.5 1241q80.5 143 224 224t319.5 81q178 0 320.5 -76.5t223.5 -214t81 -313.5t-86 -318.5t-233.5 -224.5t-325.5 -82t-315.5 76t-213 213t-75.5 316q0 176 80.5 319zM321.5 679.5q55.5 -108.5 160 -168.5t245.5 -60t250.5 60t170 170t60.5 251t-60.5 250.5t-170 170
t-250.5 60.5t-245.5 -60.5t-160 -169t-55.5 -251.5q0 -144 55.5 -252.5zM522 1182l-82 16v76l308 6q104 0 171.5 -50t67.5 -138q0 -133 -127 -181l16 -11q15 -11 42 -64l65 -129l82 -21v-82h-176l-82 174q-33 72 -52.5 89.5t-60.5 17.5h-39v-178l82 -21v-82h-297v82l82 21
v475zM816 1006.5q34 27.5 34 74.5q0 45 -29.5 71t-83.5 26h-82v-199h72q55 0 89 27.5z" />
    <glyph glyph-name="macron" unicode="&#xaf;" horiz-adv-x="573" 
d="M563 1352h-553v153h553v-153z" />
    <glyph glyph-name="degree" unicode="&#xb0;" horiz-adv-x="839" 
d="M191.5 1420q89.5 85 228.5 85q141 0 229 -81t88 -216q0 -143 -89 -230t-228 -87q-141 0 -229.5 82t-88.5 225q0 137 89.5 222zM291 1065q45 -51 129 -51t129 51t45 143q0 82 -48 128t-126 46t-126 -46t-48 -128q0 -92 45 -143z" />
    <glyph glyph-name="plusminus" unicode="&#xb1;" horiz-adv-x="1259" 
d="M543 1106h174v-328h430v-160h-430v-331h-174v331h-430v160h430v328zM1147 0h-1034v160h1034v-160z" />
    <glyph glyph-name="twosuperior" unicode="&#xb2;" horiz-adv-x="798" 
d="M142 1407q42 12 103.5 24.5t119.5 12.5q158 0 244.5 -60.5t86.5 -185.5q0 -82 -34.5 -146.5t-110.5 -137t-234 -195.5h400v-146h-645v142l112 92q141 113 203 168t93.5 105t31.5 108q0 123 -154 123q-47 0 -87 -9.5t-40 -11.5l-14 -123h-123l-6 224q12 4 54 16z" />
    <glyph glyph-name="threesuperior" unicode="&#xb3;" horiz-adv-x="774" 
d="M130 1417q46 10 109.5 18.5t118.5 8.5q145 0 226.5 -57.5t81.5 -161.5q0 -84 -49.5 -135.5t-131.5 -67.5q78 -8 137.5 -61.5t59.5 -129.5q0 -133 -97.5 -200.5t-258.5 -67.5q-68 0 -131.5 16.5t-103.5 35t-50 24.5l41 123q10 -4 46 -19.5t92 -29t114 -13.5q80 0 124 34
t44 95t-47 90t-146 29h-84v125h94q172 0 173 131q0 106 -144 107q-55 0 -97 -8.5t-42 -10.5l-10 -114h-119l-8 227q12 2 58 12z" />
    <glyph glyph-name="acute" unicode="&#xb4;" horiz-adv-x="501" 
d="M399 1638l103 -153l-430 -266l-72 102z" />
    <glyph glyph-name="micro" unicode="&#xb5;" horiz-adv-x="1341" 
d="M1290 123v-113l-338 -10l-20 143q-68 -57 -168 -110t-211 -53q-61 0 -123 20v-471h-205v1393l-174 41v112l379 10v-739q4 -98 47 -145t137 -47q78 0 143.5 35.5t109.5 78.5t44 47v607l-174 41v112l379 10v-921z" />
    <glyph glyph-name="paragraph" unicode="&#xb6;" horiz-adv-x="1290" 
d="M983 -348h-178v1618h-162v-1618h-356v123l184 41v811q-98 10 -177 65.5t-125 144.5t-46 197q0 113 50 204t145.5 143.5t224.5 52.5h262l352 -11v-112l-174 -41v-1618z" />
    <glyph glyph-name="periodcentered" unicode="&#xb7;" horiz-adv-x="540" 
d="M172 733q39 39 98 39q66 0 102 -38t36 -109q0 -70 -39 -109t-99 -39q-66 0 -101.5 38t-35.5 110q0 69 39 108z" />
    <glyph glyph-name="cedilla" unicode="&#xb8;" horiz-adv-x="892" 
d="M631 -149.5q47 -47.5 47 -116.5q0 -82 -61.5 -132.5t-161.5 -50.5q-59 0 -110.5 12.5t-81.5 27l-38 18.5l49 84q6 -4 31 -14.5t59.5 -19.5t67.5 -9q51 0 82 24.5t31 63.5q0 47 -45 73.5t-123 26.5v162h123v-88q84 -14 131 -61.5z" />
    <glyph glyph-name="onesuperior" unicode="&#xb9;" horiz-adv-x="716" 
d="M123 707h194v542l-215 -133l-71 123l309 195h152v-727h184v-134h-553v134z" />
    <glyph glyph-name="ordmasculine" unicode="&#xba;" horiz-adv-x="1013" 
d="M774 1351.5q96 -102.5 96 -286.5q0 -193 -106.5 -306.5t-282.5 -113.5q-178 0 -278.5 100.5t-100.5 288.5q0 127 50.5 222.5t141.5 146.5t208 51q176 0 272 -102.5zM335.5 1244.5q-59.5 -66.5 -59.5 -200.5q0 -125 59.5 -190.5t156.5 -65.5q96 0 150 67t54 200
q0 121 -55 188.5t-149 67.5q-97 0 -156.5 -66.5zM850 338h-727v143h727v-143z" />
    <glyph glyph-name="guillemotright" unicode="&#xbb;" horiz-adv-x="1105" 
d="M246 932l297 -328v-123l-297 -327l-123 82l235 307l-235 307zM696 932l287 -328v-123l-287 -327l-123 82l226 307l-226 307z" />
    <glyph glyph-name="onequarter" unicode="&#xbc;" horiz-adv-x="1986" 
d="M174 707h195v542l-215 -133l-72 123l309 195h152v-727h174v-134h-543v134zM645 0h-184l829 1434h185zM1741 319h143v-133h-143v-186h-174v186h-430l-13 121l416 574l201 -21v-541zM1567 686l-264 -367h264v367z" />
    <glyph glyph-name="onehalf" unicode="&#xbd;" horiz-adv-x="1945" 
d="M174 707h195v542l-215 -133l-72 123l309 195h152v-727h174v-134h-543v134zM645 0h-184l829 1434h185zM1300 233q141 113 203 168.5t93.5 105.5t31.5 107q0 123 -153 123q-45 0 -86 -9t-41 -11l-15 -123h-123l-6 223q12 4 54 16.5t103.5 24.5t119.5 12q158 0 244.5 -60
t86.5 -185q0 -82 -34.5 -146.5t-110.5 -137.5t-233 -196h399v-145h-645v141z" />
    <glyph glyph-name="threequarters" unicode="&#xbe;" horiz-adv-x="1972" 
d="M161 1417q46 10 109.5 18.5t118.5 8.5q145 0 226 -57.5t81 -161.5q0 -84 -49 -135.5t-131 -67.5q78 -8 137.5 -61.5t59.5 -129.5q0 -133 -97.5 -200.5t-259.5 -67.5q-68 0 -131 16.5t-103 35t-50 24.5l41 123q10 -4 46 -19.5t92 -29t114 -13.5q80 0 123.5 34t43.5 95
t-47 90t-145 29h-84v125h94q172 0 172 131q0 106 -143 107q-55 0 -97 -8.5t-42 -10.5l-11 -114h-118l-9 227q13 2 59 12zM631 0h-185l830 1434h184zM1726 319h144v-133h-144v-186h-174v186h-430l-12 121l416 574l200 -21v-541zM1552 686l-264 -367h264v367z" />
    <glyph glyph-name="questiondown" unicode="&#xbf;" horiz-adv-x="974" 
d="M679 879q-38 -39 -95 -39q-61 0 -97 37.5t-36 105.5t38.5 105.5t94.5 37.5q61 0 97 -37.5t36 -105.5q0 -65 -38 -104zM702.5 546.5q8.5 -69.5 8.5 -108.5q0 -55 -40 -104t-124 -123q-98 -86 -148.5 -149.5t-50.5 -143.5q0 -84 53.5 -124t161.5 -40q63 0 130 11.5t85 15.5
l33 -154q-10 -4 -49 -15t-96.5 -21.5t-112.5 -10.5q-184 0 -302 74t-118 244q0 80 32 147.5t76 116.5t117 119q78 72 116 118.5t38 100.5q0 49 -2 82.5t-2 44.5l184 12q2 -23 10.5 -92.5z" />
    <glyph glyph-name="Agrave" unicode="&#xc0;" horiz-adv-x="1484" 
d="M645 1423l205 11l455 -1272l170 -39v-123h-594v123l190 39l-78 227h-532l-80 -227l192 -39v-123h-563v123l168 39zM731 1169l-215 -616h422zM983 1618l-82 -113l-399 256l102 154z" />
    <glyph glyph-name="Aacute" unicode="&#xc1;" horiz-adv-x="1484" 
d="M645 1423l205 11l455 -1272l170 -39v-123h-594v123l190 39l-78 227h-532l-80 -227l192 -39v-123h-563v123l168 39zM731 1169l-215 -616h422zM639 1614l373 297l104 -150l-399 -256z" />
    <glyph glyph-name="Acircumflex" unicode="&#xc2;" horiz-adv-x="1486" 
d="M379 1628l297 246l123 10l297 -256l-82 -92l-273 190l-280 -190zM645 1423l205 11l455 -1272l170 -39v-123h-594v123l190 39l-78 227h-532l-80 -227l192 -39v-123h-563v123l168 39zM731 1169l-215 -616h422z" />
    <glyph glyph-name="Atilde" unicode="&#xc3;" horiz-adv-x="1484" 
d="M446.5 1686.5q30.5 50.5 81 93.5t113.5 43q49 0 93 -12.5t100 -36.5q59 -25 93 -35t72 -10q37 0 67 19t46 39.5t21 27.5l71 -62q0 -6 -27.5 -54t-75.5 -89t-112 -41q-49 0 -91 12t-101 35q-53 23 -90 33t-76 10q-37 0 -69 -20.5t-51 -42l-24 -27.5l-71 61q0 6 30.5 56.5z
M645 1423l205 11l455 -1272l170 -39v-123h-594v123l190 39l-78 227h-532l-80 -227l192 -39v-123h-563v123l168 39zM731 1169l-215 -616h422z" />
    <glyph glyph-name="Adieresis" unicode="&#xc4;" horiz-adv-x="1484" 
d="M473 1779.5q33 32.5 80 32.5q53 0 83 -32.5t30 -89.5t-33 -90t-80 -33q-53 0 -83 32.5t-30 90.5q0 57 33 89.5zM893 1779.5q33 32.5 80 32.5q53 0 82.5 -32.5t29.5 -89.5t-32.5 -90t-79.5 -33q-53 0 -83 32.5t-30 90.5q0 57 33 89.5zM645 1423l205 11l455 -1272l170 -39
v-123h-594v123l190 39l-78 227h-532l-80 -227l192 -39v-123h-563v123l168 39zM731 1169l-215 -616h422z" />
    <glyph glyph-name="Aring" unicode="&#xc5;" horiz-adv-x="1484" 
d="M546 1752q34 54 88 83t114 29q94 0 164.5 -60.5t70.5 -165.5q0 -74 -36 -129t-95 -82l453 -1265l170 -39v-123h-594v123l190 39l-78 227h-532l-80 -227l192 -39v-123h-563v123l168 39l467 1261q-59 27 -96 79t-37 126q0 70 34 124zM664.5 1538q29.5 -33 83.5 -33
q49 0 80.5 35t31.5 94q0 61 -29.5 94t-82.5 33q-49 0 -81 -34.5t-32 -94.5q0 -61 29.5 -94zM731 1169l-215 -616h422z" />
    <glyph glyph-name="AE" unicode="&#xc6;" horiz-adv-x="1964" 
d="M983 420h-451l-129 -262l160 -35v-123h-553v123l183 41l567 1106l-174 41v112l258 11h977v-349h-133l-52 185h-438v-441h469v-163h-469v-502h469l41 205h133v-369h-1042v123l184 41v256zM952 1270l-338 -686h369v686h-31z" />
    <glyph glyph-name="Ccedilla" unicode="&#xc7;" horiz-adv-x="1361" 
d="M1007.5 1252.5q-34.5 9.5 -93 18.5t-126.5 9q-207 0 -318.5 -150.5t-111.5 -433.5q0 -266 120 -399t321 -133q96 0 187 37t156.5 80t65.5 47l82 -133q0 -4 -60.5 -52.5t-153.5 -94.5t-206 -62v-76q82 -14 128 -60.5t46 -121.5q0 -78 -65.5 -128.5t-159.5 -50.5
q-59 0 -112.5 14.5t-86 30l-40.5 19.5l53 86q8 -4 34.5 -15.5t65.5 -21.5t76 -10q39 0 65.5 22.5t26.5 59.5q0 47 -44 74.5t-120 27.5v146q-293 12 -453.5 192t-160.5 512q0 233 84 406.5t238.5 267.5t363.5 94q100 0 202.5 -22.5t180.5 -50t78 -29.5l-10 -346h-154l-55 233
q-9 4 -43.5 13.5z" />
    <glyph glyph-name="Egrave" unicode="&#xc8;" horiz-adv-x="1259" 
d="M963 829v-163h-471v-502h471l41 205h133v-369h-1035v123l174 41v1106l-174 41v112l390 11h624v-349h-133l-51 185h-440v-441h471zM839 1618l-82 -113l-399 256l102 154z" />
    <glyph glyph-name="Eacute" unicode="&#xc9;" horiz-adv-x="1259" 
d="M963 829v-163h-471v-502h471l41 205h133v-369h-1035v123l174 41v1106l-174 41v112l390 11h624v-349h-133l-51 185h-440v-441h471zM496 1614l373 297l104 -150l-399 -256z" />
    <glyph glyph-name="Ecircumflex" unicode="&#xca;" horiz-adv-x="1259" 
d="M276 1628l297 246l123 10l297 -256l-82 -92l-272 190l-281 -190zM963 829v-163h-471v-502h471l41 205h133v-369h-1035v123l174 41v1106l-174 41v112l390 11h624v-349h-133l-51 185h-440v-441h471z" />
    <glyph glyph-name="Edieresis" unicode="&#xcb;" horiz-adv-x="1259" 
d="M963 829v-163h-471v-502h471l41 205h133v-369h-1035v123l174 41v1106l-174 41v112l390 11h624v-349h-133l-51 185h-440v-441h471zM360.5 1779.5q32.5 32.5 79.5 32.5q53 0 83 -32.5t30 -89.5t-32.5 -90t-80.5 -33q-53 0 -82.5 32.5t-29.5 90.5q0 57 32.5 89.5z
M780.5 1779.5q32.5 32.5 79.5 32.5q53 0 83 -32.5t30 -89.5t-33 -90t-80 -33q-53 0 -82.5 32.5t-29.5 90.5q0 57 32.5 89.5z" />
    <glyph glyph-name="Igrave" unicode="&#xcc;" horiz-adv-x="737" 
d="M532 1618l-81 -113l-400 256l103 154zM102 123l174 41v1106l-174 41v112l564 11v-123l-174 -41v-1106l174 -41v-123h-564v123z" />
    <glyph glyph-name="Iacute" unicode="&#xcd;" horiz-adv-x="747" 
d="M92 123l174 41v1106l-174 41v112l563 11v-123l-174 -41v-1106l174 -41v-123h-563v123zM199 1614l373 297l104 -150l-399 -256z" />
    <glyph glyph-name="Icircumflex" unicode="&#xce;" horiz-adv-x="770" 
d="M41 1628l283 246l122 10l283 -256l-82 -92l-258 190l-266 -190zM109 123l174 41v1106l-174 41v112l563 11v-123l-174 -41v-1106l174 -41v-123h-563v123z" />
    <glyph glyph-name="Idieresis" unicode="&#xcf;" horiz-adv-x="727" 
d="M73.5 1779.5q32.5 32.5 80.5 32.5q53 0 82.5 -32.5t29.5 -89.5t-32.5 -90t-79.5 -33q-53 0 -83 32.5t-30 90.5q0 57 32.5 89.5zM493.5 1779.5q32.5 32.5 79.5 32.5q53 0 83 -32.5t30 -89.5t-32.5 -90t-80.5 -33q-53 0 -82.5 32.5t-29.5 90.5q0 57 32.5 89.5zM82 123
l174 41v1106l-174 41v112l563 11v-123l-174 -41v-1106l174 -41v-123h-563v123z" />
    <glyph glyph-name="Eth" unicode="&#xd0;" horiz-adv-x="1511" 
d="M266 1270l-174 41v112l389 11h262q303 0 474.5 -181.5t171.5 -515.5q0 -223 -83 -390t-237 -257t-356 -90h-621v123l174 41v512h-174v162h174v432zM799 676h-320v-512h244q201 0 315.5 140t114.5 423q0 276 -110.5 409.5t-309.5 133.5h-254v-432h320v-162z" />
    <glyph glyph-name="Ntilde" unicode="&#xd1;" horiz-adv-x="1617" 
d="M430 1686.5q31 50.5 81 93.5t114 43q49 0 93 -12.5t99 -36.5q59 -25 93 -35t73 -10q37 0 66.5 19t46 39.5t20.5 27.5l72 -62q0 -6 -27.5 -54t-76 -89t-111.5 -41q-49 0 -91 12t-102 35q-53 23 -90 33t-76 10q-37 0 -68.5 -20.5t-51 -42t-23.5 -27.5l-72 61q0 6 31 56.5z
M1372 0h-256l-676 1128v-964l195 -41v-123h-553v123l174 41v1106l-174 41v112l430 11l676 -1145v981l-174 41v112l532 11v-123l-174 -41v-1270z" />
    <glyph glyph-name="Ograve" unicode="&#xd2;" horiz-adv-x="1546" 
d="M1128.5 1367q143.5 -87 219 -249t75.5 -381q0 -223 -85 -395t-238.5 -267t-351.5 -95q-301 0 -463 187t-162 540q0 223 81 393t231.5 262t352.5 92q197 0 340.5 -87zM465.5 1142q-107.5 -138 -107.5 -425q0 -279 100.5 -421t299.5 -142q205 0 317.5 144t112.5 429
q0 274 -104.5 413.5t-305.5 139.5q-205 0 -312.5 -138zM962 1618l-82 -113l-399 256l102 154z" />
    <glyph glyph-name="Oacute" unicode="&#xd3;" horiz-adv-x="1546" 
d="M1128.5 1367q143.5 -87 219 -249t75.5 -381q0 -223 -85 -395t-238.5 -267t-351.5 -95q-301 0 -463 187t-162 540q0 223 81 393t231.5 262t352.5 92q197 0 340.5 -87zM465.5 1142q-107.5 -138 -107.5 -425q0 -279 100.5 -421t299.5 -142q205 0 317.5 144t112.5 429
q0 274 -104.5 413.5t-305.5 139.5q-205 0 -312.5 -138zM567 1614l373 297l104 -150l-399 -256z" />
    <glyph glyph-name="Ocircumflex" unicode="&#xd4;" horiz-adv-x="1546" 
d="M408 1628l297 246l122 10l297 -256l-82 -92l-272 190l-281 -190zM1128.5 1367q143.5 -87 219 -249t75.5 -381q0 -223 -85 -395t-238.5 -267t-351.5 -95q-301 0 -463 187t-162 540q0 223 81 393t231.5 262t352.5 92q197 0 340.5 -87zM465.5 1142q-107.5 -138 -107.5 -425
q0 -279 100.5 -421t299.5 -142q205 0 317.5 144t112.5 429q0 274 -104.5 413.5t-305.5 139.5q-205 0 -312.5 -138z" />
    <glyph glyph-name="Otilde" unicode="&#xd5;" horiz-adv-x="1546" 
d="M407.5 1686.5q30.5 50.5 81 93.5t113.5 43q49 0 93 -12.5t100 -36.5q59 -25 93 -35t73 -10q37 0 66.5 19t46 39.5t20.5 27.5l71 -62q0 -6 -27.5 -54t-75.5 -89t-112 -41q-49 0 -91 12t-101 35q-53 23 -90 33t-76 10q-37 0 -68.5 -20.5t-51 -42t-23.5 -27.5l-72 61
q0 6 30.5 56.5zM1128.5 1367q143.5 -87 219 -249t75.5 -381q0 -223 -85 -395t-238.5 -267t-351.5 -95q-301 0 -463 187t-162 540q0 223 81 393t231.5 262t352.5 92q197 0 340.5 -87zM465.5 1142q-107.5 -138 -107.5 -425q0 -279 100.5 -421t299.5 -142q205 0 317.5 144
t112.5 429q0 274 -104.5 413.5t-305.5 139.5q-205 0 -312.5 -138z" />
    <glyph glyph-name="Odieresis" unicode="&#xd6;" horiz-adv-x="1546" 
d="M483.5 1779.5q32.5 32.5 79.5 32.5q53 0 83 -32.5t30 -89.5t-33 -90t-80 -33q-53 0 -82.5 32.5t-29.5 90.5q0 57 32.5 89.5zM903 1779.5q33 32.5 80 32.5q53 0 83 -32.5t30 -89.5t-33 -90t-80 -33q-53 0 -83 32.5t-30 90.5q0 57 33 89.5zM1128.5 1367q143.5 -87 219 -249
t75.5 -381q0 -223 -85 -395t-238.5 -267t-351.5 -95q-301 0 -463 187t-162 540q0 223 81 393t231.5 262t352.5 92q197 0 340.5 -87zM465.5 1142q-107.5 -138 -107.5 -425q0 -279 100.5 -421t299.5 -142q205 0 317.5 144t112.5 429q0 274 -104.5 413.5t-305.5 139.5
q-205 0 -312.5 -138z" />
    <glyph glyph-name="multiply" unicode="&#xd7;" horiz-adv-x="1228" 
d="M991 1034l115 -114l-377 -377l377 -377l-115 -115l-377 377l-376 -377l-115 115l377 377l-377 377l115 114l376 -377z" />
    <glyph glyph-name="Oslash" unicode="&#xd8;" horiz-adv-x="1566" 
d="M1379.5 1066q54.5 -144 54.5 -329q0 -223 -85 -395t-239 -267t-352 -95q-170 0 -297 61l-154 -256l-133 72l162 268q-203 184 -203 582q0 223 81 393t231.5 262t353.5 92q168 0 299 -65l131 219l133 -72l-139 -231q102 -95 156.5 -239zM788 1280q-205 0 -312 -138
t-107 -425q0 -254 84 -398l546 908q-90 53 -211 53zM768 154q205 0 317.5 144t112.5 429q0 250 -88 391l-549 -911q84 -53 207 -53z" />
    <glyph glyph-name="Ugrave" unicode="&#xd9;" horiz-adv-x="1617" 
d="M1235 131.5q-127 -151.5 -436 -151.5q-293 0 -418 140t-125 433v717l-174 41v112l584 11v-123l-195 -41v-717q0 -154 35 -240t108.5 -122.5t194.5 -36.5q129 0 201.5 41t104.5 134t32 255v686l-195 41v112l584 11v-123l-174 -41v-686q0 -301 -127 -452.5zM962 1618
l-82 -113l-399 256l102 154z" />
    <glyph glyph-name="Uacute" unicode="&#xda;" horiz-adv-x="1617" 
d="M1235 131.5q-127 -151.5 -436 -151.5q-293 0 -418 140t-125 433v717l-174 41v112l584 11v-123l-195 -41v-717q0 -154 35 -240t108.5 -122.5t194.5 -36.5q129 0 201.5 41t104.5 134t32 255v686l-195 41v112l584 11v-123l-174 -41v-686q0 -301 -127 -452.5zM657 1614
l373 297l104 -150l-399 -256z" />
    <glyph glyph-name="Ucircumflex" unicode="&#xdb;" horiz-adv-x="1617" 
d="M451 1628l297 246l122 10l297 -256l-82 -92l-272 190l-281 -190zM1235 131.5q-127 -151.5 -436 -151.5q-293 0 -418 140t-125 433v717l-174 41v112l584 11v-123l-195 -41v-717q0 -154 35 -240t108.5 -122.5t194.5 -36.5q129 0 201.5 41t104.5 134t32 255v686l-195 41v112
l584 11v-123l-174 -41v-686q0 -301 -127 -452.5z" />
    <glyph glyph-name="Udieresis" unicode="&#xdc;" horiz-adv-x="1619" 
d="M514 1779.5q33 32.5 80 32.5q53 0 83 -32.5t30 -89.5t-33 -90t-80 -33q-53 0 -83 32.5t-30 90.5q0 57 33 89.5zM934 1779.5q33 32.5 80 32.5q53 0 82.5 -32.5t29.5 -89.5t-32.5 -90t-79.5 -33q-53 0 -83 32.5t-30 90.5q0 57 33 89.5zM471 553q0 -154 35 -240
t108.5 -122.5t194.5 -36.5q129 0 201.5 41t104.5 134t32 255v686l-195 41v112l584 11v-123l-174 -41v-686q0 -301 -127 -452.5t-436 -151.5q-293 0 -418 140t-125 433v717l-174 41v112l584 11v-123l-195 -41v-717z" />
    <glyph glyph-name="Yacute" unicode="&#xdd;" horiz-adv-x="1320" 
d="M553 530l-395 742l-138 39v112l512 11v-123l-139 -41l273 -574l301 574l-158 41v112l491 11v-123l-126 -37l-406 -739v-371l174 -41v-123h-563v123l174 41v366zM526 1614l373 297l104 -150l-399 -256z" />
    <glyph glyph-name="Thorn" unicode="&#xde;" horiz-adv-x="1218" 
d="M1032 1056.5q125 -100.5 125 -278.5q0 -223 -140 -342t-403 -119h-143v-153l174 -41v-123h-563v123l174 41v1106l-174 41v112l563 11v-123l-174 -41v-113h215q221 0 346 -100.5zM864 549.5q88 68.5 88 198.5q0 111 -73.5 178t-202.5 67h-205v-512h143q162 0 250 68.5z
" />
    <glyph glyph-name="germandbls" unicode="&#xdf;" horiz-adv-x="1433" 
d="M276 1188q0 190 120 299.5t321 109.5q219 0 350 -77.5t131 -239.5q0 -88 -40 -145.5t-116 -124.5q-57 -51 -84.5 -87t-27.5 -83q0 -70 49 -109t151 -84q88 -41 142.5 -74.5t92.5 -93t38 -147.5q0 -102 -60.5 -182t-159 -125t-204.5 -45q-78 0 -144.5 10t-106.5 20t-50 15
l-2 294h133l31 -165q0 -2 33.5 -11.5t84.5 -9.5q98 0 164 39t66 119q0 68 -47 105.5t-148 84.5q-86 37 -142 72t-95 97.5t-39 158.5q0 86 38 139t111 115q63 51 95 93t32 104q0 98 -75.5 141t-190.5 43q-109 0 -177.5 -58.5t-68.5 -156.5v-1229h-379v113l174 51v758h-215
v133l215 20v113z" />
    <glyph glyph-name="agrave" unicode="&#xe0;" horiz-adv-x="1157" 
d="M234.5 1049.5q64.5 19.5 152.5 38t166 18.5q186 0 282.5 -74t96.5 -244v-624l164 -41v-113l-318 -10l-43 143q-66 -66 -152.5 -114.5t-183.5 -48.5q-145 0 -226 80.5t-81 226.5q0 170 122 243.5t349 73.5h164v164q0 90 -50 137t-145 47q-55 0 -101 -7t-72.5 -14t-32.5 -9
l-29 -154h-133l-10 256q16 6 80.5 25.5zM366.5 430q-65.5 -41 -65.5 -133q0 -70 40 -112t110 -42q68 0 129 37t104 80t43 47v164h-143q-152 0 -217.5 -41zM778 1321l-72 -102l-430 266l102 153z" />
    <glyph glyph-name="aacute" unicode="&#xe1;" horiz-adv-x="1157" 
d="M234.5 1049.5q64.5 19.5 152.5 38t166 18.5q186 0 282.5 -74t96.5 -244v-624l164 -41v-113l-318 -10l-43 143q-66 -66 -152.5 -114.5t-183.5 -48.5q-145 0 -226 80.5t-81 226.5q0 170 122 243.5t349 73.5h164v164q0 90 -50 137t-145 47q-55 0 -101 -7t-72.5 -14t-32.5 -9
l-29 -154h-133l-10 256q16 6 80.5 25.5zM366.5 430q-65.5 -41 -65.5 -133q0 -70 40 -112t110 -42q68 0 129 37t104 80t43 47v164h-143q-152 0 -217.5 -41zM727 1638l103 -153l-430 -266l-72 102z" />
    <glyph glyph-name="acircumflex" unicode="&#xe2;" horiz-adv-x="1157" 
d="M164 1321l307 276l123 11l307 -287l-82 -92l-282 221l-291 -221zM583 29q-87 -49 -184 -49q-145 0 -226 80.5t-81 226.5q0 170 122 243.5t349 73.5h164v164q0 90 -50 137t-145 47q-55 0 -101 -7t-72.5 -14t-32.5 -9l-29 -154h-133l-10 256q16 6 80.5 25.5t152.5 38
t166 18.5q186 0 282.5 -74t96.5 -244v-624l164 -41v-113l-318 -10l-43 143q-65 -65 -152 -114zM341 185q40 -42 110 -42q68 0 129 37t104 80t43 47v164h-143q-152 0 -217.5 -41t-65.5 -133q0 -70 40 -112z" />
    <glyph glyph-name="atilde" unicode="&#xe3;" horiz-adv-x="1157" 
d="M179.5 1430.5q29.5 50.5 79.5 92.5t116 42q49 0 91 -12.5t93 -36.5q49 -23 84 -33t74 -10q33 0 64.5 19t51 39.5t23.5 27.5l72 -72q0 -6 -29 -55.5t-78 -90.5t-114 -41q-49 0 -91.5 12.5t-93.5 37.5q-49 23 -84 33t-73 10q-39 0 -71 -20.5t-50.5 -42t-22.5 -27.5l-71 71
q0 6 29.5 56.5zM583 29q-87 -49 -184 -49q-145 0 -226 80.5t-81 226.5q0 170 122 243.5t349 73.5h164v164q0 90 -50 137t-145 47q-55 0 -101 -7t-72.5 -14t-32.5 -9l-29 -154h-133l-10 256q16 6 80.5 25.5t152.5 38t166 18.5q186 0 282.5 -74t96.5 -244v-624l164 -41v-113
l-318 -10l-43 143q-65 -65 -152 -114zM341 185q40 -42 110 -42q68 0 129 37t104 80t43 47v164h-143q-152 0 -217.5 -41t-65.5 -133q0 -70 40 -112z" />
    <glyph glyph-name="adieresis" unicode="&#xe4;" horiz-adv-x="1157" 
d="M248 1523.5q33 32.5 80 32.5q53 0 82.5 -32.5t29.5 -89.5t-32.5 -90t-79.5 -33q-53 0 -83 32.5t-30 90.5q0 57 33 89.5zM667.5 1523.5q32.5 32.5 80.5 32.5q53 0 82.5 -32.5t29.5 -89.5t-32.5 -90t-79.5 -33q-53 0 -83 32.5t-30 90.5q0 57 32.5 89.5zM583 29
q-87 -49 -184 -49q-145 0 -226 80.5t-81 226.5q0 170 122 243.5t349 73.5h164v164q0 90 -50 137t-145 47q-55 0 -101 -7t-72.5 -14t-32.5 -9l-29 -154h-133l-10 256q16 6 80.5 25.5t152.5 38t166 18.5q186 0 282.5 -74t96.5 -244v-624l164 -41v-113l-318 -10l-43 143
q-65 -65 -152 -114zM341 185q40 -42 110 -42q68 0 129 37t104 80t43 47v164h-143q-152 0 -217.5 -41t-65.5 -133q0 -70 40 -112z" />
    <glyph glyph-name="aring" unicode="&#xe5;" horiz-adv-x="1157" 
d="M376 1567.5q34 54.5 88 83t114 28.5q94 0 164.5 -60t70.5 -165q0 -70 -34 -124t-88 -82.5t-113 -28.5q-94 0 -165 60t-71 165q0 69 34 123.5zM494.5 1353.5q29.5 -32.5 83.5 -32.5q49 0 80.5 35t31.5 94q0 61 -29.5 94t-82.5 33q-49 0 -81 -35t-32 -94q0 -62 29.5 -94.5z
M583 29q-87 -49 -184 -49q-145 0 -226 80.5t-81 226.5q0 170 122 243.5t349 73.5h164v164q0 90 -50 137t-145 47q-55 0 -101 -7t-72.5 -14t-32.5 -9l-29 -154h-133l-10 256q16 6 80.5 25.5t152.5 38t166 18.5q186 0 282.5 -74t96.5 -244v-624l164 -41v-113l-318 -10l-43 143
q-65 -65 -152 -114zM341 185q40 -42 110 -42q68 0 129 37t104 80t43 47v164h-143q-152 0 -217.5 -41t-65.5 -133q0 -70 40 -112z" />
    <glyph glyph-name="ae" unicode="&#xe6;" horiz-adv-x="1710" 
d="M1634 559q-4 -33 -6 -43l-706 -4q0 -168 81.5 -268.5t215.5 -100.5q90 0 166.5 25t127 54.5t50.5 33.5l71 -106q0 -4 -66.5 -49.5t-163.5 -83t-206 -37.5q-289 0 -403 217q-55 -72 -157.5 -144.5t-238.5 -72.5q-145 0 -226 80.5t-81 226.5q0 170 122 243.5t349 73.5h164
v164q0 90 -50 137t-145 47q-55 0 -101 -7t-72.5 -14t-32.5 -9l-29 -154h-133l-10 256q16 6 80.5 25.5t152.5 38t166 18.5q246 0 319 -143q63 70 148.5 106.5t187.5 36.5q430 0 430 -481q0 -33 -4 -66zM1368 868.5q-53 77.5 -170 77.5q-119 0 -188.5 -80t-79.5 -200h491
q0 125 -53 202.5zM363.5 430q-66.5 -41 -66.5 -133q0 -70 42 -112t112 -42q68 0 129 39t104 85t43 50v154h-143q-154 0 -220.5 -41z" />
    <glyph glyph-name="ccedilla" unicode="&#xe7;" horiz-adv-x="1044" 
d="M721 934q-53 8 -117 8q-147 0 -227 -95t-80 -284q0 -205 84 -312.5t233 -107.5q86 0 157 28t116 59.5t45 35.5l72 -123q0 -4 -53.5 -40.5t-131.5 -72.5t-164 -46v-74q82 -16 130.5 -63.5t48.5 -118.5q0 -78 -62.5 -127.5t-157.5 -49.5q-59 0 -111 12.5t-83 27t-39 18.5
l49 84q6 -4 32.5 -14.5t65.5 -19.5t76 -9q41 0 68.5 22.5t27.5 61.5q0 47 -46 75.5t-122 28.5v146q-221 16 -335.5 162.5t-114.5 396.5q0 164 65.5 292t185.5 199.5t281 71.5q82 0 160 -18.5t127 -38t62 -25.5l-11 -276h-133l-31 174q-14 4 -67 12z" />
    <glyph glyph-name="egrave" unicode="&#xe8;" horiz-adv-x="1105" 
d="M379 243.5q82 -100.5 215 -100.5q90 0 167 25t127 54.5t50 33.5l72 -106q0 -4 -66.5 -49.5t-164 -83t-206.5 -37.5q-242 0 -366.5 146t-124.5 406q0 162 63.5 293t178 206t260.5 75q430 0 430 -481q0 -33 -4 -66t-6 -43l-707 -4q0 -168 82 -268.5zM743.5 868.5
q-53.5 77.5 -170.5 77.5q-119 0 -188.5 -80t-79.5 -200h492q0 125 -53.5 202.5zM778 1321l-72 -102l-430 266l102 153z" />
    <glyph glyph-name="eacute" unicode="&#xe9;" horiz-adv-x="1105" 
d="M379 243.5q82 -100.5 215 -100.5q90 0 167 25t127 54.5t50 33.5l72 -106q0 -4 -66.5 -49.5t-164 -83t-206.5 -37.5q-242 0 -366.5 146t-124.5 406q0 162 63.5 293t178 206t260.5 75q430 0 430 -481q0 -33 -4 -66t-6 -43l-707 -4q0 -168 82 -268.5zM743.5 868.5
q-53.5 77.5 -170.5 77.5q-119 0 -188.5 -80t-79.5 -200h492q0 125 -53.5 202.5zM757 1638l103 -153l-430 -266l-72 102z" />
    <glyph glyph-name="ecircumflex" unicode="&#xea;" horiz-adv-x="1085" 
d="M186 1321l308 276l122 11l308 -287l-82 -92l-283 221l-291 -221zM379 243.5q82 -100.5 215 -100.5q90 0 167 25t127 54.5t50 33.5l72 -106q0 -4 -66.5 -49.5t-164 -83t-206.5 -37.5q-242 0 -366.5 146t-124.5 406q0 162 63.5 293t178 206t260.5 75q430 0 430 -481
q0 -33 -4 -66t-6 -43l-707 -4q0 -168 82 -268.5zM743.5 868.5q-53.5 77.5 -170.5 77.5q-119 0 -188.5 -80t-79.5 -200h492q0 125 -53.5 202.5z" />
    <glyph glyph-name="edieresis" unicode="&#xeb;" horiz-adv-x="1085" 
d="M268.5 1523.5q32.5 32.5 79.5 32.5q53 0 83 -32.5t30 -89.5t-33 -90t-80 -33q-53 0 -82.5 32.5t-29.5 90.5q0 57 32.5 89.5zM688 1523.5q33 32.5 80 32.5q53 0 83 -32.5t30 -89.5t-33 -90t-80 -33q-53 0 -83 32.5t-30 90.5q0 57 33 89.5zM379 243.5q82 -100.5 215 -100.5
q90 0 167 25t127 54.5t50 33.5l72 -106q0 -4 -66.5 -49.5t-164 -83t-206.5 -37.5q-242 0 -366.5 146t-124.5 406q0 162 63.5 293t178 206t260.5 75q430 0 430 -481q0 -33 -4 -66t-6 -43l-707 -4q0 -168 82 -268.5zM743.5 868.5q-53.5 77.5 -170.5 77.5q-119 0 -188.5 -80
t-79.5 -200h492q0 125 -53.5 202.5z" />
    <glyph glyph-name="igrave" unicode="&#xec;" horiz-adv-x="686" 
d="M614 0h-532v113l174 51v758l-174 41v112l379 10v-921l153 -51v-113zM533 1321l-72 -102l-430 266l102 153z" />
    <glyph glyph-name="iacute" unicode="&#xed;" horiz-adv-x="686" 
d="M614 0h-532v113l174 51v758l-174 41v112l379 10v-921l153 -51v-113zM532 1638l103 -153l-430 -266l-72 102z" />
    <glyph glyph-name="icircumflex" unicode="&#xee;" horiz-adv-x="706" 
d="M0 1321l287 276l123 11l286 -287l-82 -92l-262 221l-270 -221zM625 0h-533v113l174 51v758l-174 41v112l379 10v-921l154 -51v-113z" />
    <glyph glyph-name="idieresis" unicode="&#xef;" horiz-adv-x="686" 
d="M63.5 1523.5q32.5 32.5 79.5 32.5q53 0 83 -32.5t30 -89.5t-33 -90t-80 -33q-53 0 -82.5 32.5t-29.5 90.5q0 57 32.5 89.5zM463 1523.5q33 32.5 80 32.5q53 0 82.5 -32.5t29.5 -89.5t-32.5 -90t-79.5 -33q-53 0 -83 32.5t-30 90.5q0 57 33 89.5zM614 0h-532v113l174 51
v758l-174 41v112l379 10v-921l153 -51v-113z" />
    <glyph glyph-name="eth" unicode="&#xf0;" horiz-adv-x="1177" 
d="M999 1036q86 -211 86 -493q0 -168 -63.5 -295t-180 -197.5t-268.5 -70.5q-231 0 -361 135t-130 387q0 260 135 406.5t367 146.5q141 0 252 -86q-74 203 -230 331l-268 -143l-82 113l221 119q-88 49 -201 86l62 129q166 -39 303 -125l229 125l84 -115l-192 -105
q151 -137 237 -348zM297 512q0 -174 71.5 -271.5t215.5 -97.5q150 0 218 95.5t68 283.5q0 178 -64.5 273.5t-211.5 95.5q-297 0 -297 -379z" />
    <glyph glyph-name="ntilde" unicode="&#xf1;" horiz-adv-x="1361" 
d="M322.5 1430.5q29.5 50.5 80 92.5t115.5 42q49 0 91 -12.5t93 -36.5q49 -23 84 -33t74 -10q33 0 64.5 19t51 39.5t23.5 27.5l72 -72q0 -6 -28.5 -55.5t-78 -90.5t-114.5 -41q-49 0 -91 12.5t-93 37.5q-49 23 -84 33t-74 10t-70.5 -20.5t-50 -42t-22.5 -27.5l-72 71
q0 6 29.5 56.5zM605.5 1050.5q103.5 55.5 213.5 55.5q164 0 246 -97.5t82 -271.5v-573l153 -51v-113h-491v113l133 51v553q0 111 -43 163t-141 52q-78 0 -143.5 -37t-109.5 -80t-44 -47v-604l133 -51v-113h-512v113l174 51v758l-174 41v112l338 10l18 -145
q64 55 167.5 110.5z" />
    <glyph glyph-name="ograve" unicode="&#xf2;" horiz-adv-x="1167" 
d="M958 959.5q127 -146.5 127 -396.5q0 -172 -63.5 -305t-180 -205.5t-268.5 -72.5q-233 0 -362 140t-129 412q0 172 66.5 302.5t184.5 201t271 70.5q227 0 354 -146.5zM369.5 842.5q-72.5 -99.5 -72.5 -299.5q0 -399 287 -400q150 0 218 102.5t68 307.5q0 389 -276 389
q-152 0 -224.5 -99.5zM799 1321l-72 -102l-430 266l102 153z" />
    <glyph glyph-name="oacute" unicode="&#xf3;" horiz-adv-x="1167" 
d="M958 959.5q127 -146.5 127 -396.5q0 -172 -63.5 -305t-180 -205.5t-268.5 -72.5q-233 0 -362 140t-129 412q0 172 66.5 302.5t184.5 201t271 70.5q227 0 354 -146.5zM369.5 842.5q-72.5 -99.5 -72.5 -299.5q0 -399 287 -400q150 0 218 102.5t68 307.5q0 389 -276 389
q-152 0 -224.5 -99.5zM768 1638l103 -153l-430 -266l-72 102z" />
    <glyph glyph-name="ocircumflex" unicode="&#xf4;" horiz-adv-x="1167" 
d="M225 1321l307 276l123 11l308 -287l-82 -92l-283 221l-291 -221zM958 959.5q127 -146.5 127 -396.5q0 -172 -63.5 -305t-180 -205.5t-268.5 -72.5q-233 0 -362 140t-129 412q0 172 66.5 302.5t184.5 201t271 70.5q227 0 354 -146.5zM369.5 842.5
q-72.5 -99.5 -72.5 -299.5q0 -399 287 -400q150 0 218 102.5t68 307.5q0 389 -276 389q-152 0 -224.5 -99.5z" />
    <glyph glyph-name="otilde" unicode="&#xf5;" horiz-adv-x="1167" 
d="M225.5 1428.5q30.5 50.5 80.5 93.5t114 43q49 0 92 -12.5t96 -36.5q53 -23 87 -34.5t73 -11.5q37 0 66.5 19.5t46 40t20.5 26.5l72 -71q0 -6 -27.5 -54.5t-76 -89.5t-111.5 -41q-49 0 -90 12.5t-99 35.5q-49 20 -83.5 31.5t-75.5 11.5q-37 0 -69 -20.5t-51.5 -42
t-23.5 -28.5l-71 72q0 6 30.5 56.5zM958 959.5q127 -146.5 127 -396.5q0 -172 -63.5 -305t-180 -205.5t-268.5 -72.5q-233 0 -362 140t-129 412q0 172 66.5 302.5t184.5 201t271 70.5q227 0 354 -146.5zM369.5 842.5q-72.5 -99.5 -72.5 -299.5q0 -399 287 -400
q150 0 218 102.5t68 307.5q0 389 -276 389q-152 0 -224.5 -99.5z" />
    <glyph glyph-name="odieresis" unicode="&#xf6;" horiz-adv-x="1167" 
d="M289 1523.5q33 32.5 80 32.5q53 0 82.5 -32.5t29.5 -89.5t-32.5 -90t-79.5 -33q-53 0 -83 32.5t-30 90.5q0 57 33 89.5zM708.5 1523.5q32.5 32.5 79.5 32.5q53 0 83 -32.5t30 -89.5t-32.5 -90t-80.5 -33q-53 0 -82.5 32.5t-29.5 90.5q0 57 32.5 89.5zM958 959.5
q127 -146.5 127 -396.5q0 -172 -63.5 -305t-180 -205.5t-268.5 -72.5q-233 0 -362 140t-129 412q0 172 66.5 302.5t184.5 201t271 70.5q227 0 354 -146.5zM369.5 842.5q-72.5 -99.5 -72.5 -299.5q0 -399 287 -400q150 0 218 102.5t68 307.5q0 389 -276 389
q-152 0 -224.5 -99.5z" />
    <glyph glyph-name="divide" unicode="&#xf7;" horiz-adv-x="1269" 
d="M541 1068q39 38 94 38q61 0 97 -38t36 -105q0 -66 -38 -105t-95 -39q-61 0 -97 38t-36 106q0 67 39 105zM1167 461h-1065v164h1065v-164zM541 228q39 38 94 38q61 0 97 -38t36 -105q0 -66 -38 -104.5t-95 -38.5q-61 0 -97 37.5t-36 105.5q0 67 39 105z" />
    <glyph glyph-name="oslash" unicode="&#xf8;" horiz-adv-x="1187" 
d="M92 532q0 172 66.5 302.5t184.5 201t271 70.5q115 0 209 -41l129 215l123 -72l-133 -223q76 -70 115 -178.5t39 -243.5q0 -172 -63.5 -305t-180.5 -205.5t-268 -72.5q-119 0 -219 38l-140 -233l-123 72l142 237q-152 141 -152 438zM380 842.5q-73 -99.5 -73 -299.5
q0 -168 47 -262l379 632q-57 29 -129 29q-151 0 -224 -99.5zM834 805l-377 -631q57 -31 137 -31q150 0 218.5 102.5t68.5 307.5q0 156 -47 252z" />
    <glyph glyph-name="ugrave" unicode="&#xf9;" horiz-adv-x="1331" 
d="M1280 10l-338 -10l-20 143q-61 -55 -166 -109t-213 -54q-164 0 -246 96t-82 270v576l-174 41v112l379 10v-718q0 -109 43 -161t141 -52q78 0 143.5 35.5t109.5 78.5t44 47v607l-174 41v112l379 10v-921l174 -41v-113zM860 1321l-72 -102l-430 266l102 153z" />
    <glyph glyph-name="uacute" unicode="&#xfa;" horiz-adv-x="1331" 
d="M1280 10l-338 -10l-20 143q-61 -55 -166 -109t-213 -54q-164 0 -246 96t-82 270v576l-174 41v112l379 10v-718q0 -109 43 -161t141 -52q78 0 143.5 35.5t109.5 78.5t44 47v607l-174 41v112l379 10v-921l174 -41v-113zM839 1638l103 -153l-430 -266l-72 102z" />
    <glyph glyph-name="ucircumflex" unicode="&#xfb;" horiz-adv-x="1331" 
d="M297 1321l307 276l123 11l307 -287l-82 -92l-282 221l-291 -221zM1280 10l-338 -10l-20 143q-61 -55 -166 -109t-213 -54q-164 0 -246 96t-82 270v576l-174 41v112l379 10v-718q0 -109 43 -161t141 -52q78 0 143.5 35.5t109.5 78.5t44 47v607l-174 41v112l379 10v-921
l174 -41v-113z" />
    <glyph glyph-name="udieresis" unicode="&#xfc;" horiz-adv-x="1331" 
d="M350 1523.5q33 32.5 80 32.5q53 0 83 -32.5t30 -89.5t-33 -90t-80 -33q-53 0 -83 32.5t-30 90.5q0 57 33 89.5zM770 1523.5q33 32.5 80 32.5q53 0 83 -32.5t30 -89.5t-33 -90t-80 -33q-53 0 -83 32.5t-30 90.5q0 57 33 89.5zM1280 10l-338 -10l-20 143q-61 -55 -166 -109
t-213 -54q-164 0 -246 96t-82 270v576l-174 41v112l379 10v-718q0 -109 43 -161t141 -52q78 0 143.5 35.5t109.5 78.5t44 47v607l-174 41v112l379 10v-921l174 -41v-113z" />
    <glyph glyph-name="yacute" unicode="&#xfd;" horiz-adv-x="1181" 
d="M604 225l225 707l-143 31v112l485 10v-122l-133 -21l-290 -811l-19 -49q-68 -182 -127 -298t-159.5 -196t-247.5 -80q-33 0 -76 4.5t-56 6.5l19 143h102q100 0 175 84t151 250l-367 936l-123 31v112l482 10v-122l-144 -21zM891 1638l103 -153l-430 -266l-72 102z" />
    <glyph glyph-name="thorn" unicode="&#xfe;" horiz-adv-x="1259" 
d="M61 -358l164 41v1730l-174 41v113l379 10v-594q0 4 46 36t111.5 59.5t139.5 27.5q217 0 328.5 -143.5t111.5 -389.5q0 -272 -139 -432.5t-414 -160.5q-45 0 -86 6t-66.5 13t-31.5 9v-325l215 -41v-113h-584v113zM457.5 171q23.5 -9 72 -18.5t115.5 -9.5q307 0 307 410
q0 178 -66.5 283.5t-199.5 105.5q-82 0 -139.5 -31.5t-87 -68.5t-29.5 -43v-615q4 -4 27.5 -13z" />
    <glyph glyph-name="ydieresis" unicode="&#xff;" horiz-adv-x="1181" 
d="M309 1523.5q33 32.5 80 32.5q53 0 83 -32.5t30 -89.5t-33 -90t-80 -33q-53 0 -83 32.5t-30 90.5q0 57 33 89.5zM729 1523.5q33 32.5 80 32.5q53 0 83 -32.5t30 -89.5t-33 -90t-80 -33q-53 0 -83 32.5t-30 90.5q0 57 33 89.5zM502 1085v-122l-144 -21l246 -717l225 707
l-143 31v112l485 10v-122l-133 -21l-290 -811l-19 -49q-68 -182 -127 -298t-159.5 -196t-247.5 -80q-33 0 -76 4.5t-56 6.5l19 143h102q100 0 175 84t151 250l-367 936l-123 31v112z" />
    <glyph glyph-name="Amacron" unicode="&#x100;" horiz-adv-x="1484" 
d="M1034 1618h-553v154h553v-154zM645 1423l205 11l455 -1272l170 -39v-123h-594v123l190 39l-78 227h-532l-80 -227l192 -39v-123h-563v123l168 39zM731 1169l-215 -616h422z" />
    <glyph glyph-name="amacron" unicode="&#x101;" horiz-adv-x="1157" 
d="M836 1352h-553v153h553v-153zM234.5 1049.5q64.5 19.5 152.5 38t166 18.5q186 0 282.5 -74t96.5 -244v-624l164 -41v-113l-318 -10l-43 143q-66 -66 -152.5 -114.5t-183.5 -48.5q-145 0 -226 80.5t-81 226.5q0 170 122 243.5t349 73.5h164v164q0 90 -50 137t-145 47
q-55 0 -101 -7t-72.5 -14t-32.5 -9l-29 -154h-133l-10 256q16 6 80.5 25.5zM366.5 430q-65.5 -41 -65.5 -133q0 -70 40 -112t110 -42q68 0 129 37t104 80t43 47v164h-143q-152 0 -217.5 -41z" />
    <glyph glyph-name="Abreve" unicode="&#x102;" horiz-adv-x="1484" 
d="M645 1423l205 11l455 -1272l170 -39v-123h-594v123l190 39l-78 227h-532l-80 -227l192 -39v-123h-563v123l168 39zM731 1169l-215 -616h422zM994 1704q-40 -70 -107.5 -108.5t-149.5 -38.5q-72 0 -135 37.5t-102 106.5t-39 152l123 11q0 -10 13 -48t50 -72t101 -34
q68 0 104.5 32t47.5 65.5t11 45.5l123 11q0 -90 -40 -160z" />
    <glyph glyph-name="abreve" unicode="&#x103;" horiz-adv-x="1157" 
d="M234.5 1049.5q64.5 19.5 152.5 38t166 18.5q186 0 282.5 -74t96.5 -244v-624l164 -41v-113l-318 -10l-43 143q-66 -66 -152.5 -114.5t-183.5 -48.5q-145 0 -226 80.5t-81 226.5q0 170 122 243.5t349 73.5h164v164q0 90 -50 137t-145 47q-55 0 -101 -7t-72.5 -14t-32.5 -9
l-29 -154h-133l-10 256q16 6 80.5 25.5zM366.5 430q-65.5 -41 -65.5 -133q0 -70 40 -112t110 -42q68 0 129 37t104 80t43 47v164h-143q-152 0 -217.5 -41zM789 1407q-40 -70 -107.5 -108.5t-149.5 -38.5q-72 0 -135 37.5t-102 106.5t-39 152l123 11q0 -10 13 -48t50 -72
t101 -34q68 0 104.5 32t47.5 65.5t11 45.5l123 11q0 -90 -40 -160z" />
    <glyph glyph-name="Aogonek" unicode="&#x104;" horiz-adv-x="1484" 
d="M645 1423l205 11l457 -1280l168 -33v-121q-129 -29 -239 -92.5t-110 -143.5q0 -45 26 -68.5t67 -23.5q27 0 55.5 6.5t36.5 8.5l20 -97q-6 -4 -30.5 -13t-60.5 -18.5t-73 -9.5q-88 0 -146 52.5t-58 142.5q0 92 73.5 156.5t151.5 99.5h-307v123l190 39l-78 227h-532
l-80 -227l192 -39v-123h-563v123l168 39zM731 1169l-215 -616h422z" />
    <glyph glyph-name="aogonek" unicode="&#x105;" horiz-adv-x="1167" 
d="M1027 -27q-69 -41 -123 -95t-54 -114q0 -45 25.5 -68.5t66.5 -23.5q27 0 55.5 6.5t36.5 8.5l21 -97q-6 -4 -31 -13t-60.5 -18.5t-72.5 -9.5q-88 0 -146.5 52.5t-58.5 142.5q0 98 71.5 164.5t139.5 95.5l-119 -4l-43 143q-66 -66 -152.5 -114.5t-183.5 -48.5
q-145 0 -226 80.5t-81 226.5q0 170 122 243.5t349 73.5h164v164q0 90 -50 137t-145 47q-55 0 -101 -7t-72.5 -14t-32.5 -9l-29 -154h-133l-10 256q16 6 80.5 25.5t152.5 38t166 18.5q186 0 282.5 -74t96.5 -244v-624l164 -41v-113q0 4 -69 -37zM341 185q40 -42 110 -42
q68 0 129 37t104 80t43 47v164h-143q-152 0 -217.5 -41t-65.5 -133q0 -70 40 -112z" />
    <glyph glyph-name="Cacute" unicode="&#x106;" horiz-adv-x="1361" 
d="M1007.5 1252.5q-34.5 9.5 -93 18.5t-126.5 9q-207 0 -318.5 -150.5t-111.5 -433.5q0 -266 120 -399t321 -133q96 0 187 37t156.5 80t65.5 47l82 -133q0 -6 -73.5 -62.5t-187.5 -104.5t-251 -48q-311 0 -483 182t-172 524q0 233 84 406.5t238.5 267.5t363.5 94
q100 0 202.5 -22.5t180.5 -50t78 -29.5l-10 -348h-154l-55 235q-9 4 -43.5 13.5zM516 1614l373 297l104 -150l-399 -256z" />
    <glyph glyph-name="cacute" unicode="&#x107;" horiz-adv-x="1044" 
d="M721 934q-53 8 -117 8q-147 0 -227 -95t-80 -284q0 -205 84 -312.5t233 -107.5q86 0 157 28t116 59.5t45 35.5l72 -123q0 -4 -63.5 -47t-155 -79.5t-191.5 -36.5q-250 0 -381 148t-131 415q0 164 65.5 292t185.5 199.5t281 71.5q82 0 160 -18.5t127 -38t62 -25.5
l-11 -276h-133l-31 174q-14 4 -67 12zM788 1638l103 -153l-430 -266l-72 102z" />
    <glyph glyph-name="Ccircumflex" unicode="&#x108;" horiz-adv-x="1361" 
d="M420 1628l297 246l123 10l297 -256l-82 -92l-273 190l-280 -190zM1007.5 1252.5q-34.5 9.5 -93 18.5t-126.5 9q-207 0 -318.5 -150.5t-111.5 -433.5q0 -266 120 -399t321 -133q96 0 187 37t156.5 80t65.5 47l82 -133q0 -6 -73.5 -62.5t-187.5 -104.5t-251 -48
q-311 0 -483 182t-172 524q0 233 84 406.5t238.5 267.5t363.5 94q100 0 202.5 -22.5t180.5 -50t78 -29.5l-10 -346h-154l-55 233q-9 4 -43.5 13.5z" />
    <glyph glyph-name="ccircumflex" unicode="&#x109;" horiz-adv-x="1044" 
d="M205 1321l307 276l123 11l307 -287l-82 -92l-282 221l-291 -221zM721 934q-53 8 -117 8q-147 0 -227 -95t-80 -284q0 -205 84 -312.5t233 -107.5q86 0 157 28t116 59.5t45 35.5l72 -123q0 -4 -63.5 -47t-155 -79.5t-191.5 -36.5q-250 0 -381 148t-131 415q0 164 65.5 292
t185.5 199.5t281 71.5q82 0 160 -18.5t127 -38t62 -25.5l-11 -276h-133l-31 174q-14 4 -67 12z" />
    <glyph glyph-name="Cdotaccent" unicode="&#x10a;" horiz-adv-x="1361" 
d="M708.5 1779.5q32.5 32.5 79.5 32.5q53 0 83 -32.5t30 -89.5t-32.5 -90t-80.5 -33q-53 0 -82.5 32.5t-29.5 90.5q0 57 32.5 89.5zM1007.5 1252.5q-34.5 9.5 -93 18.5t-126.5 9q-207 0 -318.5 -150.5t-111.5 -433.5q0 -266 120 -399t321 -133q96 0 187 37t156.5 80t65.5 47
l82 -133q0 -6 -73.5 -62.5t-187.5 -104.5t-251 -48q-311 0 -483 182t-172 524q0 233 84 406.5t238.5 267.5t363.5 94q100 0 202.5 -22.5t180.5 -50t78 -29.5l-10 -346h-154l-55 233q-9 4 -43.5 13.5z" />
    <glyph glyph-name="cdotaccent" unicode="&#x10b;" horiz-adv-x="1044" 
d="M524.5 1523.5q32.5 32.5 79.5 32.5q53 0 83 -32.5t30 -89.5t-33 -90t-80 -33q-53 0 -82.5 32.5t-29.5 90.5q0 57 32.5 89.5zM721 934q-53 8 -117 8q-147 0 -227 -95t-80 -284q0 -205 84 -312.5t233 -107.5q86 0 157 28t116 59.5t45 35.5l72 -123q0 -4 -63.5 -47
t-155 -79.5t-191.5 -36.5q-250 0 -381 148t-131 415q0 164 65.5 292t185.5 199.5t281 71.5q82 0 160 -18.5t127 -38t62 -25.5l-11 -276h-133l-31 174q-14 4 -67 12z" />
    <glyph glyph-name="Ccaron" unicode="&#x10c;" horiz-adv-x="1361" 
d="M1007.5 1252.5q-34.5 9.5 -93 18.5t-126.5 9q-207 0 -318.5 -150.5t-111.5 -433.5q0 -266 120 -399t321 -133q96 0 187 37t156.5 80t65.5 47l82 -133q0 -6 -73.5 -62.5t-187.5 -104.5t-251 -48q-311 0 -483 182t-172 524q0 233 84 406.5t238.5 267.5t363.5 94
q100 0 202.5 -22.5t180.5 -50t78 -29.5l-10 -348h-154l-55 235q-9 4 -43.5 13.5zM1104 1792l-297 -246l-123 -10l-297 256l82 92l272 -190l281 190z" />
    <glyph glyph-name="ccaron" unicode="&#x10d;" horiz-adv-x="1044" 
d="M721 934q-53 8 -117 8q-147 0 -227 -95t-80 -284q0 -205 84 -312.5t233 -107.5q86 0 157 28t116 59.5t45 35.5l72 -123q0 -4 -63.5 -47t-155 -79.5t-191.5 -36.5q-250 0 -381 148t-131 415q0 164 65.5 292t185.5 199.5t281 71.5q82 0 160 -18.5t127 -38t62 -25.5
l-11 -276h-133l-31 174q-14 4 -67 12zM864 1608l82 -92l-307 -277l-123 -10l-307 287l82 92l283 -222z" />
    <glyph glyph-name="Dcaron" unicode="&#x10e;" horiz-adv-x="1495" 
d="M266 1270l-174 41v112l389 11h256q303 0 474 -181.5t171 -515.5q0 -223 -82.5 -390t-236.5 -257t-356 -90h-615v123l174 41v1106zM1032.5 304q114.5 140 114.5 423q0 276 -110.5 409.5t-309.5 133.5h-246v-1106h236q201 0 315.5 140zM1112 1792l-297 -246l-123 -10
l-297 256l82 92l272 -190l281 190z" />
    <glyph glyph-name="dcaron" unicode="&#x10f;" horiz-adv-x="1415" 
d="M1202.5 1393.5q16.5 99.5 11.5 193.5l201 10q0 -88 -38 -200.5t-109 -266.5l-121 44q39 120 55.5 219.5zM1208 10l-348 -10l-16 117q-137 -137 -322 -137q-215 0 -322.5 142t-107.5 390q0 272 137.5 433t405.5 161q100 0 194 -33v340l-174 41v113l379 10v-1413l174 -41
v-113zM798.5 914.5q-24.5 9.5 -72.5 18.5t-112 9q-307 0 -307 -410q0 -180 62.5 -284.5t193.5 -104.5q78 0 137.5 34t94 74t34.5 46v604q-6 4 -30.5 13.5z" />
    <glyph glyph-name="Dcroat" unicode="&#x110;" horiz-adv-x="1511" 
d="M266 1270l-174 41v112l389 11h262q303 0 474.5 -181.5t171.5 -515.5q0 -223 -83 -390t-237 -257t-356 -90h-621v123l174 41v512h-174v164h174v430zM799 676h-320v-512h244q201 0 315.5 140t114.5 423q0 276 -110.5 409.5t-309.5 133.5h-254v-430h320v-164z" />
    <glyph glyph-name="dcroat" unicode="&#x111;" horiz-adv-x="1269" 
d="M1208 1178h-174v-1014l174 -41v-113l-348 -10l-16 117q-137 -137 -322 -137q-215 0 -322.5 142t-107.5 390q0 272 137.5 433t405.5 161q100 0 194 -33v105h-215v153h215v82l-174 41v113l379 10v-246h174v-153zM798.5 914.5q-24.5 9.5 -72.5 18.5t-112 9q-307 0 -307 -410
q0 -180 62.5 -284.5t193.5 -104.5q78 0 137.5 34t94 74t34.5 46v604q-6 4 -30.5 13.5z" />
    <glyph glyph-name="Emacron" unicode="&#x112;" horiz-adv-x="1259" 
d="M963 1618h-553v154h553v-154zM963 829v-163h-471v-502h471l41 205h133v-369h-1035v123l174 41v1106l-174 41v112l390 11h624v-349h-133l-51 185h-440v-441h471z" />
    <glyph glyph-name="emacron" unicode="&#x113;" horiz-adv-x="1085" 
d="M862 1352h-553v153h553v-153zM379 243.5q82 -100.5 215 -100.5q90 0 167 25t127 54.5t50 33.5l72 -106q0 -4 -66.5 -49.5t-164 -83t-206.5 -37.5q-242 0 -366.5 146t-124.5 406q0 162 63.5 293t178 206t260.5 75q430 0 430 -481q0 -33 -4 -66t-6 -43l-707 -4
q0 -168 82 -268.5zM743.5 868.5q-53.5 77.5 -170.5 77.5q-119 0 -188.5 -80t-79.5 -200h492q0 125 -53.5 202.5z" />
    <glyph glyph-name="Ebreve" unicode="&#x114;" horiz-adv-x="1259" 
d="M963 829v-163h-471v-502h471l41 205h133v-369h-1035v123l174 41v1106l-174 41v112l390 11h624v-349h-133l-51 185h-440v-441h471zM922 1704q-40 -70 -107.5 -108.5t-149.5 -38.5q-72 0 -135 37.5t-102 106.5t-39 152l123 11q0 -10 13 -48t50 -72t101 -34q68 0 104.5 32
t47.5 65.5t11 45.5l123 11q0 -90 -40 -160z" />
    <glyph glyph-name="ebreve" unicode="&#x115;" horiz-adv-x="1085" 
d="M812 1407q-40 -70 -107.5 -108.5t-149.5 -38.5q-72 0 -135.5 37.5t-102 106.5t-38.5 152l122 11q0 -10 13.5 -48t50.5 -72t100 -34q68 0 105 32t48 65.5t11 45.5l123 11q0 -90 -40 -160zM379 243.5q82 -100.5 215 -100.5q90 0 167 25t127 54.5t50 33.5l72 -106
q0 -4 -66.5 -49.5t-164 -83t-206.5 -37.5q-242 0 -366.5 146t-124.5 406q0 162 63.5 293t178 206t260.5 75q430 0 430 -481q0 -33 -4 -66t-6 -43l-707 -4q0 -168 82 -268.5zM743.5 868.5q-53.5 77.5 -170.5 77.5q-119 0 -188.5 -80t-79.5 -200h492q0 125 -53.5 202.5z" />
    <glyph glyph-name="Edotaccent" unicode="&#x116;" horiz-adv-x="1259" 
d="M565 1779.5q33 32.5 80 32.5q53 0 83 -32.5t30 -89.5t-33 -90t-80 -33q-53 0 -83 32.5t-30 90.5q0 57 33 89.5zM963 829v-163h-471v-502h471l41 205h133v-369h-1035v123l174 41v1106l-174 41v112l390 11h624v-349h-133l-51 185h-440v-441h471z" />
    <glyph glyph-name="edotaccent" unicode="&#x117;" horiz-adv-x="1085" 
d="M514 1523.5q33 32.5 80 32.5q53 0 83 -32.5t30 -89.5t-33 -90t-80 -33q-53 0 -83 32.5t-30 90.5q0 57 33 89.5zM379 243.5q82 -100.5 215 -100.5q90 0 167 25t127 54.5t50 33.5l72 -106q0 -4 -66.5 -49.5t-164 -83t-206.5 -37.5q-242 0 -366.5 146t-124.5 406
q0 162 63.5 293t178 206t260.5 75q430 0 430 -481q0 -33 -4 -66t-6 -43l-707 -4q0 -168 82 -268.5zM743.5 868.5q-53.5 77.5 -170.5 77.5q-119 0 -188.5 -80t-79.5 -200h492q0 125 -53.5 202.5z" />
    <glyph glyph-name="Eogonek" unicode="&#x118;" horiz-adv-x="1259" 
d="M1095.5 -423q-24.5 -9 -60.5 -18.5t-72 -9.5q-88 0 -146.5 52.5t-58.5 142.5q0 74 43 130t97 93t54 33h-850v123l174 41v1106l-174 41v112l390 11h624v-349h-133l-51 185h-440v-441h471v-163h-471v-502h471l41 205h133v-369q0 4 -59.5 -36t-107.5 -92t-48 -108
q0 -45 25.5 -68.5t66.5 -23.5q27 0 55.5 6.5t36.5 8.5l20 -97q-6 -4 -30.5 -13z" />
    <glyph glyph-name="eogonek" unicode="&#x119;" horiz-adv-x="1085" 
d="M781.5 -32.5q-117.5 -108.5 -117.5 -203.5q0 -45 25.5 -68.5t66.5 -23.5q27 0 55.5 6.5t36.5 8.5l20 -97q-6 -4 -30.5 -13t-60.5 -18.5t-72 -9.5q-88 0 -146.5 52.5t-58.5 142.5q0 117 139 242q-33 -6 -66 -6q-242 0 -366.5 146t-124.5 406q0 162 63.5 293t178 206
t260.5 75q430 0 430 -481q0 -33 -4 -66t-6 -43l-707 -4q0 -168 82 -268.5t215 -100.5q90 0 167 25t127 54.5t50 33.5l72 -106q-111 -74 -228.5 -182.5zM743.5 868.5q-53.5 77.5 -170.5 77.5q-119 0 -188.5 -80t-79.5 -200h492q0 125 -53.5 202.5z" />
    <glyph glyph-name="Ecaron" unicode="&#x11a;" horiz-adv-x="1259" 
d="M963 829v-163h-471v-502h471l41 205h133v-369h-1035v123l174 41v1106l-174 41v112l390 11h624v-349h-133l-51 185h-440v-441h471zM1041 1792l-297 -246l-123 -10l-297 256l82 92l272 -190l281 190z" />
    <glyph glyph-name="ecaron" unicode="&#x11b;" horiz-adv-x="1105" 
d="M379 243.5q82 -100.5 215 -100.5q90 0 167 25t127 54.5t50 33.5l72 -106q0 -4 -66.5 -49.5t-164 -83t-206.5 -37.5q-242 0 -366.5 146t-124.5 406q0 162 63.5 293t178 206t260.5 75q430 0 430 -481q0 -33 -4 -66t-6 -43l-707 -4q0 -168 82 -268.5zM743.5 868.5
q-53.5 77.5 -170.5 77.5q-119 0 -188.5 -80t-79.5 -200h492q0 125 -53.5 202.5zM860 1608l82 -92l-307 -277l-123 -10l-307 287l82 92l283 -222z" />
    <glyph glyph-name="Gcircumflex" unicode="&#x11c;" horiz-adv-x="1536" 
d="M410 1628l297 246l122 10l297 -256l-82 -92l-272 190l-280 -190zM1223.5 66.5q-76.5 -31.5 -193.5 -59t-252 -27.5q-311 0 -483 182t-172 524q0 233 84 406.5t238.5 267.5t363.5 94q100 0 202.5 -22.5t180.5 -50t78 -29.5l-10 -338h-134l-61 225q-10 4 -48 13.5
t-99.5 18.5t-129.5 9q-207 0 -318.5 -150.5t-111.5 -433.5q0 -268 122 -405t329 -137q63 0 126.5 11t106.5 23.5t54 16.5v336l-174 41v112l532 11v-123l-154 -41v-439q0 -4 -76.5 -35.5z" />
    <glyph glyph-name="gcircumflex" unicode="&#x11d;" horiz-adv-x="1198" 
d="M246 1321l307 276l123 11l307 -287l-82 -92l-283 221l-290 -221zM965.5 903.5q13.5 -24.5 26 -71t12.5 -105.5q0 -201 -121 -300t-330 -99q-57 0 -100 7t-54 11l-10 -192h318q201 0 305 -76t104 -221q0 -174 -135 -271.5t-397 -97.5q-231 0 -361.5 68.5t-130.5 228.5
q0 82 48 139.5t107.5 89t59.5 27.5q0 -2 -33.5 8t-61.5 36t-28 73q0 31 23.5 82t49.5 94t34 55q0 -6 -44 31t-79 107.5t-35 179.5q0 195 122 297t329 102q59 0 104 -8t69.5 -17.5t30.5 -13.5l359 8v-112l-199 -29q4 -6 17.5 -30.5zM395.5 902.5q-57.5 -60.5 -57.5 -185.5
q0 -113 57.5 -179.5t167.5 -66.5q123 0 179.5 58.5t56.5 187.5q0 119 -56.5 182.5t-169.5 63.5q-120 0 -177.5 -60.5zM393 -21.5q-37 -25.5 -66.5 -66.5t-29.5 -96q0 -100 79 -137t238 -37q156 0 232 48t76 146q0 94 -67 129t-200 35h-225q0 4 -37 -21.5z" />
    <glyph glyph-name="Gbreve" unicode="&#x11e;" horiz-adv-x="1536" 
d="M1223.5 66.5q-76.5 -31.5 -193.5 -59t-252 -27.5q-311 0 -483 182t-172 524q0 233 84 406.5t238.5 267.5t363.5 94q100 0 202.5 -22.5t180.5 -50t78 -29.5l-10 -338h-134l-61 225q-10 4 -48 13.5t-99.5 18.5t-129.5 9q-207 0 -318.5 -150.5t-111.5 -433.5
q0 -268 122 -405t329 -137q63 0 126.5 11t106.5 23.5t54 16.5v336l-174 41v112l532 11v-123l-154 -41v-439q0 -4 -76.5 -35.5zM1025 1704q-40 -70 -107.5 -108.5t-149.5 -38.5q-72 0 -135 37.5t-102 106.5t-39 152l123 11q0 -10 13 -48t50 -72t101 -34q68 0 104.5 32
t47.5 65.5t11 45.5l123 11q0 -90 -40 -160z" />
    <glyph glyph-name="gbreve" unicode="&#x11f;" horiz-adv-x="1198" 
d="M965.5 903.5q13.5 -24.5 26 -71t12.5 -105.5q0 -201 -121 -300t-330 -99q-57 0 -100 7t-54 11l-10 -192h318q201 0 305 -76t104 -221q0 -174 -135 -271.5t-397 -97.5q-231 0 -361.5 68.5t-130.5 228.5q0 82 48 139.5t107.5 89t59.5 27.5q0 -2 -33.5 8t-61.5 36t-28 73
q0 31 23.5 82t49.5 94t34 55q0 -6 -44 31t-79 107.5t-35 179.5q0 195 122 297t329 102q59 0 104 -8t69.5 -17.5t30.5 -13.5l359 8v-112l-199 -29q4 -6 17.5 -30.5zM395.5 902.5q-57.5 -60.5 -57.5 -185.5q0 -113 57.5 -179.5t167.5 -66.5q123 0 179.5 58.5t56.5 187.5
q0 119 -56.5 182.5t-169.5 63.5q-120 0 -177.5 -60.5zM393 -21.5q-37 -25.5 -66.5 -66.5t-29.5 -96q0 -100 79 -137t238 -37q156 0 232 48t76 146q0 94 -67 129t-200 35h-225q0 4 -37 -21.5zM834 1407q-40 -70 -107.5 -108.5t-149.5 -38.5q-72 0 -135 37.5t-102 106.5
t-39 152l123 11q0 -10 13 -48t50 -72t101 -34q68 0 104.5 32t47.5 65.5t11 45.5l123 11q0 -90 -40 -160z" />
    <glyph glyph-name="Gdotaccent" unicode="&#x120;" horiz-adv-x="1536" 
d="M678 1779.5q33 32.5 80 32.5q53 0 82.5 -32.5t29.5 -89.5t-32.5 -90t-79.5 -33q-53 0 -83 32.5t-30 90.5q0 57 33 89.5zM1223.5 66.5q-76.5 -31.5 -193.5 -59t-252 -27.5q-311 0 -483 182t-172 524q0 233 84 406.5t238.5 267.5t363.5 94q100 0 202.5 -22.5t180.5 -50
t78 -29.5l-10 -338h-134l-61 225q-10 4 -48 13.5t-99.5 18.5t-129.5 9q-207 0 -318.5 -150.5t-111.5 -433.5q0 -268 122 -405t329 -137q63 0 126.5 11t106.5 23.5t54 16.5v336l-174 41v112l532 11v-123l-154 -41v-439q0 -4 -76.5 -35.5z" />
    <glyph glyph-name="gdotaccent" unicode="&#x121;" horiz-adv-x="1198" 
d="M497.5 1523.5q32.5 32.5 80.5 32.5q53 0 82.5 -32.5t29.5 -89.5t-32.5 -90t-79.5 -33q-53 0 -83 32.5t-30 90.5q0 57 32.5 89.5zM965.5 903.5q13.5 -24.5 26 -71t12.5 -105.5q0 -201 -121 -300t-330 -99q-57 0 -100 7t-54 11l-10 -192h318q201 0 305 -76t104 -221
q0 -174 -135 -271.5t-397 -97.5q-231 0 -361.5 68.5t-130.5 228.5q0 82 48 139.5t107.5 89t59.5 27.5q0 -2 -33.5 8t-61.5 36t-28 73q0 31 23.5 82t49.5 94t34 55q0 -6 -44 31t-79 107.5t-35 179.5q0 195 122 297t329 102q59 0 104 -8t69.5 -17.5t30.5 -13.5l359 8v-112
l-199 -29q4 -6 17.5 -30.5zM395.5 902.5q-57.5 -60.5 -57.5 -185.5q0 -113 57.5 -179.5t167.5 -66.5q123 0 179.5 58.5t56.5 187.5q0 119 -56.5 182.5t-169.5 63.5q-120 0 -177.5 -60.5zM393 -21.5q-37 -25.5 -66.5 -66.5t-29.5 -96q0 -100 79 -137t238 -37q156 0 232 48
t76 146q0 94 -67 129t-200 35h-225q0 4 -37 -21.5z" />
    <glyph glyph-name="Gcommaaccent" unicode="&#x122;" horiz-adv-x="1536" 
d="M650 -137q35 35 88 35q55 0 89 -36t34 -98q0 -80 -60.5 -172t-165.5 -176l-82 82q8 8 33 35t47.5 58.5t22.5 50.5q0 12 -17 45q-8 18 -16 40.5t-8 43.5q0 57 35 92zM1223.5 66.5q-76.5 -31.5 -193.5 -59t-252 -27.5q-311 0 -483 182t-172 524q0 233 84 406.5t238.5 267.5
t363.5 94q100 0 202.5 -22.5t180.5 -50t78 -29.5l-10 -338h-134l-61 225q-10 4 -48 13.5t-99.5 18.5t-129.5 9q-207 0 -318.5 -150.5t-111.5 -433.5q0 -268 122 -405t329 -137q63 0 126.5 11t106.5 23.5t54 16.5v336l-174 41v112l532 11v-123l-154 -41v-439
q0 -4 -76.5 -35.5z" />
    <glyph glyph-name="gcommaaccent" unicode="&#x123;" horiz-adv-x="1198" 
d="M567 1616q35 33 88 33q57 0 90 -33t33 -100q0 -164 -229 -336l-78 88q8 6 36 30.5t52.5 55t24.5 49.5q0 12 -19 41q-16 23 -24.5 40t-8.5 42q0 57 35 90zM965.5 903.5q13.5 -24.5 26 -71t12.5 -105.5q0 -201 -121 -300t-330 -99q-57 0 -100 7t-54 11l-10 -192h318
q201 0 305 -76t104 -221q0 -174 -135 -271.5t-397 -97.5q-231 0 -361.5 68.5t-130.5 228.5q0 82 48 139.5t107.5 89t59.5 27.5q0 -2 -33.5 8t-61.5 36t-28 73q0 31 23.5 82t49.5 94t34 55q0 -6 -44 31t-79 107.5t-35 179.5q0 195 122 297t329 102q59 0 104 -8t69.5 -17.5
t30.5 -13.5l359 8v-112l-199 -29q4 -6 17.5 -30.5zM395.5 902.5q-57.5 -60.5 -57.5 -185.5q0 -113 57.5 -179.5t167.5 -66.5q123 0 179.5 58.5t56.5 187.5q0 119 -56.5 182.5t-169.5 63.5q-120 0 -177.5 -60.5zM393 -21.5q-37 -25.5 -66.5 -66.5t-29.5 -96q0 -100 79 -137
t238 -37q156 0 232 48t76 146q0 94 -67 129t-200 35h-225q0 4 -37 -21.5z" />
    <glyph glyph-name="Hcircumflex" unicode="&#x124;" horiz-adv-x="1628" 
d="M455 1628l297 246l122 10l297 -256l-81 -92l-273 190l-280 -190zM82 123l174 41v1106l-174 41v112l584 11v-123l-195 -41v-451h686v451l-194 41v112l583 11v-123l-174 -41v-1106l174 -41v-123h-583v123l194 41v491h-686v-491l195 -41v-123h-584v123z" />
    <glyph glyph-name="hcircumflex" unicode="&#x125;" horiz-adv-x="1331" 
d="M-47 1710l283 246l122 10l283 -256l-82 -92l-258 190l-266 -190zM592 1060q96 46 196 46q164 0 246 -97.5t82 -271.5v-573l154 -51v-113h-492v113l133 49v555q0 111 -41 163t-137 52q-78 0 -145.5 -37t-112.5 -80t-45 -47v-604l133 -51v-113h-512v113l174 51v1249
l-174 41v113l379 10v-619q66 56 162 102z" />
    <glyph glyph-name="Hbar" unicode="&#x126;" horiz-adv-x="1648" 
d="M266 1270l-174 41v112l584 11v-123l-195 -41v-123h686v123l-194 41v112l583 11v-123l-174 -41v-123h174v-154h-174v-829l174 -41v-123h-583v123l194 41v491h-686v-491l195 -41v-123h-584v123l174 41v829h-174v154h174v123zM481 993v-174h686v174h-686z" />
    <glyph glyph-name="hbar" unicode="&#x127;" horiz-adv-x="1331" 
d="M645 1178h-215v-220q66 55 162 101.5t196 46.5q164 0 246 -97.5t82 -271.5v-573l154 -51v-113h-492v113l133 49v555q0 111 -41 163t-137 52q-78 0 -145.5 -37t-112.5 -80t-45 -47v-604l133 -51v-113h-512v113l174 51v1014h-174v153h174v82l-174 41v113l379 10v-246h215
v-153z" />
    <glyph glyph-name="Itilde" unicode="&#x128;" horiz-adv-x="727" 
d="M11.5 1686.5q31.5 50.5 81.5 93.5t112 43q47 0 85 -12.5t93 -38.5q45 -20 77 -31.5t66 -11.5q33 0 61.5 19t47 39.5t22.5 27.5l70 -62q0 -6 -28.5 -54t-77 -89t-109.5 -41q-47 0 -87 12t-91 37q-49 20 -79 30.5t-65 10.5t-66.5 -20.5t-51 -42t-23.5 -27.5l-69 61
q0 6 31.5 56.5zM80 123l174 41v1106l-174 41v112l563 11v-123l-174 -41v-1106l174 -41v-123h-563v123z" />
    <glyph glyph-name="itilde" unicode="&#x129;" horiz-adv-x="684" 
d="M-21.5 1428.5q29.5 50.5 77.5 93.5t110 43q43 0 78 -12.5t84 -36.5q49 -23 79.5 -34.5t67.5 -11.5q35 0 62.5 19.5t44 40t20.5 26.5l72 -71q0 -6 -26.5 -54.5t-73 -89.5t-107.5 -41q-43 0 -79 12.5t-83 35.5q-55 25 -82.5 34t-64.5 9q-35 0 -66 -20.5t-49 -42t-23 -28.5
l-71 72q0 6 29.5 56.5zM614 0h-532v113l174 51v758l-174 41v112l379 10v-921l153 -51v-113z" />
    <glyph glyph-name="Imacron" unicode="&#x12a;" horiz-adv-x="727" 
d="M645 1618h-553v154h553v-154zM82 123l174 41v1106l-174 41v112l563 11v-123l-174 -41v-1106l174 -41v-123h-563v123z" />
    <glyph glyph-name="imacron" unicode="&#x12b;" horiz-adv-x="686" 
d="M594 1352h-533v153h533v-153zM614 0h-532v113l174 51v758l-174 41v112l379 10v-921l153 -51v-113z" />
    <glyph glyph-name="Ibreve" unicode="&#x12c;" horiz-adv-x="727" 
d="M615 1704q-40 -70 -107.5 -109t-149.5 -39q-72 0 -135 38t-102 106.5t-39 152.5l123 11q0 -10 13 -48t50 -72t101 -34q68 0 104.5 32t47.5 65.5t11 45.5l123 11q0 -90 -40 -160zM82 123l174 41v1106l-174 41v112l563 11v-123l-174 -41v-1106l174 -41v-123h-563v123z" />
    <glyph glyph-name="ibreve" unicode="&#x12d;" horiz-adv-x="675" 
d="M574.5 1407q-39.5 -70 -107.5 -108.5t-150 -38.5q-72 0 -135 37.5t-102 106.5t-39 152l123 11q0 -10 13 -48t50 -72t101 -34q68 0 104.5 32t48 65.5t11.5 45.5l122 11q0 -90 -39.5 -160zM608 0h-532v113l174 51v758l-174 41v112l379 10v-921l153 -51v-113z" />
    <glyph glyph-name="Iogonek" unicode="&#x12e;" horiz-adv-x="727" 
d="M424 -100.5q-96 -61.5 -96 -135.5q0 -45 25.5 -68.5t66.5 -23.5q27 0 55.5 6.5t36.5 8.5l20 -97q-6 -4 -30.5 -13t-60 -18.5t-72.5 -9.5q-88 0 -146.5 52.5t-58.5 142.5q0 92 74.5 156.5t154.5 99.5h-311v123l174 41v1106l-174 41v112l563 11v-123l-174 -41v-1106
l174 -41v-123q-125 -39 -221 -100.5z" />
    <glyph glyph-name="iogonek" unicode="&#x12f;" horiz-adv-x="686" 
d="M254 1529q39 38 94 38q133 0 133 -144q0 -66 -41 -104.5t-92 -38.5q-61 0 -97 38t-36 105q0 68 39 106zM256 922l-174 41v112l379 10v-921l153 -51v-113q-119 -39 -213 -100.5t-94 -135.5q0 -45 25.5 -68.5t66.5 -23.5q27 0 55.5 6.5l37.5 8.5l20 -97q-6 -4 -30.5 -13
t-60.5 -18.5t-73 -9.5q-88 0 -146.5 52.5t-58.5 142.5q0 150 226 256h-287v113l174 51v758z" />
    <glyph glyph-name="Idotaccent" unicode="&#x130;" horiz-adv-x="727" 
d="M284.5 1779.5q32.5 32.5 80.5 32.5q53 0 82.5 -32.5t29.5 -89.5t-32.5 -90t-79.5 -33q-53 0 -83 32.5t-30 90.5q0 57 32.5 89.5zM82 123l174 41v1106l-174 41v112l563 11v-123l-174 -41v-1106l174 -41v-123h-563v123z" />
    <glyph glyph-name="dotlessi" unicode="&#x131;" horiz-adv-x="686" 
d="M614 0h-532v113l174 51v758l-174 41v112l379 10v-921l153 -51v-113z" />
    <glyph glyph-name="IJ" unicode="&#x132;" horiz-adv-x="1441" 
d="M92 123l174 41v1106l-174 41v112l563 11v-123l-174 -41v-1106l174 -41v-123h-563v123zM1186 1270v-1178q0 -186 -103.5 -292.5t-285.5 -106.5q-33 0 -76 4t-55 6l18 154h102q96 0 140.5 49t44.5 145v1219l-174 41v112l563 11v-123z" />
    <glyph glyph-name="ij" unicode="&#x133;" horiz-adv-x="1247" 
d="M254 1529q39 38 94 38q133 0 133 -144q0 -66 -41 -104.5t-92 -38.5q-61 0 -97 38t-36 105q0 68 39 106zM866 1529q39 38 95 38q133 0 133 -144q0 -66 -41 -104.5t-92 -38.5q-61 0 -97.5 38t-36.5 105q0 68 39 106zM614 0h-532v113l174 51v758l-174 41v112l379 10v-921
l153 -51v-113zM985 -385.5q-98 -106.5 -280 -106.5q-33 0 -76 4.5t-56 6.5l19 143h102q102 0 143.5 52.5t41.5 152.5v1055l-174 41v112l378 10v-1177q0 -187 -98 -293.5z" />
    <glyph glyph-name="Jcircumflex" unicode="&#x134;" horiz-adv-x="743" 
d="M25 1628l282 246l123 10l283 -256l-82 -92l-258 190l-267 -190zM479 1270v-1178q0 -186 -103.5 -292.5t-285.5 -106.5q-33 0 -76 4t-55 6l18 154h103q96 0 140 49t44 145v1219l-174 41v112l563 11v-123z" />
    <glyph glyph-name="jcircumflex" unicode="&#x135;" horiz-adv-x="591" 
d="M-53 1321l286 276l123 11l287 -287l-82 -92l-262 221l-270 -221zM329.5 -385.5q-98.5 -106.5 -280.5 -106.5q-33 0 -76 4.5t-55 6.5l19 143h102q102 0 143 52.5t41 152.5v1055l-174 41v112l379 10v-1177q0 -187 -98.5 -293.5z" />
    <glyph glyph-name="Kcommaaccent" unicode="&#x136;" horiz-adv-x="1454" 
d="M629 -137q35 35 88 35q55 0 89 -36t34 -98q0 -80 -60.5 -172t-165.5 -176l-82 82q8 8 33 35t47.5 58.5t22.5 50.5q0 12 -17 45q-8 18 -16 40.5t-8 43.5q0 57 35 92zM92 123l174 41v1106l-174 41v112l584 11v-123l-195 -41v-451h189l354 604l338 11v-123l-203 -41
l-311 -518l422 -588l174 -41v-123h-584v123l174 41l-352 491h-201v-491l195 -41v-123h-584v123z" />
    <glyph glyph-name="kcommaaccent" unicode="&#x137;" horiz-adv-x="1187" 
d="M537 -137q35 35 88 35q55 0 89 -36t34 -98q0 -80 -60.5 -172t-165.5 -176l-82 82q8 8 33 35t47.5 58.5t22.5 50.5q0 12 -17 45q-8 18 -16 40.5t-8 43.5q0 57 35 92zM758 934l-92 29v112l450 10v-122l-145 -25h-2l-211 -313l264 -461h2l154 -51v-113h-277l-293 522h-178
v-358l133 -51v-113h-512v113l174 51v1249l-174 41v113l379 10v-901h174z" />
    <glyph glyph-name="kgreenlandic" unicode="&#x138;" horiz-adv-x="1228" 
d="M594 0h-512v113l174 51v758l-174 41v112l379 10v-419h184l154 268l-92 29v112l450 10v-122l-145 -25h-2l-211 -324l264 -450l156 -51v-113h-277l-293 512h-188v-348l133 -51v-113z" />
    <glyph glyph-name="Lacute" unicode="&#x139;" horiz-adv-x="1085" 
d="M922 399h143v-399h-993v123l174 41v1106l-174 41v112l563 11v-123l-174 -41v-1106h420zM199 1614l373 297l104 -150l-399 -256z" />
    <glyph glyph-name="lacute" unicode="&#x13a;" horiz-adv-x="628" 
d="M618 0h-567v113l174 51v1249l-174 41v113l383 10v-1413l184 -51v-113zM86 1716l373 297l104 -150l-399 -256z" />
    <glyph glyph-name="Lcommaaccent" unicode="&#x13b;" horiz-adv-x="1085" 
d="M496 -137q35 35 88 35q55 0 89 -36t34 -98q0 -80 -60.5 -172t-165.5 -176l-82 82q8 8 33 35t47.5 58.5t22.5 50.5q0 12 -17 45q-8 18 -16 40.5t-8 43.5q0 57 35 92zM922 399h143v-399h-993v123l174 41v1106l-174 41v112l563 11v-123l-174 -41v-1106h420z" />
    <glyph glyph-name="lcommaaccent" unicode="&#x13c;" horiz-adv-x="649" 
d="M639 0h-588v113l174 51v1249l-174 41v113l383 10v-1413l205 -51v-113zM229.5 -137q34.5 35 87.5 35q55 0 89 -36t34 -98q0 -80 -60.5 -172t-164.5 -176l-82 82q8 8 32.5 35t47.5 58.5t23 50.5q0 12 -17 45q-8 18 -16 40.5t-8 43.5q0 57 34.5 92z" />
    <glyph glyph-name="Lcaron" unicode="&#x13d;" horiz-adv-x="1085" 
d="M922 399h143v-399h-993v123l174 41v1106l-174 41v112l563 11v-123l-174 -41v-1106h420zM993 1233q-41 -115 -123 -281l-122 41q49 141 69.5 240.5t16.5 189.5l200 11q0 -86 -41 -201z" />
    <glyph glyph-name="lcaron" unicode="&#x13e;" horiz-adv-x="815" 
d="M602 1393.5q16 99.5 12 193.5l201 10q0 -88 -38 -200.5t-109 -266.5l-121 44q39 120 55 219.5zM618 0h-567v113l174 51v1249l-174 41v113l383 10v-1413l184 -51v-113z" />
    <glyph glyph-name="Ldot" unicode="&#x13f;" horiz-adv-x="1085" 
d="M922 399h143v-399h-993v123l174 41v1106l-174 41v112l563 11v-123l-174 -41v-1106h420zM663.5 846q38.5 39 98.5 39q66 0 101.5 -38t35.5 -110q0 -70 -39 -108.5t-98 -38.5q-66 0 -101.5 38t-35.5 109q0 70 38.5 109z" />
    <glyph glyph-name="ldot" unicode="&#x140;" horiz-adv-x="866" 
d="M639 0h-588v113l174 51v1249l-174 41v113l383 10v-1413l205 -51v-113zM610 754q39 39 99 39q66 0 101.5 -38t35.5 -110q0 -70 -39 -108.5t-98 -38.5q-66 0 -102 37.5t-36 109.5q0 70 39 109z" />
    <glyph glyph-name="Lslash" unicode="&#x141;" horiz-adv-x="1118" 
d="M831 813l-339 -164v-485h419l41 235h144v-399h-994v123l174 41v395l-172 -82l-43 154l215 102v537l-174 41v112l564 11v-123l-174 -41v-447l296 144z" />
    <glyph glyph-name="lslash" unicode="&#x142;" horiz-adv-x="739" 
d="M729 829l-244 -116v-549l205 -51v-113h-588v113l174 51v465l-192 -92l-43 151l235 113v612l-174 41v113l383 10v-690l203 96z" />
    <glyph glyph-name="Nacute" unicode="&#x143;" horiz-adv-x="1617" 
d="M635 123v-123h-553v123l174 41v1106l-174 41v112l430 11l676 -1145v981l-174 41v112l532 11v-123l-174 -41v-1270h-256l-676 1128v-964zM629 1614l373 297l104 -150l-399 -256z" />
    <glyph glyph-name="nacute" unicode="&#x144;" horiz-adv-x="1361" 
d="M605.5 1050.5q103.5 55.5 213.5 55.5q164 0 246 -97.5t82 -271.5v-573l153 -51v-113h-491v113l133 51v553q0 111 -43 163t-141 52q-78 0 -143.5 -37t-109.5 -80t-44 -47v-604l133 -51v-113h-512v113l174 51v758l-174 41v112l338 10l18 -145q64 55 167.5 110.5zM860 1638
l103 -153l-430 -266l-72 102z" />
    <glyph glyph-name="Ncommaaccent" unicode="&#x145;" horiz-adv-x="1617" 
d="M635 123v-123h-553v123l174 41v1106l-174 41v112l430 11l676 -1145v981l-174 41v112l532 11v-123l-174 -41v-1270h-256l-676 1128v-964zM721 -137q35 35 88 35q55 0 89 -36t34 -98q0 -80 -60.5 -172t-165.5 -176l-82 82q8 8 33 35t47.5 58.5t22.5 50.5q0 12 -17 45
q-8 18 -16 40.5t-8 43.5q0 57 35 92z" />
    <glyph glyph-name="ncommaaccent" unicode="&#x146;" horiz-adv-x="1361" 
d="M588 -137q35 35 88 35q55 0 89 -36t34 -98q0 -80 -60.5 -172t-165.5 -176l-82 82q8 8 33 35t47.5 58.5t22.5 50.5q0 12 -17 45q-8 18 -16 40.5t-8 43.5q0 57 35 92zM605.5 1050.5q103.5 55.5 213.5 55.5q164 0 246 -97.5t82 -271.5v-573l153 -51v-113h-491v113l133 51
v553q0 111 -43 163t-141 52q-78 0 -143.5 -37t-109.5 -80t-44 -47v-604l133 -51v-113h-512v113l174 51v758l-174 41v112l338 10l18 -145q64 55 167.5 110.5z" />
    <glyph glyph-name="Ncaron" unicode="&#x147;" horiz-adv-x="1617" 
d="M635 123v-123h-553v123l174 41v1106l-174 41v112l430 11l676 -1145v981l-174 41v112l532 11v-123l-174 -41v-1270h-256l-676 1128v-964zM1178 1792l-297 -246l-123 -10l-297 256l82 92l272 -190l281 190z" />
    <glyph glyph-name="ncaron" unicode="&#x148;" horiz-adv-x="1361" 
d="M605.5 1050.5q103.5 55.5 213.5 55.5q164 0 246 -97.5t82 -271.5v-573l153 -51v-113h-491v113l133 51v553q0 111 -43 163t-141 52q-78 0 -143.5 -37t-109.5 -80t-44 -47v-604l133 -51v-113h-512v113l174 51v758l-174 41v112l338 10l18 -145q64 55 167.5 110.5zM977 1608
l82 -92l-307 -277l-123 -10l-307 287l82 92l283 -222z" />
    <glyph glyph-name="napostrophe" unicode="&#x149;" horiz-adv-x="1361" 
d="M65.5 1616q34.5 33 88.5 33q57 0 89.5 -33t32.5 -100q0 -164 -229 -336l-78 88q8 6 36 30.5t52.5 55t24.5 49.5q0 12 -19 41q-16 23 -24 40t-8 42q0 57 34.5 90zM605.5 1050.5q103.5 55.5 213.5 55.5q164 0 246 -97.5t82 -271.5v-573l153 -51v-113h-491v113l133 51v553
q0 111 -43 163t-141 52q-78 0 -143.5 -37t-109.5 -80t-44 -47v-604l133 -51v-113h-512v113l174 51v758l-174 41v112l338 10l18 -145q64 55 167.5 110.5z" />
    <glyph glyph-name="Eng" unicode="&#x14a;" horiz-adv-x="1628" 
d="M1094 -112.5q43 30.5 55 92.5l-709 1148v-964l195 -41v-123h-553v123l174 41v1106l-174 41v112l430 11l676 -1145v981l-174 41v112l532 11v-123l-174 -41v-1200q0 -170 -104.5 -273.5t-286.5 -103.5q-33 0 -76 4t-55 6l18 154h103q80 0 123 30.5z" />
    <glyph glyph-name="eng" unicode="&#x14b;" horiz-adv-x="1300" 
d="M899 879.5q-43 52.5 -141 52.5q-78 0 -143.5 -37t-109.5 -80t-44 -47v-604l133 -51v-113h-512v113l174 51v758l-174 41v112l338 10l18 -145q63 55 167 110.5t214 55.5q164 0 246 -97.5t82 -271.5v-829q0 -186 -98.5 -293t-280.5 -107q-33 0 -76 4.5t-55 6.5l18 143h103
q102 0 143 52.5t41 152.5v850q0 110 -43 162.5z" />
    <glyph glyph-name="Omacron" unicode="&#x14c;" horiz-adv-x="1546" 
d="M1059 1618h-553v154h553v-154zM1128.5 1367q143.5 -87 219 -249t75.5 -381q0 -223 -85 -395t-238.5 -267t-351.5 -95q-301 0 -463 187t-162 540q0 223 81 393t231.5 262t352.5 92q197 0 340.5 -87zM465.5 1142q-107.5 -138 -107.5 -425q0 -279 100.5 -421t299.5 -142
q205 0 317.5 144t112.5 429q0 274 -104.5 413.5t-305.5 139.5q-205 0 -312.5 -138z" />
    <glyph glyph-name="omacron" unicode="&#x14d;" horiz-adv-x="1167" 
d="M870 1352h-553v153h553v-153zM958 959.5q127 -146.5 127 -396.5q0 -172 -63.5 -305t-180 -205.5t-268.5 -72.5q-233 0 -362 140t-129 412q0 172 66.5 302.5t184.5 201t271 70.5q227 0 354 -146.5zM369.5 842.5q-72.5 -99.5 -72.5 -299.5q0 -399 287 -400q150 0 218 102.5
t68 307.5q0 389 -276 389q-152 0 -224.5 -99.5z" />
    <glyph glyph-name="Obreve" unicode="&#x14e;" horiz-adv-x="1546" 
d="M1128.5 1367q143.5 -87 219 -249t75.5 -381q0 -223 -85 -395t-238.5 -267t-351.5 -95q-301 0 -463 187t-162 540q0 223 81 393t231.5 262t352.5 92q197 0 340.5 -87zM465.5 1142q-107.5 -138 -107.5 -425q0 -279 100.5 -421t299.5 -142q205 0 317.5 144t112.5 429
q0 274 -104.5 413.5t-305.5 139.5q-205 0 -312.5 -138zM1023 1704q-40 -70 -107.5 -108.5t-149.5 -38.5q-72 0 -135 37.5t-102 106.5t-39 152l123 11q0 -10 13 -48t50 -72t101 -34q68 0 104.5 32t47.5 65.5t11 45.5l123 11q0 -90 -40 -160z" />
    <glyph glyph-name="obreve" unicode="&#x14f;" horiz-adv-x="1167" 
d="M958 959.5q127 -146.5 127 -396.5q0 -172 -63.5 -305t-180 -205.5t-268.5 -72.5q-233 0 -362 140t-129 412q0 172 66.5 302.5t184.5 201t271 70.5q227 0 354 -146.5zM369.5 842.5q-72.5 -99.5 -72.5 -299.5q0 -399 287 -400q150 0 218 102.5t68 307.5q0 389 -276 389
q-152 0 -224.5 -99.5zM830 1407q-40 -70 -107.5 -108.5t-149.5 -38.5q-72 0 -135 37.5t-102 106.5t-39 152l123 11q0 -10 13 -48t50 -72t101 -34q68 0 104.5 32t47.5 65.5t11 45.5l123 11q0 -90 -40 -160z" />
    <glyph glyph-name="Ohungarumlaut" unicode="&#x150;" horiz-adv-x="1546" 
d="M678 1927l135 -119l-291 -307l-110 86zM1077 1927l135 -119l-290 -307l-111 86zM1128.5 1367q143.5 -87 219 -249t75.5 -381q0 -223 -85 -395t-238.5 -267t-351.5 -95q-301 0 -463 187t-162 540q0 223 81 393t231.5 262t352.5 92q197 0 340.5 -87zM465.5 1142
q-107.5 -138 -107.5 -425q0 -279 100.5 -421t299.5 -142q205 0 317.5 144t112.5 429q0 274 -104.5 413.5t-305.5 139.5q-205 0 -312.5 -138z" />
    <glyph glyph-name="ohungarumlaut" unicode="&#x151;" horiz-adv-x="1167" 
d="M958 959.5q127 -146.5 127 -396.5q0 -172 -63.5 -305t-180 -205.5t-268.5 -72.5q-233 0 -362 140t-129 412q0 172 66.5 302.5t184.5 201t271 70.5q227 0 354 -146.5zM369.5 842.5q-72.5 -99.5 -72.5 -299.5q0 -399 287 -400q150 0 218 102.5t68 307.5q0 389 -276 389
q-152 0 -224.5 -99.5zM524 1640l135 -118l-291 -308l-90 76zM903 1640l135 -118l-291 -308l-90 76z" />
    <glyph glyph-name="OE" unicode="&#x152;" horiz-adv-x="1914" 
d="M1638 1085l-51 185h-440v-441h471v-163h-471v-502h471l41 205h133v-369h-717l-123 -4q-184 -6 -204 -6q-301 0 -463 183t-162 534q0 223 81 390t231.5 257t352.5 90q86 0 170 -6q102 -4 138 -4h676v-349h-134zM867.5 1276q-50.5 4 -89.5 4q-205 0 -312.5 -138
t-107.5 -425q0 -279 100.5 -421t299.5 -142q45 0 101 4t73 6v1106q-14 2 -64.5 6z" />
    <glyph glyph-name="oe" unicode="&#x153;" horiz-adv-x="1873" 
d="M830.5 1048.5q99.5 -57.5 160.5 -155.5q61 100 158.5 156.5t222.5 56.5q430 0 430 -481q0 -33 -4 -66t-6 -43l-707 -4q0 -168 82 -268.5t215 -100.5q90 0 167 25t127 54.5t50 33.5l72 -106q0 -4 -66.5 -49.5t-164 -83t-205.5 -37.5q-268 0 -385 210q-63 -96 -164.5 -153
t-239.5 -57q-233 0 -362 140t-129 412q0 172 66.5 302.5t184.5 201t271 70.5q127 0 226.5 -57.5zM1532 868.5q-53 77.5 -170 77.5q-119 0 -188.5 -80t-79.5 -200h491q0 125 -53 202.5zM369.5 842.5q-72.5 -99.5 -72.5 -299.5q0 -399 287 -400q297 0 297 410q0 180 -70 284.5
t-217 104.5q-152 0 -224.5 -99.5z" />
    <glyph glyph-name="Racute" unicode="&#x154;" horiz-adv-x="1331" 
d="M256 1270l-174 41v112l389 11h225q217 0 339 -98.5t122 -270.5q0 -301 -266 -399q49 -43 123 -185l162 -325l145 -33v-123h-307l-174 379q-49 106 -86 156.5t-79 70t-112 19.5h-92v-461l174 -41v-123h-563v123l174 41v1106zM858 845.5q84 67.5 84 188.5q0 102 -71.5 169
t-184.5 67h-215v-492h154q149 0 233 67.5zM414 1614l373 297l104 -150l-399 -256z" />
    <glyph glyph-name="racute" unicode="&#x155;" horiz-adv-x="952" 
d="M575.5 1052.5q79.5 53.5 172.5 53.5q45 0 85.5 -7t66.5 -14.5t32 -9.5l-10 -297h-134l-30 154q-102 0 -176 -49t-121 -111v-608l205 -51v-113h-584v113l174 51v758l-174 41v112l338 10l18 -149q58 63 137.5 116.5zM655 1638l103 -153l-430 -266l-72 102z" />
    <glyph glyph-name="Rcommaaccent" unicode="&#x156;" horiz-adv-x="1331" 
d="M639 -137q35 35 88 35q55 0 89 -36t34 -98q0 -80 -60.5 -172t-165.5 -176l-82 82q8 8 33 35t47.5 58.5t22.5 50.5q0 12 -17 45q-8 18 -16 40.5t-8 43.5q0 57 35 92zM256 1270l-174 41v112l389 11h225q217 0 339 -98.5t122 -270.5q0 -301 -266 -399q49 -43 123 -185
l162 -325l145 -33v-123h-307l-174 379q-49 106 -86 156.5t-79 70t-112 19.5h-92v-461l174 -41v-123h-563v123l174 41v1106zM858 845.5q84 67.5 84 188.5q0 102 -71.5 169t-184.5 67h-215v-492h154q149 0 233 67.5z" />
    <glyph glyph-name="rcommaaccent" unicode="&#x157;" horiz-adv-x="952" 
d="M301 -137q35 35 88 35q55 0 89 -36t34 -98q0 -80 -60.5 -172t-165.5 -176l-82 82q8 8 33 35t47.5 58.5t22.5 50.5q0 12 -17 45q-8 18 -16 40.5t-8 43.5q0 57 35 92zM575.5 1052.5q79.5 53.5 172.5 53.5q45 0 85.5 -7t66.5 -14.5t32 -9.5l-10 -297h-134l-30 154
q-102 0 -176 -49t-121 -111v-608l205 -51v-113h-584v113l174 51v758l-174 41v112l338 10l18 -149q58 63 137.5 116.5z" />
    <glyph glyph-name="Rcaron" unicode="&#x158;" horiz-adv-x="1331" 
d="M256 1270l-174 41v112l389 11h225q217 0 339 -98.5t122 -270.5q0 -301 -266 -399q49 -43 123 -185l162 -325l145 -33v-123h-307l-174 379q-49 106 -86 156.5t-79 70t-112 19.5h-92v-461l174 -41v-123h-563v123l174 41v1106zM858 845.5q84 67.5 84 188.5q0 102 -71.5 169
t-184.5 67h-215v-492h154q149 0 233 67.5zM983 1792l-297 -246l-123 -10l-297 256l82 92l272 -190l281 190z" />
    <glyph glyph-name="rcaron" unicode="&#x159;" horiz-adv-x="952" 
d="M575.5 1052.5q79.5 53.5 172.5 53.5q45 0 85.5 -7t66.5 -14.5t32 -9.5l-10 -297h-134l-30 154q-102 0 -176 -49t-121 -111v-608l205 -51v-113h-584v113l174 51v758l-174 41v112l338 10l18 -149q58 63 137.5 116.5zM778 1608l82 -92l-307 -277l-123 -10l-307 287l82 92
l283 -222z" />
    <glyph glyph-name="Sacute" unicode="&#x15a;" horiz-adv-x="1222" 
d="M385 188.5q29 -12.5 79 -23.5t109 -11q123 0 218.5 58t95.5 161q0 66 -41 110.5t-101.5 72.5t-166.5 67q-139 49 -224.5 92t-146 124t-60.5 208q0 203 138.5 305t347.5 102q86 0 182 -18.5t164 -38t86 -25.5l-10 -348h-133l-70 219q-8 2 -39 11.5t-80 17.5t-98 8
q-131 0 -202 -58.5t-71 -140.5q0 -66 41 -110.5t102.5 -73.5t172.5 -68q133 -47 218 -89t144.5 -118.5t59.5 -193.5q0 -147 -72 -248.5t-193.5 -150.5t-269.5 -49q-96 0 -189 18t-154.5 37.5t-78.5 25.5v359h164l41 -215q8 -4 37 -16.5zM403 1614l373 297l104 -150
l-399 -256z" />
    <glyph glyph-name="sacute" unicode="&#x15b;" horiz-adv-x="960" 
d="M311 141.5q51 -8.5 121 -8.5q231 0 232 162q0 66 -56.5 99.5t-175.5 70.5q-109 35 -176.5 67.5t-115.5 94t-48 159.5q0 154 104.5 237t270.5 83q72 0 149.5 -13.5t132 -28.5t68.5 -20l-6 -276h-133l-33 160q-6 2 -26.5 8t-57.5 11t-82 5q-182 0 -182 -137
q0 -66 58.5 -101.5t176.5 -74.5q106 -37 174 -68.5t115 -91t47 -149.5q0 -170 -128 -260t-322 -90q-84 0 -156 10t-115 20t-53 15v303h144l22 -176q0 -2 51 -10.5zM620 1638l103 -153l-430 -266l-72 102z" />
    <glyph glyph-name="Scircumflex" unicode="&#x15c;" horiz-adv-x="1222" 
d="M260 1628l297 246l123 10l297 -256l-82 -92l-272 190l-281 -190zM385 188.5q29 -12.5 79 -23.5t109 -11q123 0 218.5 58t95.5 161q0 66 -41 110.5t-101.5 72.5t-166.5 67q-139 49 -224.5 92t-146 124t-60.5 208q0 203 138.5 305t347.5 102q86 0 182 -18.5t164 -38
t86 -25.5l-10 -348h-133l-70 219q-8 2 -39 11.5t-80 17.5t-98 8q-131 0 -202 -58.5t-71 -140.5q0 -66 41 -110.5t102.5 -73.5t172.5 -68q133 -47 218 -89t144.5 -118.5t59.5 -193.5q0 -147 -72 -248.5t-193.5 -150.5t-269.5 -49q-96 0 -189 18t-154.5 37.5t-78.5 25.5v359
h164l41 -215q8 -4 37 -16.5z" />
    <glyph glyph-name="scircumflex" unicode="&#x15d;" horiz-adv-x="960" 
d="M420 1608h123l311 -287l-86 -92l-287 225l-286 -225l-72 92zM310 141.5q52 -8.5 122 -8.5q231 0 232 162q0 66 -56.5 99.5t-175.5 70.5q-109 35 -176.5 67.5t-115.5 94t-48 159.5q0 154 104.5 237t270.5 83q72 0 149.5 -13.5t132 -28.5t68.5 -20l-6 -276h-133l-33 160
q-6 2 -26.5 8t-57.5 11t-82 5q-182 0 -182 -137q0 -66 58.5 -101.5t176.5 -74.5q106 -37 174 -68.5t115 -91t47 -149.5q0 -170 -128 -260t-322 -90q-84 0 -156 10t-115 20t-53 15v303h142l22 -176q0 -2 52 -10.5z" />
    <glyph glyph-name="Scedilla" unicode="&#x15e;" horiz-adv-x="1222" 
d="M385 188.5q29 -12.5 79 -23.5t109 -11q123 0 218.5 58t95.5 161q0 66 -41 110.5t-101.5 72.5t-166.5 67q-139 49 -224.5 92t-146 124t-60.5 208q0 203 138.5 305t347.5 102q86 0 182 -18.5t164 -38t86 -25.5l-10 -348h-133l-70 219q-8 2 -39 11.5t-80 17.5t-98 8
q-131 0 -202 -58.5t-71 -140.5q0 -66 41 -110.5t102.5 -73.5t172.5 -68q133 -47 218 -89t144.5 -118.5t59.5 -193.5q0 -197 -124 -310.5t-323 -133.5v-72q84 -14 131 -61.5t47 -116.5q0 -82 -61 -132.5t-162 -50.5q-59 0 -110.5 12.5t-81 27l-37.5 18.5l49 84
q6 -4 30.5 -14.5t59.5 -19.5t68 -9q51 0 81.5 24.5t30.5 63.5q0 47 -45 73.5t-123 26.5v144q-90 4 -176 21t-141 34.5t-70 23.5v359h164l41 -215q8 -4 37 -16.5z" />
    <glyph glyph-name="scedilla" unicode="&#x15f;" horiz-adv-x="960" 
d="M310 141.5q52 -8.5 122 -8.5q231 0 232 162q0 66 -56.5 99.5t-175.5 70.5q-109 35 -176.5 67.5t-115.5 94t-48 159.5q0 154 104.5 237t270.5 83q72 0 149.5 -13.5t132 -28.5t68.5 -20l-6 -276h-133l-33 160q-6 2 -26.5 8t-57.5 11t-82 5q-182 0 -182 -137
q0 -66 58.5 -101.5t176.5 -74.5q106 -37 174 -68.5t115 -91t47 -149.5q0 -152 -102 -240t-268 -106v-72q84 -14 131 -61.5t47 -116.5q0 -82 -61.5 -132.5t-161.5 -50.5q-59 0 -110.5 12.5t-81.5 27l-38 18.5l49 84q6 -4 31 -14.5t59.5 -19.5t67.5 -9q51 0 82 24.5t31 63.5
q0 47 -45 73.5t-123 26.5v144q-74 2 -136.5 12t-99.5 19.5l-45 11.5v303h142l22 -176q0 -2 52 -10.5z" />
    <glyph glyph-name="Scaron" unicode="&#x160;" horiz-adv-x="1222" 
d="M385 188.5q29 -12.5 79 -23.5t109 -11q123 0 218.5 58t95.5 161q0 66 -41 110.5t-101.5 72.5t-166.5 67q-139 49 -224.5 92t-146 124t-60.5 208q0 203 138.5 305t347.5 102q86 0 182 -18.5t164 -38t86 -25.5l-10 -348h-133l-70 219q-8 2 -39 11.5t-80 17.5t-98 8
q-131 0 -202 -58.5t-71 -140.5q0 -66 41 -110.5t102.5 -73.5t172.5 -68q133 -47 218 -89t144.5 -118.5t59.5 -193.5q0 -147 -72 -248.5t-193.5 -150.5t-269.5 -49q-96 0 -189 18t-154.5 37.5t-78.5 25.5v359h164l41 -215q8 -4 37 -16.5zM965 1792l-297 -246l-123 -10
l-297 256l82 92l272 -190l281 190z" />
    <glyph glyph-name="scaron" unicode="&#x161;" horiz-adv-x="960" 
d="M311 141.5q51 -8.5 121 -8.5q231 0 232 162q0 66 -56.5 99.5t-175.5 70.5q-109 35 -176.5 67.5t-115.5 94t-48 159.5q0 154 104.5 237t270.5 83q72 0 149.5 -13.5t132 -28.5t68.5 -20l-6 -276h-133l-33 160q-6 2 -26.5 8t-57.5 11t-82 5q-182 0 -182 -137
q0 -66 58.5 -101.5t176.5 -74.5q106 -37 174 -68.5t115 -91t47 -149.5q0 -170 -128 -260t-322 -90q-84 0 -156 10t-115 20t-53 15v303h144l22 -176q0 -2 51 -10.5zM757 1608l82 -92l-307 -277l-123 -10l-307 287l82 92l283 -222z" />
    <glyph glyph-name="Tcedilla" unicode="&#x162;" horiz-adv-x="1157" 
d="M1137 1065h-133l-52 205h-266v-1106l205 -41v-123h-270v-88q84 -14 131 -61.5t47 -116.5q0 -82 -61.5 -132.5t-162.5 -50.5q-59 0 -110 12.5t-81 27l-38 18.5l49 84q6 -4 31 -14.5t59.5 -19.5t67.5 -9q51 0 82 24.5t31 63.5q0 47 -45.5 73.5t-122.5 26.5v162h-232v123
l205 41v1106h-266l-51 -205h-134v369h1117v-369z" />
    <glyph glyph-name="tcedilla" unicode="&#x163;" horiz-adv-x="808" 
d="M748 922h-297v-658q0 -125 102 -125q66 0 160 51l55 -108q-125 -92 -258 -100v-70q84 -14 131 -61.5t47 -116.5q0 -82 -61.5 -132.5t-161.5 -50.5q-59 0 -110.5 12.5t-81 27l-37.5 18.5l49 84q6 -4 30.5 -14.5t59.5 -19.5t67 -9q51 0 82 24.5t31 63.5q0 47 -45 73.5
t-123 26.5v158q-141 53 -141 280v646h-205v133l205 20v258l205 41v-299h297v-153z" />
    <glyph glyph-name="Tcaron" unicode="&#x164;" horiz-adv-x="1157" 
d="M266 123l205 41v1106h-266l-51 -205h-134v369h1117v-369h-133l-52 205h-266v-1106l205 -41v-123h-625v123zM942 1792l-297 -246l-123 -10l-297 256l82 92l272 -190l281 190z" />
    <glyph glyph-name="tcaron" unicode="&#x165;" horiz-adv-x="808" 
d="M748 922h-297v-658q0 -125 102 -125q66 0 160 51l55 -108q-139 -102 -287 -102q-104 0 -169.5 68.5t-65.5 227.5v646h-205v133l205 20v258l205 41v-299h297v-153zM618.5 1434.5q16.5 99.5 12.5 193.5l200 10q0 -88 -37.5 -200.5t-109.5 -266.5l-121 44q39 120 55.5 219.5
z" />
    <glyph glyph-name="Tbar" unicode="&#x166;" horiz-adv-x="1157" 
d="M471 1270h-266l-51 -205h-134v369h1117v-369h-133l-52 205h-266v-461h303v-164h-303v-481l205 -41v-123h-625v123l205 41v481h-301v164h301v461z" />
    <glyph glyph-name="tbar" unicode="&#x167;" horiz-adv-x="829" 
d="M758 922h-297v-226h297v-153h-297v-279q0 -125 102 -125q66 0 160 51l55 -108q-139 -102 -286 -102q-104 0 -170 68.5t-66 227.5v267h-205v153h205v226h-205v133l205 20v258l205 41v-299h297v-153z" />
    <glyph glyph-name="Utilde" unicode="&#x168;" horiz-adv-x="1617" 
d="M458.5 1686.5q30.5 50.5 81 93.5t113.5 43q49 0 93.5 -12.5t99.5 -36.5q59 -25 93 -35t73 -10q37 0 66.5 19t46 39.5t20.5 27.5l72 -62q0 -6 -28 -54t-76 -89t-112 -41q-49 0 -91 12t-101 35q-53 23 -90 33t-76 10q-37 0 -68.5 -20.5t-51 -42t-23.5 -27.5l-72 61
q0 6 30.5 56.5zM1235 131.5q-127 -151.5 -436 -151.5q-293 0 -418 140t-125 433v717l-174 41v112l584 11v-123l-195 -41v-717q0 -154 35 -240t108.5 -122.5t194.5 -36.5q129 0 201.5 41t104.5 134t32 255v686l-195 41v112l584 11v-123l-174 -41v-686q0 -301 -127 -452.5z
" />
    <glyph glyph-name="utilde" unicode="&#x169;" horiz-adv-x="1331" 
d="M281.5 1430.5q29.5 50.5 80 92.5t115.5 42q49 0 91 -12.5t94 -36.5q49 -23 83.5 -33t73.5 -10q33 0 64.5 19t51 39.5t23.5 27.5l72 -72q0 -6 -28.5 -55.5t-78 -90.5t-114.5 -41q-49 0 -91 12.5t-93 37.5q-49 23 -84 33t-74 10t-70.5 -20.5t-50 -42t-22.5 -27.5l-72 71
q0 6 29.5 56.5zM1280 10l-338 -10l-20 143q-61 -55 -166 -109t-213 -54q-164 0 -246 96t-82 270v576l-174 41v112l379 10v-718q0 -109 43 -161t141 -52q78 0 143.5 35.5t109.5 78.5t44 47v607l-174 41v112l379 10v-921l174 -41v-113z" />
    <glyph glyph-name="Umacron" unicode="&#x16a;" horiz-adv-x="1617" 
d="M1096 1618h-553v154h553v-154zM1235 131.5q-127 -151.5 -436 -151.5q-293 0 -418 140t-125 433v717l-174 41v112l584 11v-123l-195 -41v-717q0 -154 35 -240t108.5 -122.5t194.5 -36.5q129 0 201.5 41t104.5 134t32 255v686l-195 41v112l584 11v-123l-174 -41v-686
q0 -301 -127 -452.5z" />
    <glyph glyph-name="umacron" unicode="&#x16b;" horiz-adv-x="1331" 
d="M934 1352h-553v153h553v-153zM1280 10l-338 -10l-20 143q-61 -55 -166 -109t-213 -54q-164 0 -246 96t-82 270v576l-174 41v112l379 10v-718q0 -109 43 -161t141 -52q78 0 143.5 35.5t109.5 78.5t44 47v607l-174 41v112l379 10v-921l174 -41v-113z" />
    <glyph glyph-name="Ubreve" unicode="&#x16c;" horiz-adv-x="1617" 
d="M1235 131.5q-127 -151.5 -436 -151.5q-293 0 -418 140t-125 433v717l-174 41v112l584 11v-123l-195 -41v-717q0 -154 35 -240t108.5 -122.5t194.5 -36.5q129 0 201.5 41t104.5 134t32 255v686l-195 41v112l584 11v-123l-174 -41v-686q0 -301 -127 -452.5zM1066 1704
q-40 -70 -107.5 -108.5t-149.5 -38.5q-72 0 -135 37.5t-102 106.5t-39 152l123 11q0 -10 13 -48t50 -72t101 -34q68 0 104.5 32t47.5 65.5t11 45.5l123 11q0 -90 -40 -160z" />
    <glyph glyph-name="ubreve" unicode="&#x16d;" horiz-adv-x="1331" 
d="M1280 10l-338 -10l-20 143q-61 -55 -166 -109t-213 -54q-164 0 -246 96t-82 270v576l-174 41v112l379 10v-718q0 -109 43 -161t141 -52q78 0 143.5 35.5t109.5 78.5t44 47v607l-174 41v112l379 10v-921l174 -41v-113zM902 1407q-40 -70 -107.5 -108.5t-149.5 -38.5
q-72 0 -135 37.5t-102 106.5t-39 152l123 11q0 -10 13 -48t50 -72t101 -34q68 0 104.5 32t47.5 65.5t11 45.5l123 11q0 -90 -40 -160z" />
    <glyph glyph-name="Uring" unicode="&#x16e;" horiz-adv-x="1617" 
d="M1235 131.5q-127 -151.5 -436 -151.5q-293 0 -418 140t-125 433v717l-174 41v112l584 11v-123l-195 -41v-717q0 -154 35 -240t108.5 -122.5t194.5 -36.5q129 0 201.5 41t104.5 134t32 255v686l-195 41v112l584 11v-123l-174 -41v-686q0 -301 -127 -452.5zM617.5 1854.5
q33.5 54.5 88 83t113.5 28.5q94 0 165 -60t71 -165q0 -70 -34 -124t-88 -82.5t-114 -28.5q-94 0 -164.5 60t-70.5 165q0 69 33.5 123.5zM736.5 1640.5q29.5 -32.5 82.5 -32.5q49 0 81 35t32 94q0 61 -29.5 94t-83.5 33q-49 0 -80.5 -35t-31.5 -94q0 -62 29.5 -94.5z" />
    <glyph glyph-name="uring" unicode="&#x16f;" horiz-adv-x="1331" 
d="M433 1557.5q34 54.5 88 83t114 28.5q94 0 164.5 -60.5t70.5 -164.5q0 -70 -33.5 -124t-88 -83t-113.5 -29q-94 0 -165 60.5t-71 165.5q0 69 34 123.5zM552 1343.5q30 -32.5 83 -32.5q49 0 81 34.5t32 94.5q0 61 -30 94t-83 33q-49 0 -81 -35t-32 -94q0 -62 30 -94.5z
M1280 10l-338 -10l-20 143q-61 -55 -166 -109t-213 -54q-164 0 -246 96t-82 270v576l-174 41v112l379 10v-718q0 -109 43 -161t141 -52q78 0 143.5 35.5t109.5 78.5t44 47v607l-174 41v112l379 10v-921l174 -41v-113z" />
    <glyph glyph-name="Uhungarumlaut" unicode="&#x170;" horiz-adv-x="1617" 
d="M719 1927l135 -119l-291 -307l-110 86zM1118 1927l135 -119l-290 -307l-111 86zM1235 131.5q-127 -151.5 -436 -151.5q-293 0 -418 140t-125 433v717l-174 41v112l584 11v-123l-195 -41v-717q0 -154 35 -240t108.5 -122.5t194.5 -36.5q129 0 201.5 41t104.5 134t32 255
v686l-195 41v112l584 11v-123l-174 -41v-686q0 -301 -127 -452.5z" />
    <glyph glyph-name="uhungarumlaut" unicode="&#x171;" horiz-adv-x="1331" 
d="M1280 10l-338 -10l-20 143q-61 -55 -166 -109t-213 -54q-164 0 -246 96t-82 270v576l-174 41v112l379 10v-718q0 -109 43 -161t141 -52q78 0 143.5 35.5t109.5 78.5t44 47v607l-174 41v112l379 10v-921l174 -41v-113zM565 1640l135 -118l-291 -308l-90 76zM944 1640
l135 -118l-291 -308l-90 76z" />
    <glyph glyph-name="Uogonek" unicode="&#x172;" horiz-adv-x="1617" 
d="M1296.5 226.5q-65.5 -138.5 -217.5 -201.5q-82 -35 -176 -108t-94 -153q0 -45 25.5 -68.5t66.5 -23.5q27 0 55.5 6.5t36.5 8.5l21 -97q-6 -4 -31 -13t-60.5 -18.5t-72.5 -9.5q-88 0 -146.5 52.5t-58.5 142.5q0 78 49 138.5t111 97.5q-203 0 -324 63t-173 188t-52 322v717
l-174 41v112l584 11v-123l-195 -41v-717q0 -154 35 -240t108.5 -122.5t194.5 -36.5q129 0 201.5 41t104.5 134t32 255v686l-195 41v112l584 11v-123l-174 -41v-686q0 -219 -65.5 -357.5z" />
    <glyph glyph-name="uogonek" unicode="&#x173;" horiz-adv-x="1331" 
d="M1211.5 -27q-68.5 -41 -123 -95t-54.5 -114q0 -45 25.5 -68.5t66.5 -23.5q27 0 55.5 6.5l37.5 8.5l20 -97q-6 -4 -30.5 -13t-60.5 -18.5t-73 -9.5q-88 0 -146.5 52.5t-58.5 142.5q0 98 72 164.5t139 95.5l-139 -4l-20 143q-61 -55 -166 -109t-213 -54q-164 0 -246 96
t-82 270v576l-174 41v112l379 10v-718q0 -109 43 -161t141 -52q78 0 143.5 35.5t109.5 78.5t44 47v607l-174 41v112l379 10v-921l174 -41v-113q0 4 -68.5 -37z" />
    <glyph glyph-name="Wcircumflex" unicode="&#x174;" horiz-adv-x="2119" 
d="M707 1628l297 246l122 10l297 -256l-82 -92l-272 190l-281 -190zM10 1423l574 11v-123l-178 -41l219 -928l338 1081l194 11l332 -1115l254 951l-187 41v112l553 11v-123l-161 -41l-361 -1270h-225l-246 942l-59 221l-64 -231l-276 -932h-205l-342 1270l-160 41v112z" />
    <glyph glyph-name="wcircumflex" unicode="&#x175;" horiz-adv-x="1699" 
d="M809 1608h123l311 -287l-86 -92l-287 225l-286 -225l-72 92zM492 184l268 891l194 31l254 -922l164 748l-143 31v112l461 10v-122l-119 -21l-250 -942h-236l-194 635l-49 196l-43 -196l-195 -635h-235l-256 932l-103 31v112l461 10v-122l-154 -21z" />
    <glyph glyph-name="Ycircumflex" unicode="&#x176;" horiz-adv-x="1320" 
d="M319 1628l297 246l123 10l297 -256l-82 -92l-272 190l-281 -190zM553 530l-395 742l-138 39v112l512 11v-123l-139 -41l273 -574l301 574l-158 41v112l491 11v-123l-126 -37l-406 -739v-371l174 -41v-123h-563v123l174 41v366z" />
    <glyph glyph-name="ycircumflex" unicode="&#x177;" horiz-adv-x="1181" 
d="M524 1608h123l311 -287l-86 -92l-286 225l-287 -225l-72 92zM604 225l225 707l-143 31v112l485 10v-122l-133 -21l-290 -811l-19 -49q-68 -182 -127 -298t-159.5 -196t-247.5 -80q-33 0 -76 4.5t-56 6.5l19 143h102q100 0 175 84t151 250l-367 936l-123 31v112l482 10
v-122l-144 -21z" />
    <glyph glyph-name="Ydieresis" unicode="&#x178;" horiz-adv-x="1320" 
d="M360.5 1779.5q32.5 32.5 79.5 32.5q53 0 83 -32.5t30 -89.5t-33 -90t-80 -33q-53 0 -82.5 32.5t-29.5 90.5q0 57 32.5 89.5zM780.5 1779.5q32.5 32.5 79.5 32.5q53 0 83 -32.5t30 -89.5t-33 -90t-80 -33q-53 0 -82.5 32.5t-29.5 90.5q0 57 32.5 89.5zM553 530l-395 742
l-138 39v112l512 11v-123l-139 -41l273 -574l301 574l-158 41v112l491 11v-123l-126 -37l-406 -739v-371l174 -41v-123h-563v123l174 41v366z" />
    <glyph glyph-name="Zacute" unicode="&#x179;" horiz-adv-x="1259" 
d="M358 164h635l41 205h133v-369h-1085v143l819 1127h-573l-52 -205h-133v369h1035v-144zM444 1614l373 297l104 -150l-399 -256z" />
    <glyph glyph-name="zacute" unicode="&#x17a;" horiz-adv-x="993" 
d="M739 154l29 163h143v-317h-819v154l598 778h-385l-29 -154h-143v307h789v-153l-600 -778h417zM727 1638l103 -153l-430 -266l-72 102z" />
    <glyph glyph-name="Zdotaccent" unicode="&#x17b;" horiz-adv-x="1259" 
d="M545 1779.5q33 32.5 80 32.5q53 0 82.5 -32.5t29.5 -89.5t-32.5 -90t-79.5 -33q-53 0 -83 32.5t-30 90.5q0 57 33 89.5zM358 164h635l41 205h133v-369h-1085v143l819 1127h-573l-52 -205h-133v369h1035v-144z" />
    <glyph glyph-name="zdotaccent" unicode="&#x17c;" horiz-adv-x="993" 
d="M438.5 1523.5q32.5 32.5 79.5 32.5q53 0 83 -32.5t30 -89.5t-33 -90t-80 -33q-53 0 -82.5 32.5t-29.5 90.5q0 57 32.5 89.5zM739 154l29 163h143v-317h-819v154l598 778h-385l-29 -154h-143v307h789v-153l-600 -778h417z" />
    <glyph glyph-name="Zcaron" unicode="&#x17d;" horiz-adv-x="1259" 
d="M358 164h635l41 205h133v-369h-1085v143l819 1127h-573l-52 -205h-133v369h1035v-144zM981 1792l-297 -246l-123 -10l-297 256l82 92l272 -190l281 190z" />
    <glyph glyph-name="zcaron" unicode="&#x17e;" horiz-adv-x="993" 
d="M739 154l29 163h143v-317h-819v154l598 778h-385l-29 -154h-143v307h789v-153l-600 -778h417zM843 1608l82 -92l-307 -277l-123 -10l-307 287l82 92l283 -222z" />
    <glyph glyph-name="longs" unicode="&#x17f;" horiz-adv-x="880" 
d="M415.5 1490.5q98.5 106.5 280.5 106.5q86 0 152.5 -16t105.5 -34.5t39 -20.5v-256h-143l-31 164q-8 2 -37.5 6t-74.5 4q-102 0 -143.5 -52.5t-41.5 -152.5v-1075l199 -51v-113h-578v113l174 51v1034q0 186 98.5 292.5z" />
    <glyph glyph-name="florin" unicode="&#x192;" horiz-adv-x="901" 
d="M145 -198q41 48 50 147l73 819h-176l4 133l187 21l24 276q16 188 117.5 293.5t282.5 105.5q39 0 89 -5t64 -7l-10 -151h-143q-94 0 -135.5 -48.5t-49.5 -146.5l-24 -317h290l-4 -154h-301l-69 -778q-16 -188 -120 -294t-284 -106q-33 0 -76 5.5t-57 7.5l21 151h112
q94 0 135 48z" />
    <glyph glyph-name="Aringacute" unicode="&#x1fa;" horiz-adv-x="1484" 
d="M1475 0h-594v123l190 39l-78 227h-532l-80 -227l192 -39v-123h-563v123l168 39l461 1245q-57 27 -92 79t-35 122t34 124t88 82.5t114 28.5q94 0 164.5 -60.5t70.5 -164.5q0 -72 -34 -125t-91 -84l447 -1247l170 -39v-123zM666.5 1706q-31.5 -35 -31.5 -94q0 -61 29.5 -94
t83.5 -33q49 0 80.5 34.5t31.5 94.5q0 61 -29.5 94t-82.5 33q-50 0 -81.5 -35zM731 1169l-215 -616h422z" />
    <glyph glyph-name="aringacute" unicode="&#x1fb;" horiz-adv-x="1157" 
d="M234.5 1049.5q64.5 19.5 152.5 38t166 18.5q186 0 282.5 -74t96.5 -244v-624l164 -41v-113l-318 -10l-43 143q-66 -66 -152.5 -114.5t-183.5 -48.5q-145 0 -226 80.5t-81 226.5q0 170 122 243.5t349 73.5h164v164q0 90 -50 137t-145 47q-55 0 -101 -7t-72.5 -14t-32.5 -9
l-29 -154h-133l-10 256q16 6 80.5 25.5zM366.5 430q-65.5 -41 -65.5 -133q0 -70 40 -112t110 -42q68 0 129 37t104 80t43 47v164h-143q-152 0 -217.5 -41zM375.5 1536.5q33.5 54.5 88 83t113.5 28.5q94 0 165 -60t71 -165q0 -70 -34 -124t-88 -82.5t-114 -28.5
q-94 0 -164.5 60t-70.5 165q0 69 33.5 123.5zM494.5 1322.5q29.5 -32.5 82.5 -32.5q49 0 81 35t32 94q0 61 -29.5 94t-83.5 33q-49 0 -80.5 -35t-31.5 -94q0 -62 29.5 -94.5zM0 0v0v0v0v0z" />
    <glyph glyph-name="AEacute" unicode="&#x1fc;" horiz-adv-x="1964" 
d="M983 420h-451l-129 -262l160 -35v-123h-553v123l183 41l567 1106l-174 41v112l258 11h977v-349h-133l-52 185h-438v-441h469v-163h-469v-502h469l41 205h133v-369h-1042v123l184 41v256zM952 1270l-338 -686h369v686h-31zM991 1614l373 297l104 -150l-399 -256z" />
    <glyph glyph-name="aeacute" unicode="&#x1fd;" horiz-adv-x="1710" 
d="M1634 559q-4 -33 -6 -43l-706 -4q0 -168 81.5 -268.5t215.5 -100.5q90 0 166.5 25t127 54.5t50.5 33.5l71 -106q0 -4 -66.5 -49.5t-163.5 -83t-206 -37.5q-289 0 -403 217q-55 -72 -157.5 -144.5t-238.5 -72.5q-145 0 -226 80.5t-81 226.5q0 170 122 243.5t349 73.5h164
v164q0 90 -50 137t-145 47q-55 0 -101 -7t-72.5 -14t-32.5 -9l-29 -154h-133l-10 256q16 6 80.5 25.5t152.5 38t166 18.5q246 0 319 -143q63 70 148.5 106.5t187.5 36.5q430 0 430 -481q0 -33 -4 -66zM1368 868.5q-53 77.5 -170 77.5q-119 0 -188.5 -80t-79.5 -200h491
q0 125 -53 202.5zM363.5 430q-66.5 -41 -66.5 -133q0 -70 42 -112t112 -42q68 0 129 39t104 85t43 50v154h-143q-154 0 -220.5 -41zM1085 1638l103 -153l-430 -266l-72 102z" />
    <glyph glyph-name="Oslashacute" unicode="&#x1fe;" horiz-adv-x="1566" 
d="M1379.5 1066q54.5 -144 54.5 -329q0 -223 -85 -395t-239 -267t-352 -95q-170 0 -297 61l-154 -256l-133 72l162 268q-203 184 -203 582q0 223 81 393t231.5 262t353.5 92q168 0 299 -65l131 219l133 -72l-139 -231q102 -95 156.5 -239zM788 1280q-205 0 -312 -138
t-107 -425q0 -254 84 -398l546 908q-90 53 -211 53zM768 154q205 0 317.5 144t112.5 429q0 250 -88 391l-549 -911q84 -53 207 -53zM567 1614l373 297l104 -150l-399 -256z" />
    <glyph glyph-name="oslashacute" unicode="&#x1ff;" horiz-adv-x="1187" 
d="M92 532q0 172 66.5 302.5t184.5 201t271 70.5q115 0 209 -41l129 215l123 -72l-133 -223q76 -70 115 -178.5t39 -243.5q0 -172 -63.5 -305t-180.5 -205.5t-268 -72.5q-119 0 -219 38l-140 -233l-123 72l142 237q-152 141 -152 438zM380 842.5q-73 -99.5 -73 -299.5
q0 -168 47 -262l379 632q-57 29 -129 29q-151 0 -224 -99.5zM834 805l-377 -631q57 -31 137 -31q150 0 218.5 102.5t68.5 307.5q0 156 -47 252zM768 1638l103 -153l-430 -266l-72 102z" />
    <glyph glyph-name="Scommaaccent" unicode="&#x218;" horiz-adv-x="1222" 
d="M385 188.5q29 -12.5 79 -23.5t109 -11q123 0 218.5 58t95.5 161q0 66 -41 110.5t-101.5 72.5t-166.5 67q-139 49 -224.5 92t-146 124t-60.5 208q0 203 138.5 305t347.5 102q86 0 182 -18.5t164 -38t86 -25.5l-10 -348h-133l-70 219q-8 2 -39 11.5t-80 17.5t-98 8
q-131 0 -202 -58.5t-71 -140.5q0 -66 41 -110.5t102.5 -73.5t172.5 -68q133 -47 218 -89t144.5 -118.5t59.5 -193.5q0 -147 -72 -248.5t-193.5 -150.5t-269.5 -49q-96 0 -189 18t-154.5 37.5t-78.5 25.5v359h164l41 -215q8 -4 37 -16.5zM557 -137q35 35 88 35q55 0 89 -36
t34 -98q0 -80 -60.5 -172t-165.5 -176l-82 82q8 8 33 35t47.5 58.5t22.5 50.5q0 12 -17 45q-8 18 -16 40.5t-8 43.5q0 57 35 92z" />
    <glyph glyph-name="scommaaccent" unicode="&#x219;" horiz-adv-x="960" 
d="M311 141.5q51 -8.5 121 -8.5q231 0 232 162q0 66 -56.5 99.5t-175.5 70.5q-109 35 -176.5 67.5t-115.5 94t-48 159.5q0 154 104.5 237t270.5 83q72 0 149.5 -13.5t132 -28.5t68.5 -20l-6 -276h-133l-33 160q-6 2 -26.5 8t-57.5 11t-82 5q-182 0 -182 -137
q0 -66 58.5 -101.5t176.5 -74.5q106 -37 174 -68.5t115 -91t47 -149.5q0 -170 -128 -260t-322 -90q-84 0 -156 10t-115 20t-53 15v303h144l22 -176q0 -2 51 -10.5zM365 -137q35 35 88 35q55 0 89 -36t34 -98q0 -80 -60.5 -172t-165.5 -176l-82 82q8 8 33 35t47.5 58.5
t22.5 50.5q0 12 -17 45q-8 18 -16 40.5t-8 43.5q0 57 35 92z" />
    <glyph glyph-name="Tcommaaccent" unicode="&#x21a;" horiz-adv-x="1157" 
d="M266 123l205 41v1106h-266l-51 -205h-134v369h1117v-369h-133l-52 205h-266v-1106l205 -41v-123h-625v123zM516 -137q35 35 88 35q55 0 89 -36t34 -98q0 -80 -60.5 -172t-165.5 -176l-82 82q8 8 33 35t47.5 58.5t22.5 50.5q0 12 -17 45q-8 18 -16 40.5t-8 43.5
q0 57 35 92z" />
    <glyph glyph-name="tcommaaccent" unicode="&#x21b;" horiz-adv-x="808" 
d="M748 922h-297v-658q0 -125 102 -125q66 0 160 51l55 -108q-139 -102 -287 -102q-104 0 -169.5 68.5t-65.5 227.5v646h-205v133l205 20v258l205 41v-299h297v-153zM365 -137q35 35 88 35q55 0 89 -36t34 -98q0 -80 -60.5 -172t-165.5 -176l-82 82q8 8 33 35t47.5 58.5
t22.5 50.5q0 12 -17 45q-8 18 -16 40.5t-8 43.5q0 57 35 92z" />
    <glyph glyph-name="dotlessj" unicode="&#x237;" horiz-adv-x="581" 
d="M329.5 -385.5q-98.5 -106.5 -280.5 -106.5q-33 0 -76 4.5t-55 6.5l19 143h102q102 0 143 52.5t41 152.5v1055l-174 41v112l379 10v-1177q0 -187 -98.5 -293.5z" />
    <glyph glyph-name="apostrophemod" unicode="&#x2bc;" horiz-adv-x="634" 
d="M399.5 1634.5q34.5 -24.5 60 -59.5t25.5 -64q0 -131 -211 -348l-110 105q18 18 65 69.5t47 65.5t-26 45q-39 43 -39 74t51 84t82 53q21 0 55.5 -24.5z" />
    <glyph glyph-name="circumflex" unicode="&#x2c6;" horiz-adv-x="1064" 
d="M174 1423l297 246l123 10l297 -256l-82 -92l-272 191l-281 -191z" />
    <glyph glyph-name="caron" unicode="&#x2c7;" horiz-adv-x="737" 
d="M655 1608l82 -92l-307 -277l-123 -10l-307 287l82 92l283 -222z" />
    <glyph glyph-name="firsttonechinese" unicode="&#x2c9;" horiz-adv-x="573" 
d="M563 1352h-553v153h553v-153z" />
    <glyph glyph-name="breve" unicode="&#x2d8;" horiz-adv-x="901" 
d="M697 1407q-40 -70 -107.5 -108.5t-149.5 -38.5q-72 0 -135 37.5t-102 106.5t-39 152l123 11q0 -10 13 -48t50 -72t101 -34q68 0 104.5 32t47.5 65.5t11 45.5l123 11q0 -90 -40 -160z" />
    <glyph glyph-name="dotaccent" unicode="&#x2d9;" horiz-adv-x="593" 
d="M217 1523.5q33 32.5 80 32.5q53 0 83 -32.5t30 -89.5t-33 -90t-80 -33q-53 0 -83 32.5t-30 90.5q0 57 33 89.5z" />
    <glyph glyph-name="ring" unicode="&#x2da;" horiz-adv-x="798" 
d="M197.5 1567.5q33.5 54.5 88 83t113.5 28.5q94 0 165 -60t71 -165q0 -70 -34 -124t-88 -82.5t-114 -28.5q-94 0 -164.5 60t-70.5 165q0 69 33.5 123.5zM316.5 1353.5q29.5 -32.5 82.5 -32.5q49 0 81 35t32 94q0 61 -29.5 94t-83.5 33q-49 0 -80.5 -35t-31.5 -94
q0 -62 29.5 -94.5z" />
    <glyph glyph-name="ogonek" unicode="&#x2db;" horiz-adv-x="634" 
d="M481.5 -423q-24.5 -9 -60.5 -18.5t-73 -9.5q-88 0 -146.5 52.5t-58.5 142.5q0 78 50.5 137.5t113 96t62.5 32.5h184q0 4 -68.5 -37t-123 -95t-54.5 -114q0 -45 25.5 -68.5t66.5 -23.5q27 0 55.5 6.5l37.5 8.5l20 -97q-6 -4 -30.5 -13z" />
    <glyph glyph-name="tilde" unicode="&#x2dc;" horiz-adv-x="1157" 
d="M225.5 1428.5q30.5 50.5 80.5 93.5t114 43q49 0 92 -12.5t96 -36.5q53 -23 87 -34.5t73 -11.5q37 0 66.5 19.5t46 40t20.5 26.5l72 -71q0 -6 -27.5 -54.5t-76 -89.5t-111.5 -41q-49 0 -90 12.5t-99 35.5q-49 20 -83.5 31.5t-75.5 11.5q-37 0 -69 -20.5t-51.5 -42
t-23.5 -28.5l-71 72q0 6 30.5 56.5z" />
    <glyph glyph-name="hungarumlaut" unicode="&#x2dd;" horiz-adv-x="1187" 
d="M514 1640l135 -118l-291 -308l-90 76zM893 1640l135 -118l-291 -308l-90 76z" />
    <glyph glyph-name="commaaccent" unicode="&#x326;" horiz-adv-x="0" 
d="M158 -137q35 35 88 35q55 0 89 -36t34 -98q0 -80 -60.5 -172t-165.5 -176l-82 82q8 8 33 35t47.5 58.5t22.5 50.5q0 12 -17 45q-8 18 -16 40.5t-8 43.5q0 57 35 92z" />
    <glyph glyph-name="Gamma" unicode="&#x393;" horiz-adv-x="1116" 
 />
    <glyph glyph-name="Delta" unicode="&#x394;" horiz-adv-x="1363" 
d="M1323 143v-143h-1282v145l541 1330h200zM674 1243l-430 -1079h860z" />
    <glyph glyph-name="Pi" unicode="&#x3a0;" horiz-adv-x="1525" 
d="M1421 35.5q-35 -19.5 -89 -37.5t-113 -18q-106 0 -166 76.5t-60 240.5v973h-522v-1106l205 -41v-123h-594v123l174 41v1106l-174 41v112l389 11h911v-123l-174 -41v-996q0 -66 24.5 -95t57.5 -29q37 0 75 10t48 14l51 -113q-8 -6 -43 -25.5z" />
    <glyph glyph-name="Omega" unicode="&#x3a9;" horiz-adv-x="1546" 
d="M216 417.5q-73 155.5 -73 330.5q0 213 78 372.5t224.5 246.5t342.5 87q193 0 331 -84t211 -238.5t73 -363.5q0 -176 -75 -338t-189 -266l274 10v-174h-522v133q43 23 108.5 82t127 196.5t61.5 346.5q0 254 -109.5 388t-300.5 134q-195 0 -307.5 -128t-112.5 -394
q0 -213 63.5 -351.5t132.5 -200t101 -73.5v-133h-522v164h270q-114 98 -187 253.5z" />
    <glyph glyph-name="mu" unicode="&#x3bc;" horiz-adv-x="1341" 
d="M1290 10l-338 -10l-20 143q-68 -57 -168 -110t-211 -53q-61 0 -123 20v-471h-205v1393l-174 41v112l379 10v-739q4 -98 47 -145t137 -47q78 0 143.5 35.5t109.5 78.5t44 47v607l-174 41v112l379 10v-921l174 -41v-113z" />
    <glyph glyph-name="pi" unicode="&#x3c0;" horiz-adv-x="1413" 
d="M1065 932v-668q0 -125 102 -125q37 0 75 10.5t48 14.5l51 -103q-8 -6 -42.5 -25.5t-89 -37.5t-113.5 -18q-96 0 -161 69.5t-65 226.5v646h-419v-922h-195v922l-174 41v112l369 10h788v-122z" />
    <glyph glyph-name="invertedCandraBindu-deva" unicode="&#x900;" horiz-adv-x="0" 
d="M-584.5 2012.5q105.5 82.5 238.5 82.5q127 0 242.5 -75.5t187.5 -216.5l-113 -76q-133 195 -287 194q-80 0 -140 -50t-101 -161l-174 62q41 158 146.5 240.5zM-361.5 1518.5q-33.5 23.5 -60.5 56.5t-27 57q0 31 50.5 85t80.5 54q20 0 55.5 -24.5t62 -57t26.5 -57.5
q0 -31 -51.5 -84t-81.5 -53q-21 0 -54.5 23.5z" />
    <glyph glyph-name="candraBindu-deva" unicode="&#x901;" horiz-adv-x="0" 
d="M-50.5 1598.5q-105.5 -82.5 -238.5 -82.5q-127 0 -242.5 75.5t-187.5 216.5l113 76q133 -195 287 -194q80 0 140 50t101 161l174 -62q-41 -158 -146.5 -240.5zM-273.5 2092.5q33.5 -23.5 60.5 -56.5t27 -57q0 -31 -50.5 -85t-80.5 -54q-20 0 -55.5 24.5t-62 57
t-26.5 57.5q0 31 51.5 84t81.5 53q21 0 54.5 -23.5z" />
    <glyph glyph-name="anusvara-deva" unicode="&#x902;" horiz-adv-x="0" 
d="M-273.5 1811.5q33.5 -23.5 60.5 -56.5t27 -57q0 -31 -50.5 -85t-80.5 -54q-20 0 -55.5 24.5t-62 57t-26.5 57.5q0 31 51.5 84t81.5 53q21 0 54.5 -23.5z" />
    <glyph glyph-name="visarga-deva" unicode="&#x903;" horiz-adv-x="653" 
d="M300.5 416.5q33.5 -23.5 60.5 -56t27 -57.5q0 -31 -50.5 -85t-81.5 -54q-20 0 -55 24.5t-61.5 57t-26.5 57.5q0 31 51.5 84t81.5 53q21 0 54.5 -23.5zM300.5 971.5q33.5 -23.5 60.5 -56t27 -57.5q0 -31 -50.5 -85t-81.5 -54q-20 0 -55 24.5t-61.5 57t-26.5 57.5
q0 31 51.5 84t81.5 53q21 0 54.5 -23.5z" />
    <glyph glyph-name="aShort-deva" unicode="&#x904;" horiz-adv-x="1814" 
d="M1567 0h-185v664h-393q72 -100 72 -224q0 -172 -119 -270t-301 -98q-152 0 -271.5 70.5t-197.5 187t-111 254.5l142 65q55 -211 169.5 -312t256.5 -101q113 0 175 61t62 164q0 162 -172 260q-92 -33 -225 -55l-51 163q176 33 283.5 94.5t107.5 172.5q0 82 -55.5 127
t-153.5 45q-123 0 -274 -70l-68 162q170 74 340 74q123 0 213 -50.5t136 -132.5t46 -176q0 -160 -119 -258h508v422h-243l-23 154h281q-4 92 -38 129t-112 63q-74 25 -260 72q-133 29 -196 53q-111 41 -147 126t-40 192l109 32q27 -88 50 -121.5t83 -56.5q66 -27 164 -50.5
t116 -27.5l172 -43q78 -23 129.5 -59.5t81 -110t31.5 -198.5h275l20 -154h-268v-1239z" />
    <glyph glyph-name="a-deva" unicode="&#x905;" horiz-adv-x="1794" 
d="M1567 0h-185v664h-393q72 -100 72 -224q0 -172 -119 -270t-301 -98q-152 0 -271.5 70.5t-197.5 187t-111 254.5l142 65q55 -211 169.5 -312t256.5 -101q113 0 175 61t62 164q0 162 -172 260q-92 -33 -225 -55l-51 163q176 33 283.5 94.5t107.5 172.5q0 82 -55.5 127
t-153.5 45q-123 0 -274 -70l-68 162q170 74 340 74q123 0 213 -50.5t136 -132.5t46 -176q0 -160 -119 -258h508v422h-243l-23 154h699l20 -154h-268v-1239z" />
    <glyph glyph-name="aa-deva" unicode="&#x906;" horiz-adv-x="2369" 
d="M2142 0h-184v1239h-391v-1239h-185v664h-393q72 -100 72 -224q0 -172 -119 -270t-301 -98q-152 0 -271.5 70.5t-197.5 187t-111 254.5l142 65q55 -211 169.5 -312t256.5 -101q113 0 175 61t62 164q0 162 -172 260q-92 -33 -225 -55l-51 163q176 33 283.5 94.5
t107.5 172.5q0 82 -55.5 127t-153.5 45q-123 0 -274 -70l-68 162q170 74 340 74q123 0 213 -50.5t136 -132.5t46 -176q0 -160 -119 -258h508v422h-243l-23 154h1274l20 -154h-268v-1239z" />
    <glyph glyph-name="i-deva" unicode="&#x907;" horiz-adv-x="1169" 
d="M748 686q129 0 214 -78t85 -209q0 -350 -402 -376l211 -234l-149 -111l-250 353q-82 12 -164 38.5t-139 63.5q4 84 17 133t56 119l113 -27l168 -186q16 -2 45 -2q147 0 235.5 60.5t88.5 166.5q0 51 -30 82t-91 31l-27 -2l-248 -27l-24 -2q-74 0 -143.5 42t-112.5 116
t-43 162q0 135 78.5 195.5t234.5 60.5h244v184h-744l-22 154h1251l21 -154h-322v-342h-407q-74 0 -110 -31.5t-36 -87.5q0 -53 27.5 -88t101.5 -28l232 22q14 2 41 2z" />
    <glyph glyph-name="ii-deva" unicode="&#x908;" horiz-adv-x="1169" 
d="M748 686q129 0 214 -78t85 -209q0 -350 -402 -376l211 -234l-149 -111l-250 353q-82 12 -164 38.5t-139 63.5q4 84 17 133t56 119l113 -27l168 -186q16 -2 45 -2q147 0 235.5 60.5t88.5 166.5q0 51 -30 82t-91 31l-27 -2l-248 -27l-24 -2q-74 0 -143.5 42t-112.5 116
t-43 162q0 135 78.5 195.5t234.5 60.5h244v184h-744l-22 154h696q-119 92 -174 169.5t-55 168.5q0 86 44 147t112.5 92t142.5 31q102 0 192 -45l-30 -121q-57 23 -115 23q-70 0 -116 -37t-46 -115q0 -80 61.5 -154.5t192.5 -158.5h346l21 -154h-322v-342h-407
q-74 0 -110 -31.5t-36 -87.5q0 -53 27.5 -88t101.5 -28l232 22q14 2 41 2z" />
    <glyph glyph-name="u-deva" unicode="&#x909;" horiz-adv-x="1171" 
d="M1047 369q0 -172 -119 -270.5t-301 -98.5q-152 0 -277 71.5t-208 188.5t-115 252l143 66q59 -207 180 -305.5t264 -98.5q115 0 176.5 57.5t61.5 157.5q0 86 -54.5 156.5t-144.5 120.5q-90 -27 -190 -43l-62 174q123 23 204 50t135.5 79.5t54.5 138.5q0 76 -60.5 125
t-152.5 49h-600l-23 154h1233l20 -154h-299q66 -86 66 -195q0 -205 -168 -309q236 -139 236 -366z" />
    <glyph glyph-name="uu-deva" unicode="&#x90a;" horiz-adv-x="1699" 
d="M1452 759q76 -46 117 -123t41 -165q0 -104 -59.5 -218t-157.5 -202l-148 123q78 66 134.5 158t56.5 166q0 66 -39 106.5t-113 40.5q-63 0 -143 -39t-144 -110q20 -59 21 -127q0 -172 -119 -270.5t-301 -98.5q-152 0 -276.5 71.5t-207.5 188.5t-116 252l143 66
q59 -207 180 -305.5t265 -98.5q115 0 176 57.5t61 157.5q0 86 -54 156.5t-144 120.5q-90 -27 -191 -43l-61 174q123 23 203.5 50t135 79.5t54.5 138.5q0 76 -60.5 125t-152.5 49h-600l-23 154h1790l21 -154h-856q66 -86 65 -195q0 -205 -168 -309q66 -39 117 -90
q104 86 195.5 123t181.5 37q100 0 176 -46z" />
    <glyph glyph-name="rVocalic-deva" unicode="&#x90b;" horiz-adv-x="1822" 
d="M1624 248.5q74 23.5 139 58.5l68 -153q-76 -41 -155 -61.5t-146 -20.5q-104 0 -186 42t-127.5 112.5t-45.5 152.5q0 72 44.5 144.5t132.5 131.5q-88 33 -164 93l-238 -158v-590h-184v483l-561 -422l-121 148l639 414q-219 227 -387 227q-98 0 -197 -51l-65 159
q125 66 247 66q102 0 206 -60.5t239 -183.5v459h-780l-23 154h1884l21 -154h-918v-485l158 106l20 254l82 55q72 -29 123 -60.5t98 -74.5q-29 -98 -129 -192q51 -37 119 -56.5t111 -19.5l43 -166q-246 -100 -246 -242q0 -63 47 -98t117 -35q61 0 135 23.5z" />
    <glyph glyph-name="lVocalic-deva" unicode="&#x90c;" horiz-adv-x="1665" 
d="M1579 -94l72 -152q-145 -86 -310 -86q-104 0 -187 46t-130 122t-47 164q0 100 49 171t148 163q96 90 144 158.5t48 162.5q0 100 -53 157.5t-152 57.5q-127 0 -191.5 -102t-64.5 -276v-43l-174 22v41q0 123 25 217q-27 63 -86.5 107.5t-126.5 44.5q-100 0 -160.5 -77
t-60.5 -200q0 -131 93 -271t230 -251l-117 -113q-154 119 -277.5 286t-123.5 370q0 129 51 221t139.5 140t196.5 48q92 0 174 -44t131 -116q86 125 260 146v219h-1114l-22 154h1771l21 -154h-471v-233q121 -37 203.5 -138.5t82.5 -232.5q0 -98 -33.5 -175t-80.5 -131.5
t-123 -121.5q-82 -78 -117 -123t-35 -104q0 -76 46 -116t124 -40q113 0 248 82z" />
    <glyph glyph-name="eCandra-deva" unicode="&#x90d;" horiz-adv-x="1212" 
d="M823.5 615.5q38.5 52.5 38.5 142.5v481h-532v-604q0 -72 27.5 -123t113.5 -111l344 -237q109 -74 162 -137.5t53 -132.5q0 -51 -18 -107.5t-57 -128.5l-166 109q47 84 47 131q0 41 -28.5 69.5t-94.5 73.5l-45 31l-320 223q-119 82 -160.5 157.5t-41.5 194.5v592h-176
l-23 154h1294l21 -154h-215v-534q0 -113 -51.5 -189t-173.5 -147l-142 131q105 63 143.5 115.5zM891.5 1598.5q-105.5 -82.5 -238.5 -82.5q-127 0 -242.5 75.5t-187.5 216.5l113 76q133 -195 287 -194q80 0 140 50t101 161l174 -62q-41 -158 -146.5 -240.5z" />
    <glyph glyph-name="eShort-deva" unicode="&#x90e;" horiz-adv-x="1224" 
d="M835.5 615.5q38.5 52.5 38.5 142.5v481h-532v-604q0 -72 27.5 -123t113.5 -111l344 -237q109 -74 162 -137.5t53 -132.5q0 -51 -18 -107.5t-57 -128.5l-166 109q47 84 47 131q0 41 -28.5 69.5t-94.5 73.5l-45 31l-320 223q-119 82 -160.5 157.5t-41.5 194.5v592h-176
l-23 154h936q-4 92 -38 129t-112 63q-74 25 -260 72q-133 29 -196 53q-111 41 -147 126t-40 192l109 32q27 -88 50.5 -121.5t82.5 -56.5q66 -27 164 -50.5t117 -27.5l172 -43q78 -23 129 -59.5t80.5 -110t31.5 -198.5h215l21 -154h-215v-534q0 -113 -51.5 -189t-173.5 -147
l-142 131q105 63 143.5 115.5z" />
    <glyph glyph-name="e-deva" unicode="&#x90f;" horiz-adv-x="1232" 
d="M835.5 615.5q38.5 52.5 38.5 142.5v481h-532v-604q0 -72 27.5 -123t113.5 -111l344 -237q109 -74 162 -137.5t53 -132.5q0 -51 -18 -107.5t-57 -128.5l-166 109q47 84 47 131q0 41 -28.5 69.5t-94.5 73.5l-45 31l-320 223q-119 82 -160.5 157.5t-41.5 194.5v592h-176
l-23 154h1294l21 -154h-215v-534q0 -113 -51.5 -189t-173.5 -147l-142 131q105 63 143.5 115.5z" />
    <glyph glyph-name="ai-deva" unicode="&#x910;" horiz-adv-x="1232" 
d="M835.5 615.5q38.5 52.5 38.5 142.5v481h-532v-604q0 -72 27.5 -123t113.5 -111l344 -237q109 -74 162 -137.5t53 -132.5q0 -51 -18 -107.5t-57 -128.5l-166 109q47 84 47 131q0 41 -28.5 69.5t-94.5 73.5l-45 31l-320 223q-119 82 -160.5 157.5t-41.5 194.5v592h-176
l-23 154h915l-88 129q-88 129 -144 195.5t-137 106.5t-198 40h-67l-33 164h133q141 0 234.5 -49.5t159 -131.5t169.5 -245q88 -143 135 -209h215l21 -154h-215v-534q0 -113 -51.5 -189t-173.5 -147l-142 131q105 63 143.5 115.5z" />
    <glyph glyph-name="oCandra-deva" unicode="&#x911;" horiz-adv-x="2369" 
d="M2142 0h-184v1239h-391v-1239h-185v664h-393q72 -100 72 -224q0 -172 -119 -270t-301 -98q-152 0 -271.5 70.5t-197.5 187t-111 254.5l142 65q55 -211 169.5 -312t256.5 -101q113 0 175 61t62 164q0 162 -172 260q-92 -33 -225 -55l-51 163q176 33 283.5 94.5
t107.5 172.5q0 82 -55.5 127t-153.5 45q-123 0 -274 -70l-68 162q170 74 340 74q123 0 213 -50.5t136 -132.5t46 -176q0 -160 -119 -258h508v422h-243l-23 154h1274l20 -154h-268v-1239zM2323.5 1598.5q-105.5 -82.5 -238.5 -82.5q-127 0 -242.5 75.5t-187.5 216.5l113 76
q133 -195 287 -194q80 0 140 50t101 161l174 -62q-41 -158 -146.5 -240.5z" />
    <glyph glyph-name="oShort-deva" unicode="&#x912;" horiz-adv-x="2369" 
d="M2142 0h-184v1239h-391v-1239h-185v664h-393q72 -100 72 -224q0 -172 -119 -270t-301 -98q-152 0 -271.5 70.5t-197.5 187t-111 254.5l142 65q55 -211 169.5 -312t256.5 -101q113 0 175 61t62 164q0 162 -172 260q-92 -33 -225 -55l-51 163q176 33 283.5 94.5
t107.5 172.5q0 82 -55.5 127t-153.5 45q-123 0 -274 -70l-68 162q170 74 340 74q123 0 213 -50.5t136 -132.5t46 -176q0 -160 -119 -258h508v422h-243l-23 154h864q-4 92 -37.5 129t-111.5 63q-74 25 -260 72q-133 29 -197 53q-111 41 -146.5 126t-39.5 192l108 32
q27 -88 50.5 -121.5t83.5 -56.5q66 -27 164 -50.5t116 -27.5l172 -43q78 -23 129 -59.5t81 -110t32 -198.5h266l20 -154h-268v-1239z" />
    <glyph glyph-name="o-deva" unicode="&#x913;" horiz-adv-x="2369" 
d="M2142 0h-184v1239h-391v-1239h-185v664h-393q72 -100 72 -224q0 -172 -119 -270t-301 -98q-152 0 -271.5 70.5t-197.5 187t-111 254.5l142 65q55 -211 169.5 -312t256.5 -101q113 0 175 61t62 164q0 162 -172 260q-92 -33 -225 -55l-51 163q176 33 283.5 94.5
t107.5 172.5q0 82 -55.5 127t-153.5 45q-123 0 -274 -70l-68 162q170 74 340 74q123 0 213 -50.5t136 -132.5t46 -176q0 -160 -119 -258h508v422h-243l-23 154h844l-88 129q-88 129 -144.5 195.5t-137.5 106.5t-197 40h-68l-33 164h133q141 0 234.5 -49.5t159 -131.5
t170.5 -245q90 -143 135 -209h266l20 -154h-268v-1239z" />
    <glyph glyph-name="au-deva" unicode="&#x914;" horiz-adv-x="2369" 
d="M2142 0h-184v1239h-391v-1239h-185v664h-393q72 -100 72 -224q0 -172 -119 -270t-301 -98q-152 0 -271.5 70.5t-197.5 187t-111 254.5l142 65q55 -211 169.5 -312t256.5 -101q113 0 175 61t62 164q0 162 -172 260q-92 -33 -225 -55l-51 163q176 33 283.5 94.5
t107.5 172.5q0 82 -55.5 127t-153.5 45q-123 0 -274 -70l-68 162q170 74 340 74q123 0 213 -50.5t136 -132.5t46 -176q0 -160 -119 -258h508v422h-243l-23 154h852q-74 119 -161 175t-187 71.5t-266 15.5h-49l-33 164h117q154 0 260 -34t182 -110q-57 111 -109.5 173.5
t-130.5 94t-198 31.5h-68l-33 164h133q162 0 260.5 -58.5t165 -165t172.5 -331.5q27 -61 91 -190h276l20 -154h-268v-1239z" />
    <glyph glyph-name="ka-deva" unicode="&#x915;" horiz-adv-x="1785" 
d="M1466.5 956q92.5 -45 147.5 -131t55 -200q0 -121 -70.5 -239t-201.5 -218l-148 143q225 168 226 334q0 90 -52.5 140.5t-134.5 50.5q-68 0 -137.5 -35t-126.5 -103v-698h-184v408q-72 -61 -157 -93t-173 -32q-109 0 -203 46t-150.5 134t-56.5 207q0 164 115 264t348 100
h156l18 -153h-162q-125 0 -201.5 -60.5t-76.5 -165.5q0 -104 53 -154t139 -50q90 0 187.5 63.5t163.5 175.5v549h-858l-23 154h1847l21 -154h-803v-303q121 66 240 65q110 0 202.5 -45z" />
    <glyph glyph-name="kha-deva" unicode="&#x916;" horiz-adv-x="1677" 
d="M1450 0h-184v231q-80 -68 -185.5 -103.5t-226.5 -35.5q-154 0 -305.5 66.5t-276.5 203t-194 330.5l102 127q127 -18 219 -71q18 47 19 149v342h-436l-23 154h1739l20 -154h-268v-1239zM602 1239v-358q0 -182 -54 -270.5t-206 -92.5q74 -129 200 -195.5t267 -66.5
q121 0 225.5 49t168 144.5t63.5 224.5q0 115 -51.5 181.5t-137.5 66.5q-63 0 -108 -37t-45 -97q0 -125 168 -157l-41 -133q-143 29 -223 115.5t-80 191.5q0 125 83.5 192.5t206.5 67.5q121 0 228 -59v233h-664z" />
    <glyph glyph-name="ga-deva" unicode="&#x917;" horiz-adv-x="1261" 
d="M1034 0h-184v1239h-416v-829l-160 -68q-68 47 -127 147.5t-86 190.5l193 49v510h-272l-23 154h1323l21 -154h-269v-1239z" />
    <glyph glyph-name="gha-deva" unicode="&#x918;" horiz-adv-x="1435" 
d="M1208 0h-184v379q-90 -76 -195.5 -115t-214.5 -39q-115 0 -210 45t-152 129t-57 199q0 147 94 236q-74 39 -125 113.5t-51 158.5q0 74 32 133h-163l-23 154h1497l21 -154h-269v-1239zM473 1239q-78 0 -127 -38t-49 -105q0 -53 31.5 -101.5t91.5 -85.5q92 33 225 33h86
l25 -154h-90q-119 0 -198 -50t-79 -150q0 -199 205 -199q115 0 234.5 78t195.5 205v567h-551z" />
    <glyph glyph-name="nga-deva" unicode="&#x919;" horiz-adv-x="1380" 
d="M807 672q92 0 160.5 -42t104.5 -110.5t36 -150.5q0 -186 -120 -287.5t-310 -101.5q-182 0 -333.5 87t-248.5 207l117 95q94 -106 204.5 -166t229.5 -60q80 0 145.5 31t103.5 82t38 113q0 119 -119 118q-23 0 -35 -2l-223 -26q-12 -2 -35 -2q-88 0 -157.5 49t-108.5 127
t-39 155q0 123 77 195t245 72h243v184h-778l-22 154h1419l20 -154h-454v-344h-408q-74 0 -110.5 -35t-36.5 -92q0 -53 25.5 -90t90.5 -37q18 0 29 2l197 25q37 4 53 4zM1262.5 857.5q33.5 -23.5 60.5 -56.5t27 -58q0 -31 -50.5 -85t-80.5 -54q-20 0 -55.5 24.5t-62 57.5
t-26.5 57q0 31 51.5 84.5t81.5 53.5q21 0 54.5 -23.5z" />
    <glyph glyph-name="ca-deva" unicode="&#x91a;" horiz-adv-x="1472" 
d="M1245 0h-184v383q-80 -72 -180.5 -108.5t-200.5 -36.5q-119 0 -220.5 48t-162.5 138t-61 211q0 72 23.5 131t57.5 94h-256l-24 154h758l24 -154h-123q-117 0 -191.5 -64.5t-74.5 -170.5t58.5 -166t166.5 -60q121 0 226.5 74t179.5 205v561h-1079l-23 154h1534l20 -154
h-268v-1239z" />
    <glyph glyph-name="cha-deva" unicode="&#x91b;" horiz-adv-x="1576" 
d="M1375.5 934.5q70.5 -109.5 70.5 -256.5q0 -162 -86 -318.5t-253 -258t-400 -101.5q-141 0 -260 47t-191 139.5t-72 223.5q0 96 38 170.5t108 124.5q-94 61 -155.5 152t-61.5 187q0 119 51 195h-182l-23 154h1643l20 -154h-444v-164q127 -31 197.5 -140.5zM951.5 229.5
q140.5 65.5 230.5 189.5t90 288q0 106 -44 164.5t-122 58.5q-61 0 -97 -34t-36 -87q0 -55 37 -89t123 -52l-41 -138q-139 25 -217 111t-78 190q0 84 51 150t145 90v168h-440q-131 0 -193.5 -56.5t-62.5 -148.5q0 -72 51 -141.5t144 -120.5q70 16 143 16h47l27 -163h-54
q-123 0 -199.5 -60.5t-76.5 -165.5q0 -119 80 -177t207 -58q145 0 285.5 65.5z" />
    <glyph glyph-name="ja-deva" unicode="&#x91c;" horiz-adv-x="1687" 
d="M1460 0h-184v821h-402q102 -92 160 -185t58 -175q0 -88 -45.5 -155.5t-123 -104.5t-169.5 -37q-193 0 -332 118.5t-219 297t-105 362.5l144 43q63 -291 181 -469t290 -178q78 0 131 46t53 108q0 152 -264 356v137h643v254h-1294l-23 154h1749l21 -154h-269v-1239z" />
    <glyph glyph-name="jha-deva" unicode="&#x91d;" horiz-adv-x="1785" 
d="M1559 489v-489h-185v489h-340q12 -41 13 -90q0 -350 -402 -376l211 -234l-149 -111l-250 353q-82 12 -164 38.5t-139 63.5q4 84 17 133t56 119l113 -27l168 -186q16 -2 45 -2q147 0 235.5 60.5t88.5 166.5q0 51 -30 82t-91 31l-27 -2l-248 -27l-24 -2q-74 0 -143.5 42
t-112.5 116t-43 162q0 135 78.5 195.5t234.5 60.5h244v184h-744l-22 154h1857l21 -154h-268v-672l10 -78h-10zM1374 1239h-475v-342h-407q-74 0 -110 -31.5t-36 -87.5q0 -53 27.5 -88t101.5 -28l232 22q14 2 43 2q94 0 163 -43h461v596z" />
    <glyph glyph-name="nya-deva" unicode="&#x91e;" horiz-adv-x="1771" 
d="M1544 0h-184v532h-211q-27 -145 -133.5 -222t-257.5 -77q-135 0 -276.5 62.5t-255 185.5t-171.5 291l135 74q84 -207 222.5 -327t283.5 -120q76 0 136.5 34t95.5 90.5t35 121.5q0 117 -49.5 171t-135.5 54q-96 0 -243 -79l-99 153q72 43 155 66.5t167 23.5q96 0 182 -41
t143.5 -118.5t69.5 -188.5h207v553h-1378l-23 154h1833l20 -154h-268v-1239z" />
    <glyph glyph-name="tta-deva" unicode="&#x91f;" horiz-adv-x="1210" 
d="M871.5 300q103.5 58 158.5 128l133 -133q-92 -109 -221 -163t-272 -54q-145 0 -273.5 59.5t-206 174t-77.5 272.5q0 203 120.5 319.5t339.5 116.5h199v219h-780l-23 154h1252l20 -154h-285v-383h-342q-135 0 -221 -84t-86 -209q0 -147 89 -234t249 -87q123 0 226.5 58z
" />
    <glyph glyph-name="ttha-deva" unicode="&#x920;" horiz-adv-x="1323" 
d="M1212 522q0 -139 -70.5 -242.5t-192.5 -157.5t-273 -54q-150 0 -279 67.5t-206.5 186t-77.5 262.5q0 207 121.5 321.5t345.5 114.5h170v219h-779l-22 154h1405l20 -154h-440v-276q278 -175 278 -441zM841 270q83 39 133 110t50 161t-49 175t-144 140h-206
q-154 0 -236 -73.5t-82 -213.5q0 -164 99.5 -251t259.5 -87q92 0 175 39z" />
    <glyph glyph-name="dda-deva" unicode="&#x921;" horiz-adv-x="1228" 
d="M807 672q92 0 160.5 -42t104.5 -110.5t36 -150.5q0 -186 -120 -287.5t-310 -101.5q-182 0 -333.5 87t-248.5 207l117 95q94 -106 204.5 -166t229.5 -60q80 0 145.5 31t103.5 82t38 113q0 119 -119 118q-23 0 -35 -2l-223 -26q-12 -2 -35 -2q-88 0 -157.5 49t-108.5 127
t-39 155q0 123 77 195t245 72h243v184h-778l-22 154h1271l21 -154h-307v-344h-408q-74 0 -110.5 -35t-36.5 -92q0 -53 25.5 -90t90.5 -37q18 0 29 2l197 25q37 4 53 4z" />
    <glyph glyph-name="ddha-deva" unicode="&#x922;" horiz-adv-x="1269" 
d="M991.5 665.5q73.5 -32.5 119.5 -96t46 -149.5q0 -176 -122 -275.5t-333 -99.5q-152 0 -286.5 65.5t-218.5 185.5t-84 277q0 211 118.5 334t331.5 123h232v209h-824l-22 154h1356l20 -154h-346v-373h-385q-86 0 -150.5 -41t-100.5 -110.5t-36 -151.5q0 -180 107.5 -267
t277.5 -87q131 0 211 61.5t80 159.5q0 61 -30.5 92t-82.5 31q-53 0 -82.5 -33t-29.5 -82q0 -27 12 -61l-131 -58q-55 74 -55 154q0 109 73.5 167t180.5 58q80 0 153.5 -32.5z" />
    <glyph glyph-name="nna-deva" unicode="&#x923;" horiz-adv-x="1656" 
d="M1430 0h-185v1239h-323v-502q0 -195 -89.5 -292t-279.5 -97q-186 0 -300 105.5t-114 285.5v500h-157l-23 154h1718l21 -154h-268v-1239zM324 1239v-520q0 -113 49 -160t159 -47q98 0 151.5 67.5t53.5 178.5v481h-413z" />
    <glyph glyph-name="ta-deva" unicode="&#x924;" horiz-adv-x="1306" 
d="M1079 0h-184v788h-369q-102 0 -155.5 -57t-53.5 -141q0 -209 195 -549l-127 -72q-262 389 -262 645q0 174 95 256t284 82h393v287h-934l-22 154h1388l21 -154h-269v-1239z" />
    <glyph glyph-name="tha-deva" unicode="&#x925;" horiz-adv-x="1437" 
d="M1196 0h-184v438q-82 -59 -175.5 -90t-185.5 -31q-129 0 -243.5 54.5t-193.5 161t-103 255.5q444 119 444 351q0 70 -40 106.5t-97 36.5t-101.5 -34t-44.5 -89q0 -61 50 -127l-123 -63q-49 39 -75 96t-26 115q0 121 84 187.5t213 66.5q102 0 177 -44t115 -118t40 -162
q0 -139 -105.5 -259t-318.5 -194q90 -176 313 -176q109 0 213.5 58.5t182.5 162.5v537h-154l-22 154h622l21 -154h-283v-1239z" />
    <glyph glyph-name="da-deva" unicode="&#x926;" horiz-adv-x="1249" 
d="M1004 260l219 -303l-174 -100l-156 323q-123 -68 -264 -67q-135 0 -254 63.5t-190.5 176t-71.5 251.5q0 190 113.5 303t310.5 113h215v219h-801l-23 154h1362l21 -154h-375v-383h-369q-115 0 -187.5 -78t-72.5 -194q0 -135 76 -221.5t211 -86.5q117 0 223 62l-90 186
l111 92q66 -29 149.5 -98t128.5 -133q-51 -74 -112 -125z" />
    <glyph glyph-name="dha-deva" unicode="&#x927;" horiz-adv-x="1478" 
d="M1251 0h-184v358q-92 -86 -204.5 -130t-227.5 -44t-210 45t-152.5 129t-57.5 199q0 152 100 242q-84 57 -148.5 146t-64.5 192q0 98 49.5 167.5t128 104.5t164.5 35q121 0 206 -63.5t85 -174.5q0 -66 -30.5 -120t-90.5 -93l-104 99q47 43 47 102q0 47 -36 74.5t-85 27.5
q-61 0 -105 -39.5t-44 -115.5q0 -63 45 -140t121 -129q98 29 213 29h86l24 -153h-90q-119 0 -197.5 -50.5t-78.5 -150.5q0 -199 204 -199q121 0 250 89t203 227v575h-186l-21 154h639l21 -154h-269v-1239z" />
    <glyph glyph-name="na-deva" unicode="&#x928;" horiz-adv-x="1261" 
d="M1034 0h-184v719h-473l37 -209l-133 -82q-86 74 -140.5 150.5t-85.5 181.5l123 123h672v356h-868l-23 154h1323l21 -154h-269v-1239z" />
    <glyph glyph-name="nnna-deva" unicode="&#x929;" horiz-adv-x="1263" 
d="M1034 0h-184v719h-473l37 -209l-133 -82q-86 74 -140.5 150.5t-85.5 181.5l123 123h672v356h-868l-23 154h1323l21 -154h-269v-1239zM300.5 150.5q33.5 -23.5 60.5 -56t27 -57.5q0 -31 -50.5 -85t-81.5 -54q-20 0 -55 24.5t-61.5 57t-26.5 57.5q0 31 51.5 84t81.5 53
q21 0 54.5 -23.5z" />
    <glyph glyph-name="pa-deva" unicode="&#x92a;" horiz-adv-x="1222" 
d="M995 0h-184v426q-115 -80 -262 -80q-106 0 -197.5 46t-146.5 135t-55 210v502h-168l-23 154h1284l21 -154h-269v-1239zM672 554q84 46 139 120v565h-477v-522q0 -104 49 -156.5t129 -52.5q76 0 160 46z" />
    <glyph glyph-name="pha-deva" unicode="&#x92b;" horiz-adv-x="1800" 
d="M1466.5 930q92.5 -45 147.5 -131t55 -201q0 -121 -70.5 -238.5t-201.5 -218.5l-148 144q225 168 226 333q0 90 -52.5 140.5t-134.5 50.5q-76 0 -153.5 -44t-139.5 -128v-637h-184v426q-115 -80 -262 -80q-106 0 -197.5 46t-146.5 135t-55 210v502h-168l-23 154h1862
l20 -154h-846v-346q135 82 269 82q110 0 202.5 -45zM672 554q84 46 139 120v565h-477v-522q0 -104 49 -156.5t129 -52.5q76 0 160 46z" />
    <glyph glyph-name="ba-deva" unicode="&#x92c;" horiz-adv-x="1378" 
d="M1151 0h-184v397q-76 -82 -175.5 -123t-205.5 -41q-119 0 -222.5 50.5t-167 143.5t-63.5 218q0 195 119 292t332 97h159l25 -153h-164q-61 0 -106 -15l301 -364q100 84 168 229v508h-987l-21 154h1440l20 -154h-268v-1239zM684 428l-303 365q-53 -63 -53 -158
q0 -111 55 -173.5t160 -62.5q67 0 141 29z" />
    <glyph glyph-name="bha-deva" unicode="&#x92d;" horiz-adv-x="1544" 
d="M1315 0h-185v555h-464v-188l-140 -78q-158 152 -213 368l179 58v370q0 98 -30 146.5t-104 48.5q-51 0 -81.5 -30.5t-30.5 -82.5q0 -72 82 -143l-111 -94q-66 37 -111 102.5t-45 145.5q0 121 80 188.5t207 67.5q160 0 239 -94.5t79 -274.5v-346h464v520h-243l-23 154h699
l20 -154h-268v-1239z" />
    <glyph glyph-name="ma-deva" unicode="&#x92e;" horiz-adv-x="1335" 
d="M1106 0h-184v555h-473v-188l-140 -78q-158 152 -213 368l172 56v526h-276l-23 154h1385l20 -154h-268v-1239zM449 1239v-520h473v520h-473z" />
    <glyph glyph-name="ya-deva" unicode="&#x92f;" horiz-adv-x="1337" 
d="M1110 0h-184v410q-147 -98 -316 -99q-127 0 -239.5 55.5t-192.5 164t-108 257.5h4q326 76 325 256q0 104 -112 195h-295l-23 154h1389l20 -154h-268v-1239zM479 1239q104 -98 105 -215q0 -113 -87 -210t-235 -144q41 -94 122 -143.5t179 -49.5q96 0 192.5 47t170.5 135
v580h-447z" />
    <glyph glyph-name="ra-deva" unicode="&#x930;" horiz-adv-x="829" 
d="M552 630q-48 -81 -183 -89l374 -441l-159 -131l-512 717l114 137q123 -18 217 -80q12 45 13 154v342h-434l-23 154h889l20 -154h-268v-358q0 -170 -48 -251z" />
    <glyph glyph-name="rra-deva" unicode="&#x931;" horiz-adv-x="829" 
d="M552 630q-48 -81 -183 -89l374 -441l-159 -131l-512 717l114 137q123 -18 217 -80q12 45 13 154v342h-434l-23 154h889l20 -154h-268v-358q0 -170 -48 -251zM228.5 150.5q33.5 -23.5 60.5 -56t27 -57.5q0 -31 -50.5 -85t-81.5 -54q-20 0 -55 24.5t-61.5 57t-26.5 57.5
q0 31 51.5 84t81.5 53q21 0 54.5 -23.5z" />
    <glyph glyph-name="la-deva" unicode="&#x932;" horiz-adv-x="1626" 
d="M1399 0h-185v848q-51 23 -104 22q-113 0 -174.5 -105.5t-61.5 -272.5v-43l-174 22v41q0 152 35 256q-33 51 -84 82t-108 31q-98 0 -154.5 -76t-56.5 -195q0 -266 313 -528l-117 -113q-195 166 -297 340t-102 346q0 168 97.5 273.5t287.5 105.5q86 0 160 -36.5t125 -98.5
q96 125 270 125q80 0 145 -35v250h-1232l-23 154h1688l20 -154h-268v-1239z" />
    <glyph glyph-name="lla-deva" unicode="&#x933;" horiz-adv-x="1787" 
d="M1612 820.5q96 -113.5 96 -283.5q0 -125 -52 -218.5t-143.5 -142.5t-209.5 -49q-115 0 -224.5 55.5t-199.5 139.5q-66 -92 -150 -143.5t-197 -51.5q-131 0 -231 55.5t-155.5 156.5t-55.5 232q0 197 113.5 301.5t300.5 104.5q113 0 217 -51.5t194 -141.5q113 156 265 185
v270h-1194l-23 154h1849l21 -154h-469v-272q152 -33 248 -146.5zM609.5 330q52.5 39 91 96t92.5 156l43 75q-76 72 -150 114t-151 42q-121 0 -185.5 -72.5t-64.5 -197.5q0 -117 54 -184.5t153 -67.5q65 0 117.5 39zM1445.5 363.5q67.5 72.5 67.5 199.5q0 106 -55 178
t-158 72q-68 0 -120 -39t-89.5 -96t-93.5 -160l-39 -69q90 -74 158 -116t135 -42q127 0 194.5 72.5z" />
    <glyph glyph-name="llla-deva" unicode="&#x934;" horiz-adv-x="1787" 
d="M1612 820.5q96 -113.5 96 -283.5q0 -125 -52 -218.5t-143.5 -142.5t-209.5 -49q-115 0 -224.5 55.5t-199.5 139.5q-66 -92 -150 -143.5t-197 -51.5q-131 0 -231 55.5t-155.5 156.5t-55.5 232q0 197 113.5 301.5t300.5 104.5q113 0 217 -51.5t194 -141.5q113 156 265 185
v270h-1194l-23 154h1849l21 -154h-469v-272q152 -33 248 -146.5zM609.5 330q52.5 39 91 96t92.5 156l43 75q-76 72 -150 114t-151 42q-121 0 -185.5 -72.5t-64.5 -197.5q0 -117 54 -184.5t153 -67.5q65 0 117.5 39zM1445.5 363.5q67.5 72.5 67.5 199.5q0 106 -55 178
t-158 72q-68 0 -120 -39t-89.5 -96t-93.5 -160l-39 -69q90 -74 158 -116t135 -42q127 0 194.5 72.5zM955.5 113.5q33.5 -23.5 60.5 -56t27 -57.5q0 -31 -50.5 -85t-81.5 -54q-20 0 -55 24.5t-61.5 57t-26.5 57.5q0 31 51.5 84t81.5 53q21 0 54.5 -23.5z" />
    <glyph glyph-name="va-deva" unicode="&#x935;" horiz-adv-x="1368" 
d="M1141 0h-185v397q-76 -82 -175 -123t-206 -41q-119 0 -222 50.5t-166.5 143.5t-63.5 218q0 195 118.5 292t331.5 97h160l25 -153h-164q-121 0 -199 -63.5t-78 -182.5q0 -111 55.5 -173.5t159.5 -62.5q125 0 235 84t189 248v508h-987l-20 154h1440l20 -154h-268v-1239z
" />
    <glyph glyph-name="sha-deva" unicode="&#x936;" horiz-adv-x="1589" 
d="M799.5 627.5q-107.5 -144.5 -277.5 -185.5l254 -280l-166 -135l-264 407q-147 16 -274 103q4 70 27.5 126t64.5 115l86 -35l133 -147q174 8 262 132t88 302q0 111 -52 184.5t-149 73.5q-74 0 -114.5 -44t-40.5 -105t39 -113.5t110 -71.5l-41 -137q-141 35 -216.5 127
t-75.5 201q0 76 38.5 142.5t113.5 106.5t177 40q123 0 210 -60.5t131 -161t44 -219.5q0 -221 -107.5 -365.5zM1362 0h-185v1239h-243l-23 154h698l21 -154h-268v-1239z" />
    <glyph glyph-name="ssa-deva" unicode="&#x937;" horiz-adv-x="1222" 
d="M995 0h-184v426q-115 -80 -262 -80q-106 0 -197.5 46t-146.5 135t-55 210v502h-168l-23 154h1284l21 -154h-269v-1239zM811 680v559h-436zM612.5 526.5q53.5 18.5 100.5 53.5l-379 487v-350q0 -104 49 -156.5t129 -52.5q47 0 100.5 18.5z" />
    <glyph glyph-name="sa-deva" unicode="&#x938;" horiz-adv-x="1474" 
d="M1245 0h-184v539h-692l374 -439l-159 -131l-512 717l114 137q123 -18 217 -80q12 45 13 154v342h-434l-23 154h1534l20 -154h-268v-1239zM600 1239v-358q0 -104 -18 -179h479v537h-461z" />
    <glyph glyph-name="ha-deva" unicode="&#x939;" horiz-adv-x="1208" 
d="M887.5 601q99.5 -50 156 -135t56.5 -183q0 -84 -48 -162t-147 -135l-100 147q55 35 86 82t31 94q0 80 -59.5 129t-166.5 49q-150 0 -231.5 -71.5t-81.5 -190.5q0 -102 65.5 -195t199.5 -153.5t329 -60.5l-21 -144q-233 -2 -407 83t-267.5 216t-93.5 265q0 96 35 177
t103 136q-66 47 -106 113.5t-40 125.5q0 109 75 177.5t226 68.5h348v205h-847l-23 154h1280l21 -154h-246v-369h-512q-57 0 -92 -25.5t-35 -76.5q0 -82 78 -150q98 33 213 33q122 0 221.5 -50z" />
    <glyph glyph-name="oeMatra-deva" unicode="&#x93a;" horiz-adv-x="0" 
d="M-412 1331v348h185v-348h-185z" />
    <glyph glyph-name="ooeMatra-deva" unicode="&#x93b;" horiz-adv-x="636" 
d="M410 0h-185v1239h-243l-23 154h266v286h185v-286h247l21 -154h-268v-1239z" />
    <glyph glyph-name="nukta-deva" unicode="&#x93c;" horiz-adv-x="0" 
d="M320.5 -228.5q33.5 -23.5 60.5 -56t27 -57.5q0 -31 -50.5 -85t-81.5 -54q-20 0 -55 24.5t-61.5 57t-26.5 57.5q0 31 51.5 84t81.5 53q21 0 54.5 -23.5z" />
    <glyph glyph-name="avagraha-deva" unicode="&#x93d;" horiz-adv-x="1193" 
d="M460.5 991.5q67.5 -65.5 209.5 -157.5q125 -82 202.5 -146.5t133 -153t55.5 -196.5q0 -111 -55.5 -191.5t-150.5 -123.5t-214 -43q-152 0 -271.5 70.5t-197.5 187t-111 254.5l142 65q55 -211 169.5 -312.5t256.5 -101.5q113 0 175 60.5t62 154.5q0 74 -42 136.5
t-103.5 110.5t-169.5 122q-117 78 -186.5 133t-117.5 130t-48 167q0 106 73.5 171t227.5 65h489l23 -154h-471q-147 0 -148 -102q0 -80 67.5 -145.5z" />
    <glyph glyph-name="aaMatra-deva" unicode="&#x93e;" horiz-adv-x="636" 
d="M410 0h-185v1239h-243l-23 154h698l21 -154h-268v-1239z" />
    <glyph glyph-name="iMatra-deva" unicode="&#x93f;" 
d="M387 1798q-70 -55 -70 -160q0 -104 70 -245h270l21 -154h-268v-1239h-185v1239h-243l-23 154h274q-100 186 -100 319q0 150 106.5 233t280.5 83q213 0 476.5 -115t510.5 -322l-90 -104q-225 170 -451.5 268t-392.5 98q-116 0 -186 -55z" />
    <glyph glyph-name="iiMatra-deva" unicode="&#x940;" 
d="M410 0h-185v1239h-243l-23 154h266q-31 158 -98.5 261t-149 151t-163.5 48q-78 0 -126 -40.5t-48 -116.5q0 -57 32 -135l-118 -50q-49 55 -74 116t-25 118q0 125 93.5 204t244.5 79q119 0 234.5 -65t214 -207t157.5 -363h258l21 -154h-268v-1239z" />
    <glyph glyph-name="uMatra-deva" unicode="&#x941;" horiz-adv-x="0" 
d="M-116.5 -69q73.5 -89 73.5 -210q0 -131 -93 -219t-270 -88q-156 0 -311 88t-266 262l106 72q90 -131 217.5 -200.5t241.5 -69.5q111 0 156 52t45 116q0 57 -33 95t-100 38q-76 0 -168 -47l-68 135q113 66 242 65q154 0 227.5 -89z" />
    <glyph glyph-name="uuMatra-deva" unicode="&#x942;" horiz-adv-x="0" 
d="M-9.5 -97.5q148.5 -111.5 257.5 -334.5l-115 -57q-100 172 -214 261t-226 89q-82 0 -128 -44t-46 -116q0 -70 44 -101.5t113 -31.5q61 0 125 22l43 -147q-82 -29 -166 -29q-139 0 -236 76t-97 221q0 133 83 218t250 85q164 0 312.5 -111.5z" />
    <glyph glyph-name="rVocalicMatra-deva" unicode="&#x943;" horiz-adv-x="0" 
d="M-457 -291q0 -59 47.5 -102t120.5 -43q111 0 226 78l75 -136q-139 -96 -299 -96q-109 0 -188.5 45t-122.5 119t-43 158q0 143 104.5 227t294.5 98l49 -141q-264 -64 -264 -207z" />
    <glyph glyph-name="rrVocalicMatra-deva" unicode="&#x944;" horiz-adv-x="0" 
d="M-455 -236q0 -45 32 -72.5t79 -27.5q51 0 115.5 20.5t117.5 51.5l60 -133q-94 -55 -209 -70q-51 -57 -51 -117q0 -49 39 -80.5t104 -31.5q49 0 109.5 20.5t117.5 59.5l62 -134q-72 -47 -148.5 -68.5t-140.5 -21.5q-127 0 -212 66.5t-85 169.5q0 68 47 145
q-92 27 -146 98.5t-54 155.5q0 72 47 130.5t134 92t199 33.5l39 -133q-256 -43 -256 -154z" />
    <glyph glyph-name="eCandraMatra-deva" unicode="&#x945;" horiz-adv-x="0" 
d="M-50.5 1598.5q-105.5 -82.5 -238.5 -82.5q-127 0 -242.5 75.5t-187.5 216.5l113 76q133 -195 287 -194q80 0 140 50t101 161l174 -62q-41 -158 -146.5 -240.5z" />
    <glyph glyph-name="eShortMatra-deva" unicode="&#x946;" horiz-adv-x="0" 
d="M-1029.5 1938.5q23.5 -33.5 83.5 -56.5q66 -27 164 -50.5t116 -27.5l172 -43q82 -23 133.5 -61.5t80 -116.5t28.5 -211h-143q0 72 -16.5 112t-47 61.5t-86.5 39.5q-74 25 -260 72q-131 29 -196 53q-111 41 -147 126t-40 192l109 32q26 -88 49.5 -121.5z" />
    <glyph glyph-name="eMatra-deva" unicode="&#x947;" horiz-adv-x="0" 
d="M-711.5 1978.5q93.5 -49.5 159 -131.5t169.5 -248q27 -39 70 -107.5t80 -119.5h-164q-45 61 -103 150q-88 129 -144 195.5t-137 106.5t-198 40h-68l-32 164h133q141 0 234.5 -49.5z" />
    <glyph glyph-name="aiMatra-deva" unicode="&#x948;" horiz-adv-x="0" 
d="M-686 2079.5q98 -58.5 163.5 -164t174.5 -334.5l100 -209h-143q-76 129 -164 189.5t-190.5 77t-272.5 16.5h-49l-33 164h117q154 0 260.5 -34t181.5 -110q-57 111 -109 173.5t-130 94t-199 31.5h-68l-32 164h133q162 0 260 -58.5z" />
    <glyph glyph-name="oCandraMatra-deva" unicode="&#x949;" 
d="M410 0h-185v1239h-243l-23 154h698l21 -154h-268v-1239zM588.5 1598.5q-105.5 -82.5 -238.5 -82.5q-127 0 -242.5 75.5t-187.5 216.5l113 76q133 -195 287 -194q80 0 140 50t101 161l174 -62q-41 -158 -146.5 -240.5z" />
    <glyph glyph-name="oShortMatra-deva" unicode="&#x94a;" horiz-adv-x="636" 
d="M410 0h-185v1239h-243l-23 154h287q-4 92 -38 129t-112 63q-74 25 -260 72q-133 29 -196 53q-111 41 -147 126t-40 192l109 32q27 -88 50 -121.5t83 -56.5q66 -27 164 -50.5t116 -27.5l172 -43q78 -23 129.5 -59.5t81 -110t31.5 -198.5h268l21 -154h-268v-1239z" />
    <glyph glyph-name="oMatra-deva" unicode="&#x94b;" horiz-adv-x="636" 
d="M410 0h-185v1239h-243l-23 154h266l-88 129q-88 129 -144 195.5t-137 106.5t-198 40h-68l-32 164h133q141 0 234 -49.5t159 -131.5t170 -245q90 -143 135 -209h268l21 -154h-268v-1239z" />
    <glyph glyph-name="auMatra-deva" unicode="&#x94c;" horiz-adv-x="636" 
d="M410 0h-185v1239h-243l-23 154h277q-74 119 -161 175t-187.5 71.5t-266.5 15.5h-49l-33 164h117q154 0 260.5 -34t181.5 -110q-57 111 -109 173.5t-130 94t-199 31.5h-68l-32 164h133q162 0 260 -58.5t164.5 -165t173.5 -331.5q27 -61 90 -190h276l21 -154h-268v-1239z
" />
    <glyph glyph-name="halant-deva" unicode="&#x94d;" horiz-adv-x="0" 
d="M-20 -668l-500 420l121 146l471 -457z" />
    <glyph glyph-name="prishthaMatraE-deva" unicode="&#x94e;" 
d="M412 0h-185v1393h432l21 -154h-268v-1239z" />
    <glyph glyph-name="awVowel-deva" unicode="&#x94f;" horiz-adv-x="636" 
d="M410 0h-185v1239h-243l-23 154h266q-23 29 -61.5 44t-118.5 29q-92 18 -211 33q-14 2 -102 15.5t-156 31.5q-113 31 -156 105.5t-49 171.5l101 28q23 -74 51 -104.5t88 -44.5q41 -12 106.5 -23.5t132.5 -21.5q156 -23 216 -35q145 -33 213 -98q-31 98 -142 145
q-78 35 -227 86q-137 47 -191 74q-145 74 -145 264q0 39 2 55l102 21q16 -86 36 -121t73 -61q63 -33 211 -82q158 -55 207 -78q117 -53 163 -122t46 -194q0 -53 -6 -118h249l21 -154h-268v-1239z" />
    <glyph glyph-name="om-deva" unicode="&#x950;" horiz-adv-x="2113" 
d="M1388.5 1474.5q-34.5 24.5 -61.5 57.5t-27 57q0 31 51.5 84t82.5 53q20 0 54 -23.5t60.5 -56t26.5 -57.5q0 -31 -50 -85t-81 -54q-21 0 -55.5 24.5zM1230 1202q-116 76 -188 217l113 76q133 -195 287 -195q80 0 140 50.5t101 160.5l175 -61q-41 -158 -146.5 -241
t-238.5 -83q-127 0 -243 76zM1824 955.5q89 -50.5 138 -141.5t49 -208q0 -205 -124 -302t-337 -97h-114l-19 164h121q137 0 208 55t71 180q0 119 -47.5 177.5t-151.5 58.5q-63 0 -104 -40t-97 -122q-43 -66 -76.5 -105.5t-84 -67.5t-119.5 -28h-78q2 -12 2 -39
q0 -172 -119 -270t-301 -98q-152 0 -271.5 70.5t-197.5 187t-111 254.5l142 65q55 -211 169.5 -312t256.5 -101q113 0 175 61t62 164q0 162 -172 260q-92 -33 -225 -55l-51 163q176 33 283.5 94.5t107.5 172.5q0 82 -55.5 127t-153.5 45q-123 0 -274 -70l-68 162
q170 74 340 74q123 0 213 -50.5t136 -132.5t46 -176q0 -176 -149 -280q109 -66 166 -162h75q51 0 85 32.5t81 106.5q45 72 87 119t111 81t169 34q117 0 206 -50.5z" />
    <glyph glyph-name="udatta-deva" unicode="&#x951;" horiz-adv-x="0" 
d="M-389 1516v593h143v-593h-143z" />
    <glyph glyph-name="anudatta-deva" unicode="&#x952;" horiz-adv-x="0" 
d="M-1049 -379v143h822v-143h-822z" />
    <glyph glyph-name="grave-deva" unicode="&#x953;" horiz-adv-x="0" 
d="M-236 1516l-481 382l103 119l469 -397z" />
    <glyph glyph-name="acute-deva" unicode="&#x954;" horiz-adv-x="0" 
d="M-451 1516l-92 102l471 399l103 -123z" />
    <glyph glyph-name="eLongCandra-deva" unicode="&#x955;" horiz-adv-x="0" 
d="M-52.5 1807q-105.5 -83 -238.5 -83q-127 0 -242.5 76t-187.5 217l113 76q133 -195 286 -195q80 0 140.5 50.5t101.5 160.5l174 -61q-41 -158 -146.5 -241zM-655 1493l-23 164h741l23 -164h-741z" />
    <glyph glyph-name="ueMatra-deva" unicode="&#x956;" horiz-adv-x="0" 
d="M-594 -356.5q-119 -73.5 -260 -73.5t-286.5 72.5t-266.5 205.5l109 91q100 -100 205.5 -152.5t205.5 -52.5q102 0 189.5 54t146.5 161l154 -84q-78 -148 -197 -221.5z" />
    <glyph glyph-name="uueMatra-deva" unicode="&#x957;" horiz-adv-x="0" 
d="M-317.5 -350q-122.5 -80 -268.5 -80q-143 0 -288.5 69.5t-272.5 208.5l109 91q96 -98 206.5 -151.5t215.5 -53.5q98 0 182 53t137 154l166 -62q-64 -149 -186.5 -229zM-317.5 -760q-122.5 -80 -268.5 -80q-143 0 -288.5 70t-272.5 209l109 90q96 -98 206.5 -151.5
t215.5 -53.5q98 0 182 53.5t137 153.5l166 -61q-64 -150 -186.5 -230z" />
    <glyph glyph-name="qa-deva" unicode="&#x958;" horiz-adv-x="1785" 
d="M1466.5 956q92.5 -45 147.5 -131t55 -200q0 -121 -70.5 -239t-201.5 -218l-148 143q225 168 226 334q0 90 -52.5 140.5t-134.5 50.5q-68 0 -137.5 -35t-126.5 -103v-698h-184v408q-72 -61 -157 -93t-173 -32q-109 0 -203 46t-150.5 134t-56.5 207q0 164 115 264t348 100
h156l18 -153h-162q-125 0 -201.5 -60.5t-76.5 -165.5q0 -104 53 -154t139 -50q90 0 187.5 63.5t163.5 175.5v549h-858l-23 154h1847l21 -154h-803v-303q121 66 240 65q110 0 202.5 -45zM361.5 150.5q33.5 -23.5 60.5 -56.5t27 -57q0 -31 -50.5 -85t-81.5 -54q-20 0 -55 24.5
t-61.5 57t-26.5 57.5q0 31 51 84t82 53q21 0 54.5 -23.5z" />
    <glyph glyph-name="khha-deva" unicode="&#x959;" horiz-adv-x="1691" 
d="M1450 0h-184v231q-80 -68 -185.5 -103.5t-226.5 -35.5q-154 0 -305.5 66.5t-276.5 203t-194 330.5l102 127q127 -18 219 -71q18 47 19 149v342h-436l-23 154h1739l20 -154h-268v-1239zM602 1239v-358q0 -182 -54 -270.5t-206 -92.5q74 -129 200 -195.5t267 -66.5
q121 0 225.5 49t168 144.5t63.5 224.5q0 115 -51.5 181.5t-137.5 66.5q-63 0 -108 -37t-45 -97q0 -125 168 -157l-41 -133q-143 29 -223 115.5t-80 191.5q0 125 83.5 192.5t206.5 67.5q121 0 228 -59v233h-664zM234.5 150.5q33.5 -23.5 60.5 -56t27 -57.5q0 -31 -50.5 -85
t-81.5 -54q-20 0 -55 24.5t-61.5 57t-26.5 57.5q0 31 51.5 84t81.5 53q21 0 54.5 -23.5z" />
    <glyph glyph-name="ghha-deva" unicode="&#x95a;" horiz-adv-x="1261" 
d="M371.5 150.5q33.5 -23.5 60.5 -56t27 -57.5q0 -31 -50.5 -85t-81.5 -54q-20 0 -55 24.5t-61.5 57t-26.5 57.5q0 31 51.5 84t81.5 53q21 0 54.5 -23.5zM1034 0h-184v1239h-416v-829l-160 -68q-68 47 -127 147.5t-86 190.5l193 49v510h-272l-23 154h1323l21 -154h-269
v-1239z" />
    <glyph glyph-name="za-deva" unicode="&#x95b;" horiz-adv-x="1687" 
d="M351.5 150.5q33.5 -23.5 60.5 -56t27 -57.5q0 -31 -50.5 -85t-81.5 -54q-20 0 -55 24.5t-61.5 57t-26.5 57.5q0 31 51.5 84t81.5 53q21 0 54.5 -23.5zM1460 0h-184v821h-402q102 -92 160 -185t58 -175q0 -88 -45.5 -155.5t-123 -104.5t-169.5 -37q-193 0 -332 118.5
t-219 297t-105 362.5l144 43q63 -291 181 -469t290 -178q78 0 131 46t53 108q0 152 -264 356v137h643v254h-1294l-23 154h1749l21 -154h-269v-1239z" />
    <glyph glyph-name="dddha-deva" unicode="&#x95c;" horiz-adv-x="1228" 
d="M678.5 -136.5q33.5 -23.5 60.5 -56t27 -57.5q0 -31 -50.5 -85t-81.5 -54q-20 0 -55 24.5t-61.5 57t-26.5 57.5q0 31 51.5 84t81.5 53q21 0 54.5 -23.5zM807 672q92 0 160.5 -42t104.5 -110.5t36 -150.5q0 -186 -120 -287.5t-310 -101.5q-182 0 -333.5 87t-248.5 207
l117 95q94 -106 204.5 -166t229.5 -60q80 0 145.5 31t103.5 82t38 113q0 119 -119 118q-23 0 -35 -2l-223 -26q-12 -2 -35 -2q-88 0 -157.5 49t-108.5 127t-39 155q0 123 77 195t245 72h243v184h-778l-22 154h1271l21 -154h-307v-344h-408q-74 0 -110.5 -35t-36.5 -92
q0 -53 25.5 -90t90.5 -37q18 0 29 2l197 25q37 4 53 4z" />
    <glyph glyph-name="rha-deva" unicode="&#x95d;" horiz-adv-x="1269" 
d="M991.5 665.5q73.5 -32.5 119.5 -96t46 -149.5q0 -176 -122 -275.5t-333 -99.5q-152 0 -286.5 65.5t-218.5 185.5t-84 277q0 211 118.5 334t331.5 123h232v209h-824l-22 154h1356l20 -154h-346v-373h-385q-86 0 -150.5 -41t-100.5 -110.5t-36 -151.5q0 -180 107.5 -267
t277.5 -87q131 0 211 61.5t80 159.5q0 61 -30.5 92t-82.5 31q-53 0 -82.5 -33t-29.5 -82q0 -27 12 -61l-131 -58q-55 74 -55 154q0 109 73.5 167t180.5 58q80 0 153.5 -32.5zM689.5 -85.5q33.5 -23.5 60.5 -56t27 -57.5q0 -31 -50.5 -85t-81.5 -54q-20 0 -55 24.5t-61.5 57
t-26.5 57.5q0 31 51.5 84t81.5 53q21 0 54.5 -23.5z" />
    <glyph glyph-name="fa-deva" unicode="&#x95e;" horiz-adv-x="1800" 
d="M330.5 150.5q33.5 -23.5 60.5 -56t27 -57.5q0 -31 -50.5 -85t-81.5 -54q-20 0 -55 24.5t-61.5 57t-26.5 57.5q0 31 51.5 84t81.5 53q21 0 54.5 -23.5zM1466.5 930q92.5 -45 147.5 -131t55 -201q0 -121 -70.5 -238.5t-201.5 -218.5l-148 144q225 168 226 333
q0 90 -52.5 140.5t-134.5 50.5q-76 0 -153.5 -44t-139.5 -128v-637h-184v426q-115 -80 -262 -80q-106 0 -197.5 46t-146.5 135t-55 210v502h-168l-23 154h1862l20 -154h-846v-346q135 82 269 82q110 0 202.5 -45zM672 554q84 46 139 120v565h-477v-522q0 -104 49 -156.5
t129 -52.5q76 0 160 46z" />
    <glyph glyph-name="yya-deva" unicode="&#x95f;" horiz-adv-x="1337" 
d="M1110 0h-184v410q-147 -98 -316 -99q-127 0 -239.5 55.5t-192.5 164t-108 257.5h4q326 76 325 256q0 104 -112 195h-295l-23 154h1389l20 -154h-268v-1239zM479 1239q104 -98 105 -215q0 -113 -87 -210t-235 -144q41 -94 122 -143.5t179 -49.5q96 0 192.5 47t170.5 135
v580h-447zM320.5 150.5q33.5 -23.5 60.5 -56t27 -57.5q0 -31 -50.5 -85t-81.5 -54q-20 0 -55 24.5t-61.5 57t-26.5 57.5q0 31 51.5 84t81.5 53q21 0 54.5 -23.5z" />
    <glyph glyph-name="rrVocalic-deva" unicode="&#x960;" horiz-adv-x="1873" 
d="M1884 25l62 -134q-133 -76 -271 -75q-127 0 -210 64.5t-83 164.5q0 72 43 141q-94 18 -151 78t-57 154q0 74 41.5 128t111.5 99q-113 45 -186 103q-94 -68 -238 -158v-590h-184v481l-561 -420l-121 148l639 414q-219 227 -387 227q-98 0 -197 -51l-65 159q125 66 247 66
q102 0 206 -60.5t239 -183.5v459h-776l-23 154h1966l21 -154h-1004v-485l158 106l20 254l82 55q72 -29 123 -60.5t98 -74.5q-25 -96 -129 -192q51 -37 120 -56.5t112 -19.5l43 -166q-203 -94 -203 -192q0 -45 31 -69t80 -24q53 0 112.5 18.5t110.5 47.5l59 -133
q-76 -45 -174 -62q-57 -57 -57 -120q0 -49 37 -80t100 -31q96 0 215 70z" />
    <glyph glyph-name="llVocalic-deva" unicode="&#x961;" horiz-adv-x="1675" 
d="M1473 -520q-127 0 -210 64.5t-83 164.5q0 70 41 139q-96 18 -156.5 78t-60.5 156q0 80 44 139.5t132 138.5q92 84 140 149.5t48 156.5q0 100 -53 157.5t-152 57.5q-127 0 -193.5 -102.5t-66.5 -276.5v-64l-174 23v61q0 117 23 213q-27 61 -84.5 103.5t-124.5 42.5
q-100 0 -160.5 -77t-60.5 -200q0 -131 93 -271t230 -251l-117 -113q-154 119 -277.5 286t-123.5 370q0 129 51 221t139.5 140t196.5 48q90 0 170 -42t131 -111q84 129 266 149v209h-1114l-22 154h1773l21 -154h-473v-223q121 -37 203.5 -138.5t82.5 -232.5
q0 -88 -35.5 -159.5t-86 -123t-125.5 -116.5q-72 -59 -105 -97t-33 -77q0 -45 31 -68.5t80 -23.5q51 0 115.5 20t117.5 51l60 -133q-82 -49 -187 -70q-55 -57 -55 -118q0 -49 37 -80t100 -31q96 0 215 70l62 -133q-133 -76 -270 -76z" />
    <glyph glyph-name="lVocalicMatra-deva" unicode="&#x962;" horiz-adv-x="0" 
d="M808 -46q75 -40 120 -112.5t45 -167.5q0 -106 -46 -173.5t-130 -141.5q-59 -51 -87 -87t-28 -81q0 -51 34 -76.5t87 -25.5q88 0 186 59l58 -133q-113 -61 -232 -62q-74 0 -143.5 30t-113.5 87.5t-44 136.5q0 76 37 128.5t111 117.5q72 63 107.5 113.5t35.5 124.5
q0 78 -41 123t-105 45q-86 0 -137 -69t-51 -206v-33l-154 17v33q0 90 23 163q-16 47 -57 74t-88 27q-68 0 -117 -50.5t-49 -144.5q0 -100 67.5 -201.5t173.5 -187.5l-94 -104q-121 88 -221 221t-100 289q0 100 44 170.5t114.5 106.5t148.5 36q72 0 136 -29.5t103 -85.5
q90 109 250 109q82 0 157 -40z" />
    <glyph glyph-name="llVocalicMatra-deva" unicode="&#x963;" horiz-adv-x="0" 
d="M297.5 -29.5q64.5 -29.5 103.5 -85.5q90 109 250 109q82 0 157 -40t120 -112.5t45 -167.5q0 -92 -49.5 -153.5t-139.5 -130.5q-63 -49 -92.5 -83t-29.5 -73q0 -37 24.5 -54.5t65.5 -17.5q45 0 99 21.5t107 58.5l56 -116q-72 -49 -162 -70q-43 -43 -43 -84
q0 -37 23.5 -56.5t62.5 -19.5q70 0 166 45l53 -117q-45 -25 -104.5 -41t-112.5 -16q-92 0 -158.5 47t-66.5 129q0 51 26 103q-82 12 -133 62t-51 134q0 61 37 109.5t106 111.5q74 66 111 115t37 113q0 82 -41 125t-105 43q-86 0 -137 -69t-51 -206v-33l-154 17v33
q0 90 23 163q-16 47 -57 74t-88 27q-68 0 -117 -50.5t-49 -144.5q0 -100 67.5 -201.5t173.5 -187.5l-94 -104q-121 88 -221 221t-100 289q0 100 44 170.5t114.5 106.5t148.5 36q71 0 135.5 -29.5z" />
    <glyph glyph-name="danda-deva" unicode="&#x964;" horiz-adv-x="634" 
d="M225 0v1393h185v-1393h-185z" />
    <glyph glyph-name="dbldanda-deva" unicode="&#x965;" horiz-adv-x="1146" 
d="M731 0v1393h185v-1393h-185zM225 0v1393h185v-1393h-185z" />
    <glyph glyph-name="zero-deva" unicode="&#x966;" horiz-adv-x="1290" 
d="M899 1297.5q123 -72.5 195.5 -194.5t72.5 -263t-67.5 -253t-185 -175.5t-259.5 -63.5q-141 0 -264 70.5t-195.5 190.5t-72.5 261t67.5 255t185.5 179.5t259 65.5t264 -72.5zM477 1152q-78 -46 -124 -124t-46 -168t44 -168t119 -124t165 -46t171 46t129 124t48 168
t-46 168t-124 124t-168 46t-168 -46z" />
    <glyph glyph-name="one-deva" unicode="&#x967;" horiz-adv-x="968" 
d="M656 1388.5q85 -45.5 135.5 -125t50.5 -180.5q0 -154 -115 -320.5t-352 -334.5l317 -246q106 -82 107 -166q0 -43 -33 -94t-92 -117l-152 113q37 39 54.5 65.5t17.5 49.5q0 39 -53 78l-402 290l11 103q276 199 391.5 333t115.5 257q0 84 -47 130t-131 46q-76 0 -123 -47
t-47 -119q0 -45 23.5 -93t64.5 -93l-116 -93q-156 137 -156 299q0 139 95 224.5t249 85.5q102 0 187 -45.5z" />
    <glyph glyph-name="two-deva" unicode="&#x968;" horiz-adv-x="1040" 
d="M822.5 592q-97.5 -137 -265.5 -184l338 -461l-166 -115l-334 557q-82 2 -148.5 26.5t-144.5 71.5q4 70 35 129.5t82 118.5l111 -16l119 -162q129 23 202.5 128.5t73.5 254.5q0 168 -80 244t-213 76q-74 0 -155.5 -21.5t-157.5 -60.5l-53 176q176 80 350 80
q141 0 254.5 -54.5t181.5 -170t68 -289.5q0 -191 -97.5 -328z" />
    <glyph glyph-name="three-deva" unicode="&#x969;" horiz-adv-x="1134" 
d="M876.5 216q-116.5 -91 -290.5 -101l178 -224l-156 -100l-196 336q-180 35 -334 174q14 129 100 215l101 -20l172 -213q37 -6 77 -7q117 0 194 51.5t77 153.5q0 158 -191 256q-61 -16 -211 -43l-51 164q133 25 212 47.5t134.5 68.5t55.5 122q0 82 -55.5 127t-153.5 45
q-133 0 -285 -70l-68 162q86 37 179.5 55.5t171.5 18.5q123 0 213 -50.5t136 -132.5t46 -176q0 -178 -158 -270q106 -68 162.5 -156t56.5 -188q0 -154 -116.5 -245z" />
    <glyph glyph-name="four-deva" unicode="&#x96a;" horiz-adv-x="1060" 
d="M639 868q125 -152 186.5 -265.5t61.5 -201.5q0 -121 -83 -206.5t-245 -85.5q-104 0 -186 45t-127 118.5t-45 157.5q0 82 46 182.5t173 259.5l-434 467l123 107q276 -287 415 -447q172 201 416 449l135 -127q-278 -269 -436 -453zM670 551q-45 78 -138 190
q-168 -219 -167 -319q0 -74 46 -117t128 -43q86 0 131 42t45 116q0 53 -45 131z" />
    <glyph glyph-name="five-deva" unicode="&#x96b;" horiz-adv-x="1105" 
d="M797 393q-137 -76 -254 -76q-193 0 -301.5 115t-108.5 316q0 236 293 706l164 -92q-117 -186 -189.5 -358.5t-72.5 -276.5q0 -109 56 -177.5t148 -68.5q94 0 191 62l-84 176l111 92q66 -29 149.5 -98.5t128.5 -132.5q-63 -68 -123 -113l230 -315l-174 -101z" />
    <glyph glyph-name="six-deva" unicode="&#x96c;" horiz-adv-x="1196" 
d="M848 158q-109 -45 -217 -45q-119 0 -223.5 50t-167 143t-62.5 216q0 217 172 314q-80 49 -132 131t-52 159q0 156 114.5 232t286.5 76q162 0 318 -54l2 -155q-158 55 -295 55q-113 0 -177.5 -42t-64.5 -132q0 -59 39 -119.5t103 -99.5q88 16 178 16h131l22 -153h-133
q-143 0 -230 -66t-87 -192q0 -100 65.5 -163t171.5 -63q82 0 166 39l-74 154l111 92q66 -29 150 -98.5t129 -133.5q-61 -59 -129 -102l235 -326l-174 -100z" />
    <glyph glyph-name="seven-deva" unicode="&#x96d;" horiz-adv-x="1343" 
d="M357.5 1081q-25.5 -168 -25.5 -293q0 -260 86 -391t239 -131q96 0 176 58.5t128.5 176t48.5 287.5q0 158 -56.5 274t-158.5 116q-59 0 -93 -46.5t-34 -111.5q0 -88 47 -143.5t139 -57.5l-20 -143q-119 2 -198 56t-116 136t-37 168q0 125 83 210t218 85q127 0 220.5 -84
t141.5 -220t48 -290q0 -193 -70.5 -337t-188.5 -221t-253 -77q-260 0 -397.5 173.5t-137.5 521.5q0 121 21.5 283.5t67.5 291.5l194 21q-47 -144 -72.5 -312z" />
    <glyph glyph-name="eight-deva" unicode="&#x96e;" horiz-adv-x="1013" 
d="M743 1239q-225 -307 -327.5 -474t-102.5 -273q0 -96 60.5 -145.5t165.5 -49.5q86 0 183 38t185 93l103 -182q-102 -68 -225 -106t-238 -38q-188 0 -303 105.5t-115 294.5q0 150 128 363.5t409 588.5l159 -104z" />
    <glyph glyph-name="nine-deva" unicode="&#x96f;" horiz-adv-x="950" 
d="M634 1385.5q93 -48.5 144 -130t51 -180.5q0 -115 -67.5 -218t-173.5 -167l-99 117q70 45 113 117.5t43 148.5q0 86 -56.5 141.5t-146.5 55.5q-109 0 -163 -71t-54 -187q0 -123 131 -275l400 -458q61 -70 89.5 -120t28.5 -100q0 -49 -29.5 -102t-92.5 -121l-166 113
q90 90 90 149q0 25 -15.5 49.5t-48.5 61.5l-426 483q-63 72 -104 163t-41 181q0 174 98.5 286t282.5 112q119 0 212 -48.5z" />
    <glyph glyph-name="abbreviation-deva" unicode="&#x970;" horiz-adv-x="1044" 
d="M780.5 872.5q100.5 -100.5 100.5 -268.5q0 -166 -94.5 -257t-262.5 -91q-160 0 -260 99.5t-100 258.5q0 164 91 261.5t257 97.5q168 0 268.5 -100.5zM388 763q-50 -56 -50 -149q0 -94 45 -149t129 -55q94 0 144.5 52t50.5 152t-49.5 152.5t-135.5 52.5q-84 0 -134 -56z
" />
    <glyph glyph-name="highspacingdot-deva" unicode="&#x971;" horiz-adv-x="622" 
d="M361.5 1428.5q33.5 -23.5 60.5 -56t27 -57.5q0 -31 -50.5 -85t-81.5 -54q-20 0 -55 24.5t-61.5 57t-26.5 57.5q0 31 51.5 84t81.5 53q21 0 54.5 -23.5z" />
    <glyph glyph-name="aCandra-deva" unicode="&#x972;" horiz-adv-x="1796" 
d="M1567 0h-185v664h-393q72 -100 72 -224q0 -172 -119 -270t-301 -98q-152 0 -271.5 70.5t-197.5 187t-111 254.5l142 65q55 -211 169.5 -312t256.5 -101q113 0 175 61t62 164q0 162 -172 260q-92 -33 -225 -55l-51 163q176 33 283.5 94.5t107.5 172.5q0 82 -55.5 127
t-153.5 45q-123 0 -274 -70l-68 162q170 74 340 74q123 0 213 -50.5t136 -132.5t46 -176q0 -160 -119 -258h508v422h-243l-23 154h699l20 -154h-268v-1239zM1745.5 1598.5q-105.5 -82.5 -238.5 -82.5q-127 0 -242.5 75.5t-187.5 216.5l113 76q133 -195 287 -194q80 0 140 50
t101 161l174 -62q-41 -158 -146.5 -240.5z" />
    <glyph glyph-name="oe-deva" unicode="&#x973;" horiz-adv-x="1794" 
d="M1567 0h-185v664h-393q72 -100 72 -224q0 -172 -119 -270t-301 -98q-152 0 -271.5 70.5t-197.5 187t-111 254.5l142 65q55 -211 169.5 -312t256.5 -101q113 0 175 61t62 164q0 162 -172 260q-92 -33 -225 -55l-51 163q176 33 283.5 94.5t107.5 172.5q0 82 -55.5 127
t-153.5 45q-123 0 -274 -70l-68 162q170 74 340 74q123 0 213 -50.5t136 -132.5t46 -176q0 -160 -119 -258h508v422h-243l-23 154h266v286h185v-286h248l20 -154h-268v-1239z" />
    <glyph glyph-name="ooe-deva" unicode="&#x974;" horiz-adv-x="2369" 
d="M2142 0h-184v1239h-391v-1239h-185v664h-393q72 -100 72 -224q0 -172 -119 -270t-301 -98q-152 0 -271.5 70.5t-197.5 187t-111 254.5l142 65q55 -211 169.5 -312t256.5 -101q113 0 175 61t62 164q0 162 -172 260q-92 -33 -225 -55l-51 163q176 33 283.5 94.5
t107.5 172.5q0 82 -55.5 127t-153.5 45q-123 0 -274 -70l-68 162q170 74 340 74q123 0 213 -50.5t136 -132.5t46 -176q0 -160 -119 -258h508v422h-243l-23 154h842v286h184v-286h248l20 -154h-268v-1239z" />
    <glyph glyph-name="aw-deva" unicode="&#x975;" horiz-adv-x="2390" 
d="M2142 0h-184v1239h-391v-1239h-185v664h-393q72 -100 72 -224q0 -172 -119 -270t-301 -98q-152 0 -271.5 70.5t-197.5 187t-111 254.5l142 65q55 -211 169.5 -312t256.5 -101q113 0 175 61t62 164q0 162 -172 260q-92 -33 -225 -55l-51 163q176 33 283.5 94.5
t107.5 172.5q0 82 -55.5 127t-153.5 45q-123 0 -274 -70l-68 162q170 74 340 74q123 0 213 -50.5t136 -132.5t46 -176q0 -160 -119 -258h508v422h-243l-23 154h844q-23 29 -61.5 44t-118.5 29q-92 18 -211 33q-14 2 -102.5 15.5t-155.5 31.5q-113 31 -156 105.5t-49 171.5
l100 28q23 -74 51.5 -104.5t88.5 -44.5q41 -12 106.5 -23.5t132.5 -21.5q156 -23 215 -35q145 -33 215 -100q-33 100 -143 147q-78 35 -227 86q-137 47 -191 74q-145 74 -145 264q0 39 2 55l102 21q16 -86 35.5 -121t73.5 -61q63 -33 211 -82q158 -55 206 -78
q117 -53 163 -122t46 -194q0 -53 -6 -118h248l20 -154h-268v-1239z" />
    <glyph glyph-name="ue-deva" unicode="&#x976;" horiz-adv-x="1794" 
d="M1567 0h-185v664h-393q72 -100 72 -224q0 -172 -119 -270t-301 -98q-152 0 -271.5 70.5t-197.5 187t-111 254.5l142 65q55 -211 169.5 -312t256.5 -101q113 0 175 61t62 164q0 162 -172 260q-92 -33 -225 -55l-51 163q176 33 283.5 94.5t107.5 172.5q0 82 -55.5 127
t-153.5 45q-123 0 -274 -70l-68 162q170 74 340 74q123 0 213 -50.5t136 -132.5t46 -176q0 -160 -119 -258h508v422h-243l-23 154h699l20 -154h-268v-1239zM1202 -356.5q-119 -73.5 -260 -73.5t-286.5 72.5t-266.5 205.5l109 91q100 -100 205.5 -152.5t205.5 -52.5
q102 0 189.5 54t146.5 161l154 -84q-78 -148 -197 -221.5zM1202 -704.5q-119 -73.5 -260 -73.5t-286.5 72.5t-266.5 205.5l109 91q100 -100 205.5 -152.5t205.5 -52.5q102 0 189.5 54t146.5 161l154 -84q-78 -148 -197 -221.5z" />
    <glyph glyph-name="uue-deva" unicode="&#x977;" horiz-adv-x="1794" 
d="M1567 0h-185v664h-393q72 -100 72 -224q0 -172 -119 -270t-301 -98q-152 0 -271.5 70.5t-197.5 187t-111 254.5l142 65q55 -211 169.5 -312t256.5 -101q113 0 175 61t62 164q0 162 -172 260q-92 -33 -225 -55l-51 163q176 33 283.5 94.5t107.5 172.5q0 82 -55.5 127
t-153.5 45q-123 0 -274 -70l-68 162q170 74 340 74q123 0 213 -50.5t136 -132.5t46 -176q0 -160 -119 -258h508v422h-243l-23 154h699l20 -154h-268v-1239zM1202 -356.5q-119 -73.5 -260 -73.5t-286.5 72.5t-266.5 205.5l109 91q100 -100 205.5 -152.5t205.5 -52.5
q102 0 189.5 54t146.5 161l154 -84q-78 -148 -197 -221.5z" />
    <glyph glyph-name="zha-deva" unicode="&#x979;" horiz-adv-x="1687" 
d="M1460 0h-184v821h-402q102 -92 160 -185t58 -175q0 -88 -45.5 -155.5t-123 -104.5t-169.5 -37q-193 0 -332 118.5t-219 297t-105 362.5l144 43q63 -291 181 -469t290 -178q78 0 131 46t53 108q0 152 -264 356v137h643v254h-1294l-23 154h1749l21 -154h-269v-1239z
M928.5 64.5q33.5 -23.5 60.5 -56t27 -57.5q0 -31 -50.5 -85t-81.5 -54q-20 0 -55 24.5t-61.5 57t-26.5 57.5q0 31 51.5 84t81.5 53q21 0 54.5 -23.5zM723.5 -171.5q33.5 -23.5 60.5 -56t27 -57.5q0 -31 -50.5 -85t-81.5 -54q-20 0 -55 24.5t-61.5 57t-26.5 57.5
q0 31 51.5 84t81.5 53q21 0 54.5 -23.5zM519.5 64.5q33.5 -23.5 60.5 -56t27 -57.5q0 -31 -50.5 -85t-81.5 -54q-20 0 -55 24.5t-61.5 57t-26.5 57.5q0 31 51.5 84t81.5 53q21 0 54.5 -23.5z" />
    <glyph glyph-name="jjya-deva" unicode="&#x97a;" horiz-adv-x="1337" 
d="M1110 0h-184v410q-147 -98 -316 -99q-127 0 -239.5 55.5t-192.5 164t-108 257.5h4q326 76 325 256q0 104 -112 195h-295l-23 154h1389l20 -154h-268v-1239zM479 1239q27 -23 43 -45h6l394 -541l4 6v580h-447zM821 561l-258 357q-35 -82 -112.5 -146.5t-188.5 -101.5
q41 -94 122 -143.5t179 -49.5q133 0 258 84z" />
    <glyph glyph-name="gga-deva" unicode="&#x97b;" horiz-adv-x="1312" 
d="M1085 -143h-962l-21 143h799v1239h-416v-829l-159 -68q-68 47 -127.5 147.5t-85.5 190.5l192 49v510h-272l-23 154h1323l21 -154h-269v-1382z" />
    <glyph glyph-name="jja-deva" unicode="&#x97c;" horiz-adv-x="1734" 
d="M1507 -143h-1374l-20 143h1210v821h-401q102 -92 159.5 -185t57.5 -175q0 -88 -45 -155.5t-123 -104.5t-170 -37q-193 0 -332 118.5t-219 297t-105 362.5l144 43q63 -291 181 -469t290 -178q78 0 131 46t53 108q0 152 -264 356v137h643v254h-1294l-23 154h1749l21 -154
h-269v-1382z" />
    <glyph glyph-name="glottalstop-deva" unicode="&#x97d;" horiz-adv-x="1052" 
d="M745.5 783.5q-102.5 -115.5 -305.5 -173.5v-610h-184v748q205 37 306.5 121.5t101.5 185.5q0 98 -58.5 150t-150.5 52q-113 0 -281 -59l-72 160q186 63 334 63q182 0 297 -97t115 -286q0 -139 -102.5 -254.5z" />
    <glyph glyph-name="ddda-deva" unicode="&#x97e;" horiz-adv-x="1228" 
d="M4 1239l-22 154h1271l21 -154h-307v-344h-408q-74 0 -110.5 -35t-36.5 -92q0 -53 25.5 -90t90.5 -37q18 0 29 2l197 25q37 4 53 4q92 0 160.5 -42t104.5 -110.5t36 -150.5q0 -186 -120 -287.5t-310 -101.5q-182 0 -333.5 87t-248.5 207l117 95q94 -106 204.5 -166
t229.5 -60q80 0 145.5 31t103.5 82t38 113q0 119 -119 118q-23 0 -35 -2l-223 -26q-12 -2 -35 -2q-88 0 -157.5 49t-108.5 127t-39 155q0 123 77 195t245 72h243v184h-778zM1126 -297h-1013l-21 143h1014z" />
    <glyph glyph-name="bba-deva" unicode="&#x97f;" horiz-adv-x="1413" 
d="M1186 -143h-1012l-20 143h847v412q-170 -176 -403 -176q-115 0 -213 48t-157.5 140t-59.5 221q0 182 124 285.5t326 103.5h160l25 -164h-164q-53 0 -100 -12l295 -356q100 84 167 229v508h-987l-20 154h1440l20 -154h-268v-1382zM719 428l-299 360q-57 -61 -58 -153
q0 -111 55.5 -173.5t160.5 -62.5q67 0 141 29z" />
    <glyph glyph-name="rightFacingSvastiWithDots" unicode="&#xfd7;" horiz-adv-x="1720" 
d="M1567 10l-205 -20v645h-399v-635h-797l-23 174h615v461h-604v768l204 20v-614h400v604h798l21 -174h-614v-430h604v-799zM490.5 946q-46.5 43 -46.5 74q0 25 42 69t69 44t72 -42t45 -71q0 -27 -42 -72t-67 -45q-26 0 -72.5 43zM1088.5 1088.5q41.5 44.5 68.5 44.5t72 -42
t45 -71q0 -27 -42 -72t-67 -45q-27 0 -72.5 43t-45.5 74q0 24 41.5 68.5zM630 354q-42 -45 -67 -45q-27 0 -73 43t-46 74q0 25 42 69t69 44t72 -42t45 -71q0 -27 -42 -72zM1229 497q45 -42 45 -71q0 -27 -42 -72t-67 -45q-27 0 -72.5 43t-45.5 74q0 25 41.5 69t68.5 44
t72 -42z" />
    <glyph glyph-name="leftFacingSvastiWithDots" unicode="&#xfd8;" horiz-adv-x="1720" 
d="M758 0v635h-400v-625l-204 -20v819h604v430h-594l-21 174h820v-604h399v594l205 20v-788h-604v-461h593l19 -174h-817zM632 948q-42 -45 -67 -45q-27 0 -73 43t-46 74q0 25 42 69t69 44t72 -42t45 -71q0 -27 -42 -72zM1095 946q-46 43 -46 74q0 25 42 69t68 44
q27 0 72 -42t45 -71q0 -27 -42 -72t-67 -45q-26 0 -72 43zM629 497q45 -42 45 -71q0 -27 -42 -72t-67 -45q-27 0 -73 43t-46 74q0 25 42 69t69 44t72 -42zM1091 495q42 44 68 44q27 0 72 -42t45 -71q0 -27 -42 -72t-67 -45q-27 0 -72.5 43t-45.5 74q0 25 42 69z" />
    <glyph glyph-name="Wgrave" unicode="&#x1e80;" horiz-adv-x="2119" 
d="M10 1423l574 11v-123l-178 -41l219 -928l338 1081l194 11l332 -1115l254 951l-187 41v112l553 11v-123l-161 -41l-361 -1270h-225l-246 942l-59 221l-64 -231l-276 -932h-205l-342 1270l-160 41v112zM1300 1618l-82 -113l-399 256l102 154z" />
    <glyph glyph-name="wgrave" unicode="&#x1e81;" horiz-adv-x="1699" 
d="M492 184l268 891l194 31l254 -922l164 748l-143 31v112l461 10v-122l-119 -21l-250 -942h-236l-194 635l-49 196l-43 -196l-195 -635h-235l-256 932l-103 31v112l461 10v-122l-154 -21zM1065 1321l-72 -102l-430 266l102 153z" />
    <glyph glyph-name="Wacute" unicode="&#x1e82;" horiz-adv-x="2119" 
d="M10 1423l574 11v-123l-178 -41l219 -928l338 1081l194 11l332 -1115l254 951l-187 41v112l553 11v-123l-161 -41l-361 -1270h-225l-246 942l-59 221l-64 -231l-276 -932h-205l-342 1270l-160 41v112zM809 1614l373 297l104 -150l-399 -256z" />
    <glyph glyph-name="wacute" unicode="&#x1e83;" horiz-adv-x="1699" 
d="M492 184l268 891l194 31l254 -922l164 748l-143 31v112l461 10v-122l-119 -21l-250 -942h-236l-194 635l-49 196l-43 -196l-195 -635h-235l-256 932l-103 31v112l461 10v-122l-154 -21zM1034 1638l103 -153l-430 -266l-72 102z" />
    <glyph glyph-name="Wdieresis" unicode="&#x1e84;" horiz-adv-x="2119" 
d="M770 1779.5q33 32.5 80 32.5q53 0 83 -32.5t30 -89.5t-33 -90t-80 -33q-53 0 -83 32.5t-30 90.5q0 57 33 89.5zM1190 1779.5q33 32.5 80 32.5q53 0 82.5 -32.5t29.5 -89.5t-32.5 -90t-79.5 -33q-53 0 -83 32.5t-30 90.5q0 57 33 89.5zM10 1423l574 11v-123l-178 -41
l219 -928l338 1081l194 11l332 -1115l254 951l-187 41v112l553 11v-123l-161 -41l-361 -1270h-225l-246 942l-59 221l-64 -231l-276 -932h-205l-342 1270l-160 41v112z" />
    <glyph glyph-name="wdieresis" unicode="&#x1e85;" horiz-adv-x="1699" 
d="M575.5 1523.5q32.5 32.5 79.5 32.5q53 0 83 -32.5t30 -89.5t-33 -90t-80 -33q-53 0 -82.5 32.5t-29.5 90.5q0 57 32.5 89.5zM995.5 1523.5q32.5 32.5 79.5 32.5q53 0 83 -32.5t30 -89.5t-33 -90t-80 -33q-53 0 -82.5 32.5t-29.5 90.5q0 57 32.5 89.5zM492 184l268 891
l194 31l254 -922l164 748l-143 31v112l461 10v-122l-119 -21l-250 -942h-236l-194 635l-49 196l-43 -196l-195 -635h-235l-256 932l-103 31v112l461 10v-122l-154 -21z" />
    <glyph glyph-name="Ygrave" unicode="&#x1ef2;" horiz-adv-x="1320" 
d="M553 530l-395 742l-138 39v112l512 11v-123l-139 -41l273 -574l301 574l-158 41v112l491 11v-123l-126 -37l-406 -739v-371l174 -41v-123h-563v123l174 41v366zM870 1618l-82 -113l-399 256l102 154z" />
    <glyph glyph-name="ygrave" unicode="&#x1ef3;" horiz-adv-x="1181" 
d="M604 225l225 707l-143 31v112l485 10v-122l-133 -21l-290 -811l-19 -49q-68 -182 -127 -298t-159.5 -196t-247.5 -80q-33 0 -76 4.5t-56 6.5l19 143h102q100 0 175 84t151 250l-367 936l-123 31v112l482 10v-122l-144 -21zM789 1321l-72 -102l-430 266l102 153z" />
    <glyph glyph-name="zerowidthnonjoiner" unicode="&#x200c;" horiz-adv-x="1228" 
 />
    <glyph glyph-name="zerowidthjoiner" unicode="&#x200d;" horiz-adv-x="1228" 
 />
    <glyph glyph-name="endash" unicode="&#x2013;" horiz-adv-x="1024" 
d="M1024 584h-1024v164h1024v-164z" />
    <glyph glyph-name="emdash" unicode="&#x2014;" horiz-adv-x="1986" 
d="M1987 584h-1987v164h1987v-164z" />
    <glyph glyph-name="horizontalbar" unicode="&#x2015;" horiz-adv-x="1986" 
d="M1987 584h-1987v164h1987v-164z" />
    <glyph glyph-name="underscoredbl" unicode="&#x2017;" horiz-adv-x="1024" 
d="M1028 -307h-1032v143h1032v-143zM1028 -594h-1032v143h1032v-143z" />
    <glyph glyph-name="quoteleft" unicode="&#x2018;" horiz-adv-x="573" 
d="M362.5 1055q-36.5 -39 -96.5 -39q-59 0 -96 35.5t-37 115.5q0 84 63.5 199t172.5 231l92 -77q-8 -10 -34 -49t-50.5 -87.5t-24.5 -80.5q0 -20 19 -54q29 -53 28 -96q0 -59 -36.5 -98z" />
    <glyph glyph-name="quoteright" unicode="&#x2019;" horiz-adv-x="573" 
d="M146.5 1143q25.5 39 50 87t24.5 81q0 20 -18 53q-29 53 -29 96q0 59 37 98t96 39t96 -35.5t37 -115.5q0 -84 -63.5 -198.5t-171.5 -231.5l-92 78q8 10 33.5 49z" />
    <glyph glyph-name="quotesinglbase" unicode="&#x201a;" horiz-adv-x="573" 
d="M146.5 -229q25.5 39 50 87t24.5 81q0 20 -18 53q-29 53 -29 96q0 59 37 98t96 39t96 -35.5t37 -115.5q0 -84 -63.5 -199t-171.5 -231l-92 77q8 11 33.5 50z" />
    <glyph glyph-name="quotereversed" unicode="&#x201b;" horiz-adv-x="573" 
d="M362.5 1558.5q-36.5 38.5 -96.5 38.5q-59 0 -96 -35.5t-37 -115.5q0 -84 63.5 -198.5t172.5 -231.5l92 78q-8 10 -34 49t-50.5 87t-24.5 81q0 20 19 53q29 53 28 96q0 60 -36.5 98.5z" />
    <glyph glyph-name="quotedblleft" unicode="&#x201c;" horiz-adv-x="972" 
d="M362.5 1055q-36.5 -39 -96.5 -39q-59 0 -96 35.5t-37 115.5q0 84 63.5 199t172.5 231l92 -77q-8 -10 -34 -49t-50.5 -87.5t-24.5 -80.5q0 -20 19 -54q29 -53 28 -96q0 -59 -36.5 -98zM762 1055q-37 -39 -96 -39t-96.5 35.5t-37.5 115.5q0 84 63.5 199t172.5 231l92 -77
q-8 -10 -33.5 -49t-50 -87.5t-24.5 -80.5q0 -20 18 -54q29 -53 29 -96q0 -59 -37 -98z" />
    <glyph glyph-name="quotedblright" unicode="&#x201d;" horiz-adv-x="972" 
d="M146.5 1143q25.5 39 50 87t24.5 81q0 20 -18 53q-29 53 -29 96q0 59 37 98t96 39t96 -35.5t37 -115.5q0 -84 -63.5 -198.5t-171.5 -231.5l-92 78q8 10 33.5 49zM545.5 1143q25.5 39 50.5 87t25 81q0 20 -19 53q-29 53 -29 96q0 59 37 98t97 39q59 0 96 -35.5t37 -115.5
q0 -84 -63.5 -198.5t-172.5 -231.5l-92 78q8 10 33.5 49z" />
    <glyph glyph-name="quotedblbase" unicode="&#x201e;" horiz-adv-x="972" 
d="M146.5 -229q25.5 39 50 87t24.5 81q0 20 -18 53q-29 53 -29 96q0 59 37 98t96 39t96 -35.5t37 -115.5q0 -84 -63.5 -199t-171.5 -231l-92 77q8 11 33.5 50zM545.5 -229q25.5 39 50.5 87t25 81q0 20 -19 53q-29 53 -29 96q0 59 37 98t97 39q59 0 96 -35.5t37 -115.5
q0 -84 -63.5 -199t-172.5 -231l-92 77q8 11 33.5 50z" />
    <glyph glyph-name="dagger" unicode="&#x2020;" horiz-adv-x="1013" 
d="M932 1085l-426 -51l-424 51v144h346l-8 307l174 10l-10 -317h348v-144zM594 82l20 850l-108 -21l-107 21l21 -850l86 -82z" />
    <glyph glyph-name="daggerdbl" unicode="&#x2021;" horiz-adv-x="1013" 
d="M420 1536l174 10l-10 -317h348v-144l-426 -51l-424 51v144h346zM846 961v-150l-340 -86l-340 86v150l340 -50zM594 82l12 539l-100 -21l-98 21l12 -539l86 -82z" />
    <glyph glyph-name="bullet" unicode="&#x2022;" horiz-adv-x="1034" 
d="M218 809q44 76 120 120t164 44t163.5 -44t119.5 -120t44 -164t-44 -163.5t-119.5 -120t-163.5 -44.5t-164 44.5t-120 120t-44 163.5t44 164z" />
    <glyph glyph-name="ellipsis" unicode="&#x2026;" horiz-adv-x="1474" 
d="M151.5 228q38.5 38 94.5 38q61 0 97 -38t36 -105q0 -66 -38 -104.5t-95 -38.5q-61 0 -97 37.5t-36 105.5q0 67 38.5 105zM643 228q39 38 94 38q61 0 97 -38t36 -105q0 -66 -37.5 -104.5t-95.5 -38.5q-61 0 -97 37.5t-36 105.5q0 67 39 105zM1135 228q39 38 94 38
q61 0 97 -38t36 -105q0 -66 -38 -104.5t-95 -38.5q-61 0 -97 37.5t-36 105.5q0 67 39 105z" />
    <glyph glyph-name="perthousand" unicode="&#x2030;" horiz-adv-x="2406" 
d="M186.5 1355.5q94.5 98.5 243.5 98.5q143 0 230.5 -89t87.5 -259q0 -178 -93.5 -273.5t-244.5 -95.5q-145 0 -231.5 86t-86.5 262q0 172 94.5 270.5zM502 0h-185l830 1434h184zM420 870q174 0 174 226q0 104 -43 164.5t-131 60.5t-131 -60.5t-43 -164.5q0 -226 174 -226z
M995.5 598q94.5 98 243.5 98q143 0 230 -89t87 -259q0 -178 -93 -273t-244 -95q-145 0 -231.5 86t-86.5 262q0 172 94.5 270zM1743 598q94 98 244 98q143 0 230 -89t87 -259q0 -178 -93 -273t-245 -95q-145 0 -231 86t-86 262q0 172 94 270zM1229 113q174 0 174 225
q0 104 -43 164.5t-131 60.5t-131 -60.5t-43 -164.5q0 -225 174 -225zM1976 113q174 0 174 225q0 104 -43 164.5t-131 60.5t-131 -60.5t-43 -164.5q0 -225 174 -225z" />
    <glyph glyph-name="minute" unicode="&#x2032;" horiz-adv-x="444" 
d="M147 1585l195 -18l-86 -506l-154 14z" />
    <glyph glyph-name="second" unicode="&#x2033;" horiz-adv-x="788" 
d="M147 1585l195 -18l-86 -506l-154 14zM492 1585l194 -18l-86 -506l-154 14z" />
    <glyph glyph-name="guilsinglleft" unicode="&#x2039;" horiz-adv-x="645" 
d="M113 481v123l297 328l122 -82l-235 -307l235 -307l-122 -82z" />
    <glyph glyph-name="guilsinglright" unicode="&#x203a;" horiz-adv-x="645" 
d="M246 932l297 -328v-123l-297 -327l-123 82l235 307l-235 307z" />
    <glyph glyph-name="exclamdbl" unicode="&#x203c;" horiz-adv-x="1116" 
d="M215 1536h236l-31 -1024l-174 -10zM676 1536h235l-30 -1024l-174 -10zM233.5 228q38.5 38 94.5 38q61 0 97 -38t36 -105q0 -66 -38 -104.5t-95 -38.5q-61 0 -97 37.5t-36 105.5q0 67 38.5 105zM694 228q39 38 94 38q61 0 97.5 -38t36.5 -105q0 -66 -38 -104.5t-96 -38.5
q-61 0 -97 37.5t-36 105.5q0 67 39 105z" />
    <glyph glyph-name="overline" unicode="&#x203e;" horiz-adv-x="1069" 
d="M864 1290h-868v133h868v-133z" />
    <glyph glyph-name="fraction" unicode="&#x2044;" horiz-adv-x="1157" 
d="M113 -92l-144 92l1065 1536l144 -92z" />
    <glyph glyph-name="foursuperior" unicode="&#x2074;" horiz-adv-x="862" 
d="M678 893h143v-133h-143v-187h-174v187h-430l-13 121l416 573l201 -20v-541zM504 1260l-264 -367h264v367z" />
    <glyph glyph-name="nsuperior" unicode="&#x207f;" horiz-adv-x="1110" 
d="M471 1416q70 38 150 38q119 0 181 -69.5t62 -192.5v-399l111 -35v-96h-369v96l94 35v360q0 80 -27.5 119t-94.5 39q-57 0 -102.5 -29t-75 -62.5t-29.5 -37.5v-389l96 -35v-96h-385v96l125 35v516l-125 28v97l260 8l12 -105q47 41 117 79z" />
    <glyph glyph-name="franc" unicode="&#x20a3;" horiz-adv-x="1167" 
d="M256 1270l-174 41v112l389 11h625v-338h-133l-52 174h-440v-451h471v-164h-471v-161h256v-154h-256v-176l205 -41v-123h-594v123l174 41v176h-172v154h172v776z" />
    <glyph glyph-name="lira" unicode="&#x20a4;" horiz-adv-x="1280" 
d="M324 932q-4 45 -5 47q-2 16 -2 65q0 193 101.5 301.5t308.5 108.5q109 0 202 -13.5t148.5 -28.5l69.5 -19v-287h-133l-31 170q-20 2 -95 8t-151 6q-111 0 -163 -54t-52 -151q0 -35 4 -108l4 -45h340v-144h-747v144h201zM348 420q0 -135 -22.5 -191.5t-89.5 -74.5
l-113 -31v-123h1034v379h-133l-43 -215h-520q0 -6 25.5 28.5t46 96t20.5 151.5l-2 72h319v143h-747v-143h221q4 -61 4 -92z" />
    <glyph glyph-name="peseta" unicode="&#x20a7;" horiz-adv-x="1413" 
d="M82 1311v112l389 11h215q213 0 333 -100.5t136 -278.5h166v-154h-172q-29 -193 -169 -291t-376 -98h-133v-348l174 -41v-123h-563v123l174 41v737h-174v154h174v215zM848.5 1212.5q-66.5 57.5 -172.5 57.5h-205v-215h463q-19 100 -85.5 157.5zM936 901h-465v-225h133
q291 0 332 225z" />
    <glyph glyph-name="euro" unicode="&#x20ac;" horiz-adv-x="1286" 
d="M343 1289q132 165 415 165q100 0 188 -18.5t147.5 -40t59.5 -23.5l-10 -285h-133l-27 164q-8 4 -41 13.5t-90 17.5t-125 8q-152 0 -224.5 -110.5t-94.5 -257.5h503v-144h-880v144h145q35 202 167 367zM231 296q41 -114 160 -215t336 -101q131 0 237.5 43t173 94t66.5 57
l-82 123q0 -4 -56 -41t-139 -67.5t-179 -30.5q-176 0 -249 113.5t-87 220.5h499v143h-880v-143h153q6 -82 47 -196z" />
    <glyph glyph-name="rupeeIndian" unicode="&#x20b9;" horiz-adv-x="1144" 
d="M92 1393h940l21 -154h-938zM709.5 573q-64.5 -84 -207.5 -94l332 -379l-160 -131l-469 656l114 137q59 -8 124 -35t114 -59q33 43 33 168v116h-475l-23 154h940l21 -154h-279v-133q0 -162 -64.5 -246z" />
    <glyph glyph-name="careof" unicode="&#x2105;" horiz-adv-x="2080" 
d="M591 1284q-38 6 -85 6q-106 0 -168 -69.5t-62 -200.5q0 -141 66 -219t172 -78q61 0 112.5 19.5t84 43t32.5 25.5l78 -115q0 -4 -50 -37.5t-120.5 -62.5t-150.5 -29q-199 0 -303.5 114t-104.5 323q0 199 115 319.5t307 120.5q66 0 128.5 -14.5t102 -30t50.5 -19.5l-9 -223
h-124l-23 119q-10 2 -48 8zM659 0h-184l830 1434h184zM1888.5 753.5q100.5 -112.5 100.5 -309.5q0 -137 -51.5 -239.5t-143.5 -158.5t-213 -56q-186 0 -288.5 107.5t-102.5 322.5q0 135 53 236.5t147.5 155.5t215.5 54q182 0 282.5 -112.5zM1374 428q0 -135 53.5 -211
t161.5 -76q215 0 215 295q0 127 -50 202t-157 75q-223 0 -223 -285z" />
    <glyph glyph-name="literSign" unicode="&#x2113;" horiz-adv-x="942" 
d="M256 655v430q0 246 78 379t260 133q133 0 199.5 -81.5t66.5 -225.5q0 -174 -113.5 -340t-295.5 -323v-140q0 -174 37.5 -264t146.5 -90q51 0 100 8.5t64 12.5l20 -134q-8 -4 -39.5 -13t-77 -18t-88.5 -9q-358 0 -358 458v35q-82 -57 -133 -84l-72 113q103 69 205 153z
M627.5 1066q68.5 120 68.5 214q0 154 -112 154q-78 0 -105.5 -84t-27.5 -230v-284q108 110 176.5 230z" />
    <glyph glyph-name="numero" unicode="&#x2116;" horiz-adv-x="2498" 
d="M2279.5 1351.5q96.5 -102.5 96.5 -286.5q0 -193 -106.5 -306.5t-282.5 -113.5q-178 0 -278.5 100.5t-100.5 288.5q0 127 50 222.5t141 146.5t208 51q176 0 272.5 -102.5zM635 123v-123h-553v123l174 41v1106l-174 41v112l430 11l676 -1145v981l-174 41v112l532 11v-123
l-174 -41v-1270h-256l-676 1128v-964zM1841.5 1244.5q-59.5 -66.5 -59.5 -200.5q0 -125 59.5 -190.5t155.5 -65.5t150.5 67t54.5 200q0 121 -55.5 188.5t-149.5 67.5q-96 0 -155.5 -66.5zM2355 338h-727v143h727v-143z" />
    <glyph glyph-name="trademark" unicode="&#x2122;" horiz-adv-x="1949" 
d="M223 748l133 26v543h-151l-25 -139h-98v256h706v-256h-98l-24 139h-152v-543l133 -26v-93h-424v93zM1585 1219l-190 -342l-105 -13l-182 344v-434l127 -26v-93h-363v93l107 26v543l-107 20v90l285 7l197 -392l202 385l271 7v-93l-103 -24v-543l103 -26v-93h-359v93
l117 26v445z" />
    <glyph glyph-name="Ohm" unicode="&#x2126;" horiz-adv-x="1546" 
d="M216 417.5q-73 155.5 -73 330.5q0 213 78 372.5t224.5 246.5t342.5 87q193 0 331 -84t211 -238.5t73 -363.5q0 -176 -75 -338t-189 -266l274 10v-174h-522v133q43 23 108.5 82t127 196.5t61.5 346.5q0 254 -109.5 388t-300.5 134q-195 0 -307.5 -128t-112.5 -394
q0 -213 63.5 -351.5t132.5 -200t101 -73.5v-133h-522v164h270q-114 98 -187 253.5z" />
    <glyph glyph-name="estimated" unicode="&#x212e;" horiz-adv-x="1361" 
d="M502 239.5q88 -32.5 184 -32.5q131 0 256 47t203 127l53 -53q-86 -92 -229.5 -148.5t-282.5 -56.5q-174 0 -306 71.5t-205 203.5t-73 309q0 166 81 304t219.5 219t304.5 81q162 0 292.5 -75t205.5 -206t75 -293h-930v-403q64 -62 152 -94.5zM350 1077v-268h684v287
q-70 66 -148.5 99.5t-178.5 33.5q-205 0 -357 -152z" />
    <glyph glyph-name="oneeighth" unicode="&#x215b;" horiz-adv-x="1986" 
d="M174 707h195v542l-215 -133l-72 123l309 195h152v-727h174v-134h-543v134zM645 0h-184l829 1434h185zM1802 516q-53 -45 -114 -65q86 -31 136 -76t50 -123q0 -115 -95.5 -188.5t-250.5 -73.5q-154 0 -237 64.5t-83 178.5q0 88 60.5 139.5t122.5 73.5q-72 31 -107 75
t-35 118q0 113 83 172t229 59q141 0 217.5 -60t76.5 -165q0 -84 -53 -129zM1451 554q36 -30 114 -58q47 16 86 49t39 86q0 49 -35 77.5t-107 28.5q-68 0 -100.5 -28.5t-32.5 -73.5q0 -51 36 -81zM1674.5 315.5q-21.5 26.5 -53.5 42t-105 41.5q-53 -23 -91.5 -54.5
t-38.5 -98.5q0 -57 42 -89t110 -32q74 0 116 31.5t42 89.5q0 43 -21.5 69.5z" />
    <glyph glyph-name="threeeighths" unicode="&#x215c;" horiz-adv-x="1953" 
d="M161 1417q46 10 109.5 18.5t118.5 8.5q145 0 226 -57.5t81 -161.5q0 -84 -49 -135.5t-131 -67.5q78 -8 137.5 -61.5t59.5 -129.5q0 -133 -97.5 -200.5t-259.5 -67.5q-68 0 -131 16.5t-103 35t-50 24.5l41 123q10 -4 46 -19.5t92 -29t114 -13.5q80 0 123.5 34t43.5 95
t-47 90t-145 29h-84v125h94q172 0 172 131q0 106 -143 107q-55 0 -97 -8.5t-42 -10.5l-11 -114h-118l-9 227q13 2 59 12zM612 0h-184l829 1434h185zM1769.5 516q-53.5 -45 -114.5 -65q86 -31 136 -76t50 -123q0 -115 -95 -188.5t-251 -73.5q-154 0 -236.5 64.5t-82.5 178.5
q0 88 60 139.5t122 73.5q-72 31 -106.5 75t-34.5 118q0 113 82.5 172t228.5 59q141 0 218 -60t77 -165q0 -84 -53.5 -129zM1418 554q36 -30 114 -58q47 16 86 49t39 86q0 49 -35 77.5t-106 28.5q-68 0 -101 -28.5t-33 -73.5q0 -51 36 -81zM1641.5 315.5q-21.5 26.5 -53.5 42
t-105 41.5q-53 -23 -91 -54.5t-38 -98.5q0 -57 42 -89t109 -32q74 0 116 31.5t42 89.5q0 43 -21.5 69.5z" />
    <glyph glyph-name="fiveeighths" unicode="&#x215d;" horiz-adv-x="1935" 
d="M303 1110h57q154 0 251.5 -60.5t97.5 -189.5q0 -88 -47.5 -156.5t-125 -105.5t-165.5 -37q-74 0 -136.5 13.5t-99.5 28.5t-47 20l37 127q8 -4 43 -15.5t86 -23t100 -11.5q80 0 130.5 36t50.5 104q0 74 -61.5 105.5t-182.5 31.5h-150l17 457h506l-5 -138h-346zM594 0h-184
l829 1434h184zM1749 516q-53 -45 -115 -65q86 -31 136.5 -76t50.5 -123q0 -115 -95.5 -188.5t-250.5 -73.5q-154 0 -237 64.5t-83 178.5q0 88 60.5 139.5t121.5 73.5q-72 31 -106.5 75t-34.5 118q0 113 83 172t228 59q141 0 218 -60t77 -165q0 -84 -53 -129zM1398 554
q36 -30 113 -58q47 16 86 49t39 86q0 49 -34.5 77.5t-106.5 28.5q-68 0 -100.5 -28.5t-32.5 -73.5q0 -51 36 -81zM1620.5 315.5q-21.5 26.5 -53 42t-105.5 41.5q-53 -23 -91 -54.5t-38 -98.5q0 -57 42 -89t110 -32q74 0 115.5 31.5t41.5 89.5q0 43 -21.5 69.5z" />
    <glyph glyph-name="seveneighths" unicode="&#x215e;" horiz-adv-x="1853" 
d="M367 561h-179l330 735h-301l-24 -104h-121v242h639v-103zM512 0h-184l829 1434h184zM1669 516q-53 -45 -115 -65q86 -31 136.5 -76t50.5 -123q0 -115 -95.5 -188.5t-250.5 -73.5q-154 0 -237 64.5t-83 178.5q0 88 60.5 139.5t121.5 73.5q-72 31 -106.5 75t-34.5 118
q0 113 83 172t228 59q141 0 218 -60t77 -165q0 -84 -53 -129zM1318 554q36 -30 114 -58q47 16 85.5 49t38.5 86q0 49 -34.5 77.5t-106.5 28.5q-68 0 -100.5 -28.5t-32.5 -73.5q0 -51 36 -81zM1541.5 315.5q-21.5 26.5 -53.5 42t-106 41.5q-53 -23 -91 -54.5t-38 -98.5
q0 -57 42 -89t110 -32q74 0 116 31.5t42 89.5q0 43 -21.5 69.5z" />
    <glyph glyph-name="arrowleft" unicode="&#x2190;" horiz-adv-x="1277" 
d="M676 205l-113 -92l-461 481v102l451 482l113 -103l-306 -346h920v-164h-924z" />
    <glyph glyph-name="arrowup" unicode="&#x2191;" horiz-adv-x="1187" 
d="M154 604l-93 113l482 461h102l481 -451l-102 -113l-346 306v-920h-164v922z" />
    <glyph glyph-name="arrowright" unicode="&#x2192;" horiz-adv-x="1277" 
d="M612 1075l113 103l451 -482v-102l-461 -481l-113 92l318 360h-922v164h920z" />
    <glyph glyph-name="arrowdown" unicode="&#x2193;" horiz-adv-x="1187" 
d="M1034 553l92 -113l-481 -460h-102l-482 450l103 113l346 -305v919h164v-921z" />
    <glyph glyph-name="arrowboth" unicode="&#x2194;" horiz-adv-x="1402" 
d="M453 1055l-351 -363v-86l342 -362l97 92l-209 237h743l-219 -243l94 -90l350 362v86l-342 363l-96 -93l209 -237h-743l219 244z" />
    <glyph glyph-name="arrowupdown" unicode="&#x2195;" horiz-adv-x="937" 
d="M66 322l362 -342h86l363 350l-91 94l-243 -219v743l237 -209l92 97l-362 342h-86l-363 -351l91 -94l243 219v-743l-237 209z" />
    <glyph glyph-name="arrowupdownbase" unicode="&#x21a8;" horiz-adv-x="937" 
d="M66 322l362 -342h86l363 350l-91 94l-243 -219v743l237 -209l92 97l-362 342h-86l-363 -351l91 -94l243 219v-743l-237 209zM872 -307h-806v143h806v-143z" />
    <glyph glyph-name="partialdiff" unicode="&#x2202;" horiz-adv-x="1239" 
d="M337 1570q40 9 94 18t101 9q584 0 584 -778q0 -211 -59.5 -402.5t-190.5 -314t-334 -122.5q-127 0 -227 55t-156.5 157.5t-56.5 237.5q0 137 57.5 243.5t160 167t233.5 60.5q100 0 181 -31.5t132 -69.5t51 -42q0 10 2 41.5t2 70.5q0 256 -97 410t-302 154
q-63 0 -124.5 -8.5t-80.5 -12.5l-20 143q10 5 50 14zM852 626q-39 36 -110.5 66.5t-172.5 30.5q-131 0 -196.5 -75t-65.5 -197q0 -135 66.5 -216t169.5 -81q131 0 208.5 95t108.5 200.5t31 134.5q0 6 -39 42z" />
    <glyph glyph-name="increment" unicode="&#x2206;" horiz-adv-x="1363" 
d="M1323 143v-143h-1282v145l541 1330h200zM674 1243l-430 -1079h860z" />
    <glyph glyph-name="product" unicode="&#x220f;" horiz-adv-x="1474" 
d="M72 1311v112l379 11h952v-123l-170 -41h-4v-1741h-205v1741h-573v-1741h-205v1741z" />
    <glyph glyph-name="summation" unicode="&#x2211;" horiz-adv-x="1218" 
d="M61 1280v154h1035v-349h-133l-52 185h-594l564 -754l-584 -823h635l41 205h143v-369h-1044v154l573 809z" />
    <glyph glyph-name="minus" unicode="&#x2212;" horiz-adv-x="1187" 
d="M1085 471h-983v164h983v-164z" />
    <glyph glyph-name="divisionslash" unicode="&#x2215;" horiz-adv-x="1157" 
d="M113 -92l-144 92l1065 1536l144 -92z" />
    <glyph glyph-name="bulletoperator" unicode="&#x2219;" horiz-adv-x="706" 
d="M222 761q48 48 116 48t116 -48t48 -116t-48 -116t-116 -48t-116 48.5t-48 115.5q0 68 48 116z" />
    <glyph glyph-name="radical" unicode="&#x221a;" horiz-adv-x="1372" 
d="M307 1085l285 -901l381 1383l389 10v-113l-242 -30l-424 -1434h-225l-328 932l-112 31v112z" />
    </font>
</defs>
</svg>
