<svg xmlns="http://www.w3.org/2000/svg" viewBox="0 0 1072.838 551.867">
  <defs>
    <style>
      .cls-1 {
        fill: #18240f;
      }

      .cls-2 {
        fill: #504a4f;
      }

      .cls-3 {
        fill: #fff;
      }
    </style>
  </defs>
  <title>logofika copy</title>
  <g id="Layer_2" data-name="Layer 2">
    <rect x="206.628" width="225" height="551.867"/>
  </g>
  <g id="Layer_1" data-name="Layer 1">
    <g>
      <g>
        <path d="M129.648,281.025h0a1.029,1.029,0,0,1,.531.92,31.028,31.028,0,0,1-21.466,28.733l-1.569-4.85a31,31,0,0,0,20.987-24.08A1.031,1.031,0,0,1,129.648,281.025Z" transform="translate(-22.372 -14)"/>
        <path d="M77.935,285.642v13.924H90.764v4.5H77.935V316.2H73.188V280.793H93.9v4.849Z" transform="translate(-22.372 -14)"/>
        <path d="M103.507,316.249h-4.9V280.844h4.9Z" transform="translate(-22.372 -14)"/>
        <g>
          <polygon points="89.368 268.595 89.368 266.894 84.772 266.894 84.772 302.199 89.368 302.199 89.368 293.057 89.368 268.595"/>
          <polygon points="95.075 287.602 95.075 292.501 103.409 302.199 109.167 302.199 97.701 287.602 95.075 287.602"/>
        </g>
        <path d="M141.59,310.744l-2.475,5.556h-5.354l15.3-35.507L164.42,316.3h-5.505l-2.374-5.556Zm7.476-16.92-5.354,12.324h10.708Z" transform="translate(-22.372 -14)"/>
      </g>
      <g>
        <path d="M99.133,324.829a11.524,11.524,0,0,1,7.018,2.392.76.76,0,0,1,.124,1.086.725.725,0,0,1-1.056.155,9.9,9.9,0,0,0-6.086-2.111,9.506,9.506,0,1,0,0,19,9.244,9.244,0,0,0,6.024-2.111.753.753,0,0,1,1.086.187.729.729,0,0,1-.093,1.086,11.5,11.5,0,0,1-7.018,2.36,11.027,11.027,0,1,1,0-22.047Z" transform="translate(-22.372 -14)"/>
        <path d="M122.823,332.406v13.725a.745.745,0,0,1-1.49,0v-2.267a7.1,7.1,0,0,1-5.714,3.012,7.619,7.619,0,0,1,0-15.215,7.074,7.074,0,0,1,5.714,2.98v-2.235a.745.745,0,0,1,1.49,0Zm-1.49,6.862a5.727,5.727,0,1,0-5.714,6.117A5.943,5.943,0,0,0,121.333,339.269Z" transform="translate(-22.372 -14)"/>
        <path d="M133.658,325.947a.756.756,0,0,1-.745.745,2.353,2.353,0,0,0-1.925.59,3.73,3.73,0,0,0-.621,2.516v1.614h2.143a.761.761,0,1,1,0,1.521h-2.143v13.229a.761.761,0,0,1-1.521,0V332.934h-2.019a.761.761,0,0,1,0-1.521h2.019V329.8a5.406,5.406,0,0,1,.993-3.54,4.033,4.033,0,0,1,3.074-1.087A.763.763,0,0,1,133.658,325.947Z" transform="translate(-22.372 -14)"/>
        <path d="M134.774,339.3a7.365,7.365,0,0,1,14.719-.56v.124a.7.7,0,0,1-.745.684H136.264a5.985,5.985,0,0,0,5.9,5.838,5.721,5.721,0,0,0,4.906-2.764.724.724,0,0,1,.993-.249.794.794,0,0,1,.249,1.057,7.253,7.253,0,0,1-6.148,3.446A7.49,7.49,0,0,1,134.774,339.3Zm1.584-1.212h11.521a5.874,5.874,0,0,0-5.714-4.937A5.94,5.94,0,0,0,136.358,338.088Z" transform="translate(-22.372 -14)"/>
      </g>
      <path d="M214.821,129.939l-.031-.033a1.535,1.535,0,0,0-2.481.34,46.8,46.8,0,0,1-31.089,23.691,93.672,93.672,0,0,0,24.057-96.282.914.914,0,0,0-1.765.467,94,94,0,0,1-5.433,55.81,78.493,78.493,0,0,0-43.26-82.782.506.506,0,0,0-.494.88A78.4,78.4,0,0,1,175.1,146.387q-1.865,2.422-3.911,4.691.577-1.6,1.079-3.235a66.352,66.352,0,0,0-14.488-64.119.877.877,0,0,0-1.358,1.107,66.3,66.3,0,0,1,.524,76.748l-4.406-11.442-19.82,23.9-13.914-3.1-13.914,3.1-19.82-23.9L80.663,161.58a66.3,66.3,0,0,1,.524-76.748.877.877,0,0,0-1.358-1.107A66.352,66.352,0,0,0,65.34,147.843q.5,1.64,1.079,3.235-2.044-2.267-3.91-4.691A78.4,78.4,0,0,1,83.282,32.029a.506.506,0,0,0-.494-.88,78.493,78.493,0,0,0-43.26,82.782A94.006,94.006,0,0,1,34.1,58.121a.914.914,0,0,0-1.765-.467,93.672,93.672,0,0,0,24.057,96.282A46.805,46.805,0,0,1,25.3,130.246a1.535,1.535,0,0,0-2.481-.34l-.031.033a1.528,1.528,0,0,0-.33,1.543,46.764,46.764,0,0,0,44.116,31.256v-.272q2.548,1.843,5.22,3.518a13.126,13.126,0,0,1,3.642,9.172L59.216,217.272,89.01,231.859l15.071,35.168h29.446L148.6,231.859l29.794-14.587-16.219-42.116a13.126,13.126,0,0,1,3.642-9.172q2.673-1.672,5.22-3.518v.272a46.764,46.764,0,0,0,44.116-31.256A1.528,1.528,0,0,0,214.821,129.939ZM104.328,203.278,86.3,189.634l20.439,6.822Zm21.526,55.191h-14.1l-1.861-5.837h17.822Zm7.426-55.191-2.408-6.822,20.439-6.822Z" transform="translate(-22.372 -14)"/>
    </g>
    <g>
      <g>
        <path class="cls-1" d="M573.036,280.142h0a1.029,1.029,0,0,1,.531.92A31.028,31.028,0,0,1,552.1,309.8l-1.569-4.85a31,31,0,0,0,20.987-24.08A1.031,1.031,0,0,1,573.036,280.142Z" transform="translate(-22.372 -14)"/>
        <path class="cls-1" d="M521.324,284.759v13.924h12.829v4.5H521.324v12.138h-4.748V279.91h20.708v4.849Z" transform="translate(-22.372 -14)"/>
        <path class="cls-1" d="M546.9,315.366H542V279.961h4.9Z" transform="translate(-22.372 -14)"/>
        <g>
          <polygon class="cls-1" points="532.756 267.712 532.756 266.011 528.16 266.011 528.16 301.316 532.756 301.316 532.756 292.173 532.756 267.712"/>
          <polygon class="cls-1" points="538.463 286.719 538.463 291.618 546.797 301.316 552.555 301.316 541.09 286.719 538.463 286.719"/>
        </g>
        <path class="cls-1" d="M584.979,309.861l-2.475,5.556H577.15l15.3-35.507,15.354,35.507H602.3l-2.374-5.556Zm7.476-16.92L587.1,305.264h10.708Z" transform="translate(-22.372 -14)"/>
      </g>
      <g>
        <path class="cls-1" d="M542.521,323.946a11.524,11.524,0,0,1,7.018,2.392.76.76,0,0,1,.124,1.086.725.725,0,0,1-1.056.155,9.9,9.9,0,0,0-6.086-2.111,9.506,9.506,0,1,0,0,19,9.244,9.244,0,0,0,6.024-2.111.753.753,0,0,1,1.086.187.729.729,0,0,1-.093,1.086,11.5,11.5,0,0,1-7.018,2.36,11.027,11.027,0,1,1,0-22.047Z" transform="translate(-22.372 -14)"/>
        <path class="cls-1" d="M566.211,331.523v13.725a.745.745,0,1,1-1.49,0v-2.267a7.1,7.1,0,0,1-5.714,3.012,7.619,7.619,0,0,1,0-15.215,7.074,7.074,0,0,1,5.714,2.98v-2.235a.745.745,0,1,1,1.49,0Zm-1.49,6.862a5.727,5.727,0,1,0-5.714,6.117A5.943,5.943,0,0,0,564.721,338.385Z" transform="translate(-22.372 -14)"/>
        <path class="cls-1" d="M577.046,325.064a.756.756,0,0,1-.745.745,2.353,2.353,0,0,0-1.925.59,3.73,3.73,0,0,0-.621,2.516v1.614H575.9a.761.761,0,1,1,0,1.521h-2.143v13.229a.761.761,0,0,1-1.521,0V332.05h-2.019a.761.761,0,0,1,0-1.521h2.019v-1.614a5.406,5.406,0,0,1,.993-3.54,4.033,4.033,0,0,1,3.074-1.087A.763.763,0,0,1,577.046,325.064Z" transform="translate(-22.372 -14)"/>
        <path class="cls-1" d="M578.163,338.417a7.365,7.365,0,0,1,14.719-.56v.124a.7.7,0,0,1-.745.684H579.653a5.985,5.985,0,0,0,5.9,5.838,5.721,5.721,0,0,0,4.906-2.764.724.724,0,0,1,.993-.249.794.794,0,0,1,.249,1.057,7.253,7.253,0,0,1-6.148,3.446A7.49,7.49,0,0,1,578.163,338.417Zm1.584-1.212h11.521a5.874,5.874,0,0,0-5.714-4.937A5.94,5.94,0,0,0,579.747,337.2Z" transform="translate(-22.372 -14)"/>
      </g>
      <path class="cls-1" d="M658.209,129.056l-.031-.033a1.535,1.535,0,0,0-2.481.34,46.8,46.8,0,0,1-31.089,23.691,93.672,93.672,0,0,0,24.057-96.282.914.914,0,0,0-1.765.467,94,94,0,0,1-5.433,55.81,78.493,78.493,0,0,0-43.26-82.782.506.506,0,0,0-.494.88A78.4,78.4,0,0,1,618.487,145.5q-1.865,2.422-3.911,4.691.577-1.6,1.079-3.235a66.352,66.352,0,0,0-14.488-64.119.877.877,0,0,0-1.358,1.107,66.3,66.3,0,0,1,.524,76.748l-4.406-11.442-19.82,23.9-13.914-3.1-13.914,3.1-19.82-23.9L524.051,160.7a66.3,66.3,0,0,1,.524-76.748.877.877,0,0,0-1.358-1.107,66.352,66.352,0,0,0-14.489,64.119q.5,1.64,1.079,3.235-2.044-2.267-3.91-4.691A78.4,78.4,0,0,1,526.671,31.146a.506.506,0,0,0-.494-.88,78.493,78.493,0,0,0-43.26,82.782,94.006,94.006,0,0,1-5.433-55.81.914.914,0,0,0-1.765-.467,93.672,93.672,0,0,0,24.057,96.282,46.805,46.805,0,0,1-31.089-23.691,1.535,1.535,0,0,0-2.481-.34l-.031.033a1.528,1.528,0,0,0-.33,1.543,46.764,46.764,0,0,0,44.116,31.256v-.272q2.548,1.843,5.22,3.518a13.126,13.126,0,0,1,3.642,9.172L502.6,216.389,532.4,230.975l15.071,35.168h29.446l15.071-35.168,29.794-14.587-16.219-42.116A13.126,13.126,0,0,1,609.2,165.1q2.673-1.672,5.22-3.518v.272A46.764,46.764,0,0,0,658.539,130.6,1.528,1.528,0,0,0,658.209,129.056ZM547.716,202.4l-18.031-13.645,20.439,6.822Zm21.526,55.191h-14.1l-1.861-5.837H571.1Zm7.426-55.191-2.408-6.822,20.439-6.822Z" transform="translate(-22.372 -14)"/>
    </g>
    <g>
      <g>
        <path class="cls-2" d="M846.022,280.142h0a1.029,1.029,0,0,1,.531.92A31.028,31.028,0,0,1,825.088,309.8l-1.569-4.85a31,31,0,0,0,20.987-24.08A1.031,1.031,0,0,1,846.022,280.142Z" transform="translate(-22.372 -14)"/>
        <path class="cls-2" d="M794.31,284.759v13.924h12.829v4.5H794.31v12.138h-4.748V279.91H810.27v4.849Z" transform="translate(-22.372 -14)"/>
        <path class="cls-2" d="M819.882,315.366h-4.9V279.961h4.9Z" transform="translate(-22.372 -14)"/>
        <g>
          <polygon class="cls-2" points="805.742 267.712 805.742 266.011 801.146 266.011 801.146 301.316 805.742 301.316 805.742 292.173 805.742 267.712"/>
          <polygon class="cls-2" points="811.45 286.719 811.45 291.618 819.784 301.316 825.541 301.316 814.076 286.719 811.45 286.719"/>
        </g>
        <path class="cls-2" d="M857.965,309.861l-2.475,5.556h-5.354l15.3-35.507,15.354,35.507h-5.505l-2.374-5.556Zm7.476-16.92-5.354,12.324h10.708Z" transform="translate(-22.372 -14)"/>
      </g>
      <g>
        <path class="cls-2" d="M815.507,323.946a11.524,11.524,0,0,1,7.018,2.392.76.76,0,0,1,.124,1.086.725.725,0,0,1-1.056.155,9.9,9.9,0,0,0-6.086-2.111,9.506,9.506,0,1,0,0,19,9.244,9.244,0,0,0,6.024-2.111.753.753,0,0,1,1.086.187.729.729,0,0,1-.093,1.086,11.5,11.5,0,0,1-7.018,2.36,11.027,11.027,0,1,1,0-22.047Z" transform="translate(-22.372 -14)"/>
        <path class="cls-2" d="M839.2,331.523v13.725a.745.745,0,1,1-1.49,0v-2.267a7.1,7.1,0,0,1-5.714,3.012,7.619,7.619,0,0,1,0-15.215,7.074,7.074,0,0,1,5.714,2.98v-2.235a.745.745,0,1,1,1.49,0Zm-1.49,6.862a5.727,5.727,0,1,0-5.714,6.117A5.943,5.943,0,0,0,837.708,338.385Z" transform="translate(-22.372 -14)"/>
        <path class="cls-2" d="M850.033,325.064a.756.756,0,0,1-.745.745,2.353,2.353,0,0,0-1.925.59,3.73,3.73,0,0,0-.621,2.516v1.614h2.143a.761.761,0,1,1,0,1.521h-2.143v13.229a.761.761,0,0,1-1.521,0V332.05H843.2a.761.761,0,0,1,0-1.521h2.019v-1.614a5.406,5.406,0,0,1,.993-3.54,4.033,4.033,0,0,1,3.074-1.087A.763.763,0,0,1,850.033,325.064Z" transform="translate(-22.372 -14)"/>
        <path class="cls-2" d="M851.149,338.417a7.365,7.365,0,0,1,14.719-.56v.124a.7.7,0,0,1-.745.684H852.639a5.985,5.985,0,0,0,5.9,5.838,5.721,5.721,0,0,0,4.906-2.764.724.724,0,0,1,.993-.249.794.794,0,0,1,.249,1.057,7.253,7.253,0,0,1-6.148,3.446A7.49,7.49,0,0,1,851.149,338.417Zm1.584-1.212h11.521a5.874,5.874,0,0,0-5.714-4.937A5.94,5.94,0,0,0,852.733,337.2Z" transform="translate(-22.372 -14)"/>
      </g>
      <path class="cls-2" d="M931.2,129.056l-.031-.033a1.535,1.535,0,0,0-2.481.34,46.8,46.8,0,0,1-31.089,23.691,93.672,93.672,0,0,0,24.057-96.282.914.914,0,0,0-1.765.467,94,94,0,0,1-5.433,55.81,78.493,78.493,0,0,0-43.26-82.782.506.506,0,0,0-.494.88A78.4,78.4,0,0,1,891.473,145.5q-1.865,2.422-3.911,4.691.577-1.6,1.079-3.235a66.352,66.352,0,0,0-14.488-64.119.877.877,0,0,0-1.358,1.107,66.3,66.3,0,0,1,.524,76.748l-4.406-11.442-19.82,23.9-13.914-3.1-13.914,3.1-19.82-23.9L797.038,160.7a66.3,66.3,0,0,1,.524-76.748.877.877,0,0,0-1.358-1.107,66.352,66.352,0,0,0-14.489,64.119q.5,1.64,1.079,3.235-2.044-2.267-3.91-4.691A78.4,78.4,0,0,1,799.657,31.146a.506.506,0,0,0-.494-.88,78.493,78.493,0,0,0-43.26,82.782,94.006,94.006,0,0,1-5.433-55.81.914.914,0,0,0-1.765-.467,93.672,93.672,0,0,0,24.057,96.282,46.805,46.805,0,0,1-31.089-23.691,1.535,1.535,0,0,0-2.481-.34l-.031.033a1.528,1.528,0,0,0-.33,1.543,46.764,46.764,0,0,0,44.116,31.256v-.272q2.548,1.843,5.22,3.518a13.126,13.126,0,0,1,3.642,9.172l-16.219,42.116,29.794,14.587,15.071,35.168H849.9l15.071-35.168,29.794-14.587-16.219-42.116a13.126,13.126,0,0,1,3.642-9.172q2.673-1.672,5.22-3.518v.272A46.764,46.764,0,0,0,931.526,130.6,1.528,1.528,0,0,0,931.2,129.056ZM820.7,202.4l-18.031-13.645,20.439,6.822Zm21.526,55.191h-14.1l-1.861-5.837h17.822Zm7.426-55.191-2.408-6.822,20.439-6.822Z" transform="translate(-22.372 -14)"/>
    </g>
    <g>
      <g>
        <path class="cls-1" d="M580.643,427.664h0a1.751,1.751,0,0,1,.9,1.565,52.8,52.8,0,0,1-36.525,48.89l-2.67-8.252a52.74,52.74,0,0,0,35.709-40.973A1.754,1.754,0,0,1,580.643,427.664Z" transform="translate(-22.372 -14)"/>
        <path class="cls-1" d="M492.654,435.519v23.692h21.828v7.648H492.654v20.652h-8.078V427.269H519.81v8.25Z" transform="translate(-22.372 -14)"/>
        <path class="cls-1" d="M536.165,487.6h-8.336V427.355h8.336Z" transform="translate(-22.372 -14)"/>
        <g>
          <polygon class="cls-1" points="527.801 416.336 527.801 413.441 519.98 413.441 519.98 473.512 527.801 473.512 527.801 457.957 527.801 416.336"/>
          <polygon class="cls-1" points="537.512 448.676 537.512 457.012 551.692 473.512 561.489 473.512 541.981 448.676 537.512 448.676"/>
        </g>
        <path class="cls-1" d="M600.963,478.23l-4.211,9.454h-9.109l26.04-60.415,26.125,60.415h-9.367L626.4,478.23Zm12.72-28.789-9.11,20.969h18.22Z" transform="translate(-22.372 -14)"/>
      </g>
      <g>
        <path class="cls-1" d="M528.722,502.2a19.609,19.609,0,0,1,11.941,4.069,1.294,1.294,0,0,1,.211,1.848,1.233,1.233,0,0,1-1.8.264,16.853,16.853,0,0,0-10.356-3.592,16.4,16.4,0,0,0-16.643,16.274c0,8.823,7.4,16.061,16.643,16.061a15.73,15.73,0,0,0,10.251-3.592,1.281,1.281,0,0,1,1.849.317,1.241,1.241,0,0,1-.158,1.848,19.568,19.568,0,0,1-11.941,4.016c-10.619,0-19.232-8.348-19.232-18.65A19.023,19.023,0,0,1,528.722,502.2Z" transform="translate(-22.372 -14)"/>
        <path class="cls-1" d="M569.031,515.089v23.353a1.268,1.268,0,0,1-2.536,0v-3.857a12.087,12.087,0,0,1-9.722,5.124c-6.815,0-12.257-5.864-12.257-12.944s5.442-12.944,12.257-12.944a12.037,12.037,0,0,1,9.722,5.071v-3.8a1.268,1.268,0,0,1,2.536,0ZM566.5,526.766c0-5.812-4.386-10.462-9.722-10.462-5.283,0-9.721,4.649-9.721,10.462s4.438,10.408,9.721,10.408C562.11,537.174,566.5,532.576,566.5,526.766Z" transform="translate(-22.372 -14)"/>
        <path class="cls-1" d="M587.467,504.1a1.286,1.286,0,0,1-1.268,1.268c-1.8,0-2.747.371-3.275,1-.582.635-1.057,1.9-1.057,4.28V513.4h3.646a1.295,1.295,0,1,1,0,2.589h-3.646V538.5a1.295,1.295,0,0,1-2.589,0V515.987h-3.435a1.295,1.295,0,0,1,0-2.589h3.435v-2.747c.053-2.642.475-4.6,1.69-6.023a6.861,6.861,0,0,1,5.231-1.849A1.3,1.3,0,0,1,587.467,504.1Z" transform="translate(-22.372 -14)"/>
        <path class="cls-1" d="M589.366,526.819a12.768,12.768,0,0,1,12.575-13c6.656,0,11.94,5.282,12.469,12.045v.211a1.2,1.2,0,0,1-1.268,1.163H591.9a10.184,10.184,0,0,0,10.04,9.933,9.734,9.734,0,0,0,8.348-4.7,1.232,1.232,0,0,1,1.69-.424,1.351,1.351,0,0,1,.424,1.8,12.34,12.34,0,0,1-10.462,5.864A12.744,12.744,0,0,1,589.366,526.819Zm2.7-2.062h19.6a9.994,9.994,0,0,0-9.722-8.4A10.108,10.108,0,0,0,592.061,524.757Z" transform="translate(-22.372 -14)"/>
      </g>
    </g>
    <g>
      <g>
        <path class="cls-2" d="M853.63,427.664h0a1.751,1.751,0,0,1,.9,1.565,52.8,52.8,0,0,1-36.525,48.89l-2.67-8.252a52.74,52.74,0,0,0,35.709-40.973A1.754,1.754,0,0,1,853.63,427.664Z" transform="translate(-22.372 -14)"/>
        <path class="cls-2" d="M765.641,435.519v23.692h21.828v7.648H765.641v20.652h-8.078V427.269H792.8v8.25Z" transform="translate(-22.372 -14)"/>
        <path class="cls-2" d="M809.152,487.6h-8.336V427.355h8.336Z" transform="translate(-22.372 -14)"/>
        <g>
          <polygon class="cls-2" points="800.787 416.336 800.787 413.441 792.967 413.441 792.967 473.512 800.787 473.512 800.787 457.957 800.787 416.336"/>
          <polygon class="cls-2" points="810.498 448.676 810.498 457.012 824.678 473.512 834.475 473.512 814.967 448.676 810.498 448.676"/>
        </g>
        <path class="cls-2" d="M873.95,478.23l-4.211,9.454h-9.109l26.04-60.415,26.125,60.415h-9.367l-4.039-9.454Zm12.72-28.789-9.11,20.969h18.22Z" transform="translate(-22.372 -14)"/>
      </g>
      <g>
        <path class="cls-2" d="M801.708,502.2a19.609,19.609,0,0,1,11.941,4.069,1.294,1.294,0,0,1,.211,1.848,1.233,1.233,0,0,1-1.8.264,16.853,16.853,0,0,0-10.356-3.592,16.4,16.4,0,0,0-16.643,16.274c0,8.823,7.4,16.061,16.643,16.061a15.73,15.73,0,0,0,10.251-3.592,1.281,1.281,0,0,1,1.849.317,1.241,1.241,0,0,1-.158,1.848,19.568,19.568,0,0,1-11.941,4.016c-10.619,0-19.232-8.348-19.232-18.65A19.023,19.023,0,0,1,801.708,502.2Z" transform="translate(-22.372 -14)"/>
        <path class="cls-2" d="M842.017,515.089v23.353a1.268,1.268,0,0,1-2.536,0v-3.857a12.087,12.087,0,0,1-9.722,5.124c-6.815,0-12.257-5.864-12.257-12.944s5.442-12.944,12.257-12.944a12.037,12.037,0,0,1,9.722,5.071v-3.8a1.268,1.268,0,0,1,2.536,0Zm-2.536,11.676c0-5.812-4.386-10.462-9.722-10.462-5.283,0-9.721,4.649-9.721,10.462s4.438,10.408,9.721,10.408C835.1,537.174,839.482,532.576,839.482,526.766Z" transform="translate(-22.372 -14)"/>
        <path class="cls-2" d="M860.453,504.1a1.286,1.286,0,0,1-1.268,1.268c-1.8,0-2.747.371-3.275,1-.582.635-1.057,1.9-1.057,4.28V513.4H858.5a1.295,1.295,0,1,1,0,2.589h-3.646V538.5a1.295,1.295,0,0,1-2.589,0V515.987H848.83a1.295,1.295,0,0,1,0-2.589h3.435v-2.747c.053-2.642.475-4.6,1.69-6.023a6.861,6.861,0,0,1,5.231-1.849A1.3,1.3,0,0,1,860.453,504.1Z" transform="translate(-22.372 -14)"/>
        <path class="cls-2" d="M862.352,526.819a12.768,12.768,0,0,1,12.575-13c6.656,0,11.94,5.282,12.469,12.045v.211a1.2,1.2,0,0,1-1.268,1.163H864.888a10.184,10.184,0,0,0,10.04,9.933,9.734,9.734,0,0,0,8.348-4.7,1.232,1.232,0,0,1,1.69-.424,1.351,1.351,0,0,1,.424,1.8,12.34,12.34,0,0,1-10.462,5.864A12.744,12.744,0,0,1,862.352,526.819Zm2.7-2.062h19.6a9.994,9.994,0,0,0-9.722-8.4A10.108,10.108,0,0,0,865.048,524.757Z" transform="translate(-22.372 -14)"/>
      </g>
    </g>
    <g>
      <g>
        <path class="cls-3" d="M365.058,427.664h0a1.751,1.751,0,0,1,.9,1.565,52.8,52.8,0,0,1-36.525,48.89l-2.67-8.252a52.74,52.74,0,0,0,35.709-40.973A1.754,1.754,0,0,1,365.058,427.664Z" transform="translate(-22.372 -14)"/>
        <path class="cls-3" d="M277.069,435.519v23.692H298.9v7.648H277.069v20.652h-8.078V427.269h35.234v8.25Z" transform="translate(-22.372 -14)"/>
        <path class="cls-3" d="M320.58,487.6h-8.336V427.355h8.336Z" transform="translate(-22.372 -14)"/>
        <g>
          <polygon class="cls-3" points="312.216 416.336 312.216 413.441 304.395 413.441 304.395 473.512 312.216 473.512 312.216 457.957 312.216 416.336"/>
          <polygon class="cls-3" points="321.927 448.676 321.927 457.012 336.107 473.512 345.904 473.512 326.396 448.676 321.927 448.676"/>
        </g>
        <path class="cls-3" d="M385.379,478.23l-4.211,9.454h-9.109l26.04-60.415,26.125,60.415h-9.367l-4.039-9.454Zm12.72-28.789-9.11,20.969h18.22Z" transform="translate(-22.372 -14)"/>
      </g>
      <g>
        <path class="cls-3" d="M313.137,502.2a19.609,19.609,0,0,1,11.941,4.069,1.294,1.294,0,0,1,.211,1.848,1.233,1.233,0,0,1-1.8.264,16.853,16.853,0,0,0-10.356-3.592,16.4,16.4,0,0,0-16.643,16.274c0,8.823,7.4,16.061,16.643,16.061a15.73,15.73,0,0,0,10.251-3.592,1.281,1.281,0,0,1,1.849.317,1.241,1.241,0,0,1-.158,1.848,19.568,19.568,0,0,1-11.941,4.016c-10.619,0-19.232-8.348-19.232-18.65A19.023,19.023,0,0,1,313.137,502.2Z" transform="translate(-22.372 -14)"/>
        <path class="cls-3" d="M353.446,515.089v23.353a1.268,1.268,0,0,1-2.536,0v-3.857a12.087,12.087,0,0,1-9.722,5.124c-6.815,0-12.257-5.864-12.257-12.944s5.442-12.944,12.257-12.944a12.037,12.037,0,0,1,9.722,5.071v-3.8a1.268,1.268,0,0,1,2.536,0Zm-2.536,11.676c0-5.812-4.386-10.462-9.722-10.462-5.283,0-9.721,4.649-9.721,10.462s4.438,10.408,9.721,10.408C346.525,537.174,350.91,532.576,350.91,526.766Z" transform="translate(-22.372 -14)"/>
        <path class="cls-3" d="M371.882,504.1a1.286,1.286,0,0,1-1.268,1.268c-1.8,0-2.747.371-3.275,1-.582.635-1.057,1.9-1.057,4.28V513.4h3.646a1.295,1.295,0,1,1,0,2.589h-3.646V538.5a1.295,1.295,0,0,1-2.589,0V515.987h-3.435a1.295,1.295,0,0,1,0-2.589h3.435v-2.747c.053-2.642.475-4.6,1.69-6.023a6.861,6.861,0,0,1,5.231-1.849A1.3,1.3,0,0,1,371.882,504.1Z" transform="translate(-22.372 -14)"/>
        <path class="cls-3" d="M373.781,526.819a12.768,12.768,0,0,1,12.575-13c6.656,0,11.94,5.282,12.469,12.045v.211a1.2,1.2,0,0,1-1.268,1.163H376.317a10.184,10.184,0,0,0,10.04,9.933,9.734,9.734,0,0,0,8.348-4.7,1.232,1.232,0,0,1,1.69-.424,1.351,1.351,0,0,1,.424,1.8,12.34,12.34,0,0,1-10.462,5.864A12.744,12.744,0,0,1,373.781,526.819Zm2.7-2.062h19.6a9.994,9.994,0,0,0-9.722-8.4A10.108,10.108,0,0,0,376.476,524.757Z" transform="translate(-22.372 -14)"/>
      </g>
    </g>
    <g>
      <g>
        <path d="M137.113,427.664h0a1.751,1.751,0,0,1,.9,1.565,52.8,52.8,0,0,1-36.525,48.89l-2.67-8.252a52.74,52.74,0,0,0,35.709-40.973A1.754,1.754,0,0,1,137.113,427.664Z" transform="translate(-22.372 -14)"/>
        <path d="M49.124,435.519v23.692H70.952v7.648H49.124v20.652H41.045V427.269H76.28v8.25Z" transform="translate(-22.372 -14)"/>
        <path d="M92.635,487.6H84.3V427.355h8.336Z" transform="translate(-22.372 -14)"/>
        <g>
          <polygon points="84.27 416.336 84.27 413.441 76.45 413.441 76.45 473.512 84.27 473.512 84.27 457.957 84.27 416.336"/>
          <polygon points="93.981 448.676 93.981 457.012 108.161 473.512 117.958 473.512 98.45 448.676 93.981 448.676"/>
        </g>
        <path d="M157.433,478.23l-4.211,9.454h-9.109l26.04-60.415,26.125,60.415H186.91l-4.039-9.454Zm12.72-28.789-9.11,20.969h18.22Z" transform="translate(-22.372 -14)"/>
      </g>
      <g>
        <path d="M85.191,502.2a19.609,19.609,0,0,1,11.941,4.069,1.294,1.294,0,0,1,.211,1.848,1.233,1.233,0,0,1-1.8.264,16.853,16.853,0,0,0-10.356-3.592A16.4,16.4,0,0,0,68.548,521.06c0,8.823,7.4,16.061,16.643,16.061a15.73,15.73,0,0,0,10.251-3.592,1.281,1.281,0,0,1,1.849.317,1.241,1.241,0,0,1-.158,1.848,19.568,19.568,0,0,1-11.941,4.016c-10.619,0-19.232-8.348-19.232-18.65A19.023,19.023,0,0,1,85.191,502.2Z" transform="translate(-22.372 -14)"/>
        <path d="M125.5,515.089v23.353a1.268,1.268,0,0,1-2.536,0v-3.857a12.087,12.087,0,0,1-9.722,5.124c-6.815,0-12.257-5.864-12.257-12.944s5.442-12.944,12.257-12.944a12.037,12.037,0,0,1,9.722,5.071v-3.8a1.268,1.268,0,0,1,2.536,0Zm-2.536,11.676c0-5.812-4.386-10.462-9.722-10.462-5.283,0-9.721,4.649-9.721,10.462s4.438,10.408,9.721,10.408C118.579,537.174,122.965,532.576,122.965,526.766Z" transform="translate(-22.372 -14)"/>
        <path d="M143.936,504.1a1.286,1.286,0,0,1-1.268,1.268c-1.8,0-2.747.371-3.275,1-.582.635-1.057,1.9-1.057,4.28V513.4h3.646a1.295,1.295,0,1,1,0,2.589h-3.646V538.5a1.295,1.295,0,0,1-2.589,0V515.987h-3.435a1.295,1.295,0,0,1,0-2.589h3.435v-2.747c.053-2.642.475-4.6,1.69-6.023a6.861,6.861,0,0,1,5.231-1.849A1.3,1.3,0,0,1,143.936,504.1Z" transform="translate(-22.372 -14)"/>
        <path d="M145.835,526.819a12.768,12.768,0,0,1,12.575-13c6.656,0,11.94,5.282,12.469,12.045v.211a1.2,1.2,0,0,1-1.268,1.163H148.371a10.184,10.184,0,0,0,10.04,9.933,9.734,9.734,0,0,0,8.348-4.7,1.232,1.232,0,0,1,1.69-.424,1.351,1.351,0,0,1,.424,1.8,12.34,12.34,0,0,1-10.462,5.864A12.744,12.744,0,0,1,145.835,526.819Zm2.7-2.062h19.6a9.994,9.994,0,0,0-9.722-8.4A10.108,10.108,0,0,0,148.531,524.757Z" transform="translate(-22.372 -14)"/>
      </g>
    </g>
    <g>
      <g>
        <path class="cls-3" d="M350.173,280.142h0a1.029,1.029,0,0,1,.531.92A31.028,31.028,0,0,1,329.238,309.8l-1.569-4.85a31,31,0,0,0,20.987-24.08A1.031,1.031,0,0,1,350.173,280.142Z" transform="translate(-22.372 -14)"/>
        <path class="cls-3" d="M298.461,284.759v13.924h12.829v4.5H298.461v12.138h-4.748V279.91h20.708v4.849Z" transform="translate(-22.372 -14)"/>
        <path class="cls-3" d="M324.033,315.366h-4.9V279.961h4.9Z" transform="translate(-22.372 -14)"/>
        <g>
          <polygon class="cls-3" points="309.893 267.712 309.893 266.011 305.297 266.011 305.297 301.316 309.893 301.316 309.893 292.173 309.893 267.712"/>
          <polygon class="cls-3" points="315.6 286.719 315.6 291.618 323.934 301.316 329.692 301.316 318.227 286.719 315.6 286.719"/>
        </g>
        <path class="cls-3" d="M362.115,309.861l-2.475,5.556h-5.354l15.3-35.507,15.354,35.507H379.44l-2.374-5.556Zm7.476-16.92-5.354,12.324h10.708Z" transform="translate(-22.372 -14)"/>
      </g>
      <g>
        <path class="cls-3" d="M319.658,323.946a11.524,11.524,0,0,1,7.018,2.392.76.76,0,0,1,.124,1.086.725.725,0,0,1-1.056.155,9.9,9.9,0,0,0-6.086-2.111,9.506,9.506,0,1,0,0,19,9.244,9.244,0,0,0,6.024-2.111.753.753,0,0,1,1.086.187.729.729,0,0,1-.093,1.086,11.5,11.5,0,0,1-7.018,2.36,11.027,11.027,0,1,1,0-22.047Z" transform="translate(-22.372 -14)"/>
        <path class="cls-3" d="M343.348,331.523v13.725a.745.745,0,0,1-1.49,0v-2.267a7.1,7.1,0,0,1-5.714,3.012,7.619,7.619,0,0,1,0-15.215,7.074,7.074,0,0,1,5.714,2.98v-2.235a.745.745,0,0,1,1.49,0Zm-1.49,6.862a5.727,5.727,0,1,0-5.714,6.117A5.943,5.943,0,0,0,341.858,338.385Z" transform="translate(-22.372 -14)"/>
        <path class="cls-3" d="M354.183,325.064a.756.756,0,0,1-.745.745,2.353,2.353,0,0,0-1.925.59,3.73,3.73,0,0,0-.621,2.516v1.614h2.143a.761.761,0,1,1,0,1.521h-2.143v13.229a.761.761,0,0,1-1.521,0V332.05h-2.019a.761.761,0,0,1,0-1.521h2.019v-1.614a5.406,5.406,0,0,1,.993-3.54,4.033,4.033,0,0,1,3.074-1.087A.763.763,0,0,1,354.183,325.064Z" transform="translate(-22.372 -14)"/>
        <path class="cls-3" d="M355.3,338.417a7.365,7.365,0,0,1,14.719-.56v.124a.7.7,0,0,1-.745.684H356.79a5.985,5.985,0,0,0,5.9,5.838,5.721,5.721,0,0,0,4.906-2.764.724.724,0,0,1,.993-.249.794.794,0,0,1,.249,1.057,7.253,7.253,0,0,1-6.148,3.446A7.49,7.49,0,0,1,355.3,338.417Zm1.584-1.212H368.4a5.874,5.874,0,0,0-5.714-4.937A5.94,5.94,0,0,0,356.883,337.2Z" transform="translate(-22.372 -14)"/>
      </g>
      <path class="cls-3" d="M435.346,129.056l-.031-.033a1.535,1.535,0,0,0-2.481.34,46.8,46.8,0,0,1-31.089,23.691A93.672,93.672,0,0,0,425.8,56.772a.914.914,0,0,0-1.765.467,94,94,0,0,1-5.433,55.81,78.493,78.493,0,0,0-43.26-82.782.506.506,0,0,0-.494.88A78.4,78.4,0,0,1,395.624,145.5q-1.865,2.422-3.911,4.691.577-1.6,1.079-3.235A66.352,66.352,0,0,0,378.3,82.841a.877.877,0,0,0-1.358,1.107,66.3,66.3,0,0,1,.524,76.748l-4.406-11.442-19.82,23.9-13.914-3.1-13.914,3.1-19.82-23.9L301.188,160.7a66.3,66.3,0,0,1,.524-76.748.877.877,0,0,0-1.358-1.107,66.352,66.352,0,0,0-14.489,64.119q.5,1.64,1.079,3.235-2.044-2.267-3.91-4.691A78.4,78.4,0,0,1,303.808,31.146a.506.506,0,0,0-.494-.88,78.493,78.493,0,0,0-43.26,82.782,94.006,94.006,0,0,1-5.433-55.81.914.914,0,0,0-1.765-.467,93.672,93.672,0,0,0,24.057,96.282,46.805,46.805,0,0,1-31.089-23.691,1.535,1.535,0,0,0-2.481-.34l-.031.033a1.528,1.528,0,0,0-.33,1.543A46.764,46.764,0,0,0,287.1,161.855v-.272q2.548,1.843,5.22,3.518a13.126,13.126,0,0,1,3.642,9.172l-16.219,42.116,29.794,14.587,15.071,35.168h29.446l15.071-35.168,29.794-14.587L382.7,174.273a13.126,13.126,0,0,1,3.642-9.172q2.673-1.672,5.22-3.518v.272A46.764,46.764,0,0,0,435.676,130.6,1.528,1.528,0,0,0,435.346,129.056ZM324.853,202.4l-18.031-13.645,20.439,6.822Zm21.526,55.191h-14.1l-1.861-5.837H348.24ZM353.8,202.4l-2.408-6.822,20.439-6.822Z" transform="translate(-22.372 -14)"/>
    </g>
    <g>
      <path d="M615.094,276.31a18.176,18.176,0,0,1,3.007-.234,4.984,4.984,0,0,1,3.4,1.008,3.263,3.263,0,0,1,1.063,2.539,3.571,3.571,0,0,1-.937,2.593,5.028,5.028,0,0,1-3.709,1.333,5.408,5.408,0,0,1-1.261-.108V288.3h-1.566Zm1.566,5.852a5.269,5.269,0,0,0,1.3.126c1.891,0,3.043-.918,3.043-2.593,0-1.6-1.135-2.377-2.863-2.377a6.6,6.6,0,0,0-1.477.126Z" transform="translate(-22.372 -14)"/>
      <path d="M625.121,284.484,623.86,288.3h-1.62l4.123-12.136h1.891L632.4,288.3h-1.675l-1.3-3.817Zm3.979-1.224-1.188-3.493c-.271-.792-.45-1.512-.631-2.214h-.035c-.181.72-.379,1.458-.612,2.2l-1.188,3.511Z" transform="translate(-22.372 -14)"/>
      <path d="M634.174,288.3V276.166h1.711l3.889,6.14a34.343,34.343,0,0,1,2.179,3.943l.036-.018c-.144-1.62-.18-3.1-.18-4.987v-5.078h1.477V288.3H641.7l-3.854-6.158a38.652,38.652,0,0,1-2.269-4.051l-.054.018c.09,1.53.126,2.989.126,5.005V288.3Z" transform="translate(-22.372 -14)"/>
      <path d="M648.322,277.5h-3.69v-1.333h8.984V277.5h-3.709v10.8h-1.585Z" transform="translate(-22.372 -14)"/>
      <path d="M664.849,282.108c0,4.177-2.538,6.392-5.636,6.392-3.205,0-5.455-2.485-5.455-6.158,0-3.853,2.395-6.374,5.636-6.374C662.706,275.968,664.849,278.507,664.849,282.108Zm-9.417.2c0,2.593,1.405,4.916,3.872,4.916,2.484,0,3.889-2.287,3.889-5.042,0-2.413-1.261-4.933-3.871-4.933C656.729,277.247,655.432,279.641,655.432,282.306Z" transform="translate(-22.372 -14)"/>
      <path d="M666.88,288.3V276.166h1.711l3.889,6.14a34.343,34.343,0,0,1,2.179,3.943l.036-.018c-.144-1.62-.18-3.1-.18-4.987v-5.078h1.477V288.3h-1.585l-3.853-6.158a38.489,38.489,0,0,1-2.27-4.051l-.054.018c.09,1.53.126,2.989.126,5.005V288.3Z" transform="translate(-22.372 -14)"/>
      <path d="M685.008,282.612H680.29v4.375h5.258V288.3h-6.824V276.166h6.555v1.314H680.29v3.835h4.718Z" transform="translate(-22.372 -14)"/>
      <path d="M690.837,288.3v-.972l1.242-1.207c2.988-2.845,4.339-4.357,4.357-6.122a2.088,2.088,0,0,0-2.323-2.287,3.986,3.986,0,0,0-2.484.99l-.5-1.117a5.133,5.133,0,0,1,3.313-1.188,3.293,3.293,0,0,1,3.583,3.4c0,2.161-1.566,3.907-4.033,6.284l-.936.864v.036h5.257V288.3Z" transform="translate(-22.372 -14)"/>
      <path d="M704.968,288.3v-3.187H699.53V284.07l5.221-7.472h1.711v7.274H708.1v1.242h-1.639V288.3Zm0-4.429v-3.907q0-.918.054-1.836h-.054c-.36.684-.648,1.188-.973,1.729l-2.863,3.979v.036Z" transform="translate(-22.372 -14)"/>
      <path d="M712.742,278.075h-.036l-2.034,1.1-.306-1.206,2.557-1.369h1.35v11.7h-1.53Z" transform="translate(-22.372 -14)"/>
      <path d="M721.976,278.075h-.036l-2.034,1.1-.307-1.206,2.558-1.369h1.35v11.7h-1.53Z" transform="translate(-22.372 -14)"/>
      <path d="M740.624,287.906a7.776,7.776,0,0,1-3.205.576c-3.421,0-6-2.161-6-6.14a6.039,6.039,0,0,1,6.338-6.374,6.5,6.5,0,0,1,2.881.54l-.378,1.278a5.708,5.708,0,0,0-2.449-.5c-2.845,0-4.735,1.819-4.735,5.006,0,2.971,1.711,4.879,4.663,4.879a6.265,6.265,0,0,0,2.557-.5Z" transform="translate(-22.372 -14)"/>
      <path d="M615.094,297.928a16.311,16.311,0,0,1,3.007-.252,4.966,4.966,0,0,1,3.512.99,3.027,3.027,0,0,1,.954,2.305,3.187,3.187,0,0,1-2.287,3.1v.054a3.025,3.025,0,0,1,1.783,2.449A19.313,19.313,0,0,0,623,309.9h-1.62a15.776,15.776,0,0,1-.811-2.9c-.359-1.674-1.008-2.3-2.431-2.358H616.66V309.9h-1.566Zm1.566,5.528h1.6c1.675,0,2.737-.918,2.737-2.3,0-1.566-1.135-2.251-2.791-2.269a6.471,6.471,0,0,0-1.549.144Z" transform="translate(-22.372 -14)"/>
      <path d="M634.068,309.362a11.312,11.312,0,0,1-3.728.666,5.7,5.7,0,0,1-6.229-6.122c.018-3.619,2.5-6.266,6.571-6.266a7.506,7.506,0,0,1,3.025.558l-.378,1.278a6.293,6.293,0,0,0-2.683-.522,4.539,4.539,0,0,0-4.88,4.879c0,3.079,1.854,4.9,4.682,4.9a5.1,5.1,0,0,0,2.089-.324v-3.619h-2.467v-1.26h4Z" transform="translate(-22.372 -14)"/>
      <path d="M636.459,297.928a15.186,15.186,0,0,1,2.863-.252,5.016,5.016,0,0,1,3.331.882,2.545,2.545,0,0,1,1.008,2.143,2.881,2.881,0,0,1-2.053,2.665v.036a3.128,3.128,0,0,1,2.5,3.043,3.272,3.272,0,0,1-1.026,2.431c-.846.774-2.215,1.134-4.2,1.134a18.3,18.3,0,0,1-2.431-.144Zm1.566,4.97h1.423c1.656,0,2.629-.864,2.629-2.035,0-1.422-1.08-1.98-2.665-1.98a6.715,6.715,0,0,0-1.387.108Zm0,5.815a8.412,8.412,0,0,0,1.314.072c1.621,0,3.115-.595,3.115-2.359,0-1.656-1.423-2.341-3.133-2.341h-1.3Z" transform="translate(-22.372 -14)"/>
      <path d="M649.473,309.9v-.973l1.242-1.206c2.989-2.845,4.339-4.357,4.357-6.122a2.088,2.088,0,0,0-2.323-2.287,3.984,3.984,0,0,0-2.484.991l-.5-1.117A5.133,5.133,0,0,1,653.073,298a3.293,3.293,0,0,1,3.583,3.4c0,2.161-1.566,3.907-4.033,6.284l-.937.864v.036h5.258V309.9Z" transform="translate(-22.372 -14)"/>
      <path d="M658.562,306.932a3.345,3.345,0,0,1,2.323-3.134l-.019-.054a2.9,2.9,0,0,1-1.854-2.629c0-1.854,1.566-3.115,3.619-3.115,2.269,0,3.4,1.422,3.4,2.881a2.973,2.973,0,0,1-1.927,2.736v.054a3.245,3.245,0,0,1,2.358,3.025c0,2.034-1.746,3.4-3.979,3.4C660.038,310.1,658.562,308.642,658.562,306.932Zm6.3-.072c0-1.423-.99-2.106-2.574-2.557a2.542,2.542,0,0,0-2.106,2.412,2.164,2.164,0,0,0,2.34,2.233A2.118,2.118,0,0,0,664.863,306.859Zm-4.357-5.852c0,1.17.883,1.8,2.233,2.16a2.306,2.306,0,0,0,1.782-2.125,1.819,1.819,0,0,0-1.98-1.908A1.862,1.862,0,0,0,660.506,301.008Z" transform="translate(-22.372 -14)"/>
      <path d="M678.435,299.314a5.737,5.737,0,0,0-1.188.072,4.757,4.757,0,0,0-4.069,4.159h.055a3.567,3.567,0,0,1,6.355,2.431A3.914,3.914,0,0,1,675.7,310.1c-2.5,0-4.142-1.945-4.142-4.988a7.358,7.358,0,0,1,1.98-5.275,6.374,6.374,0,0,1,3.745-1.729,7.568,7.568,0,0,1,1.152-.09Zm-.45,6.753a2.379,2.379,0,0,0-2.413-2.684,2.609,2.609,0,0,0-2.269,1.44,1.356,1.356,0,0,0-.18.7c.036,1.927.918,3.35,2.575,3.35C677.066,308.876,677.984,307.741,677.984,306.067Z" transform="translate(-22.372 -14)"/>
      <path d="M687.668,299.314a5.737,5.737,0,0,0-1.188.072,4.757,4.757,0,0,0-4.069,4.159h.055a3.567,3.567,0,0,1,6.355,2.431,3.914,3.914,0,0,1-3.89,4.124c-2.5,0-4.141-1.945-4.141-4.988a7.358,7.358,0,0,1,1.98-5.275,6.374,6.374,0,0,1,3.745-1.729,7.568,7.568,0,0,1,1.152-.09Zm-.45,6.753a2.379,2.379,0,0,0-2.413-2.684,2.609,2.609,0,0,0-2.269,1.44,1.356,1.356,0,0,0-.18.7c.036,1.927.918,3.35,2.574,3.35C686.3,308.876,687.218,307.741,687.218,306.067Z" transform="translate(-22.372 -14)"/>
      <path d="M694.415,308.084a5.3,5.3,0,0,0,2.593.737c2.034,0,2.665-1.3,2.646-2.269-.018-1.638-1.494-2.341-3.024-2.341h-.883v-1.187h.883c1.152,0,2.61-.595,2.61-1.981,0-.936-.594-1.764-2.053-1.764a4.306,4.306,0,0,0-2.341.773l-.414-1.152a5.565,5.565,0,0,1,3.062-.9c2.3,0,3.349,1.369,3.349,2.791a2.9,2.9,0,0,1-2.16,2.755v.036a3.048,3.048,0,0,1,2.61,3.007c0,1.873-1.458,3.512-4.268,3.512a5.95,5.95,0,0,1-3.043-.793Z" transform="translate(-22.372 -14)"/>
      <path d="M703.271,309.9v-.973l1.242-1.206c2.988-2.845,4.339-4.357,4.357-6.122a2.088,2.088,0,0,0-2.323-2.287,3.986,3.986,0,0,0-2.484.991l-.5-1.117A5.133,5.133,0,0,1,706.871,298a3.293,3.293,0,0,1,3.583,3.4c0,2.161-1.566,3.907-4.033,6.284l-.936.864v.036h5.257V309.9Z" transform="translate(-22.372 -14)"/>
      <path d="M616.66,319.366v5.078h5.87v-5.078h1.584V331.5H622.53v-5.689h-5.87V331.5h-1.566V319.366Z" transform="translate(-22.372 -14)"/>
      <path d="M633.114,325.813H628.4v4.375h5.258V331.5H626.83V319.366h6.554v1.314H628.4v3.835h4.718Z" transform="translate(-22.372 -14)"/>
      <path d="M642.33,331.5l-1.549-2.683c-.63-1.026-1.026-1.692-1.4-2.395h-.036c-.342.7-.685,1.351-1.314,2.412l-1.458,2.665h-1.8l3.709-6.14-3.565-6h1.819l1.6,2.845c.449.793.792,1.405,1.116,2.053h.054c.342-.72.648-1.278,1.1-2.053l1.656-2.845h1.8l-3.691,5.906,3.781,6.229Z" transform="translate(-22.372 -14)"/>
      <path d="M644.578,332.223l5.023-13.054h1.224l-5.041,13.054Z" transform="translate(-22.372 -14)"/>
      <path d="M653.7,319.366v5.078h5.87v-5.078h1.584V331.5h-1.584v-5.689H653.7V331.5h-1.566V319.366Z" transform="translate(-22.372 -14)"/>
      <path d="M666.179,320.7h-3.69v-1.333h8.984V320.7h-3.709v10.8h-1.585Z" transform="translate(-22.372 -14)"/>
      <path d="M683.048,326.173c-.09-1.692-.2-3.728-.181-5.24h-.054c-.414,1.423-.918,2.936-1.53,4.609l-2.143,5.888h-1.188l-1.963-5.779c-.576-1.711-1.062-3.277-1.4-4.718h-.036c-.036,1.513-.126,3.548-.233,5.366l-.324,5.2h-1.5l.847-12.136h2l2.071,5.87c.5,1.494.918,2.827,1.225,4.087h.054c.306-1.224.738-2.557,1.278-4.087l2.16-5.87h2l.756,12.136h-1.53Z" transform="translate(-22.372 -14)"/>
      <path d="M687.292,319.366h1.566v10.821h5.186V331.5h-6.752Z" transform="translate(-22.372 -14)"/>
      <path d="M702.484,321.275h-.036l-2.034,1.1-.306-1.206,2.557-1.368h1.35v11.7h-1.53Z" transform="translate(-22.372 -14)"/>
      <path d="M717.317,331.106a7.776,7.776,0,0,1-3.205.576c-3.421,0-6-2.161-6-6.141a6.038,6.038,0,0,1,6.338-6.373,6.494,6.494,0,0,1,2.881.54l-.378,1.278a5.708,5.708,0,0,0-2.449-.5c-2.845,0-4.735,1.819-4.735,5.006,0,2.971,1.711,4.88,4.663,4.88a6.256,6.256,0,0,0,2.557-.5Z" transform="translate(-22.372 -14)"/>
      <path d="M723.616,331.5v-3.187h-5.437v-1.045L723.4,319.8h1.711v7.274h1.639v1.242H725.11V331.5Zm0-4.429v-3.907q0-.918.054-1.837h-.054c-.36.685-.648,1.188-.973,1.729l-2.863,3.979v.036Z" transform="translate(-22.372 -14)"/>
      <path d="M727.952,331.5v-.972l1.242-1.207c2.988-2.845,4.339-4.357,4.357-6.121a2.088,2.088,0,0,0-2.323-2.287,3.986,3.986,0,0,0-2.484.99l-.5-1.116a5.13,5.13,0,0,1,3.313-1.188,3.293,3.293,0,0,1,3.583,3.4c0,2.16-1.566,3.907-4.033,6.283l-.936.864v.036h5.257V331.5Z" transform="translate(-22.372 -14)"/>
      <path d="M737.186,331.5v-.972l1.242-1.207c2.989-2.845,4.339-4.357,4.357-6.121a2.088,2.088,0,0,0-2.323-2.287,3.983,3.983,0,0,0-2.484.99l-.5-1.116a5.13,5.13,0,0,1,3.313-1.188,3.293,3.293,0,0,1,3.583,3.4c0,2.16-1.566,3.907-4.033,6.283l-.937.864v.036h5.258V331.5Z" transform="translate(-22.372 -14)"/>
      <path d="M754.2,325.524c0,3.979-1.477,6.176-4.069,6.176-2.287,0-3.835-2.143-3.871-6.014,0-3.925,1.692-6.086,4.069-6.086C752.793,319.6,754.2,321.8,754.2,325.524Zm-6.356.18c0,3.043.937,4.771,2.377,4.771,1.62,0,2.395-1.891,2.395-4.879,0-2.881-.738-4.771-2.377-4.771C748.85,320.825,747.841,322.518,747.841,325.7Z" transform="translate(-22.372 -14)"/>
      <path d="M623.574,352.706a7.776,7.776,0,0,1-3.205.576c-3.421,0-6-2.16-6-6.14a6.039,6.039,0,0,1,6.338-6.374,6.512,6.512,0,0,1,2.881.54l-.378,1.278a5.709,5.709,0,0,0-2.449-.5c-2.845,0-4.735,1.818-4.735,5.006,0,2.971,1.711,4.879,4.663,4.879a6.276,6.276,0,0,0,2.557-.5Z" transform="translate(-22.372 -14)"/>
      <path d="M635.761,347.772c-.09-1.692-.2-3.727-.181-5.239h-.054c-.414,1.422-.918,2.935-1.53,4.609l-2.143,5.888h-1.188l-1.963-5.779c-.576-1.711-1.062-3.277-1.4-4.718h-.036c-.036,1.513-.126,3.547-.233,5.365l-.324,5.2h-1.5l.847-12.136h2l2.071,5.869c.5,1.5.918,2.827,1.225,4.088h.054c.306-1.225.738-2.557,1.278-4.088l2.16-5.869h2L637.6,353.1h-1.53Z" transform="translate(-22.372 -14)"/>
      <path d="M642.706,353.1v-5.149l-3.835-6.986h1.782l1.711,3.349c.468.919.828,1.656,1.206,2.5h.036c.342-.792.756-1.584,1.225-2.5l1.746-3.349h1.782l-4.069,6.968V353.1Z" transform="translate(-22.372 -14)"/>
      <path d="M649.616,340.967h1.566v5.852h.055c.324-.468.647-.9.954-1.3l3.709-4.556h1.944l-4.394,5.149,4.735,6.986h-1.854l-4-5.96-1.152,1.332V353.1h-1.566Z" transform="translate(-22.372 -14)"/>
      <path d="M670.228,341.4v1.045l-5.1,10.659h-1.638l5.077-10.354v-.036h-5.726V341.4Z" transform="translate(-22.372 -14)"/>
      <path d="M671.863,353.1v-.973l1.242-1.206c2.989-2.845,4.339-4.357,4.357-6.122a2.088,2.088,0,0,0-2.323-2.287,3.984,3.984,0,0,0-2.484.991l-.5-1.117a5.135,5.135,0,0,1,3.313-1.187,3.293,3.293,0,0,1,3.583,3.4c0,2.161-1.566,3.907-4.033,6.284l-.937.864v.036h5.258V353.1Z" transform="translate(-22.372 -14)"/>
      <path d="M684.912,353.1v-.973l1.242-1.206c2.989-2.845,4.339-4.357,4.357-6.122a2.088,2.088,0,0,0-2.323-2.287,3.984,3.984,0,0,0-2.484.991l-.5-1.117a5.135,5.135,0,0,1,3.313-1.187,3.293,3.293,0,0,1,3.583,3.4c0,2.161-1.566,3.907-4.033,6.284l-.937.864v.036h5.258V353.1Z" transform="translate(-22.372 -14)"/>
      <path d="M701.4,342.875h-.036l-2.034,1.1-.307-1.206,2.558-1.369h1.35v11.7H701.4Z" transform="translate(-22.372 -14)"/>
      <path d="M714.973,347.124c0,3.979-1.477,6.177-4.069,6.177-2.287,0-3.835-2.144-3.871-6.015,0-3.925,1.692-6.085,4.069-6.085C713.568,341.2,714.973,343.4,714.973,347.124Zm-6.356.181c0,3.043.937,4.771,2.377,4.771,1.62,0,2.395-1.891,2.395-4.88,0-2.881-.738-4.771-2.377-4.771C709.625,342.425,708.616,344.117,708.616,347.3Z" transform="translate(-22.372 -14)"/>
      <path d="M724.206,347.124c0,3.979-1.477,6.177-4.069,6.177-2.287,0-3.835-2.144-3.871-6.015,0-3.925,1.692-6.085,4.069-6.085C722.8,341.2,724.206,343.4,724.206,347.124Zm-6.356.181c0,3.043.937,4.771,2.377,4.771,1.62,0,2.395-1.891,2.395-4.88,0-2.881-.738-4.771-2.377-4.771C718.858,342.425,717.85,344.117,717.85,347.3Z" transform="translate(-22.372 -14)"/>
      <path d="M737.074,341.4v1.045L731.979,353.1h-1.639l5.077-10.354v-.036h-5.726V341.4Z" transform="translate(-22.372 -14)"/>
      <path d="M745.39,342.515a5.737,5.737,0,0,0-1.188.072,4.757,4.757,0,0,0-4.069,4.159h.055a3.567,3.567,0,0,1,6.355,2.431,3.914,3.914,0,0,1-3.889,4.124c-2.5,0-4.142-1.945-4.142-4.988a7.358,7.358,0,0,1,1.98-5.275,6.377,6.377,0,0,1,3.745-1.729,7.568,7.568,0,0,1,1.152-.09Zm-.45,6.753a2.379,2.379,0,0,0-2.413-2.684,2.609,2.609,0,0,0-2.269,1.44,1.356,1.356,0,0,0-.18.7c.036,1.927.918,3.35,2.575,3.35C744.021,352.076,744.939,350.941,744.939,349.268Z" transform="translate(-22.372 -14)"/>
    </g>
    <g>
      <path d="M903.935,276.31a18.176,18.176,0,0,1,3.007-.234,4.985,4.985,0,0,1,3.4,1.008,3.263,3.263,0,0,1,1.063,2.539,3.571,3.571,0,0,1-.937,2.593,5.028,5.028,0,0,1-3.709,1.333,5.408,5.408,0,0,1-1.261-.108V288.3h-1.566Zm1.566,5.852a5.269,5.269,0,0,0,1.3.126c1.891,0,3.043-.918,3.043-2.593,0-1.6-1.135-2.377-2.863-2.377a6.6,6.6,0,0,0-1.477.126Z" transform="translate(-22.372 -14)"/>
      <path d="M913.962,284.484,912.7,288.3h-1.62l4.123-12.136h1.891l4.142,12.136h-1.675l-1.3-3.817Zm3.979-1.224-1.188-3.493c-.271-.792-.45-1.512-.631-2.214h-.035c-.181.72-.379,1.458-.612,2.2l-1.188,3.511Z" transform="translate(-22.372 -14)"/>
      <path d="M923.015,288.3V276.166h1.711l3.889,6.14a34.343,34.343,0,0,1,2.179,3.943l.036-.018c-.144-1.62-.18-3.1-.18-4.987v-5.078h1.477V288.3h-1.585l-3.853-6.158a38.489,38.489,0,0,1-2.27-4.051l-.054.018c.09,1.53.126,2.989.126,5.005V288.3Z" transform="translate(-22.372 -14)"/>
      <path d="M937.163,277.5h-3.69v-1.333h8.984V277.5h-3.709v10.8h-1.585Z" transform="translate(-22.372 -14)"/>
      <path d="M953.689,282.108c0,4.177-2.538,6.392-5.636,6.392-3.205,0-5.455-2.485-5.455-6.158,0-3.853,2.395-6.374,5.636-6.374C951.547,275.968,953.689,278.507,953.689,282.108Zm-9.417.2c0,2.593,1.405,4.916,3.871,4.916,2.485,0,3.89-2.287,3.89-5.042,0-2.413-1.261-4.933-3.871-4.933C945.569,277.247,944.272,279.641,944.272,282.306Z" transform="translate(-22.372 -14)"/>
      <path d="M955.721,288.3V276.166h1.711l3.889,6.14a34.343,34.343,0,0,1,2.179,3.943l.036-.018c-.144-1.62-.18-3.1-.18-4.987v-5.078h1.477V288.3h-1.585l-3.854-6.158a38.652,38.652,0,0,1-2.269-4.051l-.054.018c.09,1.53.126,2.989.126,5.005V288.3Z" transform="translate(-22.372 -14)"/>
      <path d="M973.849,282.612h-4.718v4.375h5.258V288.3h-6.824V276.166h6.554v1.314h-4.987v3.835h4.718Z" transform="translate(-22.372 -14)"/>
      <path d="M988.716,287.906a7.776,7.776,0,0,1-3.205.576c-3.421,0-6-2.161-6-6.14a6.039,6.039,0,0,1,6.338-6.374,6.5,6.5,0,0,1,2.881.54l-.378,1.278a5.708,5.708,0,0,0-2.449-.5c-2.845,0-4.735,1.819-4.735,5.006,0,2.971,1.711,4.879,4.663,4.879a6.265,6.265,0,0,0,2.557-.5Z" transform="translate(-22.372 -14)"/>
      <path d="M998.311,283.873a4.26,4.26,0,0,1-4.34,4.627,4.143,4.143,0,0,1-4.177-4.483c0-2.917,1.908-4.627,4.321-4.627C996.617,279.389,998.311,281.208,998.311,283.873Zm-6.914.09c0,1.909,1.1,3.349,2.646,3.349,1.513,0,2.646-1.422,2.646-3.385,0-1.476-.738-3.349-2.61-3.349S991.4,282.306,991.4,283.962Z" transform="translate(-22.372 -14)"/>
      <path d="M1008.192,283.873a4.26,4.26,0,0,1-4.34,4.627,4.143,4.143,0,0,1-4.177-4.483c0-2.917,1.908-4.627,4.321-4.627C1006.5,279.389,1008.192,281.208,1008.192,283.873Zm-6.914.09c0,1.909,1.1,3.349,2.646,3.349,1.513,0,2.646-1.422,2.646-3.385,0-1.476-.738-3.349-2.61-3.349S1001.278,282.306,1001.278,283.962Z" transform="translate(-22.372 -14)"/>
      <path d="M1010.188,275.518h1.584V288.3h-1.584Z" transform="translate(-22.372 -14)"/>
      <path d="M1027.542,287.762a11.312,11.312,0,0,1-3.728.666,5.7,5.7,0,0,1-6.229-6.122c.018-3.619,2.5-6.266,6.571-6.266a7.506,7.506,0,0,1,3.025.558l-.378,1.278a6.293,6.293,0,0,0-2.683-.522,4.539,4.539,0,0,0-4.88,4.879c0,3.079,1.854,4.9,4.682,4.9a5.1,5.1,0,0,0,2.088-.324v-3.619h-2.466v-1.261h4Z" transform="translate(-22.372 -14)"/>
      <path d="M1029.879,282.306c0-1.026-.019-1.909-.072-2.719h1.387l.054,1.711h.072a2.615,2.615,0,0,1,2.413-1.909,1.713,1.713,0,0,1,.45.054v1.494a2.378,2.378,0,0,0-.541-.054,2.222,2.222,0,0,0-2.124,2.034,4.449,4.449,0,0,0-.072.738V288.3h-1.566Z" transform="translate(-22.372 -14)"/>
      <path d="M1040.5,288.3l-.126-1.1h-.054a3.247,3.247,0,0,1-2.665,1.3,2.483,2.483,0,0,1-2.665-2.5c0-2.106,1.873-3.259,5.24-3.241v-.18a1.8,1.8,0,0,0-1.981-2.017,4.345,4.345,0,0,0-2.269.648l-.359-1.044a5.41,5.41,0,0,1,2.862-.774c2.665,0,3.313,1.818,3.313,3.565v3.259a12.339,12.339,0,0,0,.144,2.089Zm-.233-4.447c-1.729-.036-3.691.27-3.691,1.962a1.4,1.4,0,0,0,1.494,1.513,2.167,2.167,0,0,0,2.106-1.458,1.636,1.636,0,0,0,.091-.5Z" transform="translate(-22.372 -14)"/>
      <path d="M1044.782,279.587l1.908,5.15c.2.576.414,1.26.559,1.782h.036c.162-.522.342-1.188.558-1.818l1.729-5.114h1.675l-2.377,6.212c-1.134,2.989-1.908,4.52-2.988,5.456a4.291,4.291,0,0,1-1.945,1.026l-.4-1.332a4.2,4.2,0,0,0,1.386-.774,4.8,4.8,0,0,0,1.333-1.765,1.132,1.132,0,0,0,.126-.378,1.373,1.373,0,0,0-.108-.414l-3.223-8.031Z" transform="translate(-22.372 -14)"/>
      <path d="M1059.434,278.075h-.036l-2.034,1.1-.306-1.206,2.557-1.369h1.35v11.7h-1.53Z" transform="translate(-22.372 -14)"/>
      <path d="M1073.007,282.324c0,3.979-1.477,6.176-4.069,6.176-2.287,0-3.835-2.143-3.871-6.014,0-3.925,1.692-6.085,4.069-6.085C1071.6,276.4,1073.007,278.6,1073.007,282.324Zm-6.356.18c0,3.043.937,4.771,2.377,4.771,1.62,0,2.395-1.891,2.395-4.879,0-2.881-.738-4.771-2.377-4.771C1067.659,277.625,1066.65,279.317,1066.65,282.5Z" transform="translate(-22.372 -14)"/>
      <path d="M1087.315,287.906a7.776,7.776,0,0,1-3.205.576c-3.421,0-6-2.161-6-6.14a6.039,6.039,0,0,1,6.338-6.374,6.5,6.5,0,0,1,2.881.54l-.378,1.278a5.708,5.708,0,0,0-2.449-.5c-2.845,0-4.735,1.819-4.735,5.006,0,2.971,1.711,4.879,4.663,4.879a6.265,6.265,0,0,0,2.557-.5Z" transform="translate(-22.372 -14)"/>
      <path d="M903.935,297.928a16.319,16.319,0,0,1,3.007-.252,4.966,4.966,0,0,1,3.512.99,3.023,3.023,0,0,1,.954,2.305,3.187,3.187,0,0,1-2.287,3.1v.054a3.025,3.025,0,0,1,1.783,2.449,19.313,19.313,0,0,0,.936,3.331h-1.62a15.776,15.776,0,0,1-.811-2.9c-.36-1.674-1.008-2.3-2.431-2.358H905.5V309.9h-1.566Zm1.566,5.528h1.6c1.675,0,2.737-.918,2.737-2.3,0-1.566-1.135-2.251-2.791-2.269a6.471,6.471,0,0,0-1.549.144Z" transform="translate(-22.372 -14)"/>
      <path d="M922.909,309.362a11.312,11.312,0,0,1-3.728.666,5.7,5.7,0,0,1-6.229-6.122c.018-3.619,2.5-6.266,6.571-6.266a7.506,7.506,0,0,1,3.025.558l-.378,1.278a6.293,6.293,0,0,0-2.683-.522,4.539,4.539,0,0,0-4.88,4.879c0,3.079,1.854,4.9,4.682,4.9a5.09,5.09,0,0,0,2.088-.324v-3.619h-2.466v-1.26h4Z" transform="translate(-22.372 -14)"/>
      <path d="M925.3,297.928a15.186,15.186,0,0,1,2.863-.252,5.016,5.016,0,0,1,3.331.882A2.545,2.545,0,0,1,932.5,300.7a2.881,2.881,0,0,1-2.053,2.665v.036a3.128,3.128,0,0,1,2.5,3.043,3.272,3.272,0,0,1-1.026,2.431c-.846.774-2.215,1.134-4.2,1.134a18.3,18.3,0,0,1-2.431-.144Zm1.566,4.97h1.423c1.656,0,2.629-.864,2.629-2.035,0-1.422-1.081-1.98-2.665-1.98a6.708,6.708,0,0,0-1.387.108Zm0,5.815a8.412,8.412,0,0,0,1.314.072c1.621,0,3.115-.595,3.115-2.359,0-1.656-1.423-2.341-3.133-2.341h-1.3Z" transform="translate(-22.372 -14)"/>
      <path d="M939.231,308.786a6.635,6.635,0,0,0,1.278-.055,4.42,4.42,0,0,0,2.449-1.134,5.138,5.138,0,0,0,1.548-3.115h-.054a3.437,3.437,0,0,1-2.755,1.261,3.39,3.39,0,0,1-3.457-3.583,4.013,4.013,0,0,1,4-4.16c2.395,0,3.871,1.945,3.871,4.933a7.4,7.4,0,0,1-2.017,5.492,5.857,5.857,0,0,1-3.4,1.566,7.346,7.346,0,0,1-1.458.09Zm.576-6.734a2.251,2.251,0,0,0,2.251,2.484,2.62,2.62,0,0,0,2.3-1.224,1.049,1.049,0,0,0,.144-.576c0-2-.738-3.529-2.395-3.529C940.762,299.207,939.808,300.4,939.808,302.052Z" transform="translate(-22.372 -14)"/>
      <path d="M948.465,308.786a6.635,6.635,0,0,0,1.278-.055,4.42,4.42,0,0,0,2.449-1.134,5.138,5.138,0,0,0,1.548-3.115h-.054a3.437,3.437,0,0,1-2.755,1.261,3.39,3.39,0,0,1-3.457-3.583,4.013,4.013,0,0,1,4-4.16c2.395,0,3.871,1.945,3.871,4.933a7.4,7.4,0,0,1-2.017,5.492,5.857,5.857,0,0,1-3.4,1.566,7.346,7.346,0,0,1-1.458.09Zm.576-6.734a2.251,2.251,0,0,0,2.251,2.484,2.619,2.619,0,0,0,2.3-1.224,1.049,1.049,0,0,0,.144-.576c0-2-.738-3.529-2.395-3.529C950,299.207,949.041,300.4,949.041,302.052Z" transform="translate(-22.372 -14)"/>
      <path d="M964.034,299.675H964l-2.034,1.1-.307-1.206,2.558-1.369h1.35v11.7h-1.53Z" transform="translate(-22.372 -14)"/>
      <path d="M977.607,303.924c0,3.979-1.477,6.177-4.069,6.177-2.287,0-3.835-2.144-3.871-6.015,0-3.925,1.692-6.085,4.069-6.085C976.2,298,977.607,300.2,977.607,303.924Zm-6.356.181c0,3.043.937,4.771,2.377,4.771,1.62,0,2.395-1.891,2.395-4.88,0-2.881-.738-4.771-2.377-4.771C972.26,299.225,971.251,300.917,971.251,304.1Z" transform="translate(-22.372 -14)"/>
      <path d="M979.063,309.9v-.973l1.242-1.206c2.989-2.845,4.339-4.357,4.357-6.122a2.088,2.088,0,0,0-2.323-2.287,3.984,3.984,0,0,0-2.484.991l-.5-1.117A5.133,5.133,0,0,1,982.663,298a3.293,3.293,0,0,1,3.583,3.4c0,2.161-1.566,3.907-4.033,6.284l-.937.864v.036h5.258V309.9Z" transform="translate(-22.372 -14)"/>
      <path d="M995.55,299.675h-.036l-2.034,1.1-.307-1.206,2.558-1.369h1.35v11.7h-1.53Z" transform="translate(-22.372 -14)"/>
      <path d="M1009.123,303.924c0,3.979-1.477,6.177-4.069,6.177-2.287,0-3.835-2.144-3.871-6.015,0-3.925,1.692-6.085,4.069-6.085C1007.719,298,1009.123,300.2,1009.123,303.924Zm-6.356.181c0,3.043.937,4.771,2.377,4.771,1.62,0,2.395-1.891,2.395-4.88,0-2.881-.738-4.771-2.377-4.771C1003.775,299.225,1002.767,300.917,1002.767,304.1Z" transform="translate(-22.372 -14)"/>
      <path d="M1017.258,299.314a5.737,5.737,0,0,0-1.188.072,4.757,4.757,0,0,0-4.069,4.159h.055a3.567,3.567,0,0,1,6.355,2.431,3.914,3.914,0,0,1-3.89,4.124c-2.5,0-4.141-1.945-4.141-4.988a7.358,7.358,0,0,1,1.98-5.275,6.374,6.374,0,0,1,3.745-1.729,7.568,7.568,0,0,1,1.152-.09Zm-.45,6.753a2.379,2.379,0,0,0-2.413-2.684,2.609,2.609,0,0,0-2.269,1.44,1.356,1.356,0,0,0-.18.7c.036,1.927.918,3.35,2.574,3.35C1015.89,308.876,1016.808,307.741,1016.808,306.067Z" transform="translate(-22.372 -14)"/>
      <path d="M905.5,319.366v5.078h5.87v-5.078h1.584V331.5h-1.584v-5.689H905.5V331.5h-1.566V319.366Z" transform="translate(-22.372 -14)"/>
      <path d="M921.955,325.813h-4.718v4.375H922.5V331.5h-6.824V319.366h6.555v1.314h-4.988v3.835h4.718Z" transform="translate(-22.372 -14)"/>
      <path d="M931.171,331.5l-1.549-2.683c-.63-1.026-1.026-1.692-1.4-2.395h-.036c-.342.7-.685,1.351-1.314,2.412l-1.458,2.665h-1.8l3.709-6.14-3.565-6h1.819l1.6,2.845c.45.793.792,1.405,1.116,2.053h.054c.342-.72.648-1.278,1.1-2.053l1.656-2.845h1.8l-3.691,5.906,3.781,6.229Z" transform="translate(-22.372 -14)"/>
      <path d="M933.419,332.223l5.023-13.054h1.224l-5.041,13.054Z" transform="translate(-22.372 -14)"/>
      <path d="M942.545,319.366v5.078h5.87v-5.078H950V331.5h-1.584v-5.689h-5.87V331.5h-1.566V319.366Z" transform="translate(-22.372 -14)"/>
      <path d="M955.02,320.7h-3.69v-1.333h8.984V320.7H956.6v10.8H955.02Z" transform="translate(-22.372 -14)"/>
      <path d="M971.889,326.173c-.09-1.692-.2-3.728-.181-5.24h-.054c-.414,1.423-.918,2.936-1.53,4.609l-2.143,5.888h-1.188l-1.963-5.779c-.576-1.711-1.062-3.277-1.4-4.718h-.036c-.036,1.513-.126,3.548-.233,5.366l-.324,5.2h-1.5l.847-12.136h2l2.07,5.87c.5,1.494.918,2.827,1.225,4.087h.054c.306-1.224.738-2.557,1.278-4.087l2.16-5.87h2l.756,12.136h-1.53Z" transform="translate(-22.372 -14)"/>
      <path d="M976.133,319.366H977.7v10.821h5.186V331.5h-6.752Z" transform="translate(-22.372 -14)"/>
      <path d="M994.566,320.915a5.737,5.737,0,0,0-1.188.072,4.757,4.757,0,0,0-4.069,4.159h.055a3.567,3.567,0,0,1,6.355,2.431,3.913,3.913,0,0,1-3.89,4.123c-2.5,0-4.141-1.944-4.141-4.987a7.358,7.358,0,0,1,1.98-5.275,6.365,6.365,0,0,1,3.745-1.729,7.59,7.59,0,0,1,1.152-.091Zm-.45,6.752a2.378,2.378,0,0,0-2.413-2.683,2.607,2.607,0,0,0-2.269,1.44,1.353,1.353,0,0,0-.18.7c.036,1.927.918,3.349,2.574,3.349C993.2,330.476,994.116,329.342,994.116,327.667Z" transform="translate(-22.372 -14)"/>
      <path d="M997.5,329.684a5.3,5.3,0,0,0,2.593.738c2.034,0,2.665-1.3,2.646-2.269-.018-1.639-1.494-2.341-3.024-2.341h-.883v-1.188h.883c1.152,0,2.61-.594,2.61-1.98,0-.937-.594-1.765-2.053-1.765a4.3,4.3,0,0,0-2.341.774l-.414-1.152a5.564,5.564,0,0,1,3.062-.9c2.3,0,3.349,1.368,3.349,2.791a2.906,2.906,0,0,1-2.16,2.755v.036a3.048,3.048,0,0,1,2.61,3.007c0,1.872-1.458,3.511-4.268,3.511a5.951,5.951,0,0,1-3.043-.792Z" transform="translate(-22.372 -14)"/>
      <path d="M1013.033,320.915a5.737,5.737,0,0,0-1.188.072,4.757,4.757,0,0,0-4.069,4.159h.055a3.567,3.567,0,0,1,6.355,2.431,3.913,3.913,0,0,1-3.89,4.123c-2.5,0-4.141-1.944-4.141-4.987a7.358,7.358,0,0,1,1.98-5.275,6.365,6.365,0,0,1,3.745-1.729,7.59,7.59,0,0,1,1.152-.091Zm-.45,6.752a2.378,2.378,0,0,0-2.413-2.683,2.607,2.607,0,0,0-2.269,1.44,1.353,1.353,0,0,0-.18.7c.036,1.927.918,3.349,2.574,3.349C1011.665,330.476,1012.583,329.342,1012.583,327.667Z" transform="translate(-22.372 -14)"/>
      <path d="M1022.267,320.915a5.737,5.737,0,0,0-1.188.072,4.757,4.757,0,0,0-4.069,4.159h.055a3.567,3.567,0,0,1,6.355,2.431,3.913,3.913,0,0,1-3.889,4.123c-2.5,0-4.142-1.944-4.142-4.987a7.358,7.358,0,0,1,1.98-5.275,6.365,6.365,0,0,1,3.745-1.729,7.59,7.59,0,0,1,1.152-.091Zm-.45,6.752a2.378,2.378,0,0,0-2.413-2.683,2.607,2.607,0,0,0-2.269,1.44,1.353,1.353,0,0,0-.18.7c.036,1.927.918,3.349,2.575,3.349C1020.9,330.476,1021.816,329.342,1021.816,327.667Z" transform="translate(-22.372 -14)"/>
      <path d="M1031.5,320.915a5.737,5.737,0,0,0-1.188.072,4.757,4.757,0,0,0-4.069,4.159h.055a3.567,3.567,0,0,1,6.355,2.431,3.913,3.913,0,0,1-3.89,4.123c-2.5,0-4.141-1.944-4.141-4.987a7.358,7.358,0,0,1,1.98-5.275,6.365,6.365,0,0,1,3.745-1.729,7.59,7.59,0,0,1,1.152-.091Zm-.45,6.752a2.378,2.378,0,0,0-2.413-2.683,2.607,2.607,0,0,0-2.269,1.44,1.353,1.353,0,0,0-.18.7c.036,1.927.918,3.349,2.574,3.349C1030.132,330.476,1031.05,329.342,1031.05,327.667Z" transform="translate(-22.372 -14)"/>
      <path d="M1036.574,327.685l-1.261,3.817h-1.62l4.123-12.136h1.891l4.142,12.136h-1.675l-1.3-3.817Zm3.979-1.224-1.188-3.493c-.271-.792-.45-1.513-.631-2.215h-.035c-.181.721-.379,1.458-.612,2.2l-1.188,3.512Z" transform="translate(-22.372 -14)"/>
      <path d="M912.415,352.706a7.776,7.776,0,0,1-3.205.576c-3.421,0-6-2.16-6-6.14a6.039,6.039,0,0,1,6.338-6.374,6.508,6.508,0,0,1,2.881.54l-.378,1.278a5.709,5.709,0,0,0-2.449-.5c-2.845,0-4.735,1.818-4.735,5.006,0,2.971,1.711,4.879,4.663,4.879a6.273,6.273,0,0,0,2.557-.5Z" transform="translate(-22.372 -14)"/>
      <path d="M924.6,347.772c-.09-1.692-.2-3.727-.181-5.239h-.054c-.414,1.422-.918,2.935-1.53,4.609l-2.143,5.888h-1.188l-1.963-5.779c-.576-1.711-1.062-3.277-1.4-4.718H916.1c-.036,1.513-.126,3.547-.233,5.365l-.324,5.2h-1.5l.847-12.136h2l2.07,5.869c.5,1.5.918,2.827,1.225,4.088h.054c.306-1.225.738-2.557,1.278-4.088l2.16-5.869h2l.756,12.136h-1.53Z" transform="translate(-22.372 -14)"/>
      <path d="M931.547,353.1v-5.149l-3.835-6.986h1.782l1.711,3.349c.468.919.828,1.656,1.206,2.5h.036c.342-.792.756-1.584,1.224-2.5l1.747-3.349H937.2l-4.069,6.968V353.1Z" transform="translate(-22.372 -14)"/>
      <path d="M938.457,340.967h1.566v5.852h.055c.323-.468.647-.9.954-1.3l3.709-4.556h1.944l-4.394,5.149,4.736,6.986h-1.855l-4-5.96-1.152,1.332V353.1h-1.566Z" transform="translate(-22.372 -14)"/>
      <path d="M956.368,353.1v-3.187h-5.437v-1.044l5.221-7.473h1.711v7.274H959.5v1.242h-1.639V353.1Zm0-4.43v-3.907q0-.918.054-1.836h-.054c-.36.684-.648,1.188-.973,1.729l-2.863,3.979v.036Z" transform="translate(-22.372 -14)"/>
      <path d="M968.482,347.124c0,3.979-1.477,6.177-4.069,6.177-2.287,0-3.835-2.144-3.871-6.015,0-3.925,1.692-6.085,4.069-6.085C967.078,341.2,968.482,343.4,968.482,347.124Zm-6.356.181c0,3.043.937,4.771,2.377,4.771,1.62,0,2.395-1.891,2.395-4.88,0-2.881-.738-4.771-2.377-4.771C963.135,342.425,962.126,344.117,962.126,347.3Z" transform="translate(-22.372 -14)"/>
      <path d="M974.131,351.284a5.3,5.3,0,0,0,2.593.737c2.034,0,2.665-1.3,2.646-2.269-.018-1.638-1.494-2.341-3.024-2.341h-.883v-1.187h.883c1.152,0,2.61-.595,2.61-1.981,0-.936-.594-1.764-2.053-1.764a4.309,4.309,0,0,0-2.341.773l-.414-1.152a5.565,5.565,0,0,1,3.062-.9c2.3,0,3.349,1.368,3.349,2.79a2.9,2.9,0,0,1-2.16,2.755v.036a3.048,3.048,0,0,1,2.61,3.007c0,1.873-1.458,3.512-4.268,3.512a5.95,5.95,0,0,1-3.043-.793Z" transform="translate(-22.372 -14)"/>
      <path d="M990.765,347.124c0,3.979-1.477,6.177-4.069,6.177-2.287,0-3.835-2.144-3.871-6.015,0-3.925,1.692-6.085,4.069-6.085C989.36,341.2,990.765,343.4,990.765,347.124Zm-6.356.181c0,3.043.937,4.771,2.377,4.771,1.62,0,2.395-1.891,2.395-4.88,0-2.881-.738-4.771-2.377-4.771C985.417,342.425,984.408,344.117,984.408,347.3Z" transform="translate(-22.372 -14)"/>
      <path d="M996.035,353.1v-.973l1.242-1.206c2.989-2.845,4.339-4.357,4.357-6.122a2.088,2.088,0,0,0-2.323-2.287,3.984,3.984,0,0,0-2.484.991l-.5-1.117a5.135,5.135,0,0,1,3.313-1.187,3.293,3.293,0,0,1,3.583,3.4c0,2.161-1.566,3.907-4.033,6.284l-.937.864v.036h5.258V353.1Z" transform="translate(-22.372 -14)"/>
      <path d="M1013.047,347.124c0,3.979-1.477,6.177-4.069,6.177-2.287,0-3.835-2.144-3.871-6.015,0-3.925,1.692-6.085,4.069-6.085C1011.643,341.2,1013.047,343.4,1013.047,347.124Zm-6.356.181c0,3.043.937,4.771,2.377,4.771,1.62,0,2.395-1.891,2.395-4.88,0-2.881-.738-4.771-2.377-4.771C1007.7,342.425,1006.69,344.117,1006.69,347.3Z" transform="translate(-22.372 -14)"/>
      <path d="M1025,342.515a5.737,5.737,0,0,0-1.188.072,4.757,4.757,0,0,0-4.069,4.159h.055a3.567,3.567,0,0,1,6.355,2.431,3.914,3.914,0,0,1-3.889,4.124c-2.5,0-4.142-1.945-4.142-4.988a7.358,7.358,0,0,1,1.98-5.275,6.377,6.377,0,0,1,3.745-1.729,7.568,7.568,0,0,1,1.152-.09Zm-.45,6.753a2.379,2.379,0,0,0-2.413-2.684,2.609,2.609,0,0,0-2.269,1.44,1.356,1.356,0,0,0-.18.7c.036,1.927.918,3.35,2.575,3.35C1023.629,352.076,1024.547,350.941,1024.547,349.268Z" transform="translate(-22.372 -14)"/>
      <path d="M1034.23,342.515a5.737,5.737,0,0,0-1.188.072,4.757,4.757,0,0,0-4.069,4.159h.055a3.567,3.567,0,0,1,6.355,2.431,3.914,3.914,0,0,1-3.89,4.124c-2.5,0-4.141-1.945-4.141-4.988a7.358,7.358,0,0,1,1.98-5.275,6.377,6.377,0,0,1,3.745-1.729,7.568,7.568,0,0,1,1.152-.09Zm-.45,6.753a2.379,2.379,0,0,0-2.413-2.684,2.609,2.609,0,0,0-2.269,1.44,1.356,1.356,0,0,0-.18.7c.036,1.927.918,3.35,2.574,3.35C1032.862,352.076,1033.78,350.941,1033.78,349.268Z" transform="translate(-22.372 -14)"/>
    </g>
  </g>
</svg>
