<svg id="Layer_1" data-name="Layer 1" xmlns="http://www.w3.org/2000/svg" viewBox="0 0 436.442 112.459">
  <defs>
    <style>
      .cls-1 {
        fill: #824a00;
      }

      .cls-2 {
        fill: #1a1818;
      }

      .cls-3 {
        fill: #dd8f1d;
      }
    </style>
  </defs>
  <title>lg</title>
  <path class="cls-1" d="M340.461,93.785a1.557,1.557,0,0,0-1.549,1.715q1.545,12.612,13.709,12.61a36.648,36.648,0,0,0,15.357-3.754.642.642,0,0,1,.938.638l-1.309,7.734a5.52,5.52,0,0,1-3.7,4.281,41.529,41.529,0,0,1-12.646,2.255q-12.512,0-19.441-7.235T324.89,92.06q0-12.734,7.008-20.044t17.861-7.31q10.85,0,16.2,5.5t5.352,15.145q0,1.8-.161,3.645a6.346,6.346,0,0,1-1.972,4.1h0a2.032,2.032,0,0,1-1.376.546ZM350.21,74.5a10.058,10.058,0,0,0-7.31,2.863,13.173,13.173,0,0,0-3.381,6.056,1.58,1.58,0,0,0,1.549,2.018l16.978-.539.3-1.206Q358.195,74.5,350.21,74.5Z" transform="translate(-79.419 -30.941)"/>
  <path class="cls-1" d="M371.565,66.063h8.275a1.681,1.681,0,0,0,1.681-1.681V60.336a3.8,3.8,0,0,1,2.935-3.7l9.009-2.114a2.214,2.214,0,0,1,2.719,2.238l-.277,7.441a1.8,1.8,0,0,0,1.8,1.865h10.34a2.208,2.208,0,0,1,2.182,2.543l-.686,4.475a2.208,2.208,0,0,1-2.182,1.873h-9.991a1.718,1.718,0,0,0-1.718,1.677l-.564,23.643q0,3.616,1.281,5.123c.853,1.007,4.082,1.566,6.394,1.566a28.437,28.437,0,0,0,6.8-.981,1.45,1.45,0,0,1,1.816,1.689l-1.292,6.252a3.75,3.75,0,0,1-1.373,2.045c-3.5,2.342-8.407,2.857-12.122,2.692q-15.22-1.5-15.37-14.769l.6-9.495V76.848a1.9,1.9,0,0,0-1.895-1.895h-3.517a2.186,2.186,0,0,1-2.09-1.489,14.209,14.209,0,0,0-3.424-5.837A.922.922,0,0,1,371.565,66.063Z" transform="translate(-79.419 -30.941)"/>
  <path class="cls-1" d="M441.055,106.9a18.232,18.232,0,0,0,6.486-1.264,1.13,1.13,0,0,1,1.464.7,53,53,0,0,0,3.2,6.586,1.109,1.109,0,0,1-.281,1.246c-3.778,3.029-11.428,5.054-15.39,4.484q-15.22-1.5-15.37-14.769l.6-9.495v-17.5a1.938,1.938,0,0,0-1.938-1.938h-4.954a1.337,1.337,0,0,1-1.321-1.54l.957-6.229a1.323,1.323,0,0,1,1.308-1.122h3.757a1.889,1.889,0,0,0,1.889-1.889V60.1a3.508,3.508,0,0,1,2.707-3.415l8.753-2.054a2.594,2.594,0,0,1,3.185,2.622l-.238,6.4a2.316,2.316,0,0,0,2.318,2.4l14.325-.021a1.215,1.215,0,0,1,.957,1.974,22.076,22.076,0,0,0-3.61,5.629,2.067,2.067,0,0,1-1.915,1.312h-9.563a2.818,2.818,0,0,0-2.817,2.751l-.538,22.569q0,3.616,1.281,5.123T441.055,106.9Z" transform="translate(-79.419 -30.941)"/>
  <path class="cls-1" d="M476.977,64.555q11.984,0,18.01,6.782t6.029,20.044q0,13.264-6.556,20.572t-18.386,7.31q-11.834,0-17.934-6.858t-6.1-20.119q0-13.26,6.48-20.5T476.977,64.555Zm-.528,10.1q-5.425,0-7.835,3.692T466.2,91.23q0,9.195,2.412,13.489t7.987,4.3q5.575,0,7.987-3.467T487,92.889q0-9.191-2.562-13.715A8.553,8.553,0,0,0,476.449,74.653Z" transform="translate(-79.419 -30.941)"/>
  <path class="cls-1" d="M265.548,64.418c-5.089,3.144-10.075,3.037-14.93,3.39a27.238,27.238,0,0,0-11-2.11q-10.551,0-16.653,5.048t-6.1,14.468a14.863,14.863,0,0,0,8.291,13.941v.451a44.086,44.086,0,0,0-5.7,4.759,5.625,5.625,0,0,0-1.349,5.9q1.642,4.355,7.5,6.524v.6a33.185,33.185,0,0,0-7.7,6.207,6.169,6.169,0,0,0-1.457,5.429,13.281,13.281,0,0,0,5.236,7.8q5.575,4.218,15.824,4.22,15.519,0,22.456-9.043a14.887,14.887,0,0,0,3.315-9.418q0-5.2-3.241-8.063a18.22,18.22,0,0,0-7.609-3.995,82.906,82.906,0,0,0-10.7-1.883,55.467,55.467,0,0,1-8.968-1.583q-2.638-.827-2.638-2.787a4.583,4.583,0,0,1,1.659-3.014,36.089,36.089,0,0,0,6.48.6q10.547,0,16.653-5.048a16.614,16.614,0,0,0,6.1-13.488,17.57,17.57,0,0,0-.864-5.618,1.564,1.564,0,0,1,1.168-2.039,17.326,17.326,0,0,0,7.079-2.929V65.966A1.852,1.852,0,0,0,265.548,64.418Zm-33.439,55.387a4.143,4.143,0,0,1,3.235-.889q1.447.22,4.046.509a38.39,38.39,0,0,1,8.063,1.657q3.311,1.132,3.315,4.3t-3.241,5.05a16.673,16.673,0,0,1-8.438,1.883q-5.2,0-7.913-1.808a5.739,5.739,0,0,1-2.711-5.048Q228.464,122.757,232.109,119.805Zm6.6-26.979q-8.894.152-8.89-9.043,0-8.738,9.118-8.741t9.115,8.59Q248.054,92.978,238.711,92.826Z" transform="translate(-79.419 -30.941)"/>
  <path class="cls-1" d="M250.619,67.808" transform="translate(-79.419 -30.941)"/>
  <path class="cls-1" d="M369.707,66.063" transform="translate(-79.419 -30.941)"/>
  <path class="cls-2" d="M452.842,113.335" transform="translate(-79.419 -30.941)"/>
  <path class="cls-1" d="M212.979,109.373a1.447,1.447,0,0,0-1.7-1.24,20.8,20.8,0,0,1-4.032.33,2.029,2.029,0,0,1-1.808-.678,5.224,5.224,0,0,1-.454-2.638l.454-12.358q.752-10.85.753-12.81a13.052,13.052,0,0,0-4.974-10.852l-.007-.005a17.435,17.435,0,0,0-10.752-3.913h-4.239a36.1,36.1,0,0,0-18.407,5.377,2.418,2.418,0,0,0-1.085,2.708l.814,3a4.484,4.484,0,0,0,6.47,2.754q6.329-3.439,11.381-3.44,6.929,0,6.932,7.386v1.948a3.266,3.266,0,0,1-2.679,3.213L175,90.829q-11.61,2.262-11.606,13.262,0,7.086,4.672,11.3t12.811,4.371c4.759-.636,8.668-3.4,11.6-8.439h.756q1.5,7.685,8.74,8.289c1.967.344,8.653-.2,12.481-1.447,1.567-.51,2.425-2.481,1.344-3.724A11.452,11.452,0,0,1,212.979,109.373Zm-20.952-5.883q-4.972,5.277-9.344,5.274-5.878,0-5.877-6.781a3.937,3.937,0,0,1,3.465-4.22l9.847-2.215a1.747,1.747,0,0,1,2.129,1.767Z" transform="translate(-79.419 -30.941)"/>
  <g>
    <path class="cls-3" d="M211.928,123.618c-23.815.738-46.023,2.111-65.178,4.2-10.359,1.107-19.819,2.463-28.155,3.939a218.521,218.521,0,0,0-21.374,4.834,105.442,105.442,0,0,0-13.3,4.671c-1.5.629-2.613,1.2-3.364,1.572l-1.141.566,1.151-.545c.758-.362,1.879-.907,3.39-1.507a105.255,105.255,0,0,1,13.357-4.409,217.965,217.965,0,0,1,21.408-4.417c8.341-1.314,17.8-2.488,28.155-3.4,18.8-1.692,40.52-2.637,63.8-2.943A7.492,7.492,0,0,1,211.928,123.618Z" transform="translate(-79.419 -30.941)"/>
    <path class="cls-3" d="M512.551,104.782a4.167,4.167,0,0,0-4.936,3.22l-.04.189-.024.114c-.023.093-.078.3-.169.585a15.456,15.456,0,0,1-1.188,2.664,26.54,26.54,0,0,1-8.352,8.788c-4.476,3.142-10.9,5.91-18.777,7.693a93.023,93.023,0,0,1-12.81,2,136.393,136.393,0,0,1-14.546.569c-5.107-.005-10.4-.344-15.955-.774-5.6-.456-11.406-.888-17.361-1.3-11.916-.824-24.484-1.577-37.489-2.257-26.009-1.357-53.768-2.407-81.538-2.947-10.169-.2-20.337-.325-30.423-.375a8.338,8.338,0,0,1-.47,3.615c10.2.241,20.487.565,30.771.96,27.7,1.064,55.386,2.636,81.306,4.481,12.96.923,25.479,1.912,37.336,2.958q8.9.786,17.255,1.621c5.622.54,11.144.993,16.445,1.1a143.538,143.538,0,0,0,15.286-.324,100.45,100.45,0,0,0,13.819-1.9c8.641-1.794,16.08-4.76,21.629-8.494A34.678,34.678,0,0,0,513.36,115.63a23.724,23.724,0,0,0,1.9-4.078c.176-.513.294-.918.378-1.238l.119-.514.018-.082A4.167,4.167,0,0,0,512.551,104.782Z" transform="translate(-79.419 -30.941)"/>
  </g>
  <path class="cls-1" d="M141,73.439q13.313-5.473,13.313-20.611,0-10.577-7.477-16.233t-20.974-5.654l-5.149.03a4.065,4.065,0,0,0-3.76,5.5,19.433,19.433,0,0,1,.937,3.76c.2,1.336.37,2.68.539,4.024h1.049q8.934,0,12.4,2.554t3.465,8.572q0,7.275-4.83,10.84a13.049,13.049,0,0,1-8.335,2.349l-2.094-.09h0a4.232,4.232,0,0,1-4.036-4.111c-.209-6.357-.668-12.644-1.428-18.859-.192-1.572-.4-3.14-.629-4.7-.725-4.9-3.562-9.052-7.912-9.751a8.208,8.208,0,0,0-1.307-.115h0a8.484,8.484,0,0,0-1.706.178,9.353,9.353,0,0,0-8.413,9.47l.122,6.862c3.35-3.054,7.711-6.708,9.411-6.708,1.925,0-4.644,6.345-9.341,10.667-1.037,0-1.384,8.946-.054,11.171,3.347-3.05,7.7-6.693,9.395-6.693,1.943,0-4.772,6.468-9.477,10.791a17.872,17.872,0,0,0-.032,10.374c3.214-2.878,7.043-5.986,8.611-5.986,1.822,0-3.971,5.69-8.58,9.964-1.306,3.849-.806,7.343.185,10.76,3.333-3.031,7.612-6.6,9.292-6.6,1.9,0-4.488,6.194-9.171,10.51-1.658,2.292-1.268,10.195.026,10,3.317-3.01,7.526-6.5,9.189-6.5,1.888,0-4.4,6.107-9.073,10.419a12.1,12.1,0,0,0,.709,2.457c1.043,4.4,4.515,7.69,8.906,7.69h0a8.306,8.306,0,0,0,1.777-.192c4.128-.9,6.93-4.916,7.442-9.674q.223-2.068.425-4.127c.68-6.88,1.188-13.687,1.482-20.422a4.146,4.146,0,0,1,4.087-3.982h0l4.187-.051a20.763,20.763,0,0,1,8.007,1.379q7.722,3.106,7.723,10.623a11.233,11.233,0,0,1-4.742,9.758,19.139,19.139,0,0,1-11.4,3.375c-1.94,0-3.747-.038-5.443-.108q-.2,1.985-.41,3.978a17.483,17.483,0,0,1-1.625,5.778,2.509,2.509,0,0,0,2.2,3.666h.079q40.123,0,40.125-25.534Q158.694,77.453,141,73.439Z" transform="translate(-79.419 -30.941)"/>
  <path class="cls-1" d="M325.662,113.151a21.36,21.36,0,0,1-3.358-5.8,13.255,13.255,0,0,1-3.163.453q-2.413,0-2.412-3.316l.029-41.756a2.04,2.04,0,0,0-2.21-2.065c-2.036-.926-5.312-1.164-8.932-1.21a2.249,2.249,0,0,0-2.273,2.373c.489,8.653.9,33.582-.028,34.745a9.9,9.9,0,0,1-8.175,9.9,10.86,10.86,0,0,1-1.62.122c-4.52,0-5.476-2.54-6.782-7.988-.7-13.032-.812-23.875-.422-38.271a2.522,2.522,0,0,0-2.85-2.565q-.454.057-.923.129a27.492,27.492,0,0,0-8.941,3.6,1.765,1.765,0,0,0-.826,1.459l.4,27.356-.3,13.262q0,7.386,4.52,11.228t12.96,3.842c5.3-.055,9.806-2.621,13.262-8.137h1.207q1.807,7.838,8.89,8.439c2.524.434,7.9-.584,11.277-2.251A2.3,2.3,0,0,0,325.662,113.151Z" transform="translate(-79.419 -30.941)"/>
</svg>
